<svg baseProfile="full" version="1.1" xmlns="http://www.w3.org/2000/svg" xmlns:ev="http://www.w3.org/2001/xml-events" xmlns:xlink="http://www.w3.org/1999/xlink"><g fill="none" font-family="sans-serif" font-size="10" text-anchor="middle" transform="translate(0 365)"><path class="domain" d="M50.5,6V0.5H450.5V6" stroke="currentColor"/><g class="tick" opacity="1" transform="translate(50.0)"><line stroke="currentColor" y2="6"/><text dy="0.71em" fill="currentColor" y="9">0.0</text></g><g class="tick" opacity="1" transform="translate(90.0)"><line stroke="currentColor" y2="6"/><text dy="0.71em" fill="currentColor" y="9">0.1</text></g><g class="tick" opacity="1" transform="translate(130.0)"><line stroke="currentColor" y2="6"/><text dy="0.71em" fill="currentColor" y="9">0.2</text></g><g class="tick" opacity="1" transform="translate(170.0)"><line stroke="currentColor" y2="6"/><text dy="0.71em" fill="currentColor" y="9">0.3</text></g><g class="tick" opacity="1" transform="translate(210.0)"><line stroke="currentColor" y2="6"/><text dy="0.71em" fill="currentColor" y="9">0.4</text></g><g class="tick" opacity="1" transform="translate(250.0)"><line stroke="currentColor" y2="6"/><text dy="0.71em" fill="currentColor" y="9">0.5</text></g><g class="tick" opacity="1" transform="translate(290.0)"><line stroke="currentColor" y2="6"/><text dy="0.71em" fill="currentColor" y="9">0.6</text></g><g class="tick" opacity="1" transform="translate(330.0)"><line stroke="currentColor" y2="6"/><text dy="0.71em" fill="currentColor" y="9">0.7</text></g><g class="tick" opacity="1" transform="translate(370.0)"><line stroke="currentColor" y2="6"/><text dy="0.71em" fill="currentColor" y="9">0.8</text></g><g class="tick" opacity="1" transform="translate(410.0)"><line stroke="currentColor" y2="6"/><text dy="0.71em" fill="currentColor" y="9">0.9</text></g><g class="tick" opacity="1" transform="translate(450.0)"><line stroke="currentColor" y2="6"/><text dy="0.71em" fill="currentColor" y="9">1.0</text></g></g><g fill="none" font-family="sans-serif" font-size="10" text-anchor="end" transform="translate(50 0)"><path class="domain" d="M-6,365.5H0.5V20.5H-6" stroke="currentColor"/><g class="tick" opacity="1" transform="translate(0, 365.0)"><line stroke="currentColor" x2="-6"/><text dy="0.32em" fill="currentColor" x="-9">0.0</text></g><g class="tick" opacity="1" transform="translate(0, 347.75)"><line stroke="currentColor" x2="-6"/><text dy="0.32em" fill="currentColor" x="-9">0.05</text></g><g class="tick" opacity="1" transform="translate(0, 330.5)"><line stroke="currentColor" x2="-6"/><text dy="0.32em" fill="currentColor" x="-9">0.1</text></g><g class="tick" opacity="1" transform="translate(0, 313.25)"><line stroke="currentColor" x2="-6"/><text dy="0.32em" fill="currentColor" x="-9">0.15</text></g><g class="tick" opacity="1" transform="translate(0, 296.0)"><line stroke="currentColor" x2="-6"/><text dy="0.32em" fill="currentColor" x="-9">0.2</text></g><g class="tick" opacity="1" transform="translate(0, 278.75)"><line stroke="currentColor" x2="-6"/><text dy="0.32em" fill="currentColor" x="-9">0.25</text></g><g class="tick" opacity="1" transform="translate(0, 261.5)"><line stroke="currentColor" x2="-6"/><text dy="0.32em" fill="currentColor" x="-9">0.3</text></g><g class="tick" opacity="1" transform="translate(0, 244.25)"><line stroke="currentColor" x2="-6"/><text dy="0.32em" fill="currentColor" x="-9">0.35</text></g><g class="tick" opacity="1" transform="translate(0, 227.0)"><line stroke="currentColor" x2="-6"/><text dy="0.32em" fill="currentColor" x="-9">0.4</text></g><g class="tick" opacity="1" transform="translate(0, 209.75)"><line stroke="currentColor" x2="-6"/><text dy="0.32em" fill="currentColor" x="-9">0.45</text></g><g class="tick" opacity="1" transform="translate(0, 192.5)"><line stroke="currentColor" x2="-6"/><text dy="0.32em" fill="currentColor" x="-9">0.5</text></g><g class="tick" opacity="1" transform="translate(0, 175.25)"><line stroke="currentColor" x2="-6"/><text dy="0.32em" fill="currentColor" x="-9">0.55</text></g><g class="tick" opacity="1" transform="translate(0, 158.0)"><line stroke="currentColor" x2="-6"/><text dy="0.32em" fill="currentColor" x="-9">0.6</text></g><g class="tick" opacity="1" transform="translate(0, 140.75)"><line stroke="currentColor" x2="-6"/><text dy="0.32em" fill="currentColor" x="-9">0.65</text></g><g class="tick" opacity="1" transform="translate(0, 123.5)"><line stroke="currentColor" x2="-6"/><text dy="0.32em" fill="currentColor" x="-9">0.7</text></g><g class="tick" opacity="1" transform="translate(0, 106.25)"><line stroke="currentColor" x2="-6"/><text dy="0.32em" fill="currentColor" x="-9">0.75</text></g><g class="tick" opacity="1" transform="translate(0, 89.0)"><line stroke="currentColor" x2="-6"/><text dy="0.32em" fill="currentColor" x="-9">0.8</text></g><g class="tick" opacity="1" transform="translate(0, 71.75)"><line stroke="currentColor" x2="-6"/><text dy="0.32em" fill="currentColor" x="-9">0.85</text></g><g class="tick" opacity="1" transform="translate(0, 54.5)"><line stroke="currentColor" x2="-6"/><text dy="0.32em" fill="currentColor" x="-9">0.9</text></g><g class="tick" opacity="1" transform="translate(0, 37.25)"><line stroke="currentColor" x2="-6"/><text dy="0.32em" fill="currentColor" x="-9">0.95</text></g><g class="tick" opacity="1" transform="translate(0, 20.0)"><line stroke="currentColor" x2="-6"/><text dy="0.32em" fill="currentColor" x="-9">1.0</text></g></g><text font-family="sans-serif" font-size="10px" text-anchor="middle" x="250" y="395">CCF</text><text font-family="sans-serif" font-size="10px" text-anchor="middle" transform="rotate(-90 10 192.5)" x="10" y="192.5">Probability density</text><polygon fill="rgb(39,140,24)" opacity="0.5" points=" 50.0,365.0 54.0,365.0 58.0,365.0 62.0,365.0 66.0,365.0 70.0,365.0 74.0,365.0 78.0,365.0 82.0,365.0 86.0,365.0 90.0,365.0 94.0,365.0 98.0,365.0 102.0,365.0 106.0,365.0 110.0,365.0 114.0,365.0 118.0,365.0 122.0,365.0 126.0,365.0 130.0,365.0 134.0,365.0 138.0,365.0 142.0,365.0 146.0,365.0 150.0,365.0 154.0,365.0 158.0,365.0 162.0,365.0 166.0,365.0 170.0,365.0 174.0,365.0 178.0,365.0 182.0,365.0 186.0,365.0 190.0,365.0 194.0,365.0 198.0,365.0 202.0,365.0 206.0,365.0 210.0,365.0 214.0,365.0 218.0,365.0 222.0,365.0 226.0,365.0 230.0,365.0 234.0,365.0 238.0,365.0 242.0,365.0 246.0,365.0 250.0,365.0 254.0,365.0 258.0,365.0 262.0,365.0 266.0,365.0 270.0,365.0 274.0,365.0 278.0,365.0 282.0,365.0 286.0,365.0 290.0,365.0 294.0,365.0 298.0,365.0 302.0,365.0 306.0,365.0 310.0,365.0 314.0,365.0 318.0,365.0 322.0,365.0 326.0,365.0 330.0,365.0 334.0,365.0 338.0,365.0 342.0,365.0 346.0,365.0 350.0,365.0 354.0,365.0 358.0,365.0 362.0,365.0 366.0,365.0 370.0,365.0 374.0,365.0 378.0,365.0 382.0,365.0 386.0,365.0 390.0,365.0 394.0,365.0 398.0,365.0 402.0,365.0 406.0,365.0 410.0,365.0 414.0,365.0 418.0,365.0 422.0,365.0 426.0,365.0 430.0,365.0 434.0,365.0 438.0,365.0 442.0,365.0 446.0,364.999999902 450.0,20.0 450.0,365 446.0,365 442.0,365 438.0,365 434.0,365 430.0,365 426.0,365 422.0,365 418.0,365 413.99999999999994,365 409.99999999999994,365 405.99999999999994,365 401.99999999999994,365 397.99999999999994,365 393.99999999999994,365 389.99999999999994,365 385.99999999999994,365 381.99999999999994,365 377.99999999999994,365 373.99999999999994,365 369.99999999999994,365 365.99999999999994,365 361.99999999999994,365 357.99999999999994,365 353.9999999999999,365 349.9999999999999,365 345.9999999999999,365 341.9999999999999,365 337.9999999999999,365 333.9999999999999,365 329.9999999999999,365 325.9999999999999,365 321.9999999999999,365 317.9999999999999,365 313.9999999999999,365 309.9999999999999,365 305.9999999999999,365 301.9999999999999,365 297.9999999999999,365 293.9999999999999,365 289.9999999999999,365 285.9999999999999,365 281.9999999999999,365 277.9999999999999,365 273.99999999999983,365 269.99999999999983,365 265.99999999999983,365 261.99999999999983,365 257.99999999999983,365 253.99999999999983,365 249.99999999999983,365 245.99999999999983,365 241.99999999999983,365 237.9999999999998,365 233.9999999999998,365 229.9999999999998,365 225.9999999999998,365 221.9999999999998,365 217.9999999999998,365 213.9999999999998,365 209.99999999999977,365 205.99999999999977,365 201.99999999999977,365 197.99999999999977,365 193.99999999999977,365 189.99999999999977,365 185.99999999999977,365 181.99999999999977,365 177.99999999999977,365 173.99999999999977,365 169.99999999999974,365 165.99999999999974,365 161.99999999999974,365 157.99999999999974,365 153.99999999999974,365 149.99999999999972,365 145.99999999999972,365 141.99999999999972,365 137.99999999999972,365 133.99999999999972,365 129.99999999999972,365 125.99999999999972,365 121.99999999999972,365 117.9999999999997,365 113.9999999999997,365 109.9999999999997,365 105.99999999999969,365 101.99999999999969,365 97.99999999999969,365 93.99999999999969,365 89.99999999999969,365 85.99999999999967,365 81.99999999999967,365 77.99999999999967,365 73.99999999999966,365 69.99999999999966,365 65.99999999999966,365 61.99999999999966,365 57.99999999999965,365 53.999999999999645,365 49.999999999999645,365" stroke="none"/><polygon fill="rgb(103,200,243)" opacity="0.5" points=" 50.0,365.0 54.0,365.0 58.0,365.0 62.0,365.0 66.0,365.0 70.0,365.0 74.0,365.0 78.0,365.0 82.0,365.0 86.0,365.0 90.0,365.0 94.0,365.0 98.0,365.0 102.0,365.0 106.0,365.0 110.0,365.0 114.0,365.0 118.0,365.0 122.0,365.0 126.0,365.0 130.0,365.0 134.0,365.0 138.0,365.0 142.0,365.0 146.0,365.0 150.0,365.0 154.0,365.0 158.0,365.0 162.0,365.0 166.0,365.0 170.0,365.0 174.0,365.0 178.0,365.0 182.0,365.0 186.0,365.0 190.0,365.0 194.0,365.0 198.0,365.0 202.0,365.0 206.0,365.0 210.0,365.0 214.0,365.0 218.0,365.0 222.0,365.0 226.0,365.0 230.0,365.0 234.0,365.0 238.0,365.0 242.0,365.0 246.0,365.0 250.0,365.0 254.0,365.0 258.0,365.0 262.0,365.0 266.0,364.999999999 270.0,364.999999968 274.0,364.99999934 278.0,364.999989373 282.0,364.999866485 286.0,364.998683624 290.0,364.989753565 294.0,364.936674532 298.0,364.687596407 302.0,363.763524002 306.0,361.05492707 310.0,354.80715302 314.0,343.582640465 318.0,328.25435912 322.0,313.32326075 326.0,305.2160747 330.0,307.90849955 334.0,319.85103335 338.0,335.34197495 342.0,348.77054933 346.0,357.581341835 350.0,362.160052805 354.0,364.087340243 358.0,364.753218857 362.0,364.943730848 366.0,364.989159427 370.0,364.999763699 374.0,364.999967317 378.0,364.99999616 382.0,364.999999616 386.0,364.999999967 390.0,364.999999998 394.0,365.0 398.0,365.0 402.0,365.0 406.0,365.0 410.0,365.0 414.0,365.0 418.0,365.0 422.0,365.0 426.0,365.0 430.0,365.0 434.0,365.0 438.0,365.0 442.0,365.0 446.0,365.0 450.0,365.0 450.0,365 446.0,365 442.0,365 438.0,365 434.0,365 430.0,365 426.0,365 422.0,365 418.0,365 413.99999999999994,365 409.99999999999994,365 405.99999999999994,365 401.99999999999994,365 397.99999999999994,365 393.99999999999994,365 389.99999999999994,365 385.99999999999994,365 381.99999999999994,365 377.99999999999994,365 373.99999999999994,365 369.99999999999994,365 365.99999999999994,365 361.99999999999994,365 357.99999999999994,365 353.9999999999999,365 349.9999999999999,365 345.9999999999999,365 341.9999999999999,365 337.9999999999999,365 333.9999999999999,365 329.9999999999999,365 325.9999999999999,365 321.9999999999999,365 317.9999999999999,365 313.9999999999999,365 309.9999999999999,365 305.9999999999999,365 301.9999999999999,365 297.9999999999999,365 293.9999999999999,365 289.9999999999999,365 285.9999999999999,365 281.9999999999999,365 277.9999999999999,365 273.99999999999983,365 269.99999999999983,365 265.99999999999983,365 261.99999999999983,365 257.99999999999983,365 253.99999999999983,365 249.99999999999983,365 245.99999999999983,365 241.99999999999983,365 237.9999999999998,365 233.9999999999998,365 229.9999999999998,365 225.9999999999998,365 221.9999999999998,365 217.9999999999998,365 213.9999999999998,365 209.99999999999977,365 205.99999999999977,365 201.99999999999977,365 197.99999999999977,365 193.99999999999977,365 189.99999999999977,365 185.99999999999977,365 181.99999999999977,365 177.99999999999977,365 173.99999999999977,365 169.99999999999974,365 165.99999999999974,365 161.99999999999974,365 157.99999999999974,365 153.99999999999974,365 149.99999999999972,365 145.99999999999972,365 141.99999999999972,365 137.99999999999972,365 133.99999999999972,365 129.99999999999972,365 125.99999999999972,365 121.99999999999972,365 117.9999999999997,365 113.9999999999997,365 109.9999999999997,365 105.99999999999969,365 101.99999999999969,365 97.99999999999969,365 93.99999999999969,365 89.99999999999969,365 85.99999999999967,365 81.99999999999967,365 77.99999999999967,365 73.99999999999966,365 69.99999999999966,365 65.99999999999966,365 61.99999999999966,365 57.99999999999965,365 53.999999999999645,365 49.999999999999645,365" stroke="none"/><polygon fill="rgb(248,139,16)" opacity="0.5" points=" 50.0,365.0 54.0,365.0 58.0,365.0 62.0,365.0 66.0,365.0 70.0,365.0 74.0,365.0 78.0,365.0 82.0,365.0 86.0,365.0 90.0,365.0 94.0,365.0 98.0,365.0 102.0,365.0 106.0,365.0 110.0,365.0 114.0,365.0 118.0,365.0 122.0,365.0 126.0,365.0 130.0,365.0 134.0,365.0 138.0,365.0 142.0,365.0 146.0,365.0 150.0,365.0 154.0,365.0 158.0,365.0 162.0,365.0 166.0,365.0 170.0,365.0 174.0,364.999999994 178.0,364.999996999 182.0,364.999455187 186.0,364.95937829 190.0,363.69834812 194.0,346.3180223 198.0,240.26834465 202.0,270.0599261 206.0,318.514769 210.0,326.93170295 214.0,348.59351741 218.0,361.184376245 222.0,364.509853256 226.0,364.964464619 230.0,364.998516443 234.0,364.999963664 238.0,364.999999469 242.0,364.999999995 246.0,365.0 250.0,365.0 254.0,365.0 258.0,365.0 262.0,365.0 266.0,365.0 270.0,365.0 274.0,365.0 278.0,365.0 282.0,365.0 286.0,365.0 290.0,365.0 294.0,365.0 298.0,365.0 302.0,365.0 306.0,365.0 310.0,365.0 314.0,365.0 318.0,365.0 322.0,365.0 326.0,365.0 330.0,365.0 334.0,365.0 338.0,365.0 342.0,365.0 346.0,365.0 350.0,365.0 354.0,365.0 358.0,365.0 362.0,365.0 366.0,365.0 370.0,365.0 374.0,365.0 378.0,365.0 382.0,365.0 386.0,365.0 390.0,365.0 394.0,365.0 398.0,365.0 402.0,365.0 406.0,365.0 410.0,365.0 414.0,365.0 418.0,365.0 422.0,365.0 426.0,365.0 430.0,365.0 434.0,365.0 438.0,365.0 442.0,365.0 446.0,365.0 450.0,365.0 450.0,365 446.0,365 442.0,365 438.0,365 434.0,365 430.0,365 426.0,365 422.0,365 418.0,365 413.99999999999994,365 409.99999999999994,365 405.99999999999994,365 401.99999999999994,365 397.99999999999994,365 393.99999999999994,365 389.99999999999994,365 385.99999999999994,365 381.99999999999994,365 377.99999999999994,365 373.99999999999994,365 369.99999999999994,365 365.99999999999994,365 361.99999999999994,365 357.99999999999994,365 353.9999999999999,365 349.9999999999999,365 345.9999999999999,365 341.9999999999999,365 337.9999999999999,365 333.9999999999999,365 329.9999999999999,365 325.9999999999999,365 321.9999999999999,365 317.9999999999999,365 313.9999999999999,365 309.9999999999999,365 305.9999999999999,365 301.9999999999999,365 297.9999999999999,365 293.9999999999999,365 289.9999999999999,365 285.9999999999999,365 281.9999999999999,365 277.9999999999999,365 273.99999999999983,365 269.99999999999983,365 265.99999999999983,365 261.99999999999983,365 257.99999999999983,365 253.99999999999983,365 249.99999999999983,365 245.99999999999983,365 241.99999999999983,365 237.9999999999998,365 233.9999999999998,365 229.9999999999998,365 225.9999999999998,365 221.9999999999998,365 217.9999999999998,365 213.9999999999998,365 209.99999999999977,365 205.99999999999977,365 201.99999999999977,365 197.99999999999977,365 193.99999999999977,365 189.99999999999977,365 185.99999999999977,365 181.99999999999977,365 177.99999999999977,365 173.99999999999977,365 169.99999999999974,365 165.99999999999974,365 161.99999999999974,365 157.99999999999974,365 153.99999999999974,365 149.99999999999972,365 145.99999999999972,365 141.99999999999972,365 137.99999999999972,365 133.99999999999972,365 129.99999999999972,365 125.99999999999972,365 121.99999999999972,365 117.9999999999997,365 113.9999999999997,365 109.9999999999997,365 105.99999999999969,365 101.99999999999969,365 97.99999999999969,365 93.99999999999969,365 89.99999999999969,365 85.99999999999967,365 81.99999999999967,365 77.99999999999967,365 73.99999999999966,365 69.99999999999966,365 65.99999999999966,365 61.99999999999966,365 57.99999999999965,365 53.999999999999645,365 49.999999999999645,365" stroke="none"/><polygon fill="rgb(16,49,41)" opacity="0.5" points=" 50.0,365.0 54.0,365.0 58.0,365.0 62.0,365.0 66.0,365.0 70.0,365.0 74.0,365.0 78.0,365.0 82.0,365.0 86.0,365.0 90.0,365.0 94.0,365.0 98.0,365.0 102.0,365.0 106.0,365.0 110.0,365.0 114.0,365.0 118.0,365.0 122.0,365.0 126.0,365.0 130.0,365.0 134.0,365.0 138.0,365.0 142.0,365.0 146.0,365.0 150.0,365.0 154.0,365.0 158.0,365.0 162.0,365.0 166.0,365.0 170.0,365.0 174.0,365.0 178.0,365.0 182.0,365.0 186.0,365.0 190.0,365.0 194.0,365.0 198.0,365.0 202.0,365.0 206.0,365.0 210.0,365.0 214.0,365.0 218.0,365.0 222.0,365.0 226.0,365.0 230.0,364.999999999 234.0,364.999999939 238.0,364.999996598 242.0,364.999879923 246.0,364.99729887 250.0,364.960702513 254.0,364.625250788 258.0,362.627298139 262.0,354.90643919 266.0,335.82582848 270.0,307.0974149 274.0,285.3069941 278.0,288.22596665 282.0,312.77630465 286.0,339.70828805 290.0,356.21154038 294.0,362.79276452 298.0,364.997213169 302.0,364.94598177 306.0,364.994669314 310.0,364.999610063 314.0,364.999978739 318.0,364.999999132 322.0,364.999999973 326.0,364.999999999 330.0,365.0 334.0,365.0 338.0,365.0 342.0,365.0 346.0,365.0 350.0,365.0 354.0,365.0 358.0,365.0 362.0,365.0 366.0,365.0 370.0,365.0 374.0,365.0 378.0,365.0 382.0,365.0 386.0,365.0 390.0,365.0 394.0,365.0 398.0,365.0 402.0,365.0 406.0,365.0 410.0,365.0 414.0,365.0 418.0,365.0 422.0,365.0 426.0,365.0 430.0,365.0 434.0,365.0 438.0,365.0 442.0,365.0 446.0,365.0 450.0,365.0 450.0,365 446.0,365 442.0,365 438.0,365 434.0,365 430.0,365 426.0,365 422.0,365 418.0,365 413.99999999999994,365 409.99999999999994,365 405.99999999999994,365 401.99999999999994,365 397.99999999999994,365 393.99999999999994,365 389.99999999999994,365 385.99999999999994,365 381.99999999999994,365 377.99999999999994,365 373.99999999999994,365 369.99999999999994,365 365.99999999999994,365 361.99999999999994,365 357.99999999999994,365 353.9999999999999,365 349.9999999999999,365 345.9999999999999,365 341.9999999999999,365 337.9999999999999,365 333.9999999999999,365 329.9999999999999,365 325.9999999999999,365 321.9999999999999,365 317.9999999999999,365 313.9999999999999,365 309.9999999999999,365 305.9999999999999,365 301.9999999999999,365 297.9999999999999,365 293.9999999999999,365 289.9999999999999,365 285.9999999999999,365 281.9999999999999,365 277.9999999999999,365 273.99999999999983,365 269.99999999999983,365 265.99999999999983,365 261.99999999999983,365 257.99999999999983,365 253.99999999999983,365 249.99999999999983,365 245.99999999999983,365 241.99999999999983,365 237.9999999999998,365 233.9999999999998,365 229.9999999999998,365 225.9999999999998,365 221.9999999999998,365 217.9999999999998,365 213.9999999999998,365 209.99999999999977,365 205.99999999999977,365 201.99999999999977,365 197.99999999999977,365 193.99999999999977,365 189.99999999999977,365 185.99999999999977,365 181.99999999999977,365 177.99999999999977,365 173.99999999999977,365 169.99999999999974,365 165.99999999999974,365 161.99999999999974,365 157.99999999999974,365 153.99999999999974,365 149.99999999999972,365 145.99999999999972,365 141.99999999999972,365 137.99999999999972,365 133.99999999999972,365 129.99999999999972,365 125.99999999999972,365 121.99999999999972,365 117.9999999999997,365 113.9999999999997,365 109.9999999999997,365 105.99999999999969,365 101.99999999999969,365 97.99999999999969,365 93.99999999999969,365 89.99999999999969,365 85.99999999999967,365 81.99999999999967,365 77.99999999999967,365 73.99999999999966,365 69.99999999999966,365 65.99999999999966,365 61.99999999999966,365 57.99999999999965,365 53.999999999999645,365 49.999999999999645,365" stroke="none"/><polygon fill="rgb(93,119,254)" opacity="0.5" points=" 50.0,365.0 54.0,365.0 58.0,365.0 62.0,365.0 66.0,365.0 70.0,365.0 74.0,365.0 78.0,365.0 82.0,364.999885932 86.0,20.0 90.0,365.0 94.0,365.0 98.0,365.0 102.0,365.0 106.0,365.0 110.0,365.0 114.0,365.0 118.0,365.0 122.0,365.0 126.0,365.0 130.0,365.0 134.0,365.0 138.0,365.0 142.0,365.0 146.0,365.0 150.0,365.0 154.0,365.0 158.0,365.0 162.0,365.0 166.0,365.0 170.0,365.0 174.0,365.0 178.0,365.0 182.0,365.0 186.0,365.0 190.0,365.0 194.0,365.0 198.0,365.0 202.0,365.0 206.0,365.0 210.0,365.0 214.0,365.0 218.0,365.0 222.0,365.0 226.0,365.0 230.0,365.0 234.0,365.0 238.0,365.0 242.0,365.0 246.0,365.0 250.0,365.0 254.0,365.0 258.0,365.0 262.0,365.0 266.0,365.0 270.0,365.0 274.0,365.0 278.0,365.0 282.0,365.0 286.0,365.0 290.0,365.0 294.0,365.0 298.0,365.0 302.0,365.0 306.0,365.0 310.0,365.0 314.0,365.0 318.0,365.0 322.0,365.0 326.0,365.0 330.0,365.0 334.0,365.0 338.0,365.0 342.0,365.0 346.0,365.0 350.0,365.0 354.0,365.0 358.0,365.0 362.0,365.0 366.0,365.0 370.0,365.0 374.0,365.0 378.0,365.0 382.0,365.0 386.0,365.0 390.0,365.0 394.0,365.0 398.0,365.0 402.0,365.0 406.0,365.0 410.0,365.0 414.0,365.0 418.0,365.0 422.0,365.0 426.0,365.0 430.0,365.0 434.0,365.0 438.0,365.0 442.0,365.0 446.0,365.0 450.0,365.0 450.0,365 446.0,365 442.0,365 438.0,365 434.0,365 430.0,365 426.0,365 422.0,365 418.0,365 413.99999999999994,365 409.99999999999994,365 405.99999999999994,365 401.99999999999994,365 397.99999999999994,365 393.99999999999994,365 389.99999999999994,365 385.99999999999994,365 381.99999999999994,365 377.99999999999994,365 373.99999999999994,365 369.99999999999994,365 365.99999999999994,365 361.99999999999994,365 357.99999999999994,365 353.9999999999999,365 349.9999999999999,365 345.9999999999999,365 341.9999999999999,365 337.9999999999999,365 333.9999999999999,365 329.9999999999999,365 325.9999999999999,365 321.9999999999999,365 317.9999999999999,365 313.9999999999999,365 309.9999999999999,365 305.9999999999999,365 301.9999999999999,365 297.9999999999999,365 293.9999999999999,365 289.9999999999999,365 285.9999999999999,365 281.9999999999999,365 277.9999999999999,365 273.99999999999983,365 269.99999999999983,365 265.99999999999983,365 261.99999999999983,365 257.99999999999983,365 253.99999999999983,365 249.99999999999983,365 245.99999999999983,365 241.99999999999983,365 237.9999999999998,365 233.9999999999998,365 229.9999999999998,365 225.9999999999998,365 221.9999999999998,365 217.9999999999998,365 213.9999999999998,365 209.99999999999977,365 205.99999999999977,365 201.99999999999977,365 197.99999999999977,365 193.99999999999977,365 189.99999999999977,365 185.99999999999977,365 181.99999999999977,365 177.99999999999977,365 173.99999999999977,365 169.99999999999974,365 165.99999999999974,365 161.99999999999974,365 157.99999999999974,365 153.99999999999974,365 149.99999999999972,365 145.99999999999972,365 141.99999999999972,365 137.99999999999972,365 133.99999999999972,365 129.99999999999972,365 125.99999999999972,365 121.99999999999972,365 117.9999999999997,365 113.9999999999997,365 109.9999999999997,365 105.99999999999969,365 101.99999999999969,365 97.99999999999969,365 93.99999999999969,365 89.99999999999969,365 85.99999999999967,365 81.99999999999967,365 77.99999999999967,365 73.99999999999966,365 69.99999999999966,365 65.99999999999966,365 61.99999999999966,365 57.99999999999965,365 53.999999999999645,365 49.999999999999645,365" stroke="none"/><polygon fill="rgb(152,22,26)" opacity="0.5" points=" 50.0,365.0 54.0,20.0 58.0,365.0 62.0,365.0 66.0,365.0 70.0,365.0 74.0,365.0 78.0,365.0 82.0,365.0 86.0,365.0 90.0,365.0 94.0,365.0 98.0,365.0 102.0,365.0 106.0,365.0 110.0,365.0 114.0,365.0 118.0,365.0 122.0,365.0 126.0,365.0 130.0,365.0 134.0,365.0 138.0,365.0 142.0,365.0 146.0,365.0 150.0,365.0 154.0,365.0 158.0,365.0 162.0,365.0 166.0,365.0 170.0,365.0 174.0,365.0 178.0,365.0 182.0,365.0 186.0,365.0 190.0,365.0 194.0,365.0 198.0,365.0 202.0,365.0 206.0,365.0 210.0,365.0 214.0,365.0 218.0,365.0 222.0,365.0 226.0,365.0 230.0,365.0 234.0,365.0 238.0,365.0 242.0,365.0 246.0,365.0 250.0,365.0 254.0,365.0 258.0,365.0 262.0,365.0 266.0,365.0 270.0,365.0 274.0,365.0 278.0,365.0 282.0,365.0 286.0,365.0 290.0,365.0 294.0,365.0 298.0,365.0 302.0,365.0 306.0,365.0 310.0,365.0 314.0,365.0 318.0,365.0 322.0,365.0 326.0,365.0 330.0,365.0 334.0,365.0 338.0,365.0 342.0,365.0 346.0,365.0 350.0,365.0 354.0,365.0 358.0,365.0 362.0,365.0 366.0,365.0 370.0,365.0 374.0,365.0 378.0,365.0 382.0,365.0 386.0,365.0 390.0,365.0 394.0,365.0 398.0,365.0 402.0,365.0 406.0,365.0 410.0,365.0 414.0,365.0 418.0,365.0 422.0,365.0 426.0,365.0 430.0,365.0 434.0,365.0 438.0,365.0 442.0,365.0 446.0,365.0 450.0,365.0 450.0,365 446.0,365 442.0,365 438.0,365 434.0,365 430.0,365 426.0,365 422.0,365 418.0,365 413.99999999999994,365 409.99999999999994,365 405.99999999999994,365 401.99999999999994,365 397.99999999999994,365 393.99999999999994,365 389.99999999999994,365 385.99999999999994,365 381.99999999999994,365 377.99999999999994,365 373.99999999999994,365 369.99999999999994,365 365.99999999999994,365 361.99999999999994,365 357.99999999999994,365 353.9999999999999,365 349.9999999999999,365 345.9999999999999,365 341.9999999999999,365 337.9999999999999,365 333.9999999999999,365 329.9999999999999,365 325.9999999999999,365 321.9999999999999,365 317.9999999999999,365 313.9999999999999,365 309.9999999999999,365 305.9999999999999,365 301.9999999999999,365 297.9999999999999,365 293.9999999999999,365 289.9999999999999,365 285.9999999999999,365 281.9999999999999,365 277.9999999999999,365 273.99999999999983,365 269.99999999999983,365 265.99999999999983,365 261.99999999999983,365 257.99999999999983,365 253.99999999999983,365 249.99999999999983,365 245.99999999999983,365 241.99999999999983,365 237.9999999999998,365 233.9999999999998,365 229.9999999999998,365 225.9999999999998,365 221.9999999999998,365 217.9999999999998,365 213.9999999999998,365 209.99999999999977,365 205.99999999999977,365 201.99999999999977,365 197.99999999999977,365 193.99999999999977,365 189.99999999999977,365 185.99999999999977,365 181.99999999999977,365 177.99999999999977,365 173.99999999999977,365 169.99999999999974,365 165.99999999999974,365 161.99999999999974,365 157.99999999999974,365 153.99999999999974,365 149.99999999999972,365 145.99999999999972,365 141.99999999999972,365 137.99999999999972,365 133.99999999999972,365 129.99999999999972,365 125.99999999999972,365 121.99999999999972,365 117.9999999999997,365 113.9999999999997,365 109.9999999999997,365 105.99999999999969,365 101.99999999999969,365 97.99999999999969,365 93.99999999999969,365 89.99999999999969,365 85.99999999999967,365 81.99999999999967,365 77.99999999999967,365 73.99999999999966,365 69.99999999999966,365 65.99999999999966,365 61.99999999999966,365 57.99999999999965,365 53.999999999999645,365 49.999999999999645,365" stroke="none"/></svg>