<?xml version="1.0" encoding="utf-8" standalone="no"?>
<!DOCTYPE svg PUBLIC "-//W3C//DTD SVG 1.1//EN"
  "http://www.w3.org/Graphics/SVG/1.1/DTD/svg11.dtd">
<!-- Created with matplotlib (http://matplotlib.org/) -->
<svg height="72pt" version="1.1" viewBox="0 0 72 72" width="72pt" xmlns="http://www.w3.org/2000/svg" xmlns:xlink="http://www.w3.org/1999/xlink">
 <defs>
  <style type="text/css">
*{stroke-linecap:butt;stroke-linejoin:round;}
  </style>
 </defs>
 <g id="figure_1">
  <g id="patch_1">
   <path d="M 0 72 
L 72 72 
L 72 0 
L 0 0 
z
" style="fill:#ffffff;"/>
  </g>
  <g id="axes_1">
   <g id="patch_2">
    <path d="M 61.92 36 
C 61.92 32.596217 61.249529 29.225531 59.946957 26.080845 
C 58.644386 22.93616 56.735046 20.07863 54.328208 17.671792 
C 51.92137 15.264954 49.06384 13.355614 45.919155 12.053043 
C 42.774469 10.750471 39.403783 10.08 36 10.08 
C 32.596217 10.08 29.225531 10.750471 26.080845 12.053043 
C 22.93616 13.355614 20.07863 15.264954 17.671792 17.671792 
C 15.264954 20.07863 13.355614 22.93616 12.053043 26.080845 
C 10.750471 29.225531 10.08 32.596217 10.08 36 
C 10.08 39.403783 10.750471 42.774469 12.053043 45.919155 
C 13.355614 49.06384 15.264954 51.92137 17.671792 54.328208 
C 20.07863 56.735046 22.93616 58.644386 26.080845 59.946957 
C 29.225531 61.249529 32.596217 61.92 36 61.92 
C 39.403783 61.92 42.774469 61.249529 45.919155 59.946957 
C 49.06384 58.644386 51.92137 56.735046 54.328208 54.328208 
C 56.735046 51.92137 58.644386 49.06384 59.946957 45.919155 
C 61.249529 42.774469 61.92 39.403783 61.92 36 
M 36 36 
M 61.92 36 
z
" style="fill:#278c18;"/>
   </g>
   <g id="patch_3">
    <path d="M 59.04 36 
C 59.04 36 59.04 36 59.04 36 
L 36 36 
L 59.04 36 
z
" style="fill:#278c18;"/>
   </g>
   <g id="patch_4">
    <path d="M 59.04 36 
C 59.04 33.369778 58.589605 30.758872 57.708374 28.280667 
C 56.827143 25.802462 55.52802 23.493358 53.867422 21.453632 
C 52.206824 19.413905 50.209142 17.673518 47.961129 16.308048 
C 45.713117 14.942578 43.247793 13.972082 40.672219 13.438706 
C 38.096646 12.905331 35.448653 12.816909 32.843235 13.177282 
C 30.237818 13.537655 27.713245 14.341529 25.37915 15.553994 
C 23.045056 16.766459 20.935724 18.369707 19.142756 20.294112 
C 17.349788 22.218517 15.89952 24.435814 14.854933 26.849713 
C 13.810346 29.263612 13.186783 31.838656 13.011323 34.463019 
C 12.835862 37.087382 13.111083 39.722517 13.825031 42.253988 
C 14.53898 44.785459 15.681171 47.176084 17.202001 49.322043 
C 18.722832 51.468003 20.599964 53.337778 22.751879 54.85017 
C 24.903795 56.362561 27.298886 57.495355 29.833141 58.199357 
C 32.367397 58.903359 35.003592 59.168229 37.627246 58.982464 
C 40.2509 58.7967 42.823476 58.163029 45.233254 57.10897 
C 47.643032 56.054912 49.854616 54.595948 51.771966 52.795437 
L 36 36 
L 59.04 36 
z
" style="fill:#67c8f3;"/>
   </g>
   <g id="patch_5">
    <path d="M 51.771966 52.795437 
C 54.06634 50.640876 55.895074 48.038851 57.145067 45.150287 
C 58.39506 42.261723 59.04 39.147425 59.04 36 
L 36 36 
L 51.771966 52.795437 
z
" style="fill:#5d77fe;"/>
   </g>
   <g id="patch_6">
    <path d="M 56.16 36 
C 56.16 36 56.16 36 56.16 36 
L 36 36 
L 56.16 36 
z
" style="fill:#278c18;"/>
   </g>
   <g id="patch_7">
    <path d="M 56.16 36 
C 56.16 33.459142 55.679646 30.941039 54.744294 28.578609 
C 53.808942 26.21618 52.435344 24.051736 50.696008 22.199531 
L 36 36 
L 56.16 36 
z
" style="fill:#67c8f3;"/>
   </g>
   <g id="patch_8">
    <path d="M 50.696008 22.199531 
C 47.966859 19.293283 44.435983 17.260888 40.552154 16.360665 
C 36.668325 15.460441 32.60337 15.732217 28.873947 17.141448 
C 25.144525 18.55068 21.915629 21.035021 19.597654 24.27871 
C 17.279679 27.522399 15.975176 31.381932 15.849948 35.366759 
C 15.724719 39.351586 16.784306 43.285413 18.894034 46.668248 
C 21.003762 50.051084 24.070293 52.733267 27.70387 54.37389 
C 31.337447 56.014513 35.377316 56.540993 39.310006 55.886414 
C 43.242697 55.231835 46.894222 53.425156 49.800469 50.696008 
L 36 36 
L 50.696008 22.199531 
z
" style="fill:#f88b10;"/>
   </g>
   <g id="patch_9">
    <path d="M 49.800469 50.696008 
C 51.808047 48.810767 53.408189 46.533995 54.501933 44.006502 
C 55.595677 41.479009 56.16 38.753998 56.16 36.000001 
L 36 36 
L 49.800469 50.696008 
z
" style="fill:#5d77fe;"/>
   </g>
   <g id="patch_10">
    <path d="M 53.28 36 
C 53.28 36 53.28 36 53.28 36 
L 36 36 
L 53.28 36 
z
" style="fill:#278c18;"/>
   </g>
   <g id="patch_11">
    <path d="M 53.28 36 
C 53.28 33.822122 52.868268 31.663748 52.066538 29.638808 
C 51.264807 27.613868 50.087438 25.758631 48.596578 24.171026 
L 36 36 
L 53.28 36 
z
" style="fill:#67c8f3;"/>
   </g>
   <g id="patch_12">
    <path d="M 48.596578 24.171026 
C 45.716893 21.104473 41.814223 19.192575 37.626192 18.796689 
C 33.438161 18.400804 29.246363 19.54755 25.843071 22.020186 
L 36 36 
L 48.596578 24.171026 
z
" style="fill:#f88b10;"/>
   </g>
   <g id="patch_13">
    <path d="M 25.843071 22.020186 
C 22.966216 24.110344 20.803492 27.038438 19.651645 30.402707 
C 18.499798 33.766975 18.414036 37.406173 19.406125 40.820966 
C 20.398214 44.235759 22.420605 47.262481 25.195806 49.485837 
C 27.971007 51.709193 31.366007 53.022619 34.914978 53.245902 
L 36 36 
L 25.843071 22.020186 
z
" style="fill:#103129;"/>
   </g>
   <g id="patch_14">
    <path d="M 34.914978 53.245902 
C 37.270889 53.394123 39.632376 53.058034 41.85339 52.25842 
C 44.074403 51.458806 46.108192 50.212499 47.828973 48.596579 
L 36 36 
L 34.914978 53.245902 
z
" style="fill:#98161a;"/>
   </g>
   <g id="patch_15">
    <path d="M 47.828973 48.596579 
C 49.549753 46.980659 50.921304 45.02914 51.858799 42.862718 
C 52.796294 40.696295 53.28 38.360571 53.28 36.000002 
L 36 36 
L 47.828973 48.596579 
z
" style="fill:#5d77fe;"/>
   </g>
  </g>
 </g>
</svg>
