<?xml version="1.0" encoding="utf-8" standalone="no"?>
<!DOCTYPE svg PUBLIC "-//W3C//DTD SVG 1.1//EN"
  "http://www.w3.org/Graphics/SVG/1.1/DTD/svg11.dtd">
<!-- Created with matplotlib (http://matplotlib.org/) -->
<svg height="72pt" version="1.1" viewBox="0 0 72 72" width="72pt" xmlns="http://www.w3.org/2000/svg" xmlns:xlink="http://www.w3.org/1999/xlink">
 <defs>
  <style type="text/css">
*{stroke-linecap:butt;stroke-linejoin:round;}
  </style>
 </defs>
 <g id="figure_1">
  <g id="patch_1">
   <path d="M 0 72 
L 72 72 
L 72 0 
L 0 0 
z
" style="fill:#ffffff;"/>
  </g>
  <g id="axes_1">
   <g id="patch_2">
    <path d="M 61.92 36 
C 61.92 32.596217 61.249529 29.225531 59.946957 26.080845 
C 58.644386 22.93616 56.735046 20.07863 54.328208 17.671792 
C 51.92137 15.264954 49.06384 13.355614 45.919155 12.053043 
C 42.774469 10.750471 39.403783 10.08 36 10.08 
C 32.596217 10.08 29.225531 10.750471 26.080845 12.053043 
C 22.93616 13.355614 20.07863 15.264954 17.671792 17.671792 
C 15.264954 20.07863 13.355614 22.93616 12.053043 26.080845 
C 10.750471 29.225531 10.08 32.596217 10.08 36 
C 10.08 39.403783 10.750471 42.774469 12.053043 45.919155 
C 13.355614 49.06384 15.264954 51.92137 17.671792 54.328208 
C 20.07863 56.735046 22.93616 58.644386 26.080845 59.946957 
C 29.225531 61.249529 32.596217 61.92 36 61.92 
C 39.403783 61.92 42.774469 61.249529 45.919155 59.946957 
C 49.06384 58.644386 51.92137 56.735046 54.328208 54.328208 
C 56.735046 51.92137 58.644386 49.06384 59.946957 45.919155 
C 61.249529 42.774469 61.92 39.403783 61.92 36 
M 36 36 
M 61.92 36 
z
" style="fill:#278c18;"/>
   </g>
   <g id="patch_3">
    <path d="M 59.04 36 
C 59.04 36 59.04 36 59.04 36 
L 36 36 
L 59.04 36 
z
" style="fill:#278c18;"/>
   </g>
   <g id="patch_4">
    <path d="M 59.04 36 
C 59.04 30.763819 57.255 25.680884 53.981116 21.594409 
C 50.707232 17.507934 46.136097 14.657115 41.02602 13.514878 
C 35.915943 12.37264 30.566036 13.005844 25.863801 15.309445 
C 21.161566 17.613046 17.382242 21.452207 15.152784 26.190046 
L 36 36 
L 59.04 36 
z
" style="fill:#67c8f3;"/>
   </g>
   <g id="patch_5">
    <path d="M 15.152784 26.190046 
C 13.682803 29.313916 12.933595 32.728611 12.960711 36.180955 
C 12.987826 39.633298 13.790577 43.035804 15.309445 46.136199 
C 16.828313 49.236594 19.024809 51.956312 21.736076 54.093702 
C 24.447343 56.231093 27.604677 57.731994 30.97398 58.485122 
C 34.343284 59.238251 37.839177 59.224522 41.202462 58.444955 
C 44.565746 57.665387 47.711194 56.139735 50.405591 53.981116 
C 53.099988 51.822498 55.275055 49.085613 56.769526 45.973384 
C 58.263997 42.861156 59.04 39.45245 59.04 36 
L 36 36 
L 15.152784 26.190046 
z
" style="fill:#5d77fe;"/>
   </g>
   <g id="patch_6">
    <path d="M 56.16 36 
C 56.16 36 56.16 36 56.16 36 
L 36 36 
L 56.16 36 
z
" style="fill:#278c18;"/>
   </g>
   <g id="patch_7">
    <path d="M 56.16 36 
C 56.16 36 56.16 36 56.16 36 
L 36 36 
L 56.16 36 
z
" style="fill:#67c8f3;"/>
   </g>
   <g id="patch_8">
    <path d="M 56.16 36 
C 56.16 31.418341 54.598125 26.970774 51.733477 23.395108 
C 48.868828 19.819442 44.869085 17.324976 40.397767 16.325518 
C 35.92645 15.32606 31.245281 15.880113 27.130826 17.895764 
C 23.01637 19.911416 19.709461 23.270682 17.758686 27.41629 
L 36 36 
L 56.16 36 
z
" style="fill:#f88b10;"/>
   </g>
   <g id="patch_9">
    <path d="M 17.758686 27.41629 
C 16.472452 30.149677 15.816896 33.137535 15.840622 36.158335 
C 15.864348 39.179136 16.566755 42.156329 17.895764 44.869174 
C 19.224774 47.58202 21.146708 49.961773 23.519066 51.83199 
C 25.891425 53.702207 28.654092 55.015495 31.602233 55.674482 
C 34.550373 56.333469 37.60928 56.321457 40.552154 55.639335 
C 43.495028 54.957214 46.247295 53.622268 48.604892 51.733477 
C 50.962489 49.844685 52.865673 47.449911 54.173335 44.726711 
C 55.480997 42.003511 56.16 39.020894 56.16 36 
L 36 36 
L 17.758686 27.41629 
z
" style="fill:#5d77fe;"/>
   </g>
   <g id="patch_10">
    <path d="M 53.28 36 
C 53.28 36 53.28 36 53.28 36 
L 36 36 
L 53.28 36 
z
" style="fill:#278c18;"/>
   </g>
   <g id="patch_11">
    <path d="M 53.28 36 
C 53.28 36 53.28 36 53.28 36 
L 36 36 
L 53.28 36 
z
" style="fill:#67c8f3;"/>
   </g>
   <g id="patch_12">
    <path d="M 53.28 36 
C 53.28 33.089555 52.544697 30.225739 51.14258 27.675297 
C 49.740462 25.124854 47.716457 22.969508 45.259087 21.410014 
L 36 36 
L 53.28 36 
z
" style="fill:#f88b10;"/>
   </g>
   <g id="patch_13">
    <path d="M 45.259087 21.410014 
C 42.490752 19.653174 39.278745 18.72 36 18.72 
C 32.721255 18.72 29.509248 19.653174 26.740913 21.410014 
L 36 36 
L 45.259087 21.410014 
z
" style="fill:#103129;"/>
   </g>
   <g id="patch_14">
    <path d="M 26.740913 21.410014 
C 25.363553 22.284113 24.116885 23.348868 23.03808 24.572531 
C 21.959276 25.796195 21.059166 27.166482 20.364588 28.642535 
L 36 36 
L 26.740913 21.410014 
z
" style="fill:#98161a;"/>
   </g>
   <g id="patch_15">
    <path d="M 20.364588 28.642535 
C 19.262102 30.985437 18.700196 33.546459 18.720533 36.135716 
C 18.740869 38.724974 19.342933 41.276853 20.482084 43.602149 
C 21.621235 45.927446 23.268606 47.967234 25.302057 49.570277 
C 27.335507 51.17332 29.703507 52.298995 32.230485 52.863842 
C 34.757463 53.428688 37.379383 53.418392 39.901846 52.833716 
C 42.42431 52.24904 44.783396 51.104801 46.804193 49.485837 
C 48.824991 47.866873 50.456291 45.81421 51.577144 43.480038 
C 52.697998 41.145867 53.28 38.589337 53.28 36 
L 36 36 
L 20.364588 28.642535 
z
" style="fill:#5d77fe;"/>
   </g>
  </g>
 </g>
</svg>
