<?xml version="1.0" encoding="utf-8" standalone="no"?>
<!DOCTYPE svg PUBLIC "-//W3C//DTD SVG 1.1//EN"
  "http://www.w3.org/Graphics/SVG/1.1/DTD/svg11.dtd">
<!-- Created with matplotlib (http://matplotlib.org/) -->
<svg height="72pt" version="1.1" viewBox="0 0 72 72" width="72pt" xmlns="http://www.w3.org/2000/svg" xmlns:xlink="http://www.w3.org/1999/xlink">
 <defs>
  <style type="text/css">
*{stroke-linecap:butt;stroke-linejoin:round;}
  </style>
 </defs>
 <g id="figure_1">
  <g id="patch_1">
   <path d="M 0 72 
L 72 72 
L 72 0 
L 0 0 
z
" style="fill:#ffffff;"/>
  </g>
  <g id="axes_1">
   <g id="patch_2">
    <path d="M 61.92 36 
C 61.92 32.596217 61.249529 29.225531 59.946957 26.080845 
C 58.644386 22.93616 56.735046 20.07863 54.328208 17.671792 
C 51.92137 15.264954 49.06384 13.355614 45.919155 12.053043 
C 42.774469 10.750471 39.403783 10.08 36 10.08 
C 32.596217 10.08 29.225531 10.750471 26.080845 12.053043 
C 22.93616 13.355614 20.07863 15.264954 17.671792 17.671792 
C 15.264954 20.07863 13.355614 22.93616 12.053043 26.080845 
C 10.750471 29.225531 10.08 32.596217 10.08 36 
C 10.08 39.403783 10.750471 42.774469 12.053043 45.919155 
C 13.355614 49.06384 15.264954 51.92137 17.671792 54.328208 
C 20.07863 56.735046 22.93616 58.644386 26.080845 59.946957 
C 29.225531 61.249529 32.596217 61.92 36 61.92 
C 39.403783 61.92 42.774469 61.249529 45.919155 59.946957 
C 49.06384 58.644386 51.92137 56.735046 54.328208 54.328208 
C 56.735046 51.92137 58.644386 49.06384 59.946957 45.919155 
C 61.249529 42.774469 61.92 39.403783 61.92 36 
M 36 36 
M 61.92 36 
z
" style="fill:#278c18;"/>
   </g>
   <g id="patch_3">
    <path d="M 59.04 36 
C 59.04 30.763819 57.255 25.680884 53.981116 21.594409 
C 50.707232 17.507934 46.136097 14.657115 41.02602 13.514878 
C 35.915943 12.37264 30.566036 13.005844 25.863801 15.309445 
C 21.161566 17.613046 17.382242 21.452207 15.152784 26.190046 
L 36 36 
L 59.04 36 
z
" style="fill:#278c18;"/>
   </g>
   <g id="patch_4">
    <path d="M 15.152784 26.190046 
C 13.708799 29.258672 12.96 32.608607 12.96 36.000001 
C 12.96 39.391395 13.7088 42.741331 15.152785 45.809956 
C 16.596771 48.878581 18.700638 51.59087 21.313752 53.752626 
C 23.926867 55.914382 26.985339 57.472751 30.270186 58.316156 
C 33.555034 59.159562 36.985943 59.267382 40.317267 58.631898 
C 43.64859 57.996414 46.798878 56.633163 49.542573 54.639751 
C 52.286269 52.646339 54.55629 50.071505 56.190107 47.099603 
C 57.823923 44.127702 58.781589 40.831394 58.994536 37.446692 
L 36 36 
L 15.152784 26.190046 
z
" style="fill:#67c8f3;"/>
   </g>
   <g id="patch_5">
    <path d="M 58.994536 37.446692 
C 59.009686 37.205889 59.021052 36.964863 59.028631 36.723703 
C 59.03621 36.482542 59.04 36.241278 59.04 35.999999 
L 36 36 
L 58.994536 37.446692 
z
" style="fill:#5d77fe;"/>
   </g>
   <g id="patch_6">
    <path d="M 56.16 36 
C 56.16 31.418341 54.598125 26.970774 51.733477 23.395108 
C 48.868828 19.819442 44.869085 17.324976 40.397767 16.325518 
C 35.92645 15.32606 31.245281 15.880113 27.130826 17.895764 
C 23.01637 19.911416 19.709461 23.270682 17.758686 27.41629 
L 36 36 
L 56.16 36 
z
" style="fill:#278c18;"/>
   </g>
   <g id="patch_7">
    <path d="M 17.758686 27.41629 
C 17.128834 28.754794 16.648215 30.158567 16.325518 31.602233 
C 16.00282 33.0459 15.84 34.520708 15.84 36.000001 
L 36 36 
L 17.758686 27.41629 
z
" style="fill:#67c8f3;"/>
   </g>
   <g id="patch_8">
    <path d="M 15.84 36.000001 
C 15.84 41.235266 17.879286 46.270021 21.522575 50.029603 
C 25.165863 53.789184 30.134079 55.985609 35.366761 56.150052 
C 40.599443 56.314496 45.695769 54.434361 49.567934 50.910962 
C 53.440098 47.387562 55.791495 42.490789 56.120219 37.265855 
L 36 36 
L 15.84 36.000001 
z
" style="fill:#f88b10;"/>
   </g>
   <g id="patch_9">
    <path d="M 56.120219 37.265855 
C 56.133475 37.055152 56.143421 36.844254 56.150052 36.633239 
C 56.156684 36.422224 56.16 36.211117 56.16 35.999998 
L 36 36 
L 56.120219 37.265855 
z
" style="fill:#5d77fe;"/>
   </g>
   <g id="patch_10">
    <path d="M 53.28 36 
C 53.28 32.072864 51.94125 28.260663 49.485837 25.195807 
C 47.030424 22.13095 43.602073 19.992836 39.769515 19.136158 
C 35.936957 18.27948 31.924527 18.754383 28.397851 20.482084 
C 24.871174 22.209785 22.036681 25.089156 20.364588 28.642535 
L 36 36 
L 53.28 36 
z
" style="fill:#278c18;"/>
   </g>
   <g id="patch_11">
    <path d="M 20.364588 28.642535 
C 19.824715 29.789824 19.412756 30.993057 19.136158 32.230486 
C 18.85956 33.467914 18.72 34.732036 18.72 36.000001 
L 36 36 
L 20.364588 28.642535 
z
" style="fill:#67c8f3;"/>
   </g>
   <g id="patch_12">
    <path d="M 18.72 36.000001 
C 18.72 36.000001 18.72 36.000001 18.72 36.000001 
L 36 36 
L 18.72 36.000001 
z
" style="fill:#f88b10;"/>
   </g>
   <g id="patch_13">
    <path d="M 18.72 36.000001 
C 18.72 40.487371 20.46796 44.802876 23.590778 48.025374 
C 26.713597 51.247872 30.972067 53.130522 35.457223 53.271473 
C 39.942379 53.412425 44.310659 51.800881 47.629657 48.780824 
C 50.948656 45.760768 52.964138 41.563534 53.245902 37.085018 
L 36 36 
L 18.72 36.000001 
z
" style="fill:#103129;"/>
   </g>
   <g id="patch_14">
    <path d="M 53.245902 37.085018 
C 53.245902 37.085018 53.245902 37.085018 53.245902 37.085018 
L 36 36 
L 53.245902 37.085018 
z
" style="fill:#98161a;"/>
   </g>
   <g id="patch_15">
    <path d="M 53.245902 37.085018 
C 53.257265 36.904416 53.265789 36.723646 53.271473 36.542776 
C 53.277157 36.361906 53.28 36.180958 53.28 35.999998 
L 36 36 
L 53.245902 37.085018 
z
" style="fill:#5d77fe;"/>
   </g>
  </g>
 </g>
</svg>
