<?xml version="1.0" encoding="utf-8" standalone="no"?>
<!DOCTYPE svg PUBLIC "-//W3C//DTD SVG 1.1//EN"
  "http://www.w3.org/Graphics/SVG/1.1/DTD/svg11.dtd">
<!-- Created with matplotlib (http://matplotlib.org/) -->
<svg height="72pt" version="1.1" viewBox="0 0 72 72" width="72pt" xmlns="http://www.w3.org/2000/svg" xmlns:xlink="http://www.w3.org/1999/xlink">
 <defs>
  <style type="text/css">
*{stroke-linecap:butt;stroke-linejoin:round;}
  </style>
 </defs>
 <g id="figure_1">
  <g id="patch_1">
   <path d="M 0 72 
L 72 72 
L 72 0 
L 0 0 
z
" style="fill:#ffffff;"/>
  </g>
  <g id="axes_1">
   <g id="patch_2">
    <path d="M 61.92 36 
C 61.92 32.596217 61.249529 29.225531 59.946957 26.080845 
C 58.644386 22.93616 56.735046 20.07863 54.328208 17.671792 
C 51.92137 15.264954 49.06384 13.355614 45.919155 12.053043 
C 42.774469 10.750471 39.403783 10.08 36 10.08 
C 32.596217 10.08 29.225531 10.750471 26.080845 12.053043 
C 22.93616 13.355614 20.07863 15.264954 17.671792 17.671792 
C 15.264954 20.07863 13.355614 22.93616 12.053043 26.080845 
C 10.750471 29.225531 10.08 32.596217 10.08 36 
C 10.08 39.403783 10.750471 42.774469 12.053043 45.919155 
C 13.355614 49.06384 15.264954 51.92137 17.671792 54.328208 
C 20.07863 56.735046 22.93616 58.644386 26.080845 59.946957 
C 29.225531 61.249529 32.596217 61.92 36 61.92 
C 39.403783 61.92 42.774469 61.249529 45.919155 59.946957 
C 49.06384 58.644386 51.92137 56.735046 54.328208 54.328208 
C 56.735046 51.92137 58.644386 49.06384 59.946957 45.919155 
C 61.249529 42.774469 61.92 39.403783 61.92 36 
M 36 36 
M 61.92 36 
z
" style="fill:#278c18;"/>
   </g>
   <g id="patch_3">
    <path d="M 59.04 36 
C 59.04 36 59.04 36 59.04 36 
L 36 36 
L 59.04 36 
z
" style="fill:#278c18;"/>
   </g>
   <g id="patch_4">
    <path d="M 59.04 36 
C 59.04 32.180654 58.090299 28.420575 56.276658 25.059309 
C 54.463018 21.698043 51.841723 18.839907 48.649486 16.742998 
C 45.457248 14.64609 41.793139 13.375488 37.988038 13.045931 
C 34.182937 12.716373 30.354935 13.338088 26.849713 14.854933 
C 23.34449 16.371778 20.270832 18.736678 17.906298 21.736075 
C 15.541764 24.735472 13.959738 28.27628 13.303081 32.038753 
C 12.646424 35.801226 12.935516 39.668596 14.144251 43.291629 
C 15.352986 46.914661 17.443851 50.180914 20.228034 52.795437 
L 36 36 
L 59.04 36 
z
" style="fill:#67c8f3;"/>
   </g>
   <g id="patch_5">
    <path d="M 20.228034 52.795437 
C 23.504561 55.872301 27.610939 57.924141 32.038753 58.696919 
C 36.466567 59.469696 41.025215 58.930145 45.150287 57.145067 
C 49.275359 55.359989 52.789284 52.406226 55.257002 48.649486 
C 57.724719 44.892746 59.04 40.494744 59.04 36 
L 36 36 
L 20.228034 52.795437 
z
" style="fill:#f88b10;"/>
   </g>
   <g id="patch_6">
    <path d="M 56.16 36 
C 56.16 36 56.16 36 56.16 36 
L 36 36 
L 56.16 36 
z
" style="fill:#278c18;"/>
   </g>
   <g id="patch_7">
    <path d="M 56.16 36 
C 56.16 34.732373 56.040441 33.467567 55.802911 32.222393 
C 55.565381 30.977219 55.210939 29.757219 54.744294 28.578609 
L 36 36 
L 56.16 36 
z
" style="fill:#67c8f3;"/>
   </g>
   <g id="patch_8">
    <path d="M 54.744294 28.578609 
C 53.632229 25.769853 51.902933 23.246643 49.684623 21.196058 
C 47.466313 19.145474 44.815202 17.619478 41.927853 16.731213 
C 39.040504 15.842948 35.990085 15.614925 33.002764 16.064048 
C 30.015443 16.513172 27.166922 17.628061 24.6684 19.326055 
C 22.169877 21.024049 20.084668 23.262119 18.567377 25.874326 
C 17.050087 28.486533 16.139163 31.406683 15.902147 34.418264 
C 15.66513 37.429845 16.108026 40.456542 17.197997 43.273945 
C 18.287968 46.091349 19.997393 48.628063 22.19953 50.696007 
L 36 36 
L 54.744294 28.578609 
z
" style="fill:#103129;"/>
   </g>
   <g id="patch_9">
    <path d="M 22.19953 50.696007 
C 24.284883 52.654284 26.763367 54.146453 29.469824 55.073081 
C 32.176281 55.999708 35.049229 56.339744 37.897223 56.070529 
C 40.745218 55.801315 43.503561 54.928965 45.988447 53.511611 
C 48.473332 52.094258 50.628311 50.164097 52.309783 47.84975 
L 36 36 
L 22.19953 50.696007 
z
" style="fill:#f88b10;"/>
   </g>
   <g id="patch_10">
    <path d="M 52.309783 47.84975 
C 53.428452 46.310034 54.323472 44.619635 54.968156 42.828956 
C 55.61284 41.038277 56.000716 39.165295 56.120219 37.265856 
L 36 36 
L 52.309783 47.84975 
z
" style="fill:#5d77fe;"/>
   </g>
   <g id="patch_11">
    <path d="M 56.120219 37.265856 
C 56.133475 37.055153 56.143421 36.844255 56.150052 36.63324 
C 56.156684 36.422225 56.16 36.211119 56.16 35.999999 
L 36 36 
L 56.120219 37.265856 
z
" style="fill:#98161a;"/>
   </g>
  </g>
 </g>
</svg>
