<?xml version="1.0" encoding="utf-8" standalone="no"?>
<!DOCTYPE svg PUBLIC "-//W3C//DTD SVG 1.1//EN"
  "http://www.w3.org/Graphics/SVG/1.1/DTD/svg11.dtd">
<!-- Created with matplotlib (http://matplotlib.org/) -->
<svg height="72pt" version="1.1" viewBox="0 0 72 72" width="72pt" xmlns="http://www.w3.org/2000/svg" xmlns:xlink="http://www.w3.org/1999/xlink">
 <defs>
  <style type="text/css">
*{stroke-linecap:butt;stroke-linejoin:round;}
  </style>
 </defs>
 <g id="figure_1">
  <g id="patch_1">
   <path d="M 0 72 
L 72 72 
L 72 0 
L 0 0 
z
" style="fill:#ffffff;"/>
  </g>
  <g id="axes_1">
   <g id="patch_2">
    <path d="M 61.92 36 
C 61.92 32.596217 61.249529 29.225531 59.946957 26.080845 
C 58.644386 22.93616 56.735046 20.07863 54.328208 17.671792 
C 51.92137 15.264954 49.06384 13.355614 45.919155 12.053043 
C 42.774469 10.750471 39.403783 10.08 36 10.08 
C 32.596217 10.08 29.225531 10.750471 26.080845 12.053043 
C 22.93616 13.355614 20.07863 15.264954 17.671792 17.671792 
C 15.264954 20.07863 13.355614 22.93616 12.053043 26.080845 
C 10.750471 29.225531 10.08 32.596217 10.08 36 
C 10.08 39.403783 10.750471 42.774469 12.053043 45.919155 
C 13.355614 49.06384 15.264954 51.92137 17.671792 54.328208 
C 20.07863 56.735046 22.93616 58.644386 26.080845 59.946957 
C 29.225531 61.249529 32.596217 61.92 36 61.92 
C 39.403783 61.92 42.774469 61.249529 45.919155 59.946957 
C 49.06384 58.644386 51.92137 56.735046 54.328208 54.328208 
C 56.735046 51.92137 58.644386 49.06384 59.946957 45.919155 
C 61.249529 42.774469 61.92 39.403783 61.92 36 
M 36 36 
M 61.92 36 
z
" style="fill:#278c18;"/>
   </g>
   <g id="patch_3">
    <path d="M 59.04 36 
C 59.04 36 59.04 36 59.04 36 
L 36 36 
L 59.04 36 
z
" style="fill:#278c18;"/>
   </g>
   <g id="patch_4">
    <path d="M 59.04 36 
C 59.04 31.505256 57.724719 27.107254 55.257002 23.350514 
C 52.789284 19.593774 49.275359 16.640011 45.150287 14.854933 
C 41.025215 13.069855 36.466567 12.530304 32.038753 13.303081 
C 27.610939 14.075859 23.504561 16.127699 20.228034 19.204563 
L 36 36 
L 59.04 36 
z
" style="fill:#67c8f3;"/>
   </g>
   <g id="patch_5">
    <path d="M 20.228034 19.204563 
C 17.443851 21.819086 15.352986 25.085339 14.144251 28.708371 
C 12.935516 32.331404 12.646424 36.198774 13.303081 39.961247 
C 13.959738 43.72372 15.541764 47.264528 17.906298 50.263925 
C 20.270832 53.263322 23.34449 55.628222 26.849713 57.145067 
C 30.354935 58.661912 34.182937 59.283627 37.988038 58.954069 
C 41.793139 58.624512 45.457248 57.35391 48.649486 55.257002 
C 51.841723 53.160093 54.463018 50.301957 56.276658 46.940691 
C 58.090299 43.579425 59.04 39.819346 59.04 36 
L 36 36 
L 20.228034 19.204563 
z
" style="fill:#f88b10;"/>
   </g>
   <g id="patch_6">
    <path d="M 56.16 36 
C 56.16 36 56.16 36 56.16 36 
L 36 36 
L 56.16 36 
z
" style="fill:#278c18;"/>
   </g>
   <g id="patch_7">
    <path d="M 56.16 36 
C 56.16 32.174798 55.071297 28.427456 53.021651 25.197731 
C 50.972005 21.968006 48.044856 19.387378 44.58371 17.758686 
C 41.122563 16.129994 37.26832 15.519543 33.473281 15.998968 
C 29.678241 16.478393 26.0969 18.028178 23.149531 20.466454 
L 36 36 
L 56.16 36 
z
" style="fill:#67c8f3;"/>
   </g>
   <g id="patch_8">
    <path d="M 23.149531 20.466454 
C 22.986861 20.601027 22.826314 20.738146 22.667951 20.877762 
C 22.509588 21.017378 22.353428 21.159473 22.199529 21.303994 
L 36 36 
L 23.149531 20.466454 
z
" style="fill:#103129;"/>
   </g>
   <g id="patch_9">
    <path d="M 22.199529 21.303994 
C 20.036337 23.335367 18.348104 25.819527 17.255705 28.578611 
C 16.163307 31.337695 15.693452 34.304244 15.879781 37.265859 
C 16.066111 40.227473 16.904068 43.111742 18.333658 45.712156 
C 19.763248 48.312569 21.749517 50.565549 24.150251 52.309784 
L 36 36 
L 22.199529 21.303994 
z
" style="fill:#f88b10;"/>
   </g>
   <g id="patch_10">
    <path d="M 24.150251 52.309784 
C 27.594004 54.811816 31.74329 56.16 36.000002 56.16 
C 40.256715 56.16 44.406 54.811814 47.849753 52.309781 
L 36 36 
L 24.150251 52.309784 
z
" style="fill:#5d77fe;"/>
   </g>
   <g id="patch_11">
    <path d="M 47.849753 52.309781 
C 50.42348 50.439858 52.518412 47.987008 53.962693 45.152446 
C 55.406974 42.317884 56.16 39.1813 56.16 35.999997 
L 36 36 
L 47.849753 52.309781 
z
" style="fill:#98161a;"/>
   </g>
  </g>
 </g>
</svg>
