<?xml version="1.0" encoding="utf-8" standalone="no"?>
<!DOCTYPE svg PUBLIC "-//W3C//DTD SVG 1.1//EN"
  "http://www.w3.org/Graphics/SVG/1.1/DTD/svg11.dtd">
<!-- Created with matplotlib (http://matplotlib.org/) -->
<svg height="72pt" version="1.1" viewBox="0 0 72 72" width="72pt" xmlns="http://www.w3.org/2000/svg" xmlns:xlink="http://www.w3.org/1999/xlink">
 <defs>
  <style type="text/css">
*{stroke-linecap:butt;stroke-linejoin:round;}
  </style>
 </defs>
 <g id="figure_1">
  <g id="patch_1">
   <path d="M 0 72 
L 72 72 
L 72 0 
L 0 0 
z
" style="fill:#ffffff;"/>
  </g>
  <g id="axes_1">
   <g id="patch_2">
    <path d="M 61.92 36 
C 61.92 32.596217 61.249529 29.225531 59.946957 26.080845 
C 58.644386 22.93616 56.735046 20.07863 54.328208 17.671792 
C 51.92137 15.264954 49.06384 13.355614 45.919155 12.053043 
C 42.774469 10.750471 39.403783 10.08 36 10.08 
C 32.596217 10.08 29.225531 10.750471 26.080845 12.053043 
C 22.93616 13.355614 20.07863 15.264954 17.671792 17.671792 
C 15.264954 20.07863 13.355614 22.93616 12.053043 26.080845 
C 10.750471 29.225531 10.08 32.596217 10.08 36 
C 10.08 39.403783 10.750471 42.774469 12.053043 45.919155 
C 13.355614 49.06384 15.264954 51.92137 17.671792 54.328208 
C 20.07863 56.735046 22.93616 58.644386 26.080845 59.946957 
C 29.225531 61.249529 32.596217 61.92 36 61.92 
C 39.403783 61.92 42.774469 61.249529 45.919155 59.946957 
C 49.06384 58.644386 51.92137 56.735046 54.328208 54.328208 
C 56.735046 51.92137 58.644386 49.06384 59.946957 45.919155 
C 61.249529 42.774469 61.92 39.403783 61.92 36 
M 36 36 
M 61.92 36 
z
" style="fill:#278c18;"/>
   </g>
   <g id="patch_3">
    <path d="M 59.04 36 
C 59.04 34.551283 58.903361 33.10579 58.631898 31.682735 
C 58.360436 30.259679 57.955358 28.865393 57.42205 27.51841 
L 36 36 
L 59.04 36 
z
" style="fill:#278c18;"/>
   </g>
   <g id="patch_4">
    <path d="M 57.42205 27.51841 
C 56.218519 24.478636 54.381644 21.72956 52.033831 19.45437 
C 49.686017 17.17918 46.880599 15.429563 43.804521 14.322107 
C 40.728443 13.214651 37.451583 12.774514 34.192301 13.031025 
C 30.93302 13.287536 27.765356 14.234868 24.900394 15.809895 
C 22.035432 17.384921 19.538254 19.551862 17.575264 22.166319 
C 15.612275 24.780777 14.228066 27.783358 13.514877 30.973982 
C 12.801689 34.164605 12.775722 37.47079 13.438707 40.672222 
C 14.101692 43.873654 15.438568 46.897607 17.36025 49.542575 
L 36 36 
L 57.42205 27.51841 
z
" style="fill:#67c8f3;"/>
   </g>
   <g id="patch_5">
    <path d="M 17.36025 49.542575 
C 20.219717 53.478292 24.253538 56.409033 28.880251 57.912343 
C 33.506965 59.415653 38.493042 59.415652 43.119755 57.912341 
C 47.746468 56.40903 51.780288 53.478287 54.639754 49.542569 
C 57.499219 45.606851 59.040001 40.864811 59.04 35.999996 
L 36 36 
L 17.36025 49.542575 
z
" style="fill:#f88b10;"/>
   </g>
   <g id="patch_6">
    <path d="M 56.16 36 
C 56.16 34.732373 56.040441 33.467567 55.802911 32.222393 
C 55.565381 30.977219 55.210939 29.757219 54.744294 28.578609 
L 36 36 
L 56.16 36 
z
" style="fill:#278c18;"/>
   </g>
   <g id="patch_7">
    <path d="M 54.744294 28.578609 
C 53.651895 25.819525 51.963662 23.335366 49.80047 21.303993 
C 47.637277 19.272619 45.052014 17.743699 42.229783 16.826701 
C 39.407551 15.909702 36.417353 15.627045 33.473282 15.998968 
C 30.529211 16.37089 27.70325 17.388299 25.197732 18.978349 
L 36 36 
L 54.744294 28.578609 
z
" style="fill:#67c8f3;"/>
   </g>
   <g id="patch_8">
    <path d="M 25.197732 18.978349 
C 22.872456 20.454014 20.874032 22.390622 19.326056 24.668399 
C 17.77808 26.946176 16.713137 29.517176 16.197089 32.222392 
C 15.681042 34.927608 15.724752 37.710095 16.325518 40.397767 
C 16.926284 43.085438 18.071458 45.62172 19.690217 47.84975 
L 36 36 
L 25.197732 18.978349 
z
" style="fill:#103129;"/>
   </g>
   <g id="patch_9">
    <path d="M 19.690217 47.84975 
C 19.690217 47.84975 19.690217 47.84975 19.690217 47.84975 
L 36 36 
L 19.690217 47.84975 
z
" style="fill:#f88b10;"/>
   </g>
   <g id="patch_10">
    <path d="M 19.690217 47.84975 
C 21.434452 50.250484 23.687431 52.236752 26.287845 53.666342 
C 28.888259 55.095932 31.772528 55.93389 34.734142 56.120219 
C 37.695756 56.306548 40.662306 55.836693 43.42139 54.744294 
C 46.180474 53.651896 48.664634 51.963663 50.696007 49.80047 
L 36 36 
L 19.690217 47.84975 
z
" style="fill:#5d77fe;"/>
   </g>
   <g id="patch_11">
    <path d="M 50.696007 49.80047 
C 52.435344 47.948265 53.808941 45.783822 54.744293 43.421392 
C 55.679646 41.058963 56.16 38.540859 56.16 36.000001 
L 36 36 
L 50.696007 49.80047 
z
" style="fill:#98161a;"/>
   </g>
  </g>
 </g>
</svg>
