<?xml version="1.0" encoding="utf-8" standalone="no"?>
<!DOCTYPE svg PUBLIC "-//W3C//DTD SVG 1.1//EN"
  "http://www.w3.org/Graphics/SVG/1.1/DTD/svg11.dtd">
<!-- Created with matplotlib (http://matplotlib.org/) -->
<svg height="72pt" version="1.1" viewBox="0 0 72 72" width="72pt" xmlns="http://www.w3.org/2000/svg" xmlns:xlink="http://www.w3.org/1999/xlink">
 <defs>
  <style type="text/css">
*{stroke-linecap:butt;stroke-linejoin:round;}
  </style>
 </defs>
 <g id="figure_1">
  <g id="patch_1">
   <path d="M 0 72 
L 72 72 
L 72 0 
L 0 0 
z
" style="fill:#ffffff;"/>
  </g>
  <g id="axes_1">
   <g id="patch_2">
    <path d="M 61.92 36 
C 61.92 32.596217 61.249529 29.225531 59.946957 26.080845 
C 58.644386 22.93616 56.735046 20.07863 54.328208 17.671792 
C 51.92137 15.264954 49.06384 13.355614 45.919155 12.053043 
C 42.774469 10.750471 39.403783 10.08 36 10.08 
C 32.596217 10.08 29.225531 10.750471 26.080845 12.053043 
C 22.93616 13.355614 20.07863 15.264954 17.671792 17.671792 
C 15.264954 20.07863 13.355614 22.93616 12.053043 26.080845 
C 10.750471 29.225531 10.08 32.596217 10.08 36 
C 10.08 39.403783 10.750471 42.774469 12.053043 45.919155 
C 13.355614 49.06384 15.264954 51.92137 17.671792 54.328208 
C 20.07863 56.735046 22.93616 58.644386 26.080845 59.946957 
C 29.225531 61.249529 32.596217 61.92 36 61.92 
C 39.403783 61.92 42.774469 61.249529 45.919155 59.946957 
C 49.06384 58.644386 51.92137 56.735046 54.328208 54.328208 
C 56.735046 51.92137 58.644386 49.06384 59.946957 45.919155 
C 61.249529 42.774469 61.92 39.403783 61.92 36 
M 36 36 
M 61.92 36 
z
" style="fill:#278c18;"/>
   </g>
   <g id="patch_3">
    <path d="M 59.04 36 
C 59.04 36 59.04 36 59.04 36 
L 36 36 
L 59.04 36 
z
" style="fill:#278c18;"/>
   </g>
   <g id="patch_4">
    <path d="M 59.04 36 
C 59.04 31.751294 57.864772 27.58425 55.644829 23.961633 
C 53.424887 20.339016 50.245566 17.400082 46.459941 15.47121 
C 42.674317 13.542338 38.427911 12.697675 34.192303 13.031025 
C 29.956695 13.364374 25.894704 14.862922 22.457428 17.360248 
L 36 36 
L 59.04 36 
z
" style="fill:#67c8f3;"/>
   </g>
   <g id="patch_5">
    <path d="M 22.457428 17.360248 
C 19.268389 19.677221 16.726684 22.774296 15.076382 26.354078 
C 13.426079 29.933861 12.721749 33.877977 13.031024 37.807696 
C 13.3403 41.737414 14.652954 45.522791 16.842939 48.800336 
C 19.032924 52.077882 22.027825 54.739217 25.540057 56.528789 
C 29.052288 58.318361 32.965712 59.176994 36.904543 59.022237 
C 40.843374 58.867481 44.677367 57.704452 48.038364 55.644831 
C 51.399361 53.58521 54.176224 50.697102 56.102306 47.257837 
C 58.028388 43.818571 59.039999 39.941874 59.04 36.000004 
L 36 36 
L 22.457428 17.360248 
z
" style="fill:#f88b10;"/>
   </g>
   <g id="patch_6">
    <path d="M 56.16 36 
C 56.16 36 56.16 36 56.16 36 
L 36 36 
L 56.16 36 
z
" style="fill:#278c18;"/>
   </g>
   <g id="patch_7">
    <path d="M 56.16 36 
C 56.16 34.943883 56.07701 33.889396 55.911797 32.846281 
C 55.746584 31.803166 55.499658 30.774645 55.173299 29.770217 
L 36 36 
L 56.16 36 
z
" style="fill:#67c8f3;"/>
   </g>
   <g id="patch_8">
    <path d="M 55.173299 29.770217 
C 54.223276 26.846346 52.616899 24.178162 50.477426 21.970398 
C 48.337954 19.762634 45.721544 18.073239 42.828957 17.031844 
C 39.93637 15.990448 36.843531 15.624387 33.787757 15.961747 
C 30.731983 16.299108 27.793484 17.331035 25.197733 18.978349 
L 36 36 
L 55.173299 29.770217 
z
" style="fill:#103129;"/>
   </g>
   <g id="patch_9">
    <path d="M 25.197733 18.978349 
C 25.019479 19.091472 24.843013 19.207388 24.6684 19.326055 
C 24.493787 19.444722 24.321049 19.566124 24.15025 19.690217 
L 36 36 
L 25.197733 18.978349 
z
" style="fill:#5d77fe;"/>
   </g>
   <g id="patch_10">
    <path d="M 24.15025 19.690217 
C 20.267811 22.510973 17.517318 26.627378 16.397023 31.29374 
C 15.276728 35.960103 15.858627 40.876544 18.037308 45.152447 
C 20.215989 49.42835 23.851441 52.788928 28.2851 54.625411 
C 32.718759 56.461893 37.6657 56.656259 42.22978 55.1733 
L 36 36 
L 24.15025 19.690217 
z
" style="fill:#f88b10;"/>
   </g>
   <g id="patch_11">
    <path d="M 42.22978 55.1733 
C 46.278155 53.857904 49.807748 51.293505 52.309781 47.849753 
C 54.811814 44.406 56.16 40.256715 56.16 36.000002 
L 36 36 
L 42.22978 55.1733 
z
" style="fill:#98161a;"/>
   </g>
   <g id="patch_12">
    <path d="M 53.28 36 
C 53.28 36 53.28 36 53.28 36 
L 36 36 
L 53.28 36 
z
" style="fill:#278c18;"/>
   </g>
   <g id="patch_13">
    <path d="M 53.28 36 
C 53.28 35.094756 53.208866 34.190911 53.067255 33.296812 
C 52.925643 32.402714 52.713992 31.521124 52.434257 30.660186 
L 36 36 
L 53.28 36 
z
" style="fill:#67c8f3;"/>
   </g>
   <g id="patch_14">
    <path d="M 52.434257 30.660186 
C 51.648258 28.24113 50.337755 26.025191 48.596578 24.171026 
C 46.855401 22.316861 44.726121 20.869804 42.361192 19.933462 
L 36 36 
L 52.434257 30.660186 
z
" style="fill:#103129;"/>
   </g>
   <g id="patch_15">
    <path d="M 42.361192 19.933462 
C 39.825849 18.929649 37.088537 18.540072 34.373808 18.796689 
C 31.659079 19.053307 29.043252 19.948905 26.740912 21.410014 
L 36 36 
L 42.361192 19.933462 
z
" style="fill:#68ecac;"/>
   </g>
   <g id="patch_16">
    <path d="M 26.740912 21.410014 
C 26.588123 21.506977 26.436867 21.606334 26.287199 21.708048 
C 26.137531 21.809762 25.989469 21.913821 25.84307 22.020187 
L 36 36 
L 26.740912 21.410014 
z
" style="fill:#5d77fe;"/>
   </g>
   <g id="patch_17">
    <path d="M 25.84307 22.020187 
C 22.515266 24.437978 20.1577 27.966325 19.197448 31.966065 
C 18.237195 35.965804 18.735966 40.179896 20.603407 43.844956 
C 22.470849 47.510016 25.586951 50.390511 29.38723 51.964638 
C 33.187509 53.538766 37.427744 53.705365 41.339813 52.434257 
L 36 36 
L 25.84307 22.020187 
z
" style="fill:#f88b10;"/>
   </g>
   <g id="patch_18">
    <path d="M 41.339813 52.434257 
C 44.809848 51.306774 47.835214 49.108717 49.979813 46.156929 
C 52.124413 43.205141 53.28 39.648611 53.28 36 
L 36 36 
L 41.339813 52.434257 
z
" style="fill:#98161a;"/>
   </g>
  </g>
 </g>
</svg>
