<?xml version="1.0" encoding="utf-8" standalone="no"?>
<!DOCTYPE svg PUBLIC "-//W3C//DTD SVG 1.1//EN"
  "http://www.w3.org/Graphics/SVG/1.1/DTD/svg11.dtd">
<!-- Created with matplotlib (http://matplotlib.org/) -->
<svg height="72pt" version="1.1" viewBox="0 0 72 72" width="72pt" xmlns="http://www.w3.org/2000/svg" xmlns:xlink="http://www.w3.org/1999/xlink">
 <defs>
  <style type="text/css">
*{stroke-linecap:butt;stroke-linejoin:round;}
  </style>
 </defs>
 <g id="figure_1">
  <g id="patch_1">
   <path d="M 0 72 
L 72 72 
L 72 0 
L 0 0 
z
" style="fill:#ffffff;"/>
  </g>
  <g id="axes_1">
   <g id="patch_2">
    <path d="M 61.92 36 
C 61.92 32.596217 61.249529 29.225531 59.946957 26.080845 
C 58.644386 22.93616 56.735046 20.07863 54.328208 17.671792 
C 51.92137 15.264954 49.06384 13.355614 45.919155 12.053043 
C 42.774469 10.750471 39.403783 10.08 36 10.08 
C 32.596217 10.08 29.225531 10.750471 26.080845 12.053043 
C 22.93616 13.355614 20.07863 15.264954 17.671792 17.671792 
C 15.264954 20.07863 13.355614 22.93616 12.053043 26.080845 
C 10.750471 29.225531 10.08 32.596217 10.08 36 
C 10.08 39.403783 10.750471 42.774469 12.053043 45.919155 
C 13.355614 49.06384 15.264954 51.92137 17.671792 54.328208 
C 20.07863 56.735046 22.93616 58.644386 26.080845 59.946957 
C 29.225531 61.249529 32.596217 61.92 36 61.92 
C 39.403783 61.92 42.774469 61.249529 45.919155 59.946957 
C 49.06384 58.644386 51.92137 56.735046 54.328208 54.328208 
C 56.735046 51.92137 58.644386 49.06384 59.946957 45.919155 
C 61.249529 42.774469 61.92 39.403783 61.92 36 
M 36 36 
M 61.92 36 
z
" style="fill:#278c18;"/>
   </g>
   <g id="patch_3">
    <path d="M 59.04 36 
C 59.04 34.551283 58.903361 33.10579 58.631898 31.682735 
C 58.360436 30.259679 57.955358 28.865393 57.42205 27.51841 
L 36 36 
L 59.04 36 
z
" style="fill:#278c18;"/>
   </g>
   <g id="patch_4">
    <path d="M 57.42205 27.51841 
C 56.218519 24.478636 54.381644 21.72956 52.033831 19.45437 
C 49.686017 17.17918 46.880599 15.429563 43.804521 14.322107 
C 40.728443 13.214651 37.451583 12.774514 34.192301 13.031025 
C 30.93302 13.287536 27.765356 14.234868 24.900394 15.809895 
C 22.035432 17.384921 19.538254 19.551862 17.575264 22.166319 
C 15.612275 24.780777 14.228066 27.783358 13.514877 30.973982 
C 12.801689 34.164605 12.775722 37.47079 13.438707 40.672222 
C 14.101692 43.873654 15.438568 46.897607 17.36025 49.542575 
L 36 36 
L 57.42205 27.51841 
z
" style="fill:#67c8f3;"/>
   </g>
   <g id="patch_5">
    <path d="M 17.36025 49.542575 
C 20.219717 53.478292 24.253538 56.409033 28.880251 57.912343 
C 33.506965 59.415653 38.493042 59.415652 43.119755 57.912341 
C 47.746468 56.40903 51.780288 53.478287 54.639754 49.542569 
C 57.499219 45.606851 59.040001 40.864811 59.04 35.999996 
L 36 36 
L 17.36025 49.542575 
z
" style="fill:#f88b10;"/>
   </g>
   <g id="patch_6">
    <path d="M 56.16 36 
C 56.16 34.732373 56.040441 33.467567 55.802911 32.222393 
C 55.565381 30.977219 55.210939 29.757219 54.744294 28.578609 
L 36 36 
L 56.16 36 
z
" style="fill:#278c18;"/>
   </g>
   <g id="patch_7">
    <path d="M 54.744294 28.578609 
C 54.744294 28.578609 54.744294 28.578609 54.744294 28.578609 
L 36 36 
L 54.744294 28.578609 
z
" style="fill:#67c8f3;"/>
   </g>
   <g id="patch_8">
    <path d="M 54.744294 28.578609 
C 53.057673 24.318691 49.96822 20.758411 45.988447 18.488389 
C 42.008674 16.218366 37.371532 15.371474 32.846281 16.088203 
C 28.32103 16.804932 24.17255 19.043331 21.089037 22.432068 
C 18.005523 25.820805 16.167466 30.161526 15.879781 34.734144 
L 36 36 
L 54.744294 28.578609 
z
" style="fill:#103129;"/>
   </g>
   <g id="patch_9">
    <path d="M 15.879781 34.734144 
C 15.733603 37.057578 15.99098 39.388871 16.640479 41.624461 
C 17.289979 43.860052 18.321837 45.966337 19.690218 47.849751 
L 36 36 
L 15.879781 34.734144 
z
" style="fill:#5d77fe;"/>
   </g>
   <g id="patch_10">
    <path d="M 19.690218 47.849751 
C 21.183696 49.905348 23.052415 51.660192 25.197732 53.021651 
C 27.343049 54.383111 29.726541 55.326802 32.222393 55.802911 
L 36 36 
L 19.690218 47.849751 
z
" style="fill:#f88b10;"/>
   </g>
   <g id="patch_11">
    <path d="M 32.222393 55.802911 
C 35.137301 56.358959 38.139347 56.264616 41.013588 55.526636 
C 43.88783 54.788657 46.563993 53.425083 48.850468 51.533547 
C 51.136943 49.64201 52.977826 47.268757 54.241314 44.58371 
C 55.504801 41.898663 56.16 38.96747 56.16 36 
L 36 36 
L 32.222393 55.802911 
z
" style="fill:#98161a;"/>
   </g>
   <g id="patch_12">
    <path d="M 53.28 36 
C 53.28 34.913463 53.177521 33.829343 52.973924 32.762051 
C 52.770327 31.694759 52.466519 30.649045 52.066538 29.638808 
L 36 36 
L 53.28 36 
z
" style="fill:#278c18;"/>
   </g>
   <g id="patch_13">
    <path d="M 52.066538 29.638808 
C 52.066538 29.638808 52.066538 29.638808 52.066538 29.638808 
L 36 36 
L 52.066538 29.638808 
z
" style="fill:#67c8f3;"/>
   </g>
   <g id="patch_14">
    <path d="M 52.066538 29.638808 
C 50.859551 26.590308 48.809489 23.947384 46.156929 22.020186 
C 43.504369 20.092988 40.357295 18.959972 37.08502 18.754098 
L 36 36 
L 52.066538 29.638808 
z
" style="fill:#103129;"/>
   </g>
   <g id="patch_15">
    <path d="M 37.08502 18.754098 
C 32.512876 18.466443 28.008927 20.00849 24.57253 23.038081 
C 21.136134 26.067672 19.041753 30.342837 18.754098 34.91498 
L 36 36 
L 37.08502 18.754098 
z
" style="fill:#68ecac;"/>
   </g>
   <g id="patch_16">
    <path d="M 18.754098 34.91498 
C 18.628803 36.906495 18.849412 38.904747 19.406125 40.820967 
C 19.962839 42.737187 20.847289 44.542575 22.020187 46.15693 
L 36 36 
L 18.754098 34.91498 
z
" style="fill:#5d77fe;"/>
   </g>
   <g id="patch_17">
    <path d="M 22.020187 46.15693 
C 23.300311 47.91887 24.90207 49.423021 26.740913 50.589987 
C 28.579756 51.756952 30.622749 52.56583 32.762051 52.973924 
L 36 36 
L 22.020187 46.15693 
z
" style="fill:#f88b10;"/>
   </g>
   <g id="patch_18">
    <path d="M 32.762051 52.973924 
C 35.260544 53.450537 37.833726 53.369671 40.297362 52.737117 
C 42.760997 52.104563 45.054851 50.935786 47.014687 49.314469 
C 48.974522 47.693151 50.552423 45.658935 51.635412 43.357466 
C 52.718401 41.055997 53.28 38.543545 53.28 36 
L 36 36 
L 32.762051 52.973924 
z
" style="fill:#98161a;"/>
   </g>
  </g>
 </g>
</svg>
