<?xml version="1.0" encoding="utf-8" standalone="no"?>
<!DOCTYPE svg PUBLIC "-//W3C//DTD SVG 1.1//EN"
  "http://www.w3.org/Graphics/SVG/1.1/DTD/svg11.dtd">
<!-- Created with matplotlib (http://matplotlib.org/) -->
<svg height="72pt" version="1.1" viewBox="0 0 72 72" width="72pt" xmlns="http://www.w3.org/2000/svg" xmlns:xlink="http://www.w3.org/1999/xlink">
 <defs>
  <style type="text/css">
*{stroke-linecap:butt;stroke-linejoin:round;}
  </style>
 </defs>
 <g id="figure_1">
  <g id="patch_1">
   <path d="M 0 72 
L 72 72 
L 72 0 
L 0 0 
z
" style="fill:#ffffff;"/>
  </g>
  <g id="axes_1">
   <g id="patch_2">
    <path d="M 61.92 36 
C 61.92 32.596217 61.249529 29.225531 59.946957 26.080845 
C 58.644386 22.93616 56.735046 20.07863 54.328208 17.671792 
C 51.92137 15.264954 49.06384 13.355614 45.919155 12.053043 
C 42.774469 10.750471 39.403783 10.08 36 10.08 
C 32.596217 10.08 29.225531 10.750471 26.080845 12.053043 
C 22.93616 13.355614 20.07863 15.264954 17.671792 17.671792 
C 15.264954 20.07863 13.355614 22.93616 12.053043 26.080845 
C 10.750471 29.225531 10.08 32.596217 10.08 36 
C 10.08 39.403783 10.750471 42.774469 12.053043 45.919155 
C 13.355614 49.06384 15.264954 51.92137 17.671792 54.328208 
C 20.07863 56.735046 22.93616 58.644386 26.080845 59.946957 
C 29.225531 61.249529 32.596217 61.92 36 61.92 
C 39.403783 61.92 42.774469 61.249529 45.919155 59.946957 
C 49.06384 58.644386 51.92137 56.735046 54.328208 54.328208 
C 56.735046 51.92137 58.644386 49.06384 59.946957 45.919155 
C 61.249529 42.774469 61.92 39.403783 61.92 36 
M 36 36 
M 61.92 36 
z
" style="fill:#278c18;"/>
   </g>
   <g id="patch_3">
    <path d="M 59.04 36 
C 59.04 36 59.04 36 59.04 36 
L 36 36 
L 59.04 36 
z
" style="fill:#278c18;"/>
   </g>
   <g id="patch_4">
    <path d="M 59.04 36 
C 59.04 32.05813 58.028389 28.181433 56.102308 24.742167 
C 54.176227 21.302901 51.399364 18.414793 48.038368 16.355171 
C 44.677371 14.29555 40.843378 13.13252 36.904547 12.977763 
C 32.965717 12.823006 29.052292 13.681638 25.54006 15.471209 
C 22.027829 17.26078 19.032927 19.922115 16.842941 23.19966 
C 14.652955 26.477205 13.340301 30.262582 13.031025 34.1923 
C 12.721749 38.122018 13.426078 42.066135 15.07638 45.645918 
C 16.726682 49.2257 19.268386 52.322776 22.457425 54.63975 
L 36 36 
L 59.04 36 
z
" style="fill:#67c8f3;"/>
   </g>
   <g id="patch_5">
    <path d="M 22.457425 54.63975 
C 25.8947 57.137077 29.95669 58.635625 34.192299 58.968975 
C 38.427907 59.302325 42.674313 58.457663 46.459938 56.528792 
C 50.245563 54.599921 53.424884 51.660987 55.644827 48.03837 
C 57.864771 44.415754 59.039999 40.24871 59.04 36.000004 
L 36 36 
L 22.457425 54.63975 
z
" style="fill:#f88b10;"/>
   </g>
   <g id="patch_6">
    <path d="M 56.16 36 
C 56.16 36 56.16 36 56.16 36 
L 36 36 
L 56.16 36 
z
" style="fill:#278c18;"/>
   </g>
   <g id="patch_7">
    <path d="M 56.16 36 
C 56.16 36 56.16 36 56.16 36 
L 36 36 
L 56.16 36 
z
" style="fill:#67c8f3;"/>
   </g>
   <g id="patch_8">
    <path d="M 56.16 36 
C 56.16 34.096806 55.890495 32.203164 55.359521 30.375539 
C 54.828546 28.547914 54.041433 26.804651 53.021651 25.197731 
L 36 36 
L 56.16 36 
z
" style="fill:#103129;"/>
   </g>
   <g id="patch_9">
    <path d="M 53.021651 25.197731 
C 51.431601 22.692214 49.307786 20.568399 46.802268 18.978349 
C 44.29675 17.388299 41.470788 16.37089 38.526717 15.998968 
C 35.582647 15.627045 32.592449 15.909702 29.770217 16.826701 
C 26.947985 17.7437 24.362722 19.27262 22.19953 21.303993 
C 20.036337 23.335366 18.348104 25.819526 17.255706 28.57861 
C 16.163307 31.337694 15.693452 34.304243 15.879781 37.265858 
C 16.06611 40.227472 16.904068 43.111741 18.333658 45.712155 
C 19.763247 48.312569 21.749516 50.565548 24.15025 52.309783 
L 36 36 
L 53.021651 25.197731 
z
" style="fill:#5d77fe;"/>
   </g>
   <g id="patch_10">
    <path d="M 24.15025 52.309783 
C 26.37828 53.928542 28.914561 55.073716 31.602233 55.674482 
C 34.289904 56.275248 37.072392 56.318958 39.777607 55.802911 
C 42.482823 55.286863 45.053824 54.22192 47.331601 52.673944 
C 49.609378 51.125969 51.545986 49.127545 53.021651 46.802269 
L 36 36 
L 24.15025 52.309783 
z
" style="fill:#f88b10;"/>
   </g>
   <g id="patch_11">
    <path d="M 53.021651 46.802269 
C 54.041433 45.195349 54.828546 43.452086 55.359521 41.624461 
C 55.890495 39.796836 56.16 37.903194 56.16 36 
L 36 36 
L 53.021651 46.802269 
z
" style="fill:#98161a;"/>
   </g>
   <g id="patch_12">
    <path d="M 53.28 36 
C 53.28 36 53.28 36 53.28 36 
L 36 36 
L 53.28 36 
z
" style="fill:#278c18;"/>
   </g>
   <g id="patch_13">
    <path d="M 53.28 36 
C 53.28 36 53.28 36 53.28 36 
L 36 36 
L 53.28 36 
z
" style="fill:#67c8f3;"/>
   </g>
   <g id="patch_14">
    <path d="M 53.28 36 
C 53.28 34.550452 53.097605 33.106647 52.737117 31.702639 
C 52.376629 30.298631 51.840905 28.945545 51.14258 27.675297 
L 36 36 
L 53.28 36 
z
" style="fill:#103129;"/>
   </g>
   <g id="patch_15">
    <path d="M 51.14258 27.675297 
C 51.055402 27.516721 50.965738 27.359524 50.873622 27.203765 
C 50.781506 27.048005 50.68695 26.893702 50.589987 26.740913 
L 36 36 
L 51.14258 27.675297 
z
" style="fill:#68ecac;"/>
   </g>
   <g id="patch_16">
    <path d="M 50.589987 26.740913 
C 49.227087 24.593326 47.406674 22.772914 45.259087 21.410014 
C 43.1115 20.047114 40.689248 19.175049 38.165758 18.856258 
C 35.642269 18.537467 33.079242 18.779744 30.660186 19.565743 
C 28.241131 20.351742 26.025191 21.662245 24.171026 23.403422 
C 22.316861 25.144599 20.869804 27.273879 19.933462 29.638808 
C 18.997121 32.003737 18.594388 34.546493 18.754098 37.08502 
C 18.913809 39.623547 19.632058 42.095777 20.857421 44.324703 
C 22.082783 46.55363 23.785299 48.484755 25.843071 49.979814 
L 36 36 
L 50.589987 26.740913 
z
" style="fill:#5d77fe;"/>
   </g>
   <g id="patch_17">
    <path d="M 25.843071 49.979814 
C 27.752811 51.367321 29.926766 52.3489 32.230485 52.863842 
C 34.534203 53.378784 36.919192 53.41625 39.237949 52.973924 
C 41.556705 52.531597 43.76042 51.618789 45.7128 50.291953 
C 47.665181 48.965116 49.32513 47.252182 50.589986 45.259088 
L 36 36 
L 25.843071 49.979814 
z
" style="fill:#f88b10;"/>
   </g>
   <g id="patch_18">
    <path d="M 50.589986 45.259088 
C 51.464085 43.881728 52.138754 42.387503 52.593875 40.820967 
C 53.048996 39.254431 53.28 37.63131 53.28 36.000001 
L 36 36 
L 50.589986 45.259088 
z
" style="fill:#98161a;"/>
   </g>
  </g>
 </g>
</svg>
