<?xml version="1.0" encoding="utf-8" standalone="no"?>
<!DOCTYPE svg PUBLIC "-//W3C//DTD SVG 1.1//EN"
  "http://www.w3.org/Graphics/SVG/1.1/DTD/svg11.dtd">
<svg xmlns:xlink="http://www.w3.org/1999/xlink" width="72pt" height="86.90625pt" viewBox="0 0 72 86.90625" xmlns="http://www.w3.org/2000/svg" version="1.1">
 <metadata>
  <rdf:RDF xmlns:dc="http://purl.org/dc/elements/1.1/" xmlns:cc="http://creativecommons.org/ns#" xmlns:rdf="http://www.w3.org/1999/02/22-rdf-syntax-ns#">
   <cc:Work>
    <dc:type rdf:resource="http://purl.org/dc/dcmitype/StillImage"/>
    <dc:date>2024-03-06T18:44:20.672662</dc:date>
    <dc:format>image/svg+xml</dc:format>
    <dc:creator>
     <cc:Agent>
      <dc:title>Matplotlib v3.5.3, https://matplotlib.org/</dc:title>
     </cc:Agent>
    </dc:creator>
   </cc:Work>
  </rdf:RDF>
 </metadata>
 <defs>
  <style type="text/css">*{stroke-linejoin: round; stroke-linecap: butt}</style>
 </defs>
 <g id="figure_1">
  <g id="patch_1">
   <path d="M 0 86.90625 
L 72 86.90625 
L 72 0 
L 0 0 
L 0 86.90625 
z
" style="fill: none"/>
  </g>
  <g id="axes_1">
   <g id="patch_2">
    <path d="M 59.04 50.90625 
C 59.04 47.880665 58.444026 44.8845 57.286184 42.089224 
C 56.128343 39.293948 54.431152 36.753921 52.29174 34.61451 
C 50.152329 32.475098 47.612302 30.777907 44.817026 29.620066 
C 42.02175 28.462224 39.025585 27.86625 36 27.86625 
C 32.974415 27.86625 29.97825 28.462224 27.182974 29.620066 
C 24.387698 30.777907 21.847671 32.475098 19.70826 34.61451 
C 17.568848 36.753921 15.871657 39.293948 14.713816 42.089224 
C 13.555974 44.8845 12.96 47.880665 12.96 50.90625 
C 12.96 53.931835 13.555974 56.928 14.713816 59.723276 
C 15.871657 62.518552 17.568848 65.058579 19.70826 67.19799 
C 21.847671 69.337402 24.387698 71.034593 27.182974 72.192434 
C 29.97825 73.350276 32.974415 73.94625 36 73.94625 
C 39.025585 73.94625 42.02175 73.350276 44.817026 72.192434 
C 47.612302 71.034593 50.152329 69.337402 52.29174 67.19799 
C 54.431152 65.058579 56.128343 62.518552 57.286184 59.723276 
C 58.444026 56.928 59.04 53.931835 59.04 50.90625 
M 36 50.90625 
M 59.04 50.90625 
z
" style="fill: #278c18"/>
   </g>
   <g id="patch_3">
    <path d="M 56.16 50.90625 
C 56.16 50.90625 56.16 50.90625 56.16 50.90625 
C 56.16 50.90625 56.16 50.90625 56.16 50.90625 
L 36 50.90625 
L 56.16 50.90625 
z
" style="fill: #278c18"/>
   </g>
   <g id="patch_4">
    <path d="M 56.16 50.90625 
C 56.16 47.367694 55.22835 43.890729 53.459072 40.82625 
C 51.689794 37.761771 49.144479 35.216455 46.079999 33.447178 
C 43.01552 31.6779 39.538555 30.74625 35.999999 30.74625 
C 32.461443 30.74625 28.984478 31.6779 25.919999 33.447178 
L 36 50.90625 
L 56.16 50.90625 
z
" style="fill: #f88b10"/>
   </g>
   <g id="patch_5">
    <path d="M 25.919999 33.447178 
C 22.85552 35.216457 20.310205 37.761772 18.540927 40.826251 
C 16.771649 43.890731 15.84 47.367696 15.84 50.906252 
C 15.84 54.444808 16.771651 57.921773 18.540929 60.986252 
C 20.310207 64.050731 22.855523 66.596046 25.920002 68.365323 
C 28.984482 70.134601 32.461447 71.06625 36.000003 71.06625 
C 39.538559 71.06625 43.015524 70.134599 46.080003 68.365321 
C 49.144482 66.596042 51.689797 64.050727 53.459074 60.986247 
C 55.228351 57.921767 56.160001 54.444802 56.16 50.906246 
L 36 50.90625 
L 25.919999 33.447178 
z
" style="fill: #67c8f3"/>
   </g>
   <g id="patch_6">
    <path d="M 53.28 50.90625 
C 53.28 50.90625 53.28 50.90625 53.28 50.90625 
C 53.28 50.90625 53.28 50.90625 53.28 50.90625 
L 36 50.90625 
L 53.28 50.90625 
z
" style="fill: #278c18"/>
   </g>
   <g id="patch_7">
    <path d="M 53.28 50.90625 
C 53.28 47.873202 52.481443 44.892946 50.964919 42.26625 
C 49.448395 39.639553 47.266696 37.457855 44.64 35.941331 
C 42.013303 34.424807 39.033047 33.62625 35.999999 33.62625 
C 32.966951 33.62625 29.986695 34.424807 27.359999 35.941332 
L 36 50.90625 
L 53.28 50.90625 
z
" style="fill: #f88b10"/>
   </g>
   <g id="patch_8">
    <path d="M 27.359999 35.941332 
C 23.842544 37.972135 21.151262 41.179481 19.762111 44.996143 
C 18.37296 48.812806 18.37296 52.999697 19.762112 56.816359 
L 36 50.90625 
L 27.359999 35.941332 
z
" style="fill: #67c8f3"/>
   </g>
   <g id="patch_9">
    <path d="M 19.762112 56.816359 
C 21.151264 60.633022 23.842546 63.840366 27.360001 65.87117 
C 30.877456 67.901973 35.00074 68.629019 39.000642 67.923728 
L 36 50.90625 
L 19.762112 56.816359 
z
" style="fill: #5d77fe"/>
   </g>
   <g id="patch_10">
    <path d="M 39.000642 67.923728 
C 43.000544 67.218437 46.626498 65.124991 49.237249 62.013619 
C 51.848 58.902247 53.28 54.967856 53.28 50.906248 
L 36 50.90625 
L 39.000642 67.923728 
z
" style="fill: #103129"/>
   </g>
   <g id="text_1">
    <!-- p2_t2 -->
    <g transform="translate(19.20375 8.90625)scale(0.12 -0.12)">
     <defs>
      <path id="DejaVuSans-70" d="M 1159 525 
L 1159 -1331 
L 581 -1331 
L 581 3500 
L 1159 3500 
L 1159 2969 
Q 1341 3281 1617 3432 
Q 1894 3584 2278 3584 
Q 2916 3584 3314 3078 
Q 3713 2572 3713 1747 
Q 3713 922 3314 415 
Q 2916 -91 2278 -91 
Q 1894 -91 1617 61 
Q 1341 213 1159 525 
z
M 3116 1747 
Q 3116 2381 2855 2742 
Q 2594 3103 2138 3103 
Q 1681 3103 1420 2742 
Q 1159 2381 1159 1747 
Q 1159 1113 1420 752 
Q 1681 391 2138 391 
Q 2594 391 2855 752 
Q 3116 1113 3116 1747 
z
" transform="scale(0.015625)"/>
      <path id="DejaVuSans-32" d="M 1228 531 
L 3431 531 
L 3431 0 
L 469 0 
L 469 531 
Q 828 903 1448 1529 
Q 2069 2156 2228 2338 
Q 2531 2678 2651 2914 
Q 2772 3150 2772 3378 
Q 2772 3750 2511 3984 
Q 2250 4219 1831 4219 
Q 1534 4219 1204 4116 
Q 875 4013 500 3803 
L 500 4441 
Q 881 4594 1212 4672 
Q 1544 4750 1819 4750 
Q 2544 4750 2975 4387 
Q 3406 4025 3406 3419 
Q 3406 3131 3298 2873 
Q 3191 2616 2906 2266 
Q 2828 2175 2409 1742 
Q 1991 1309 1228 531 
z
" transform="scale(0.015625)"/>
      <path id="DejaVuSans-5f" d="M 3263 -1063 
L 3263 -1509 
L -63 -1509 
L -63 -1063 
L 3263 -1063 
z
" transform="scale(0.015625)"/>
      <path id="DejaVuSans-74" d="M 1172 4494 
L 1172 3500 
L 2356 3500 
L 2356 3053 
L 1172 3053 
L 1172 1153 
Q 1172 725 1289 603 
Q 1406 481 1766 481 
L 2356 481 
L 2356 0 
L 1766 0 
Q 1100 0 847 248 
Q 594 497 594 1153 
L 594 3053 
L 172 3053 
L 172 3500 
L 594 3500 
L 594 4494 
L 1172 4494 
z
" transform="scale(0.015625)"/>
     </defs>
     <use xlink:href="#DejaVuSans-70"/>
     <use xlink:href="#DejaVuSans-32" x="63.476562"/>
     <use xlink:href="#DejaVuSans-5f" x="127.099609"/>
     <use xlink:href="#DejaVuSans-74" x="177.099609"/>
     <use xlink:href="#DejaVuSans-32" x="216.308594"/>
    </g>
   </g>
  </g>
 </g>
</svg>
