<?xml version="1.0" encoding="utf-8" standalone="no"?>
<!DOCTYPE svg PUBLIC "-//W3C//DTD SVG 1.1//EN"
  "http://www.w3.org/Graphics/SVG/1.1/DTD/svg11.dtd">
<svg xmlns:xlink="http://www.w3.org/1999/xlink" width="72pt" height="86.90625pt" viewBox="0 0 72 86.90625" xmlns="http://www.w3.org/2000/svg" version="1.1">
 <metadata>
  <rdf:RDF xmlns:dc="http://purl.org/dc/elements/1.1/" xmlns:cc="http://creativecommons.org/ns#" xmlns:rdf="http://www.w3.org/1999/02/22-rdf-syntax-ns#">
   <cc:Work>
    <dc:type rdf:resource="http://purl.org/dc/dcmitype/StillImage"/>
    <dc:date>2024-03-06T18:44:08.659067</dc:date>
    <dc:format>image/svg+xml</dc:format>
    <dc:creator>
     <cc:Agent>
      <dc:title>Matplotlib v3.5.3, https://matplotlib.org/</dc:title>
     </cc:Agent>
    </dc:creator>
   </cc:Work>
  </rdf:RDF>
 </metadata>
 <defs>
  <style type="text/css">*{stroke-linejoin: round; stroke-linecap: butt}</style>
 </defs>
 <g id="figure_1">
  <g id="patch_1">
   <path d="M 0 86.90625 
L 72 86.90625 
L 72 0 
L 0 0 
L 0 86.90625 
z
" style="fill: none"/>
  </g>
  <g id="axes_1">
   <g id="patch_2">
    <path d="M 59.04 50.90625 
C 59.04 47.880665 58.444026 44.8845 57.286184 42.089224 
C 56.128343 39.293948 54.431152 36.753921 52.29174 34.61451 
C 50.152329 32.475098 47.612302 30.777907 44.817026 29.620066 
C 42.02175 28.462224 39.025585 27.86625 36 27.86625 
C 32.974415 27.86625 29.97825 28.462224 27.182974 29.620066 
C 24.387698 30.777907 21.847671 32.475098 19.70826 34.61451 
C 17.568848 36.753921 15.871657 39.293948 14.713816 42.089224 
C 13.555974 44.8845 12.96 47.880665 12.96 50.90625 
C 12.96 53.931835 13.555974 56.928 14.713816 59.723276 
C 15.871657 62.518552 17.568848 65.058579 19.70826 67.19799 
C 21.847671 69.337402 24.387698 71.034593 27.182974 72.192434 
C 29.97825 73.350276 32.974415 73.94625 36 73.94625 
C 39.025585 73.94625 42.02175 73.350276 44.817026 72.192434 
C 47.612302 71.034593 50.152329 69.337402 52.29174 67.19799 
C 54.431152 65.058579 56.128343 62.518552 57.286184 59.723276 
C 58.444026 56.928 59.04 53.931835 59.04 50.90625 
M 36 50.90625 
M 59.04 50.90625 
z
" style="fill: #278c18"/>
   </g>
   <g id="patch_3">
    <path d="M 56.16 50.90625 
C 56.16 50.90625 56.16 50.90625 56.16 50.90625 
L 36 50.90625 
L 56.16 50.90625 
z
" style="fill: #278c18"/>
   </g>
   <g id="patch_4">
    <path d="M 56.16 50.90625 
C 56.16 45.561536 54.034556 40.430261 50.255273 36.650977 
C 46.475989 32.871694 41.344714 30.74625 36 30.74625 
L 36 50.90625 
L 56.16 50.90625 
z
" style="fill: #67c8f3"/>
   </g>
   <g id="patch_5">
    <path d="M 36 30.74625 
C 32.013206 30.74625 28.114602 31.928878 24.799704 34.143823 
C 21.484806 36.358767 18.900269 39.508035 17.374589 43.191352 
C 15.848909 46.874669 15.449584 50.929082 16.227369 54.839271 
C 17.005154 58.74946 18.925638 62.342434 21.744727 65.161523 
C 24.563816 67.980612 28.15679 69.901096 32.066979 70.678881 
C 35.977168 71.456666 40.031581 71.057341 43.714898 69.531661 
C 47.398215 68.005981 50.547483 65.421444 52.762427 62.106546 
C 54.977372 58.791648 56.16 54.893044 56.16 50.90625 
L 36 50.90625 
L 36 30.74625 
z
" style="fill: #f88b10"/>
   </g>
   <g id="patch_6">
    <path d="M 53.28 50.90625 
C 53.28 50.90625 53.28 50.90625 53.28 50.90625 
L 36 50.90625 
L 53.28 50.90625 
z
" style="fill: #278c18"/>
   </g>
   <g id="patch_7">
    <path d="M 53.28 50.90625 
C 53.28 50.558232 53.269486 50.210293 53.248474 49.86291 
C 53.227461 49.515526 53.195958 49.168857 53.154009 48.823376 
L 36 50.90625 
L 53.28 50.90625 
z
" style="fill: #67c8f3"/>
   </g>
   <g id="patch_8">
    <path d="M 53.154009 48.823376 
C 52.645216 44.633086 50.618273 40.771069 47.458759 37.971984 
C 44.299246 35.172899 40.221066 33.62625 36 33.62625 
L 36 50.90625 
L 53.154009 48.823376 
z
" style="fill: #103129"/>
   </g>
   <g id="patch_9">
    <path d="M 36 33.62625 
C 32.582748 33.62625 29.241087 34.639932 26.399746 36.538455 
C 23.558405 38.436979 21.343087 41.136351 20.035362 44.29348 
C 18.727636 47.45061 18.385358 50.92582 19.05203 54.277411 
C 19.718703 57.629001 21.364833 60.708693 23.781195 63.125055 
L 36 50.90625 
L 36 33.62625 
z
" style="fill: #f88b10"/>
   </g>
   <g id="patch_10">
    <path d="M 23.781195 63.125055 
C 26.197557 65.541417 29.277249 67.187547 32.628839 67.85422 
C 35.98043 68.520892 39.455641 68.178614 42.61277 66.870888 
C 45.769899 65.563162 48.469272 63.347845 50.367795 60.506503 
C 52.266319 57.665162 53.28 54.323502 53.28 50.90625 
L 36 50.90625 
L 23.781195 63.125055 
z
" style="fill: #68ecac"/>
   </g>
   <g id="patch_11">
    <path d="M 50.4 50.90625 
C 50.4 50.90625 50.4 50.90625 50.4 50.90625 
L 36 50.90625 
L 50.4 50.90625 
z
" style="fill: #278c18"/>
   </g>
   <g id="patch_12">
    <path d="M 50.4 50.90625 
C 50.4 50.616235 50.391239 50.326286 50.373728 50.0368 
C 50.356217 49.747313 50.329965 49.458422 50.295008 49.170522 
L 36 50.90625 
L 50.4 50.90625 
z
" style="fill: #67c8f3"/>
   </g>
   <g id="patch_13">
    <path d="M 50.295008 49.170522 
C 50.295008 49.170522 50.295008 49.170522 50.295008 49.170522 
L 36 50.90625 
L 50.295008 49.170522 
z
" style="fill: #103129"/>
   </g>
   <g id="patch_14">
    <path d="M 50.295008 49.170522 
C 50.211079 48.47931 50.077128 47.795095 49.894208 47.123264 
C 49.711288 46.451432 49.47988 45.793752 49.201808 45.1554 
L 36 50.90625 
L 50.295008 49.170522 
z
" style="fill: #5d77fe"/>
   </g>
   <g id="patch_15">
    <path d="M 49.201808 45.1554 
C 48.082271 42.585361 46.236252 40.39732 43.89138 38.86108 
C 41.546508 37.324839 38.803294 36.50625 35.999999 36.50625 
L 36 50.90625 
L 49.201808 45.1554 
z
" style="fill: #98161a"/>
   </g>
   <g id="patch_16">
    <path d="M 35.999999 36.50625 
C 33.152289 36.50625 30.367573 37.350985 27.999788 38.933088 
C 25.632004 40.515191 23.785906 42.764668 22.696135 45.395609 
C 21.606363 48.02655 21.321131 50.922559 21.876692 53.715551 
C 22.432253 56.508543 23.804028 59.074953 25.817663 61.088588 
L 36 50.90625 
L 35.999999 36.50625 
z
" style="fill: #f88b10"/>
   </g>
   <g id="patch_17">
    <path d="M 25.817663 61.088588 
C 27.831298 63.102223 30.397708 64.473998 33.1907 65.029558 
C 35.983692 65.585119 38.879701 65.299887 41.510642 64.210115 
C 44.141583 63.120344 46.39106 61.274245 47.973163 58.906461 
C 49.555266 56.538677 50.4 53.75396 50.4 50.906249 
L 36 50.90625 
L 25.817663 61.088588 
z
" style="fill: #68ecac"/>
   </g>
   <g id="text_1">
    <!-- p1_t3 -->
    <g transform="translate(19.20375 8.90625)scale(0.12 -0.12)">
     <defs>
      <path id="DejaVuSans-70" d="M 1159 525 
L 1159 -1331 
L 581 -1331 
L 581 3500 
L 1159 3500 
L 1159 2969 
Q 1341 3281 1617 3432 
Q 1894 3584 2278 3584 
Q 2916 3584 3314 3078 
Q 3713 2572 3713 1747 
Q 3713 922 3314 415 
Q 2916 -91 2278 -91 
Q 1894 -91 1617 61 
Q 1341 213 1159 525 
z
M 3116 1747 
Q 3116 2381 2855 2742 
Q 2594 3103 2138 3103 
Q 1681 3103 1420 2742 
Q 1159 2381 1159 1747 
Q 1159 1113 1420 752 
Q 1681 391 2138 391 
Q 2594 391 2855 752 
Q 3116 1113 3116 1747 
z
" transform="scale(0.015625)"/>
      <path id="DejaVuSans-31" d="M 794 531 
L 1825 531 
L 1825 4091 
L 703 3866 
L 703 4441 
L 1819 4666 
L 2450 4666 
L 2450 531 
L 3481 531 
L 3481 0 
L 794 0 
L 794 531 
z
" transform="scale(0.015625)"/>
      <path id="DejaVuSans-5f" d="M 3263 -1063 
L 3263 -1509 
L -63 -1509 
L -63 -1063 
L 3263 -1063 
z
" transform="scale(0.015625)"/>
      <path id="DejaVuSans-74" d="M 1172 4494 
L 1172 3500 
L 2356 3500 
L 2356 3053 
L 1172 3053 
L 1172 1153 
Q 1172 725 1289 603 
Q 1406 481 1766 481 
L 2356 481 
L 2356 0 
L 1766 0 
Q 1100 0 847 248 
Q 594 497 594 1153 
L 594 3053 
L 172 3053 
L 172 3500 
L 594 3500 
L 594 4494 
L 1172 4494 
z
" transform="scale(0.015625)"/>
      <path id="DejaVuSans-33" d="M 2597 2516 
Q 3050 2419 3304 2112 
Q 3559 1806 3559 1356 
Q 3559 666 3084 287 
Q 2609 -91 1734 -91 
Q 1441 -91 1130 -33 
Q 819 25 488 141 
L 488 750 
Q 750 597 1062 519 
Q 1375 441 1716 441 
Q 2309 441 2620 675 
Q 2931 909 2931 1356 
Q 2931 1769 2642 2001 
Q 2353 2234 1838 2234 
L 1294 2234 
L 1294 2753 
L 1863 2753 
Q 2328 2753 2575 2939 
Q 2822 3125 2822 3475 
Q 2822 3834 2567 4026 
Q 2313 4219 1838 4219 
Q 1578 4219 1281 4162 
Q 984 4106 628 3988 
L 628 4550 
Q 988 4650 1302 4700 
Q 1616 4750 1894 4750 
Q 2613 4750 3031 4423 
Q 3450 4097 3450 3541 
Q 3450 3153 3228 2886 
Q 3006 2619 2597 2516 
z
" transform="scale(0.015625)"/>
     </defs>
     <use xlink:href="#DejaVuSans-70"/>
     <use xlink:href="#DejaVuSans-31" x="63.476562"/>
     <use xlink:href="#DejaVuSans-5f" x="127.099609"/>
     <use xlink:href="#DejaVuSans-74" x="177.099609"/>
     <use xlink:href="#DejaVuSans-33" x="216.308594"/>
    </g>
   </g>
  </g>
 </g>
</svg>
