<?xml version="1.0" encoding="utf-8" standalone="no"?>
<!DOCTYPE svg PUBLIC "-//W3C//DTD SVG 1.1//EN"
  "http://www.w3.org/Graphics/SVG/1.1/DTD/svg11.dtd">
<svg xmlns:xlink="http://www.w3.org/1999/xlink" width="72pt" height="86.90625pt" viewBox="0 0 72 86.90625" xmlns="http://www.w3.org/2000/svg" version="1.1">
 <metadata>
  <rdf:RDF xmlns:dc="http://purl.org/dc/elements/1.1/" xmlns:cc="http://creativecommons.org/ns#" xmlns:rdf="http://www.w3.org/1999/02/22-rdf-syntax-ns#">
   <cc:Work>
    <dc:type rdf:resource="http://purl.org/dc/dcmitype/StillImage"/>
    <dc:date>2024-03-06T18:44:08.484917</dc:date>
    <dc:format>image/svg+xml</dc:format>
    <dc:creator>
     <cc:Agent>
      <dc:title>Matplotlib v3.5.3, https://matplotlib.org/</dc:title>
     </cc:Agent>
    </dc:creator>
   </cc:Work>
  </rdf:RDF>
 </metadata>
 <defs>
  <style type="text/css">*{stroke-linejoin: round; stroke-linecap: butt}</style>
 </defs>
 <g id="figure_1">
  <g id="patch_1">
   <path d="M 0 86.90625 
L 72 86.90625 
L 72 0 
L 0 0 
L 0 86.90625 
z
" style="fill: none"/>
  </g>
  <g id="axes_1">
   <g id="patch_2">
    <path d="M 59.04 50.90625 
C 59.04 47.880665 58.444026 44.8845 57.286184 42.089224 
C 56.128343 39.293948 54.431152 36.753921 52.29174 34.61451 
C 50.152329 32.475098 47.612302 30.777907 44.817026 29.620066 
C 42.02175 28.462224 39.025585 27.86625 36 27.86625 
C 32.974415 27.86625 29.97825 28.462224 27.182974 29.620066 
C 24.387698 30.777907 21.847671 32.475098 19.70826 34.61451 
C 17.568848 36.753921 15.871657 39.293948 14.713816 42.089224 
C 13.555974 44.8845 12.96 47.880665 12.96 50.90625 
C 12.96 53.931835 13.555974 56.928 14.713816 59.723276 
C 15.871657 62.518552 17.568848 65.058579 19.70826 67.19799 
C 21.847671 69.337402 24.387698 71.034593 27.182974 72.192434 
C 29.97825 73.350276 32.974415 73.94625 36 73.94625 
C 39.025585 73.94625 42.02175 73.350276 44.817026 72.192434 
C 47.612302 71.034593 50.152329 69.337402 52.29174 67.19799 
C 54.431152 65.058579 56.128343 62.518552 57.286184 59.723276 
C 58.444026 56.928 59.04 53.931835 59.04 50.90625 
M 36 50.90625 
M 59.04 50.90625 
z
" style="fill: #278c18"/>
   </g>
   <g id="patch_3">
    <path d="M 56.16 50.90625 
C 56.16 50.90625 56.16 50.90625 56.16 50.90625 
L 36 50.90625 
L 56.16 50.90625 
z
" style="fill: #278c18"/>
   </g>
   <g id="patch_4">
    <path d="M 56.16 50.90625 
C 56.16 48.258863 55.638522 45.637219 54.625411 43.191352 
C 53.6123 40.745485 52.127258 38.522963 50.255273 36.650977 
C 48.383287 34.778992 46.160765 33.29395 43.714898 32.280839 
C 41.269031 31.267728 38.647387 30.74625 36 30.74625 
C 33.352613 30.74625 30.730969 31.267728 28.285102 32.280839 
C 25.839235 33.29395 23.616713 34.778992 21.744727 36.650977 
C 19.872742 38.522963 18.3877 40.745485 17.374589 43.191352 
C 16.361478 45.637219 15.84 48.258863 15.84 50.90625 
C 15.84 53.553637 16.361478 56.175281 17.374589 58.621148 
C 18.3877 61.067015 19.872742 63.289537 21.744727 65.161523 
C 23.616713 67.033508 25.839235 68.51855 28.285102 69.531661 
C 30.730969 70.544772 33.352613 71.06625 36 71.06625 
C 38.647387 71.06625 41.269031 70.544772 43.714898 69.531661 
C 46.160765 68.51855 48.383287 67.033508 50.255273 65.161523 
C 52.127258 63.289537 53.6123 61.067015 54.625411 58.621148 
C 55.638522 56.175281 56.16 53.553637 56.16 50.90625 
M 36 50.90625 
M 56.16 50.90625 
z
" style="fill: #67c8f3"/>
   </g>
   <g id="patch_5">
    <path d="M 56.16 50.90625 
C 56.16 50.90625 56.16 50.90625 56.16 50.90625 
L 36 50.90625 
L 56.16 50.90625 
z
" style="fill: #f88b10"/>
   </g>
   <g id="patch_6">
    <path d="M 53.28 50.90625 
C 53.28 50.90625 53.28 50.90625 53.28 50.90625 
L 36 50.90625 
L 53.28 50.90625 
z
" style="fill: #278c18"/>
   </g>
   <g id="patch_7">
    <path d="M 53.28 50.90625 
C 53.28 46.325067 51.458191 41.926831 48.218805 38.687445 
C 44.979419 35.448059 40.581183 33.62625 36 33.62625 
C 31.418817 33.62625 27.020581 35.448059 23.781195 38.687445 
C 20.541809 41.926831 18.72 46.325067 18.72 50.90625 
L 36 50.90625 
L 53.28 50.90625 
z
" style="fill: #67c8f3"/>
   </g>
   <g id="patch_8">
    <path d="M 18.72 50.90625 
C 18.72 55.487433 20.541809 59.885669 23.781195 63.125055 
C 27.020581 66.364441 31.418817 68.18625 36 68.18625 
C 40.581183 68.18625 44.979419 66.364441 48.218805 63.125055 
C 51.458191 59.885669 53.28 55.487433 53.28 50.90625 
L 36 50.90625 
L 18.72 50.90625 
z
" style="fill: #103129"/>
   </g>
   <g id="patch_9">
    <path d="M 53.28 50.90625 
C 53.28 50.90625 53.28 50.90625 53.28 50.90625 
L 36 50.90625 
L 53.28 50.90625 
z
" style="fill: #f88b10"/>
   </g>
   <g id="patch_10">
    <path d="M 53.28 50.90625 
C 53.28 50.90625 53.28 50.90625 53.28 50.90625 
L 36 50.90625 
L 53.28 50.90625 
z
" style="fill: #68ecac"/>
   </g>
   <g id="patch_11">
    <path d="M 50.4 50.90625 
C 50.4 50.90625 50.4 50.90625 50.4 50.90625 
L 36 50.90625 
L 50.4 50.90625 
z
" style="fill: #278c18"/>
   </g>
   <g id="patch_12">
    <path d="M 50.4 50.90625 
C 50.4 47.088597 48.881826 43.4234 46.182338 40.723912 
C 43.48285 38.024424 39.817653 36.50625 36 36.50625 
C 32.182347 36.50625 28.51715 38.024424 25.817662 40.723912 
C 23.118174 43.4234 21.6 47.088597 21.6 50.90625 
L 36 50.90625 
L 50.4 50.90625 
z
" style="fill: #67c8f3"/>
   </g>
   <g id="patch_13">
    <path d="M 21.6 50.90625 
C 21.6 50.90625 21.6 50.90625 21.6 50.90625 
L 36 50.90625 
L 21.6 50.90625 
z
" style="fill: #103129"/>
   </g>
   <g id="patch_14">
    <path d="M 21.6 50.90625 
C 21.6 54.723903 23.118174 58.3891 25.817662 61.088588 
C 28.51715 63.788076 32.182347 65.30625 36 65.30625 
L 36 50.90625 
L 21.6 50.90625 
z
" style="fill: #5d77fe"/>
   </g>
   <g id="patch_15">
    <path d="M 36 65.30625 
C 39.817653 65.30625 43.48285 63.788076 46.182338 61.088588 
C 48.881826 58.3891 50.4 54.723903 50.4 50.90625 
L 36 50.90625 
L 36 65.30625 
z
" style="fill: #98161a"/>
   </g>
   <g id="patch_16">
    <path d="M 50.4 50.90625 
C 50.4 50.90625 50.4 50.90625 50.4 50.90625 
L 36 50.90625 
L 50.4 50.90625 
z
" style="fill: #f88b10"/>
   </g>
   <g id="patch_17">
    <path d="M 50.4 50.90625 
C 50.4 50.90625 50.4 50.90625 50.4 50.90625 
L 36 50.90625 
L 50.4 50.90625 
z
" style="fill: #68ecac"/>
   </g>
   <g id="text_1">
    <!-- p1_t2 -->
    <g transform="translate(19.20375 8.90625)scale(0.12 -0.12)">
     <defs>
      <path id="DejaVuSans-70" d="M 1159 525 
L 1159 -1331 
L 581 -1331 
L 581 3500 
L 1159 3500 
L 1159 2969 
Q 1341 3281 1617 3432 
Q 1894 3584 2278 3584 
Q 2916 3584 3314 3078 
Q 3713 2572 3713 1747 
Q 3713 922 3314 415 
Q 2916 -91 2278 -91 
Q 1894 -91 1617 61 
Q 1341 213 1159 525 
z
M 3116 1747 
Q 3116 2381 2855 2742 
Q 2594 3103 2138 3103 
Q 1681 3103 1420 2742 
Q 1159 2381 1159 1747 
Q 1159 1113 1420 752 
Q 1681 391 2138 391 
Q 2594 391 2855 752 
Q 3116 1113 3116 1747 
z
" transform="scale(0.015625)"/>
      <path id="DejaVuSans-31" d="M 794 531 
L 1825 531 
L 1825 4091 
L 703 3866 
L 703 4441 
L 1819 4666 
L 2450 4666 
L 2450 531 
L 3481 531 
L 3481 0 
L 794 0 
L 794 531 
z
" transform="scale(0.015625)"/>
      <path id="DejaVuSans-5f" d="M 3263 -1063 
L 3263 -1509 
L -63 -1509 
L -63 -1063 
L 3263 -1063 
z
" transform="scale(0.015625)"/>
      <path id="DejaVuSans-74" d="M 1172 4494 
L 1172 3500 
L 2356 3500 
L 2356 3053 
L 1172 3053 
L 1172 1153 
Q 1172 725 1289 603 
Q 1406 481 1766 481 
L 2356 481 
L 2356 0 
L 1766 0 
Q 1100 0 847 248 
Q 594 497 594 1153 
L 594 3053 
L 172 3053 
L 172 3500 
L 594 3500 
L 594 4494 
L 1172 4494 
z
" transform="scale(0.015625)"/>
      <path id="DejaVuSans-32" d="M 1228 531 
L 3431 531 
L 3431 0 
L 469 0 
L 469 531 
Q 828 903 1448 1529 
Q 2069 2156 2228 2338 
Q 2531 2678 2651 2914 
Q 2772 3150 2772 3378 
Q 2772 3750 2511 3984 
Q 2250 4219 1831 4219 
Q 1534 4219 1204 4116 
Q 875 4013 500 3803 
L 500 4441 
Q 881 4594 1212 4672 
Q 1544 4750 1819 4750 
Q 2544 4750 2975 4387 
Q 3406 4025 3406 3419 
Q 3406 3131 3298 2873 
Q 3191 2616 2906 2266 
Q 2828 2175 2409 1742 
Q 1991 1309 1228 531 
z
" transform="scale(0.015625)"/>
     </defs>
     <use xlink:href="#DejaVuSans-70"/>
     <use xlink:href="#DejaVuSans-31" x="63.476562"/>
     <use xlink:href="#DejaVuSans-5f" x="127.099609"/>
     <use xlink:href="#DejaVuSans-74" x="177.099609"/>
     <use xlink:href="#DejaVuSans-32" x="216.308594"/>
    </g>
   </g>
  </g>
 </g>
</svg>
