<?xml version="1.0" encoding="utf-8" standalone="no"?>
<!DOCTYPE svg PUBLIC "-//W3C//DTD SVG 1.1//EN"
  "http://www.w3.org/Graphics/SVG/1.1/DTD/svg11.dtd">
<svg xmlns:xlink="http://www.w3.org/1999/xlink" width="72pt" height="86.784375pt" viewBox="0 0 72 86.784375" xmlns="http://www.w3.org/2000/svg" version="1.1">
 <metadata>
  <rdf:RDF xmlns:dc="http://purl.org/dc/elements/1.1/" xmlns:cc="http://creativecommons.org/ns#" xmlns:rdf="http://www.w3.org/1999/02/22-rdf-syntax-ns#">
   <cc:Work>
    <dc:type rdf:resource="http://purl.org/dc/dcmitype/StillImage"/>
    <dc:date>2024-03-06T18:44:08.303808</dc:date>
    <dc:format>image/svg+xml</dc:format>
    <dc:creator>
     <cc:Agent>
      <dc:title>Matplotlib v3.5.3, https://matplotlib.org/</dc:title>
     </cc:Agent>
    </dc:creator>
   </cc:Work>
  </rdf:RDF>
 </metadata>
 <defs>
  <style type="text/css">*{stroke-linejoin: round; stroke-linecap: butt}</style>
 </defs>
 <g id="figure_1">
  <g id="patch_1">
   <path d="M 0 86.784375 
L 72 86.784375 
L 72 0 
L 0 0 
L 0 86.784375 
z
" style="fill: none"/>
  </g>
  <g id="axes_1">
   <g id="patch_2">
    <path d="M 59.04 50.784375 
C 59.04 47.75879 58.444026 44.762625 57.286184 41.967349 
C 56.128343 39.172073 54.431152 36.632046 52.29174 34.492635 
C 50.152329 32.353223 47.612302 30.656032 44.817026 29.498191 
C 42.02175 28.340349 39.025585 27.744375 36 27.744375 
C 32.974415 27.744375 29.97825 28.340349 27.182974 29.498191 
C 24.387698 30.656032 21.847671 32.353223 19.70826 34.492635 
C 17.568848 36.632046 15.871657 39.172073 14.713816 41.967349 
C 13.555974 44.762625 12.96 47.75879 12.96 50.784375 
C 12.96 53.80996 13.555974 56.806125 14.713816 59.601401 
C 15.871657 62.396677 17.568848 64.936704 19.70826 67.076115 
C 21.847671 69.215527 24.387698 70.912718 27.182974 72.070559 
C 29.97825 73.228401 32.974415 73.824375 36 73.824375 
C 39.025585 73.824375 42.02175 73.228401 44.817026 72.070559 
C 47.612302 70.912718 50.152329 69.215527 52.29174 67.076115 
C 54.431152 64.936704 56.128343 62.396677 57.286184 59.601401 
C 58.444026 56.806125 59.04 53.80996 59.04 50.784375 
M 36 50.784375 
M 59.04 50.784375 
z
" style="fill: #278c18"/>
   </g>
   <g id="patch_3">
    <path d="M 56.16 50.784375 
C 56.16 50.784375 56.16 50.784375 56.16 50.784375 
L 36 50.784375 
L 56.16 50.784375 
z
" style="fill: #278c18"/>
   </g>
   <g id="patch_4">
    <path d="M 56.16 50.784375 
C 56.16 48.136988 55.638522 45.515344 54.625411 43.069477 
C 53.6123 40.62361 52.127258 38.401088 50.255273 36.529102 
C 48.383287 34.657117 46.160765 33.172075 43.714898 32.158964 
C 41.269031 31.145853 38.647387 30.624375 36 30.624375 
C 33.352613 30.624375 30.730969 31.145853 28.285102 32.158964 
C 25.839235 33.172075 23.616713 34.657117 21.744727 36.529102 
C 19.872742 38.401088 18.3877 40.62361 17.374589 43.069477 
C 16.361478 45.515344 15.84 48.136988 15.84 50.784375 
C 15.84 53.431762 16.361478 56.053406 17.374589 58.499273 
C 18.3877 60.94514 19.872742 63.167662 21.744727 65.039648 
C 23.616713 66.911633 25.839235 68.396675 28.285102 69.409786 
C 30.730969 70.422897 33.352613 70.944375 36 70.944375 
C 38.647387 70.944375 41.269031 70.422897 43.714898 69.409786 
C 46.160765 68.396675 48.383287 66.911633 50.255273 65.039648 
C 52.127258 63.167662 53.6123 60.94514 54.625411 58.499273 
C 55.638522 56.053406 56.16 53.431762 56.16 50.784375 
M 36 50.784375 
M 56.16 50.784375 
z
" style="fill: #67c8f3"/>
   </g>
   <g id="patch_5">
    <path d="M 56.16 50.784375 
C 56.16 50.784375 56.16 50.784375 56.16 50.784375 
L 36 50.784375 
L 56.16 50.784375 
z
" style="fill: #f88b10"/>
   </g>
   <g id="patch_6">
    <path d="M 53.28 50.784375 
C 53.28 50.784375 53.28 50.784375 53.28 50.784375 
L 36 50.784375 
L 53.28 50.784375 
z
" style="fill: #278c18"/>
   </g>
   <g id="patch_7">
    <path d="M 53.28 50.784375 
C 53.28 46.203192 51.458191 41.804956 48.218805 38.56557 
C 44.979419 35.326184 40.581183 33.504375 36 33.504375 
L 36 50.784375 
L 53.28 50.784375 
z
" style="fill: #67c8f3"/>
   </g>
   <g id="patch_8">
    <path d="M 36 33.504375 
C 32.582748 33.504375 29.241088 34.518057 26.399746 36.41658 
C 23.558405 38.315104 21.343087 41.014476 20.035362 44.171605 
C 18.727636 47.328735 18.385358 50.803945 19.05203 54.155536 
C 19.718703 57.507126 21.364833 60.586818 23.781195 63.00318 
C 26.197557 65.419542 29.277249 67.065672 32.628839 67.732345 
C 35.98043 68.399017 39.45564 68.056739 42.61277 66.749013 
C 45.769899 65.441288 48.469271 63.22597 50.367795 60.384629 
C 52.266318 57.543287 53.28 54.201627 53.28 50.784375 
L 36 50.784375 
L 36 33.504375 
z
" style="fill: #103129"/>
   </g>
   <g id="patch_9">
    <path d="M 53.28 50.784375 
C 53.28 50.784375 53.28 50.784375 53.28 50.784375 
L 36 50.784375 
L 53.28 50.784375 
z
" style="fill: #f88b10"/>
   </g>
   <g id="patch_10">
    <path d="M 53.28 50.784375 
C 53.28 50.784375 53.28 50.784375 53.28 50.784375 
L 36 50.784375 
L 53.28 50.784375 
z
" style="fill: #68ecac"/>
   </g>
   <g id="patch_11">
    <path d="M 50.4 50.784375 
C 50.4 50.784375 50.4 50.784375 50.4 50.784375 
L 36 50.784375 
L 50.4 50.784375 
z
" style="fill: #278c18"/>
   </g>
   <g id="patch_12">
    <path d="M 50.4 50.784375 
C 50.4 46.966722 48.881826 43.301525 46.182338 40.602037 
C 43.48285 37.902549 39.817653 36.384375 36 36.384375 
L 36 50.784375 
L 50.4 50.784375 
z
" style="fill: #67c8f3"/>
   </g>
   <g id="patch_13">
    <path d="M 36 36.384375 
C 34.109009 36.384375 32.236406 36.756859 30.489359 37.48051 
C 28.742311 38.204161 27.154795 39.264905 25.817662 40.602037 
L 36 50.784375 
L 36 36.384375 
z
" style="fill: #103129"/>
   </g>
   <g id="patch_14">
    <path d="M 25.817662 40.602037 
C 23.118174 43.301525 21.6 46.966722 21.6 50.784375 
C 21.6 54.602028 23.118174 58.267225 25.817662 60.966713 
C 28.51715 63.666201 32.182347 65.184375 36 65.184375 
C 39.817653 65.184375 43.48285 63.666201 46.182338 60.966713 
L 36 50.784375 
L 25.817662 40.602037 
z
" style="fill: #5d77fe"/>
   </g>
   <g id="patch_15">
    <path d="M 46.182338 60.966713 
C 47.51947 59.62958 48.580214 58.042064 49.303865 56.295016 
C 50.027516 54.547969 50.4 52.675366 50.4 50.784375 
L 36 50.784375 
L 46.182338 60.966713 
z
" style="fill: #98161a"/>
   </g>
   <g id="patch_16">
    <path d="M 50.4 50.784375 
C 50.4 50.784375 50.4 50.784375 50.4 50.784375 
L 36 50.784375 
L 50.4 50.784375 
z
" style="fill: #f88b10"/>
   </g>
   <g id="patch_17">
    <path d="M 50.4 50.784375 
C 50.4 50.784375 50.4 50.784375 50.4 50.784375 
L 36 50.784375 
L 50.4 50.784375 
z
" style="fill: #68ecac"/>
   </g>
   <g id="text_1">
    <!-- p1_t1 -->
    <g transform="translate(19.20375 8.784375)scale(0.12 -0.12)">
     <defs>
      <path id="DejaVuSans-70" d="M 1159 525 
L 1159 -1331 
L 581 -1331 
L 581 3500 
L 1159 3500 
L 1159 2969 
Q 1341 3281 1617 3432 
Q 1894 3584 2278 3584 
Q 2916 3584 3314 3078 
Q 3713 2572 3713 1747 
Q 3713 922 3314 415 
Q 2916 -91 2278 -91 
Q 1894 -91 1617 61 
Q 1341 213 1159 525 
z
M 3116 1747 
Q 3116 2381 2855 2742 
Q 2594 3103 2138 3103 
Q 1681 3103 1420 2742 
Q 1159 2381 1159 1747 
Q 1159 1113 1420 752 
Q 1681 391 2138 391 
Q 2594 391 2855 752 
Q 3116 1113 3116 1747 
z
" transform="scale(0.015625)"/>
      <path id="DejaVuSans-31" d="M 794 531 
L 1825 531 
L 1825 4091 
L 703 3866 
L 703 4441 
L 1819 4666 
L 2450 4666 
L 2450 531 
L 3481 531 
L 3481 0 
L 794 0 
L 794 531 
z
" transform="scale(0.015625)"/>
      <path id="DejaVuSans-5f" d="M 3263 -1063 
L 3263 -1509 
L -63 -1509 
L -63 -1063 
L 3263 -1063 
z
" transform="scale(0.015625)"/>
      <path id="DejaVuSans-74" d="M 1172 4494 
L 1172 3500 
L 2356 3500 
L 2356 3053 
L 1172 3053 
L 1172 1153 
Q 1172 725 1289 603 
Q 1406 481 1766 481 
L 2356 481 
L 2356 0 
L 1766 0 
Q 1100 0 847 248 
Q 594 497 594 1153 
L 594 3053 
L 172 3053 
L 172 3500 
L 594 3500 
L 594 4494 
L 1172 4494 
z
" transform="scale(0.015625)"/>
     </defs>
     <use xlink:href="#DejaVuSans-70"/>
     <use xlink:href="#DejaVuSans-31" x="63.476562"/>
     <use xlink:href="#DejaVuSans-5f" x="127.099609"/>
     <use xlink:href="#DejaVuSans-74" x="177.099609"/>
     <use xlink:href="#DejaVuSans-31" x="216.308594"/>
    </g>
   </g>
  </g>
 </g>
</svg>
