<?xml version="1.0" encoding="utf-8" standalone="no"?>
<!DOCTYPE svg PUBLIC "-//W3C//DTD SVG 1.1//EN"
  "http://www.w3.org/Graphics/SVG/1.1/DTD/svg11.dtd">
<!-- Created with matplotlib (http://matplotlib.org/) -->
<svg height="72pt" version="1.1" viewBox="0 0 72 72" width="72pt" xmlns="http://www.w3.org/2000/svg" xmlns:xlink="http://www.w3.org/1999/xlink">
 <defs>
  <style type="text/css">
*{stroke-linecap:butt;stroke-linejoin:round;}
  </style>
 </defs>
 <g id="figure_1">
  <g id="patch_1">
   <path d="M 0 72 
L 72 72 
L 72 0 
L 0 0 
z
" style="fill:#ffffff;"/>
  </g>
  <g id="axes_1">
   <g id="patch_2">
    <path d="M 61.92 36 
C 61.92 32.596217 61.249529 29.225531 59.946957 26.080845 
C 58.644386 22.93616 56.735046 20.07863 54.328208 17.671792 
C 51.92137 15.264954 49.06384 13.355614 45.919155 12.053043 
C 42.774469 10.750471 39.403783 10.08 36 10.08 
C 32.596217 10.08 29.225531 10.750471 26.080845 12.053043 
C 22.93616 13.355614 20.07863 15.264954 17.671792 17.671792 
C 15.264954 20.07863 13.355614 22.93616 12.053043 26.080845 
C 10.750471 29.225531 10.08 32.596217 10.08 36 
C 10.08 39.403783 10.750471 42.774469 12.053043 45.919155 
C 13.355614 49.06384 15.264954 51.92137 17.671792 54.328208 
C 20.07863 56.735046 22.93616 58.644386 26.080845 59.946957 
C 29.225531 61.249529 32.596217 61.92 36 61.92 
C 39.403783 61.92 42.774469 61.249529 45.919155 59.946957 
C 49.06384 58.644386 51.92137 56.735046 54.328208 54.328208 
C 56.735046 51.92137 58.644386 49.06384 59.946957 45.919155 
C 61.249529 42.774469 61.92 39.403783 61.92 36 
M 36 36 
M 61.92 36 
z
" style="fill:#278c18;"/>
   </g>
   <g id="patch_3">
    <path d="M 59.04 36 
C 59.04 36 59.04 36 59.04 36 
L 36 36 
L 59.04 36 
z
" style="fill:#278c18;"/>
   </g>
   <g id="patch_4">
    <path d="M 59.04 36 
C 59.04 33.00486 58.45596 30.03826 57.320645 27.266632 
C 56.18533 24.495004 54.520376 21.971168 52.419191 19.836716 
C 50.318007 17.702264 47.820634 15.997873 45.06718 14.819163 
C 42.313727 13.640454 39.356666 13.009888 36.361896 12.962842 
C 33.367126 12.915797 30.391718 13.453168 27.602599 14.544808 
C 24.813481 15.636448 22.263804 17.261554 20.096611 19.328953 
C 17.929419 21.396352 16.186011 23.866645 14.964197 26.601244 
C 13.742384 29.335844 13.065448 32.282635 12.971369 35.276297 
C 12.877289 38.269959 13.367859 41.25344 14.415554 44.059362 
C 15.46325 46.865283 17.048107 49.440171 19.08121 51.63957 
C 21.114313 53.838968 23.556918 55.620962 26.271988 56.885578 
C 28.987059 58.150195 31.922854 58.873333 34.914668 59.014423 
C 37.906483 59.155513 40.897302 58.711867 43.719334 57.708374 
C 46.541366 56.70488 49.14083 55.160664 51.371892 53.162358 
C 53.602953 51.164053 55.423095 48.74974 56.730201 46.054868 
C 58.037308 43.359996 58.80647 40.435922 58.994536 37.446692 
L 36 36 
L 59.04 36 
z
" style="fill:#67c8f3;"/>
   </g>
   <g id="patch_5">
    <path d="M 58.994536 37.446692 
C 59.009686 37.205889 59.021052 36.964863 59.028631 36.723703 
C 59.03621 36.482542 59.04 36.241278 59.04 35.999999 
L 36 36 
L 58.994536 37.446692 
z
" style="fill:#103129;"/>
   </g>
   <g id="patch_6">
    <path d="M 56.16 36 
C 56.16 36 56.16 36 56.16 36 
L 36 36 
L 56.16 36 
z
" style="fill:#278c18;"/>
   </g>
   <g id="patch_7">
    <path d="M 56.16 36 
C 56.16 32.604481 55.302147 29.263362 53.666343 26.287846 
C 52.030539 23.31233 49.6692 20.797759 46.802269 18.978349 
L 36 36 
L 56.16 36 
z
" style="fill:#67c8f3;"/>
   </g>
   <g id="patch_8">
    <path d="M 46.802269 18.978349 
C 43.708763 17.015151 40.137816 15.931916 36.474965 15.845596 
C 32.812115 15.759276 29.194104 16.673094 26.011554 18.488388 
C 22.829003 20.303683 20.200724 22.952686 18.410481 26.149395 
C 16.620237 29.346105 15.734863 32.971181 15.849948 36.63324 
C 15.965032 40.2953 17.07628 43.85763 19.063714 46.935621 
C 21.051147 50.013612 23.840572 52.492357 27.130826 54.104236 
C 30.421079 55.716114 34.08933 56.400953 37.739532 56.084811 
C 41.389735 55.768669 44.885619 54.46335 47.84975 52.309783 
L 36 36 
L 46.802269 18.978349 
z
" style="fill:#f88b10;"/>
   </g>
   <g id="patch_9">
    <path d="M 47.84975 52.309783 
C 50.250484 50.565548 52.236753 48.312569 53.666342 45.712155 
C 55.095932 43.111741 55.93389 40.227472 56.120219 37.265858 
L 36 36 
L 47.84975 52.309783 
z
" style="fill:#5d77fe;"/>
   </g>
   <g id="patch_10">
    <path d="M 56.120219 37.265858 
C 56.120219 37.265858 56.120219 37.265858 56.120219 37.265858 
L 36 36 
L 56.120219 37.265858 
z
" style="fill:#103129;"/>
   </g>
   <g id="patch_11">
    <path d="M 56.120219 37.265858 
C 56.133475 37.055155 56.143421 36.844257 56.150052 36.633242 
C 56.156684 36.422226 56.16 36.21112 56.16 36.000001 
L 36 36 
L 56.120219 37.265858 
z
" style="fill:#98161a;"/>
   </g>
  </g>
 </g>
</svg>
