<?xml version="1.0" encoding="utf-8" standalone="no"?>
<!DOCTYPE svg PUBLIC "-//W3C//DTD SVG 1.1//EN"
  "http://www.w3.org/Graphics/SVG/1.1/DTD/svg11.dtd">
<!-- Created with matplotlib (http://matplotlib.org/) -->
<svg height="72pt" version="1.1" viewBox="0 0 72 72" width="72pt" xmlns="http://www.w3.org/2000/svg" xmlns:xlink="http://www.w3.org/1999/xlink">
 <defs>
  <style type="text/css">
*{stroke-linecap:butt;stroke-linejoin:round;}
  </style>
 </defs>
 <g id="figure_1">
  <g id="patch_1">
   <path d="M 0 72 
L 72 72 
L 72 0 
L 0 0 
z
" style="fill:#ffffff;"/>
  </g>
  <g id="axes_1">
   <g id="patch_2">
    <path d="M 61.92 36 
C 61.92 32.596217 61.249529 29.225531 59.946957 26.080845 
C 58.644386 22.93616 56.735046 20.07863 54.328208 17.671792 
C 51.92137 15.264954 49.06384 13.355614 45.919155 12.053043 
C 42.774469 10.750471 39.403783 10.08 36 10.08 
C 32.596217 10.08 29.225531 10.750471 26.080845 12.053043 
C 22.93616 13.355614 20.07863 15.264954 17.671792 17.671792 
C 15.264954 20.07863 13.355614 22.93616 12.053043 26.080845 
C 10.750471 29.225531 10.08 32.596217 10.08 36 
C 10.08 39.403783 10.750471 42.774469 12.053043 45.919155 
C 13.355614 49.06384 15.264954 51.92137 17.671792 54.328208 
C 20.07863 56.735046 22.93616 58.644386 26.080845 59.946957 
C 29.225531 61.249529 32.596217 61.92 36 61.92 
C 39.403783 61.92 42.774469 61.249529 45.919155 59.946957 
C 49.06384 58.644386 51.92137 56.735046 54.328208 54.328208 
C 56.735046 51.92137 58.644386 49.06384 59.946957 45.919155 
C 61.249529 42.774469 61.92 39.403783 61.92 36 
M 36 36 
M 61.92 36 
z
" style="fill:#278c18;"/>
   </g>
   <g id="patch_3">
    <path d="M 59.04 36 
C 59.04 36 59.04 36 59.04 36 
L 36 36 
L 59.04 36 
z
" style="fill:#278c18;"/>
   </g>
   <g id="patch_4">
    <path d="M 59.04 36 
C 59.04 36 59.04 36 59.04 36 
L 36 36 
L 59.04 36 
z
" style="fill:#67c8f3;"/>
   </g>
   <g id="patch_5">
    <path d="M 59.04 36 
C 59.04 32.974415 58.444026 29.97825 57.286184 27.182974 
C 56.128343 24.387698 54.431152 21.847671 52.29174 19.70826 
C 50.152329 17.568848 47.612302 15.871657 44.817026 14.713816 
C 42.02175 13.555974 39.025585 12.96 36 12.96 
C 32.974415 12.96 29.97825 13.555974 27.182974 14.713816 
C 24.387698 15.871657 21.847671 17.568848 19.70826 19.70826 
C 17.568848 21.847671 15.871657 24.387698 14.713816 27.182974 
C 13.555974 29.97825 12.96 32.974415 12.96 36 
C 12.96 39.025585 13.555974 42.02175 14.713816 44.817026 
C 15.871657 47.612302 17.568848 50.152329 19.70826 52.29174 
C 21.847671 54.431152 24.387698 56.128343 27.182974 57.286184 
C 29.97825 58.444026 32.974415 59.04 36 59.04 
C 39.025585 59.04 42.02175 58.444026 44.817026 57.286184 
C 47.612302 56.128343 50.152329 54.431152 52.29174 52.29174 
C 54.431152 50.152329 56.128343 47.612302 57.286184 44.817026 
C 58.444026 42.02175 59.04 39.025585 59.04 36 
M 36 36 
M 59.04 36 
z
" style="fill:#103129;"/>
   </g>
   <g id="patch_6">
    <path d="M 56.16 36 
C 56.16 36 56.16 36 56.16 36 
L 36 36 
L 56.16 36 
z
" style="fill:#278c18;"/>
   </g>
   <g id="patch_7">
    <path d="M 56.16 36 
C 56.16 36 56.16 36 56.16 36 
L 36 36 
L 56.16 36 
z
" style="fill:#67c8f3;"/>
   </g>
   <g id="patch_8">
    <path d="M 56.16 36 
C 56.16 36 56.16 36 56.16 36 
L 36 36 
L 56.16 36 
z
" style="fill:#f88b10;"/>
   </g>
   <g id="patch_9">
    <path d="M 56.16 36 
C 56.16 36 56.16 36 56.16 36 
L 36 36 
L 56.16 36 
z
" style="fill:#5d77fe;"/>
   </g>
   <g id="patch_10">
    <path d="M 56.16 36 
C 56.16 32.979106 55.480997 29.996489 54.173335 27.273289 
C 52.865673 24.550089 50.962489 22.155315 48.604892 20.266523 
C 46.247295 18.377732 43.495028 17.042786 40.552154 16.360665 
C 37.60928 15.678543 34.550373 15.666531 31.602233 16.325518 
C 28.654092 16.984505 25.891425 18.297793 23.519066 20.16801 
C 21.146708 22.038227 19.224774 24.41798 17.895764 27.130826 
C 16.566755 29.843671 15.864348 32.820864 15.840622 35.841665 
C 15.816896 38.862465 16.472452 41.850323 17.758686 44.58371 
L 36 36 
L 56.16 36 
z
" style="fill:#103129;"/>
   </g>
   <g id="patch_11">
    <path d="M 17.758686 44.58371 
C 19.709461 48.729318 23.01637 52.088584 27.130826 54.104236 
C 31.245281 56.119887 35.92645 56.67394 40.397767 55.674482 
C 44.869085 54.675024 48.868828 52.180558 51.733477 48.604892 
C 54.598125 45.029226 56.16 40.581659 56.16 36 
L 36 36 
L 17.758686 44.58371 
z
" style="fill:#98161a;"/>
   </g>
  </g>
 </g>
</svg>
