<?xml version="1.0" encoding="utf-8" standalone="no"?>
<!DOCTYPE svg PUBLIC "-//W3C//DTD SVG 1.1//EN"
  "http://www.w3.org/Graphics/SVG/1.1/DTD/svg11.dtd">
<!-- Created with matplotlib (http://matplotlib.org/) -->
<svg height="72pt" version="1.1" viewBox="0 0 72 72" width="72pt" xmlns="http://www.w3.org/2000/svg" xmlns:xlink="http://www.w3.org/1999/xlink">
 <defs>
  <style type="text/css">
*{stroke-linecap:butt;stroke-linejoin:round;}
  </style>
 </defs>
 <g id="figure_1">
  <g id="patch_1">
   <path d="M 0 72 
L 72 72 
L 72 0 
L 0 0 
z
" style="fill:#ffffff;"/>
  </g>
  <g id="axes_1">
   <g id="patch_2">
    <path d="M 61.92 36 
C 61.92 32.596217 61.249529 29.225531 59.946957 26.080845 
C 58.644386 22.93616 56.735046 20.07863 54.328208 17.671792 
C 51.92137 15.264954 49.06384 13.355614 45.919155 12.053043 
C 42.774469 10.750471 39.403783 10.08 36 10.08 
C 32.596217 10.08 29.225531 10.750471 26.080845 12.053043 
C 22.93616 13.355614 20.07863 15.264954 17.671792 17.671792 
C 15.264954 20.07863 13.355614 22.93616 12.053043 26.080845 
C 10.750471 29.225531 10.08 32.596217 10.08 36 
C 10.08 39.403783 10.750471 42.774469 12.053043 45.919155 
C 13.355614 49.06384 15.264954 51.92137 17.671792 54.328208 
C 20.07863 56.735046 22.93616 58.644386 26.080845 59.946957 
C 29.225531 61.249529 32.596217 61.92 36 61.92 
C 39.403783 61.92 42.774469 61.249529 45.919155 59.946957 
C 49.06384 58.644386 51.92137 56.735046 54.328208 54.328208 
C 56.735046 51.92137 58.644386 49.06384 59.946957 45.919155 
C 61.249529 42.774469 61.92 39.403783 61.92 36 
M 36 36 
M 61.92 36 
z
" style="fill:#278c18;"/>
   </g>
   <g id="patch_3">
    <path d="M 59.04 36 
C 59.04 32.241873 58.1205 28.540201 56.36196 25.218897 
C 54.60342 21.897593 52.058675 19.056444 48.950401 16.944063 
C 45.842127 14.831683 42.26371 13.511535 38.528278 13.09914 
C 34.792846 12.686744 31.012628 13.194491 27.51841 14.57795 
L 36 36 
L 59.04 36 
z
" style="fill:#278c18;"/>
   </g>
   <g id="patch_4">
    <path d="M 27.51841 14.57795 
C 23.625179 16.119389 20.224829 18.693387 17.684482 22.022039 
C 15.144135 25.350691 13.558627 29.309732 13.09914 33.471722 
C 12.639652 37.633711 13.323337 41.843274 15.076381 45.645921 
C 16.829426 49.448567 19.586384 52.702338 23.049599 55.055937 
C 26.512814 57.409535 30.552998 58.775097 34.733948 59.005189 
C 38.914898 59.23528 43.080532 58.321312 46.781103 56.36196 
C 50.481674 54.402608 53.579033 51.47102 55.738772 47.883707 
C 57.89851 44.296394 59.04 40.187277 59.04 36 
L 36 36 
L 27.51841 14.57795 
z
" style="fill:#67c8f3;"/>
   </g>
   <g id="patch_5">
    <path d="M 56.16 36 
C 56.16 32.711639 55.355437 29.472676 53.816715 26.566535 
C 52.277993 23.660394 50.051341 21.174389 47.331601 19.326056 
C 44.611861 17.477722 41.480746 16.322593 38.212243 15.961747 
C 34.943741 15.600901 31.63605 16.04518 28.578609 17.255706 
L 36 36 
L 56.16 36 
z
" style="fill:#278c18;"/>
   </g>
   <g id="patch_6">
    <path d="M 28.578609 17.255706 
C 24.419521 18.902405 20.924491 21.887443 18.647441 25.737725 
C 16.370391 29.588007 15.438326 34.088778 15.998968 38.526717 
L 36 36 
L 28.578609 17.255706 
z
" style="fill:#67c8f3;"/>
   </g>
   <g id="patch_7">
    <path d="M 15.998968 38.526717 
C 16.464908 42.21502 17.94211 45.70355 20.266523 48.604891 
C 22.590935 51.506233 25.673208 53.708858 29.171043 54.968156 
C 32.668877 56.227454 36.447815 56.495017 40.088191 55.741132 
C 43.728567 54.987247 47.090442 53.240893 49.800469 50.696008 
L 36 36 
L 15.998968 38.526717 
z
" style="fill:#f88b10;"/>
   </g>
   <g id="patch_8">
    <path d="M 49.800469 50.696008 
C 51.808046 48.810768 53.408188 46.533996 54.501933 44.006503 
C 55.595677 41.47901 56.16 38.753998 56.16 36.000002 
L 36 36 
L 49.800469 50.696008 
z
" style="fill:#103129;"/>
   </g>
   <g id="patch_9">
    <path d="M 53.28 36 
C 53.28 33.181404 52.590375 30.405151 51.27147 27.914173 
C 49.952565 25.423195 48.044006 23.292333 45.712801 21.708048 
C 43.381595 20.123762 40.697783 19.133651 37.896209 18.824355 
C 35.094635 18.515058 32.259471 18.895868 29.638807 19.933462 
L 36 36 
L 53.28 36 
z
" style="fill:#278c18;"/>
   </g>
   <g id="patch_10">
    <path d="M 29.638807 19.933462 
C 26.073875 21.344919 23.078135 23.903523 21.126378 27.203764 
C 19.17462 30.504006 18.375708 34.36181 18.856258 38.165758 
L 36 36 
L 29.638807 19.933462 
z
" style="fill:#67c8f3;"/>
   </g>
   <g id="patch_11">
    <path d="M 18.856258 38.165758 
C 19.360123 42.154263 21.240422 45.844558 24.171026 48.596578 
C 27.101629 51.348598 30.902707 52.993471 34.914979 53.245902 
L 36 36 
L 18.856258 38.165758 
z
" style="fill:#f88b10;"/>
   </g>
   <g id="patch_12">
    <path d="M 34.914979 53.245902 
C 37.27089 53.394123 39.632377 53.058034 41.85339 52.25842 
C 44.074404 51.458806 46.108193 50.212499 47.828973 48.596579 
L 36 36 
L 34.914979 53.245902 
z
" style="fill:#5d77fe;"/>
   </g>
   <g id="patch_13">
    <path d="M 47.828973 48.596579 
C 49.549754 46.980658 50.921304 45.029139 51.858799 42.862717 
C 52.796294 40.696294 53.28 38.36057 53.28 36.000002 
L 36 36 
L 47.828973 48.596579 
z
" style="fill:#103129;"/>
   </g>
  </g>
 </g>
</svg>
