<?xml version="1.0" encoding="utf-8" standalone="no"?>
<!DOCTYPE svg PUBLIC "-//W3C//DTD SVG 1.1//EN"
  "http://www.w3.org/Graphics/SVG/1.1/DTD/svg11.dtd">
<!-- Created with matplotlib (http://matplotlib.org/) -->
<svg height="72pt" version="1.1" viewBox="0 0 72 72" width="72pt" xmlns="http://www.w3.org/2000/svg" xmlns:xlink="http://www.w3.org/1999/xlink">
 <defs>
  <style type="text/css">
*{stroke-linecap:butt;stroke-linejoin:round;}
  </style>
 </defs>
 <g id="figure_1">
  <g id="patch_1">
   <path d="M 0 72 
L 72 72 
L 72 0 
L 0 0 
z
" style="fill:#ffffff;"/>
  </g>
  <g id="axes_1">
   <g id="patch_2">
    <path d="M 61.92 36 
C 61.92 32.596217 61.249529 29.225531 59.946957 26.080845 
C 58.644386 22.93616 56.735046 20.07863 54.328208 17.671792 
C 51.92137 15.264954 49.06384 13.355614 45.919155 12.053043 
C 42.774469 10.750471 39.403783 10.08 36 10.08 
C 32.596217 10.08 29.225531 10.750471 26.080845 12.053043 
C 22.93616 13.355614 20.07863 15.264954 17.671792 17.671792 
C 15.264954 20.07863 13.355614 22.93616 12.053043 26.080845 
C 10.750471 29.225531 10.08 32.596217 10.08 36 
C 10.08 39.403783 10.750471 42.774469 12.053043 45.919155 
C 13.355614 49.06384 15.264954 51.92137 17.671792 54.328208 
C 20.07863 56.735046 22.93616 58.644386 26.080845 59.946957 
C 29.225531 61.249529 32.596217 61.92 36 61.92 
C 39.403783 61.92 42.774469 61.249529 45.919155 59.946957 
C 49.06384 58.644386 51.92137 56.735046 54.328208 54.328208 
C 56.735046 51.92137 58.644386 49.06384 59.946957 45.919155 
C 61.249529 42.774469 61.92 39.403783 61.92 36 
M 36 36 
M 61.92 36 
z
" style="fill:#278c18;"/>
   </g>
   <g id="patch_3">
    <path d="M 59.04 36 
C 59.04 36 59.04 36 59.04 36 
L 36 36 
L 59.04 36 
z
" style="fill:#278c18;"/>
   </g>
   <g id="patch_4">
    <path d="M 59.04 36 
C 59.04 32.974415 58.444026 29.97825 57.286184 27.182974 
C 56.128343 24.387698 54.431152 21.847671 52.29174 19.70826 
C 50.152329 17.568848 47.612302 15.871657 44.817026 14.713816 
C 42.02175 13.555974 39.025585 12.96 36 12.96 
C 32.974415 12.96 29.97825 13.555974 27.182974 14.713816 
C 24.387698 15.871657 21.847671 17.568848 19.70826 19.70826 
C 17.568848 21.847671 15.871657 24.387698 14.713816 27.182974 
C 13.555974 29.97825 12.96 32.974415 12.96 36 
C 12.96 39.025585 13.555974 42.02175 14.713816 44.817026 
C 15.871657 47.612302 17.568848 50.152329 19.70826 52.29174 
C 21.847671 54.431152 24.387698 56.128343 27.182974 57.286184 
C 29.97825 58.444026 32.974415 59.04 36 59.04 
C 39.025585 59.04 42.02175 58.444026 44.817026 57.286184 
C 47.612302 56.128343 50.152329 54.431152 52.29174 52.29174 
C 54.431152 50.152329 56.128343 47.612302 57.286184 44.817026 
C 58.444026 42.02175 59.04 39.025585 59.04 36 
M 36 36 
M 59.04 36 
z
" style="fill:#67c8f3;"/>
   </g>
   <g id="patch_5">
    <path d="M 59.04 36 
C 59.04 36 59.04 36 59.04 36 
L 36 36 
L 59.04 36 
z
" style="fill:#f88b10;"/>
   </g>
   <g id="patch_6">
    <path d="M 56.16 36 
C 56.16 36 56.16 36 56.16 36 
L 36 36 
L 56.16 36 
z
" style="fill:#278c18;"/>
   </g>
   <g id="patch_7">
    <path d="M 56.16 36 
C 56.16 33.698556 55.765904 31.414013 54.994827 29.245584 
C 54.22375 27.077154 53.087018 25.056688 51.633994 23.271928 
C 50.180971 21.487167 48.432999 19.964328 46.465988 18.769542 
C 44.498977 17.574755 42.341819 16.725572 40.088192 16.258868 
C 37.834565 15.792164 35.517571 15.714796 33.237831 16.030122 
C 30.958091 16.345448 28.749089 17.048838 26.706756 18.109745 
C 24.664424 19.170652 22.818758 20.573493 21.249911 22.257348 
C 19.681065 23.941203 18.41208 25.881338 17.498067 27.993499 
C 16.584053 30.10566 16.038435 32.358824 15.884907 34.655142 
C 15.73138 36.951459 15.972197 39.257203 16.596903 41.47224 
C 17.221608 43.687277 18.221024 45.779073 19.551751 47.656788 
C 20.882478 49.534503 22.524968 51.170556 24.407894 52.493899 
C 26.290821 53.817241 28.386525 54.808436 30.603999 55.424437 
C 32.821472 56.040439 35.128143 56.2722 37.423841 56.109656 
C 39.719538 55.947112 41.970541 55.39265 44.079097 54.470349 
C 46.187653 53.548048 48.122789 52.271454 49.80047 50.696007 
L 36 36 
L 56.16 36 
z
" style="fill:#67c8f3;"/>
   </g>
   <g id="patch_8">
    <path d="M 49.80047 50.696007 
C 51.808047 48.810767 53.408189 46.533994 54.501933 44.006501 
C 55.595677 41.479008 56.16 38.753997 56.16 36 
L 36 36 
L 49.80047 50.696007 
z
" style="fill:#5d77fe;"/>
   </g>
   <g id="patch_9">
    <path d="M 56.16 36 
C 56.16 36 56.16 36 56.16 36 
L 36 36 
L 56.16 36 
z
" style="fill:#f88b10;"/>
   </g>
   <g id="patch_10">
    <path d="M 56.16 36 
C 56.16 36 56.16 36 56.16 36 
L 36 36 
L 56.16 36 
z
" style="fill:#103129;"/>
   </g>
   <g id="patch_11">
    <path d="M 56.16 36 
C 56.16 36 56.16 36 56.16 36 
L 36 36 
L 56.16 36 
z
" style="fill:#98161a;"/>
   </g>
  </g>
 </g>
</svg>
