<?xml version="1.0" encoding="utf-8" standalone="no"?>
<!DOCTYPE svg PUBLIC "-//W3C//DTD SVG 1.1//EN"
  "http://www.w3.org/Graphics/SVG/1.1/DTD/svg11.dtd">
<!-- Created with matplotlib (http://matplotlib.org/) -->
<svg height="72pt" version="1.1" viewBox="0 0 72 72" width="72pt" xmlns="http://www.w3.org/2000/svg" xmlns:xlink="http://www.w3.org/1999/xlink">
 <defs>
  <style type="text/css">
*{stroke-linecap:butt;stroke-linejoin:round;}
  </style>
 </defs>
 <g id="figure_1">
  <g id="patch_1">
   <path d="M 0 72 
L 72 72 
L 72 0 
L 0 0 
z
" style="fill:#ffffff;"/>
  </g>
  <g id="axes_1">
   <g id="patch_2">
    <path d="M 61.92 36 
C 61.92 32.596217 61.249529 29.225531 59.946957 26.080845 
C 58.644386 22.93616 56.735046 20.07863 54.328208 17.671792 
C 51.92137 15.264954 49.06384 13.355614 45.919155 12.053043 
C 42.774469 10.750471 39.403783 10.08 36 10.08 
C 32.596217 10.08 29.225531 10.750471 26.080845 12.053043 
C 22.93616 13.355614 20.07863 15.264954 17.671792 17.671792 
C 15.264954 20.07863 13.355614 22.93616 12.053043 26.080845 
C 10.750471 29.225531 10.08 32.596217 10.08 36 
C 10.08 39.403783 10.750471 42.774469 12.053043 45.919155 
C 13.355614 49.06384 15.264954 51.92137 17.671792 54.328208 
C 20.07863 56.735046 22.93616 58.644386 26.080845 59.946957 
C 29.225531 61.249529 32.596217 61.92 36 61.92 
C 39.403783 61.92 42.774469 61.249529 45.919155 59.946957 
C 49.06384 58.644386 51.92137 56.735046 54.328208 54.328208 
C 56.735046 51.92137 58.644386 49.06384 59.946957 45.919155 
C 61.249529 42.774469 61.92 39.403783 61.92 36 
M 36 36 
M 61.92 36 
z
" style="fill:#278c18;"/>
   </g>
   <g id="patch_3">
    <path d="M 59.04 36 
C 59.04 36 59.04 36 59.04 36 
L 36 36 
L 59.04 36 
z
" style="fill:#278c18;"/>
   </g>
   <g id="patch_4">
    <path d="M 59.04 36 
C 59.04 31.812723 57.89851 27.703606 55.738772 24.116293 
C 53.579033 20.52898 50.481674 17.597392 46.781103 15.63804 
C 43.080532 13.678688 38.914898 12.76472 34.733948 12.994811 
C 30.552998 13.224903 26.512814 14.590465 23.049599 16.944063 
C 19.586384 19.297662 16.829426 22.551433 15.076381 26.354079 
C 13.323337 30.156726 12.639652 34.366289 13.09914 38.528278 
C 13.558627 42.690268 15.144135 46.649309 17.684482 49.977961 
C 20.224829 53.306613 23.625179 55.880611 27.51841 57.42205 
L 36 36 
L 59.04 36 
z
" style="fill:#67c8f3;"/>
   </g>
   <g id="patch_5">
    <path d="M 27.51841 57.42205 
C 31.012628 58.805509 34.792846 59.313256 38.528278 58.90086 
C 42.26371 58.488465 45.842127 57.168317 48.950401 55.055937 
C 52.058675 52.943556 54.60342 50.102407 56.36196 46.781103 
C 58.1205 43.459799 59.04 39.758127 59.04 36 
L 36 36 
L 27.51841 57.42205 
z
" style="fill:#f88b10;"/>
   </g>
   <g id="patch_6">
    <path d="M 56.16 36 
C 56.16 36 56.16 36 56.16 36 
L 36 36 
L 56.16 36 
z
" style="fill:#278c18;"/>
   </g>
   <g id="patch_7">
    <path d="M 56.16 36 
C 56.16 33.03253 55.504801 30.101337 54.241313 27.416289 
C 52.977826 24.731242 51.136943 22.35799 48.850468 20.466453 
C 46.563993 18.574916 43.88783 17.211343 41.013588 16.473363 
C 38.139346 15.735384 35.137301 15.641041 32.222393 16.197089 
C 29.307485 16.753138 26.550983 17.945982 24.150249 19.690218 
C 21.749515 21.434453 19.763247 23.687432 18.333657 26.287846 
C 16.904068 28.88826 16.06611 31.772529 15.879781 34.734143 
C 15.693452 37.695758 16.163308 40.662307 17.255706 43.421391 
L 36 36 
L 56.16 36 
z
" style="fill:#67c8f3;"/>
   </g>
   <g id="patch_8">
    <path d="M 17.255706 43.421391 
C 18.26952 45.981993 19.797358 48.307903 21.744727 50.255273 
C 23.692097 52.202642 26.018007 53.73048 28.578609 54.744294 
L 36 36 
L 17.255706 43.421391 
z
" style="fill:#103129;"/>
   </g>
   <g id="patch_9">
    <path d="M 28.578609 54.744294 
C 29.560562 55.133077 30.571549 55.444097 31.602232 55.674482 
C 32.632915 55.904867 33.680109 56.053905 34.734143 56.120219 
L 36 36 
L 28.578609 54.744294 
z
" style="fill:#f88b10;"/>
   </g>
   <g id="patch_10">
    <path d="M 34.734143 56.120219 
C 37.482705 56.293144 40.237774 55.901039 42.828956 54.968156 
C 45.420138 54.035273 47.792892 52.581248 49.800469 50.696008 
L 36 36 
L 34.734143 56.120219 
z
" style="fill:#5d77fe;"/>
   </g>
   <g id="patch_11">
    <path d="M 49.800469 50.696008 
C 51.808046 48.810768 53.408189 46.533996 54.501933 44.006502 
C 55.595677 41.479009 56.16 38.753998 56.16 36.000001 
L 36 36 
L 49.800469 50.696008 
z
" style="fill:#98161a;"/>
   </g>
  </g>
 </g>
</svg>
