<?xml version="1.0" encoding="utf-8" standalone="no"?>
<!DOCTYPE svg PUBLIC "-//W3C//DTD SVG 1.1//EN"
  "http://www.w3.org/Graphics/SVG/1.1/DTD/svg11.dtd">
<!-- Created with matplotlib (http://matplotlib.org/) -->
<svg height="72pt" version="1.1" viewBox="0 0 72 72" width="72pt" xmlns="http://www.w3.org/2000/svg" xmlns:xlink="http://www.w3.org/1999/xlink">
 <defs>
  <style type="text/css">
*{stroke-linecap:butt;stroke-linejoin:round;}
  </style>
 </defs>
 <g id="figure_1">
  <g id="patch_1">
   <path d="M 0 72 
L 72 72 
L 72 0 
L 0 0 
z
" style="fill:#ffffff;"/>
  </g>
  <g id="axes_1">
   <g id="patch_2">
    <path d="M 61.92 36 
C 61.92 32.596217 61.249529 29.225531 59.946957 26.080845 
C 58.644386 22.93616 56.735046 20.07863 54.328208 17.671792 
C 51.92137 15.264954 49.06384 13.355614 45.919155 12.053043 
C 42.774469 10.750471 39.403783 10.08 36 10.08 
C 32.596217 10.08 29.225531 10.750471 26.080845 12.053043 
C 22.93616 13.355614 20.07863 15.264954 17.671792 17.671792 
C 15.264954 20.07863 13.355614 22.93616 12.053043 26.080845 
C 10.750471 29.225531 10.08 32.596217 10.08 36 
C 10.08 39.403783 10.750471 42.774469 12.053043 45.919155 
C 13.355614 49.06384 15.264954 51.92137 17.671792 54.328208 
C 20.07863 56.735046 22.93616 58.644386 26.080845 59.946957 
C 29.225531 61.249529 32.596217 61.92 36 61.92 
C 39.403783 61.92 42.774469 61.249529 45.919155 59.946957 
C 49.06384 58.644386 51.92137 56.735046 54.328208 54.328208 
C 56.735046 51.92137 58.644386 49.06384 59.946957 45.919155 
C 61.249529 42.774469 61.92 39.403783 61.92 36 
M 36 36 
M 61.92 36 
z
" style="fill:#278c18;"/>
   </g>
   <g id="patch_3">
    <path d="M 59.04 36 
C 59.04 32.119407 58.059596 28.300985 56.190106 24.900396 
C 54.320616 21.499806 51.621943 18.626011 48.34545 16.546685 
C 45.068957 14.467359 41.31963 13.249129 37.446694 13.005464 
C 33.573759 12.7618 29.701312 13.500508 26.190046 15.152784 
L 36 36 
L 59.04 36 
z
" style="fill:#278c18;"/>
   </g>
   <g id="patch_4">
    <path d="M 26.190046 15.152784 
C 22.456839 16.909498 19.263152 19.637164 16.944064 23.049598 
C 14.624976 26.462033 13.26453 30.435568 13.005464 34.553306 
C 12.746398 38.671043 13.5981 42.783755 15.471209 46.459941 
C 17.344319 50.136126 20.170955 53.242558 23.65455 55.453315 
C 27.138145 57.664072 31.152452 58.899034 35.276296 59.028631 
C 39.400139 59.158228 43.484069 58.177763 47.099604 56.190106 
C 50.71514 54.202449 53.731253 51.279632 55.831496 47.728314 
C 57.93174 44.176997 59.04 40.125879 59.04 36 
L 36 36 
L 26.190046 15.152784 
z
" style="fill:#67c8f3;"/>
   </g>
   <g id="patch_5">
    <path d="M 56.16 36 
C 56.16 32.604481 55.302147 29.263362 53.666343 26.287846 
C 52.030539 23.31233 49.6692 20.797759 46.802269 18.978349 
C 43.935337 17.158939 40.654676 16.092988 37.265858 15.879781 
C 33.877039 15.666575 30.488648 16.312945 27.41629 17.758686 
L 36 36 
L 56.16 36 
z
" style="fill:#278c18;"/>
   </g>
   <g id="patch_6">
    <path d="M 27.41629 17.758686 
C 27.41629 17.758686 27.41629 17.758686 27.41629 17.758686 
L 36 36 
L 27.41629 17.758686 
z
" style="fill:#67c8f3;"/>
   </g>
   <g id="patch_7">
    <path d="M 27.41629 17.758686 
C 23.955144 19.387378 21.027995 21.968006 18.978349 25.197731 
C 16.928703 28.427456 15.84 32.174798 15.84 36 
L 36 36 
L 27.41629 17.758686 
z
" style="fill:#f88b10;"/>
   </g>
   <g id="patch_8">
    <path d="M 15.84 36 
C 15.84 41.344714 17.965444 46.475989 21.744727 50.255273 
C 25.524011 54.034556 30.655286 56.16 36 56.16 
C 41.344714 56.16 46.475989 54.034556 50.255273 50.255273 
C 54.034556 46.475989 56.16 41.344714 56.16 36 
L 36 36 
L 15.84 36 
z
" style="fill:#103129;"/>
   </g>
   <g id="patch_9">
    <path d="M 53.28 36 
C 53.28 33.089555 52.544697 30.225739 51.14258 27.675297 
C 49.740462 25.124854 47.716457 22.969508 45.259087 21.410014 
C 42.801717 19.850519 39.989723 18.936847 37.085021 18.754098 
C 34.180319 18.57135 31.275984 19.125381 28.642535 20.364588 
L 36 36 
L 53.28 36 
z
" style="fill:#278c18;"/>
   </g>
   <g id="patch_10">
    <path d="M 28.642535 20.364588 
C 28.642535 20.364588 28.642535 20.364588 28.642535 20.364588 
L 36 36 
L 28.642535 20.364588 
z
" style="fill:#67c8f3;"/>
   </g>
   <g id="patch_11">
    <path d="M 28.642535 20.364588 
C 28.31504 20.518695 27.992469 20.683054 27.675297 20.85742 
C 27.358126 21.031787 27.046511 21.216075 26.740914 21.410013 
L 36 36 
L 28.642535 20.364588 
z
" style="fill:#f88b10;"/>
   </g>
   <g id="patch_12">
    <path d="M 26.740914 21.410013 
C 24.283544 22.969507 22.259539 25.124853 20.857421 27.675296 
C 19.455303 30.225738 18.72 33.089554 18.72 35.999999 
L 36 36 
L 26.740914 21.410013 
z
" style="fill:#5d77fe;"/>
   </g>
   <g id="patch_13">
    <path d="M 18.72 35.999999 
C 18.72 40.581182 20.541808 44.979418 23.781194 48.218804 
C 27.02058 51.45819 31.418816 53.28 35.999999 53.28 
C 40.581182 53.28 44.979418 51.458192 48.218804 48.218806 
C 51.45819 44.97942 53.28 40.581184 53.28 36.000001 
L 36 36 
L 18.72 35.999999 
z
" style="fill:#103129;"/>
   </g>
  </g>
 </g>
</svg>
