<?xml version="1.0" encoding="utf-8" standalone="no"?>
<!DOCTYPE svg PUBLIC "-//W3C//DTD SVG 1.1//EN"
  "http://www.w3.org/Graphics/SVG/1.1/DTD/svg11.dtd">
<!-- Created with matplotlib (http://matplotlib.org/) -->
<svg height="72pt" version="1.1" viewBox="0 0 72 72" width="72pt" xmlns="http://www.w3.org/2000/svg" xmlns:xlink="http://www.w3.org/1999/xlink">
 <defs>
  <style type="text/css">
*{stroke-linecap:butt;stroke-linejoin:round;}
  </style>
 </defs>
 <g id="figure_1">
  <g id="patch_1">
   <path d="M 0 72 
L 72 72 
L 72 0 
L 0 0 
z
" style="fill:#ffffff;"/>
  </g>
  <g id="axes_1">
   <g id="patch_2">
    <path d="M 61.92 36 
C 61.92 32.596217 61.249529 29.225531 59.946957 26.080845 
C 58.644386 22.93616 56.735046 20.07863 54.328208 17.671792 
C 51.92137 15.264954 49.06384 13.355614 45.919155 12.053043 
C 42.774469 10.750471 39.403783 10.08 36 10.08 
C 32.596217 10.08 29.225531 10.750471 26.080845 12.053043 
C 22.93616 13.355614 20.07863 15.264954 17.671792 17.671792 
C 15.264954 20.07863 13.355614 22.93616 12.053043 26.080845 
C 10.750471 29.225531 10.08 32.596217 10.08 36 
C 10.08 39.403783 10.750471 42.774469 12.053043 45.919155 
C 13.355614 49.06384 15.264954 51.92137 17.671792 54.328208 
C 20.07863 56.735046 22.93616 58.644386 26.080845 59.946957 
C 29.225531 61.249529 32.596217 61.92 36 61.92 
C 39.403783 61.92 42.774469 61.249529 45.919155 59.946957 
C 49.06384 58.644386 51.92137 56.735046 54.328208 54.328208 
C 56.735046 51.92137 58.644386 49.06384 59.946957 45.919155 
C 61.249529 42.774469 61.92 39.403783 61.92 36 
M 36 36 
M 61.92 36 
z
" style="fill:#278c18;"/>
   </g>
   <g id="patch_3">
    <path d="M 59.04 36 
C 59.04 34.067269 58.796807 32.142196 58.316156 30.270185 
C 57.835505 28.398174 57.121206 26.594061 56.190106 24.900396 
L 36 36 
L 59.04 36 
z
" style="fill:#278c18;"/>
   </g>
   <g id="patch_4">
    <path d="M 56.190106 24.900396 
C 54.024747 20.961621 50.753403 17.741265 46.781103 15.63804 
C 42.808803 13.534815 38.306541 12.63926 33.831744 13.062252 
C 29.356948 13.485245 25.102244 15.208578 21.594409 18.018884 
C 18.086574 20.829189 15.47661 24.605493 14.087658 28.880249 
C 12.698706 33.155004 12.590555 37.744197 13.776597 42.079636 
C 14.962639 46.415074 17.391818 50.310132 20.763375 53.28256 
C 24.134933 56.254987 28.303734 58.17683 32.753637 58.810145 
C 37.203539 59.44346 41.74299 58.760984 45.809956 56.847215 
L 36 36 
L 56.190106 24.900396 
z
" style="fill:#67c8f3;"/>
   </g>
   <g id="patch_5">
    <path d="M 45.809956 56.847215 
C 49.765552 54.985852 53.110864 52.036563 55.453316 48.345448 
C 57.795768 44.654333 59.04 40.371658 59.04 35.999998 
L 36 36 
L 45.809956 56.847215 
z
" style="fill:#f88b10;"/>
   </g>
   <g id="patch_6">
    <path d="M 56.16 36 
C 56.16 34.30886 55.947206 32.624421 55.526637 30.986412 
C 55.106067 29.348403 54.481055 27.769803 53.666343 26.287846 
L 36 36 
L 56.16 36 
z
" style="fill:#278c18;"/>
   </g>
   <g id="patch_7">
    <path d="M 53.666343 26.287846 
C 52.133738 23.500049 49.962795 21.114213 47.331601 19.326056 
C 44.700407 17.537898 41.682935 16.39769 38.526717 15.998968 
L 36 36 
L 53.666343 26.287846 
z
" style="fill:#67c8f3;"/>
   </g>
   <g id="patch_8">
    <path d="M 38.526717 15.998968 
C 35.423572 15.606949 32.271354 15.942433 29.320228 16.978795 
C 26.369102 18.015157 23.699257 19.724236 21.522574 21.970398 
C 19.345891 24.21656 17.721517 26.938771 16.778364 29.920994 
C 15.835211 32.903217 15.598906 36.064417 16.088203 39.153718 
C 16.5775 42.243019 17.779103 45.176476 19.597653 47.721289 
C 21.416202 50.266101 23.802283 52.353119 26.566533 53.816714 
C 29.330783 55.28031 32.398092 56.080713 35.525033 56.154404 
C 38.651974 56.228095 41.753581 55.573071 44.583708 54.241315 
L 36 36 
L 38.526717 15.998968 
z
" style="fill:#103129;"/>
   </g>
   <g id="patch_9">
    <path d="M 44.583708 54.241315 
C 44.583708 54.241315 44.583708 54.241315 44.583708 54.241315 
L 36 36 
L 44.583708 54.241315 
z
" style="fill:#f88b10;"/>
   </g>
   <g id="patch_10">
    <path d="M 44.583708 54.241315 
C 44.583708 54.241315 44.583708 54.241315 44.583708 54.241315 
L 36 36 
L 44.583708 54.241315 
z
" style="fill:#5d77fe;"/>
   </g>
   <g id="patch_11">
    <path d="M 44.583708 54.241315 
C 48.044855 52.612623 50.972003 50.031995 53.02165 46.80227 
C 55.071296 43.572545 56.16 39.825204 56.16 36.000002 
L 36 36 
L 44.583708 54.241315 
z
" style="fill:#98161a;"/>
   </g>
  </g>
 </g>
</svg>
