<?xml version="1.0" encoding="utf-8" standalone="no"?>
<!DOCTYPE svg PUBLIC "-//W3C//DTD SVG 1.1//EN"
  "http://www.w3.org/Graphics/SVG/1.1/DTD/svg11.dtd">
<!-- Created with matplotlib (http://matplotlib.org/) -->
<svg height="72pt" version="1.1" viewBox="0 0 72 72" width="72pt" xmlns="http://www.w3.org/2000/svg" xmlns:xlink="http://www.w3.org/1999/xlink">
 <defs>
  <style type="text/css">
*{stroke-linecap:butt;stroke-linejoin:round;}
  </style>
 </defs>
 <g id="figure_1">
  <g id="patch_1">
   <path d="M 0 72 
L 72 72 
L 72 0 
L 0 0 
z
" style="fill:#ffffff;"/>
  </g>
  <g id="axes_1">
   <g id="patch_2">
    <path d="M 61.92 36 
C 61.92 32.596217 61.249529 29.225531 59.946957 26.080845 
C 58.644386 22.93616 56.735046 20.07863 54.328208 17.671792 
C 51.92137 15.264954 49.06384 13.355614 45.919155 12.053043 
C 42.774469 10.750471 39.403783 10.08 36 10.08 
C 32.596217 10.08 29.225531 10.750471 26.080845 12.053043 
C 22.93616 13.355614 20.07863 15.264954 17.671792 17.671792 
C 15.264954 20.07863 13.355614 22.93616 12.053043 26.080845 
C 10.750471 29.225531 10.08 32.596217 10.08 36 
C 10.08 39.403783 10.750471 42.774469 12.053043 45.919155 
C 13.355614 49.06384 15.264954 51.92137 17.671792 54.328208 
C 20.07863 56.735046 22.93616 58.644386 26.080845 59.946957 
C 29.225531 61.249529 32.596217 61.92 36 61.92 
C 39.403783 61.92 42.774469 61.249529 45.919155 59.946957 
C 49.06384 58.644386 51.92137 56.735046 54.328208 54.328208 
C 56.735046 51.92137 58.644386 49.06384 59.946957 45.919155 
C 61.249529 42.774469 61.92 39.403783 61.92 36 
M 36 36 
M 61.92 36 
z
" style="fill:#278c18;"/>
   </g>
   <g id="patch_3">
    <path d="M 59.04 36 
C 59.04 35.517412 59.024838 35.034942 58.994536 34.553306 
C 58.964234 34.07167 58.918807 33.591105 58.858323 33.112322 
L 36 36 
L 59.04 36 
z
" style="fill:#278c18;"/>
   </g>
   <g id="patch_4">
    <path d="M 58.858323 33.112322 
C 58.108434 27.176341 55.075031 21.75981 50.405591 18.018883 
C 45.73615 14.277956 39.788351 12.499187 33.831744 13.062252 
C 27.875137 13.625318 22.365998 16.487087 18.480246 21.036718 
C 14.594494 25.586349 12.629778 31.475341 13.005464 37.446695 
L 36 36 
L 58.858323 33.112322 
z
" style="fill:#67c8f3;"/>
   </g>
   <g id="patch_5">
    <path d="M 13.005464 37.446695 
C 13.38115 43.418049 16.068461 49.01436 20.493793 53.041102 
C 24.919125 57.067843 30.743498 59.216567 36.723706 59.028631 
C 42.703914 58.840695 48.381874 56.330494 52.545632 52.033829 
C 56.709389 47.737164 59.040001 41.983158 59.04 35.999997 
L 36 36 
L 13.005464 37.446695 
z
" style="fill:#f88b10;"/>
   </g>
   <g id="patch_6">
    <path d="M 56.16 36 
C 56.16 35.577735 56.146733 35.155575 56.120219 34.734143 
C 56.093705 34.312712 56.053956 33.892217 56.001032 33.473282 
L 36 36 
L 56.16 36 
z
" style="fill:#278c18;"/>
   </g>
   <g id="patch_7">
    <path d="M 56.001032 33.473282 
C 55.358578 28.387734 52.800094 23.733868 48.850468 20.466453 
C 44.900842 17.199038 39.849997 15.557919 34.734144 15.879781 
C 29.618291 16.201643 24.81296 18.46286 21.303993 22.19953 
C 17.795027 25.936199 15.84 30.874031 15.84 35.999999 
L 36 36 
L 56.001032 33.473282 
z
" style="fill:#67c8f3;"/>
   </g>
   <g id="patch_8">
    <path d="M 15.84 35.999999 
C 15.84 36.211118 15.843316 36.422224 15.849948 36.633239 
C 15.856579 36.844255 15.866525 37.055153 15.879781 37.265855 
L 36 36 
L 15.84 35.999999 
z
" style="fill:#103129;"/>
   </g>
   <g id="patch_9">
    <path d="M 15.879781 37.265855 
C 16.119967 41.08351 17.441819 44.755096 19.690217 47.84975 
C 21.938614 50.944404 25.022025 53.336143 28.578609 54.744294 
L 36 36 
L 15.879781 37.265855 
z
" style="fill:#f88b10;"/>
   </g>
   <g id="patch_10">
    <path d="M 28.578609 54.744294 
C 32.939483 56.470886 37.769099 56.622663 42.229782 55.1733 
C 46.690465 53.723936 50.508494 50.762369 53.021651 46.802269 
L 36 36 
L 28.578609 54.744294 
z
" style="fill:#5d77fe;"/>
   </g>
   <g id="patch_11">
    <path d="M 53.021651 46.802269 
C 54.041433 45.195349 54.828546 43.452087 55.359521 41.624461 
C 55.890495 39.796836 56.16 37.903194 56.16 36 
L 36 36 
L 53.021651 46.802269 
z
" style="fill:#98161a;"/>
   </g>
  </g>
 </g>
</svg>
