<?xml version="1.0" encoding="utf-8" standalone="no"?>
<!DOCTYPE svg PUBLIC "-//W3C//DTD SVG 1.1//EN"
  "http://www.w3.org/Graphics/SVG/1.1/DTD/svg11.dtd">
<!-- Created with matplotlib (http://matplotlib.org/) -->
<svg height="72pt" version="1.1" viewBox="0 0 72 72" width="72pt" xmlns="http://www.w3.org/2000/svg" xmlns:xlink="http://www.w3.org/1999/xlink">
 <defs>
  <style type="text/css">
*{stroke-linecap:butt;stroke-linejoin:round;}
  </style>
 </defs>
 <g id="figure_1">
  <g id="patch_1">
   <path d="M 0 72 
L 72 72 
L 72 0 
L 0 0 
z
" style="fill:#ffffff;"/>
  </g>
  <g id="axes_1">
   <g id="patch_2">
    <path d="M 61.92 36 
C 61.92 32.596217 61.249529 29.225531 59.946957 26.080845 
C 58.644386 22.93616 56.735046 20.07863 54.328208 17.671792 
C 51.92137 15.264954 49.06384 13.355614 45.919155 12.053043 
C 42.774469 10.750471 39.403783 10.08 36 10.08 
C 32.596217 10.08 29.225531 10.750471 26.080845 12.053043 
C 22.93616 13.355614 20.07863 15.264954 17.671792 17.671792 
C 15.264954 20.07863 13.355614 22.93616 12.053043 26.080845 
C 10.750471 29.225531 10.08 32.596217 10.08 36 
C 10.08 39.403783 10.750471 42.774469 12.053043 45.919155 
C 13.355614 49.06384 15.264954 51.92137 17.671792 54.328208 
C 20.07863 56.735046 22.93616 58.644386 26.080845 59.946957 
C 29.225531 61.249529 32.596217 61.92 36 61.92 
C 39.403783 61.92 42.774469 61.249529 45.919155 59.946957 
C 49.06384 58.644386 51.92137 56.735046 54.328208 54.328208 
C 56.735046 51.92137 58.644386 49.06384 59.946957 45.919155 
C 61.249529 42.774469 61.92 39.403783 61.92 36 
M 36 36 
M 61.92 36 
z
" style="fill:#278c18;"/>
   </g>
   <g id="patch_3">
    <path d="M 59.04 36 
C 59.04 36 59.04 36 59.04 36 
L 36 36 
L 59.04 36 
z
" style="fill:#278c18;"/>
   </g>
   <g id="patch_4">
    <path d="M 59.04 36 
C 59.04 32.486469 58.236295 29.01905 56.690555 25.863802 
C 55.144816 22.708554 52.897613 19.948297 50.121379 17.794829 
C 47.345145 15.641361 44.11275 14.151206 40.67222 13.438707 
C 37.23169 12.726207 33.673333 12.810064 30.270186 13.683844 
L 36 36 
L 59.04 36 
z
" style="fill:#67c8f3;"/>
   </g>
   <g id="patch_5">
    <path d="M 30.270186 13.683844 
C 26.095431 14.755738 22.304051 16.977904 19.328953 20.09661 
C 16.353855 23.215316 14.312754 27.107166 13.438707 31.327779 
C 12.564659 35.548392 12.892249 39.930774 14.384071 43.974535 
C 15.875893 48.018296 18.47292 51.563438 21.878619 54.20517 
C 25.284319 56.846902 29.363938 58.480699 33.651657 58.920011 
C 37.939377 59.359323 42.265547 58.586767 46.136195 56.690557 
C 50.006844 54.794346 53.268823 51.849507 55.549673 48.192288 
C 57.830523 44.535068 59.039999 40.310171 59.04 36.000004 
L 36 36 
L 30.270186 13.683844 
z
" style="fill:#f88b10;"/>
   </g>
   <g id="patch_6">
    <path d="M 56.16 36 
C 56.16 36 56.16 36 56.16 36 
L 36 36 
L 56.16 36 
z
" style="fill:#278c18;"/>
   </g>
   <g id="patch_7">
    <path d="M 56.16 36 
C 56.16 36 56.16 36 56.16 36 
L 36 36 
L 56.16 36 
z
" style="fill:#67c8f3;"/>
   </g>
   <g id="patch_8">
    <path d="M 56.16 36 
C 56.16 32.92566 55.456759 29.891669 54.104236 27.130827 
C 52.751714 24.369985 50.785412 21.95476 48.356207 20.070475 
C 45.927002 18.186191 43.098656 16.882305 40.088193 16.258868 
C 37.077729 15.635431 33.964167 15.708806 30.986413 16.473363 
L 36 36 
L 56.16 36 
z
" style="fill:#5d77fe;"/>
   </g>
   <g id="patch_9">
    <path d="M 30.986413 16.473363 
C 26.758646 17.558869 22.995644 19.988608 20.266524 23.395107 
C 17.537403 26.801606 15.987053 31.004014 15.849948 35.366758 
C 15.712843 39.729502 16.996262 44.020965 19.506101 47.592105 
C 22.01594 51.163245 25.618952 53.824471 29.770216 55.173299 
L 36 36 
L 30.986413 16.473363 
z
" style="fill:#f88b10;"/>
   </g>
   <g id="patch_10">
    <path d="M 29.770216 55.173299 
C 33.408199 56.355352 37.308561 56.477926 41.013587 55.526637 
C 44.718614 54.575348 48.077476 52.588922 50.696007 49.80047 
L 36 36 
L 29.770216 55.173299 
z
" style="fill:#103129;"/>
   </g>
   <g id="patch_11">
    <path d="M 50.696007 49.80047 
C 52.435344 47.948265 53.808942 45.783821 54.744294 43.421392 
C 55.679646 41.058962 56.16 38.540858 56.16 36.000001 
L 36 36 
L 50.696007 49.80047 
z
" style="fill:#98161a;"/>
   </g>
  </g>
 </g>
</svg>
