<?xml version="1.0" encoding="utf-8" standalone="no"?>
<!DOCTYPE svg PUBLIC "-//W3C//DTD SVG 1.1//EN"
  "http://www.w3.org/Graphics/SVG/1.1/DTD/svg11.dtd">
<!-- Created with matplotlib (http://matplotlib.org/) -->
<svg height="72pt" version="1.1" viewBox="0 0 72 72" width="72pt" xmlns="http://www.w3.org/2000/svg" xmlns:xlink="http://www.w3.org/1999/xlink">
 <defs>
  <style type="text/css">
*{stroke-linecap:butt;stroke-linejoin:round;}
  </style>
 </defs>
 <g id="figure_1">
  <g id="patch_1">
   <path d="M 0 72 
L 72 72 
L 72 0 
L 0 0 
z
" style="fill:#ffffff;"/>
  </g>
  <g id="axes_1">
   <g id="patch_2">
    <path d="M 61.92 36 
C 61.92 32.596217 61.249529 29.225531 59.946957 26.080845 
C 58.644386 22.93616 56.735046 20.07863 54.328208 17.671792 
C 51.92137 15.264954 49.06384 13.355614 45.919155 12.053043 
C 42.774469 10.750471 39.403783 10.08 36 10.08 
C 32.596217 10.08 29.225531 10.750471 26.080845 12.053043 
C 22.93616 13.355614 20.07863 15.264954 17.671792 17.671792 
C 15.264954 20.07863 13.355614 22.93616 12.053043 26.080845 
C 10.750471 29.225531 10.08 32.596217 10.08 36 
C 10.08 39.403783 10.750471 42.774469 12.053043 45.919155 
C 13.355614 49.06384 15.264954 51.92137 17.671792 54.328208 
C 20.07863 56.735046 22.93616 58.644386 26.080845 59.946957 
C 29.225531 61.249529 32.596217 61.92 36 61.92 
C 39.403783 61.92 42.774469 61.249529 45.919155 59.946957 
C 49.06384 58.644386 51.92137 56.735046 54.328208 54.328208 
C 56.735046 51.92137 58.644386 49.06384 59.946957 45.919155 
C 61.249529 42.774469 61.92 39.403783 61.92 36 
M 36 36 
M 61.92 36 
z
" style="fill:#278c18;"/>
   </g>
   <g id="patch_3">
    <path d="M 59.04 36 
C 59.04 32.608606 58.291201 29.25867 56.847215 26.190045 
C 55.40323 23.12142 53.299363 20.409131 50.686249 18.247375 
L 36 36 
L 59.04 36 
z
" style="fill:#278c18;"/>
   </g>
   <g id="patch_4">
    <path d="M 50.686249 18.247375 
C 46.556087 14.830608 41.360274 12.96 36 12.96 
C 30.639726 12.96 25.443913 14.830608 21.313751 18.247375 
L 36 36 
L 50.686249 18.247375 
z
" style="fill:#67c8f3;"/>
   </g>
   <g id="patch_5">
    <path d="M 21.313751 18.247375 
C 18.323703 20.720958 16.006492 23.910326 14.57795 27.51841 
C 13.149408 31.126494 12.65531 35.037683 13.141677 38.887677 
C 13.628044 42.737671 15.079293 46.403106 17.360248 49.542572 
C 19.641203 52.682038 22.678778 55.194938 26.190044 56.847215 
C 29.70131 58.499491 33.573756 59.2382 37.446692 58.994536 
C 41.319628 58.750872 45.068955 57.532642 48.345448 55.453316 
C 51.621941 53.373991 54.320615 50.500196 56.190105 47.099606 
C 58.059595 43.699017 59.04 39.880595 59.04 36.000002 
L 36 36 
L 21.313751 18.247375 
z
" style="fill:#98161a;"/>
   </g>
   <g id="patch_6">
    <path d="M 56.16 36 
C 56.16 33.03253 55.504801 30.101337 54.241313 27.416289 
C 52.977826 24.731242 51.136943 22.35799 48.850468 20.466453 
L 36 36 
L 56.16 36 
z
" style="fill:#278c18;"/>
   </g>
   <g id="patch_7">
    <path d="M 48.850468 20.466453 
C 48.850468 20.466453 48.850468 20.466453 48.850468 20.466453 
L 36 36 
L 48.850468 20.466453 
z
" style="fill:#67c8f3;"/>
   </g>
   <g id="patch_8">
    <path d="M 48.850468 20.466453 
C 48.850468 20.466453 48.850468 20.466453 48.850468 20.466453 
L 36 36 
L 48.850468 20.466453 
z
" style="fill:#f88b10;"/>
   </g>
   <g id="patch_9">
    <path d="M 48.850468 20.466453 
C 45.236576 17.476782 40.69024 15.84 36 15.84 
C 31.30976 15.84 26.763424 17.476782 23.149532 20.466453 
L 36 36 
L 48.850468 20.466453 
z
" style="fill:#103129;"/>
   </g>
   <g id="patch_10">
    <path d="M 23.149532 20.466453 
C 20.53324 22.630838 18.50568 25.421535 17.255706 28.578609 
C 16.005732 31.735683 15.573396 35.157973 15.998968 38.526717 
C 16.424539 41.895462 17.694381 45.102717 19.690217 47.84975 
C 21.686053 50.596783 24.343931 52.795571 27.416289 54.241313 
C 30.488646 55.687055 33.877037 56.333425 37.265856 56.120219 
C 40.654675 55.907013 43.935335 54.841062 46.802267 53.021652 
C 49.669199 51.202242 52.030538 48.687671 53.666342 45.712156 
C 55.302146 42.73664 56.16 39.395521 56.16 36.000002 
L 36 36 
L 23.149532 20.466453 
z
" style="fill:#98161a;"/>
   </g>
   <g id="patch_11">
    <path d="M 53.28 36 
C 53.28 33.456454 52.718401 30.944003 51.635411 28.642534 
C 50.552422 26.341065 48.974522 24.306848 47.014686 22.685531 
L 36 36 
L 53.28 36 
z
" style="fill:#278c18;"/>
   </g>
   <g id="patch_12">
    <path d="M 47.014686 22.685531 
C 47.014686 22.685531 47.014686 22.685531 47.014686 22.685531 
L 36 36 
L 47.014686 22.685531 
z
" style="fill:#67c8f3;"/>
   </g>
   <g id="patch_13">
    <path d="M 47.014686 22.685531 
C 47.014686 22.685531 47.014686 22.685531 47.014686 22.685531 
L 36 36 
L 47.014686 22.685531 
z
" style="fill:#f88b10;"/>
   </g>
   <g id="patch_14">
    <path d="M 47.014686 22.685531 
C 47.014686 22.685531 47.014686 22.685531 47.014686 22.685531 
L 36 36 
L 47.014686 22.685531 
z
" style="fill:#5d77fe;"/>
   </g>
   <g id="patch_15">
    <path d="M 47.014686 22.685531 
C 45.195837 21.180848 43.087806 20.064703 40.820966 19.406125 
C 38.554127 18.747548 36.176197 18.5604 33.834242 18.856258 
L 36 36 
L 47.014686 22.685531 
z
" style="fill:#103129;"/>
   </g>
   <g id="patch_16">
    <path d="M 33.834242 18.856258 
C 32.215796 19.060715 30.634426 19.493329 29.137285 20.1412 
C 27.640143 20.789071 26.242259 21.645695 24.985314 22.685531 
L 36 36 
L 33.834242 18.856258 
z
" style="fill:#68ecac;"/>
   </g>
   <g id="patch_17">
    <path d="M 24.985314 22.685531 
C 22.742777 24.540719 21.004869 26.932744 19.933462 29.638807 
C 18.862056 32.344871 18.491483 35.278263 18.856258 38.165758 
C 19.221033 41.053253 20.309469 43.802329 22.020186 46.156929 
C 23.730903 48.511528 26.009084 50.396204 28.642533 51.635411 
C 31.275982 52.874618 34.180317 53.42865 37.085019 53.245902 
C 39.989721 53.063154 42.801716 52.149481 45.259086 50.589987 
C 47.716456 49.030493 49.740461 46.875147 51.142579 44.324705 
C 52.544697 41.774262 53.28 38.910447 53.28 36.000002 
L 36 36 
L 24.985314 22.685531 
z
" style="fill:#98161a;"/>
   </g>
  </g>
 </g>
</svg>
