<?xml version="1.0" encoding="utf-8" standalone="no"?>
<!DOCTYPE svg PUBLIC "-//W3C//DTD SVG 1.1//EN"
  "http://www.w3.org/Graphics/SVG/1.1/DTD/svg11.dtd">
<!-- Created with matplotlib (http://matplotlib.org/) -->
<svg height="72pt" version="1.1" viewBox="0 0 72 72" width="72pt" xmlns="http://www.w3.org/2000/svg" xmlns:xlink="http://www.w3.org/1999/xlink">
 <defs>
  <style type="text/css">
*{stroke-linecap:butt;stroke-linejoin:round;}
  </style>
 </defs>
 <g id="figure_1">
  <g id="patch_1">
   <path d="M 0 72 
L 72 72 
L 72 0 
L 0 0 
z
" style="fill:#ffffff;"/>
  </g>
  <g id="axes_1">
   <g id="patch_2">
    <path d="M 61.92 36 
C 61.92 32.596217 61.249529 29.225531 59.946957 26.080845 
C 58.644386 22.93616 56.735046 20.07863 54.328208 17.671792 
C 51.92137 15.264954 49.06384 13.355614 45.919155 12.053043 
C 42.774469 10.750471 39.403783 10.08 36 10.08 
C 32.596217 10.08 29.225531 10.750471 26.080845 12.053043 
C 22.93616 13.355614 20.07863 15.264954 17.671792 17.671792 
C 15.264954 20.07863 13.355614 22.93616 12.053043 26.080845 
C 10.750471 29.225531 10.08 32.596217 10.08 36 
C 10.08 39.403783 10.750471 42.774469 12.053043 45.919155 
C 13.355614 49.06384 15.264954 51.92137 17.671792 54.328208 
C 20.07863 56.735046 22.93616 58.644386 26.080845 59.946957 
C 29.225531 61.249529 32.596217 61.92 36 61.92 
C 39.403783 61.92 42.774469 61.249529 45.919155 59.946957 
C 49.06384 58.644386 51.92137 56.735046 54.328208 54.328208 
C 56.735046 51.92137 58.644386 49.06384 59.946957 45.919155 
C 61.249529 42.774469 61.92 39.403783 61.92 36 
M 36 36 
M 61.92 36 
z
" style="fill:#278c18;"/>
   </g>
   <g id="patch_3">
    <path d="M 59.04 36 
C 59.04 36 59.04 36 59.04 36 
L 36 36 
L 59.04 36 
z
" style="fill:#278c18;"/>
   </g>
   <g id="patch_4">
    <path d="M 59.04 36 
C 59.04 32.974415 58.444026 29.97825 57.286184 27.182974 
C 56.128343 24.387698 54.431152 21.847671 52.29174 19.70826 
C 50.152329 17.568848 47.612302 15.871657 44.817026 14.713816 
C 42.02175 13.555974 39.025585 12.96 36 12.96 
C 32.974415 12.96 29.97825 13.555974 27.182974 14.713816 
C 24.387698 15.871657 21.847671 17.568848 19.70826 19.70826 
C 17.568848 21.847671 15.871657 24.387698 14.713816 27.182974 
C 13.555974 29.97825 12.96 32.974415 12.96 36 
C 12.96 39.025585 13.555974 42.02175 14.713816 44.817026 
C 15.871657 47.612302 17.568848 50.152329 19.70826 52.29174 
C 21.847671 54.431152 24.387698 56.128343 27.182974 57.286184 
C 29.97825 58.444026 32.974415 59.04 36 59.04 
C 39.025585 59.04 42.02175 58.444026 44.817026 57.286184 
C 47.612302 56.128343 50.152329 54.431152 52.29174 52.29174 
C 54.431152 50.152329 56.128343 47.612302 57.286184 44.817026 
C 58.444026 42.02175 59.04 39.025585 59.04 36 
M 36 36 
M 59.04 36 
z
" style="fill:#67c8f3;"/>
   </g>
   <g id="patch_5">
    <path d="M 59.04 36 
C 59.04 36 59.04 36 59.04 36 
L 36 36 
L 59.04 36 
z
" style="fill:#f88b10;"/>
   </g>
   <g id="patch_6">
    <path d="M 56.16 36 
C 56.16 36 56.16 36 56.16 36 
L 36 36 
L 56.16 36 
z
" style="fill:#278c18;"/>
   </g>
   <g id="patch_7">
    <path d="M 56.16 36 
C 56.16 33.751709 55.783898 31.519174 55.04729 29.394975 
C 54.310682 27.270776 53.223893 25.284687 51.831989 23.519066 
C 50.440086 21.753445 48.762578 20.23304 46.869028 19.0209 
C 44.975479 17.80876 42.892428 16.921875 40.706258 16.397022 
C 38.520087 15.872169 36.261438 15.716705 34.023974 15.937076 
C 31.786509 16.157447 29.601589 16.750565 27.559819 17.691834 
C 25.518049 18.633103 23.648046 19.90933 22.027358 21.467592 
C 20.406669 23.025855 19.05801 24.844311 18.037308 26.847553 
C 17.016605 28.850795 16.338165 31.010745 16.030122 33.237833 
C 15.722078 35.464921 15.788749 37.727932 16.227369 39.933023 
C 16.665989 42.138113 17.470411 44.254377 18.607276 46.194054 
C 19.744141 48.133732 21.197515 49.869638 22.907129 51.329786 
C 24.616743 52.789934 26.558635 53.953858 28.652277 54.773294 
C 30.745919 55.592729 32.961967 56.05619 35.208525 56.144457 
C 37.455082 56.232725 39.700661 55.944561 41.852142 55.291916 
C 44.003622 54.639272 46.030848 53.631293 47.849753 52.309781 
L 36 36 
L 56.16 36 
z
" style="fill:#67c8f3;"/>
   </g>
   <g id="patch_8">
    <path d="M 47.849753 52.309781 
C 50.423481 50.439858 52.518412 47.987007 53.962693 45.152445 
C 55.406974 42.317884 56.160001 39.181299 56.16 35.999996 
L 36 36 
L 47.849753 52.309781 
z
" style="fill:#5d77fe;"/>
   </g>
   <g id="patch_9">
    <path d="M 56.16 35.999996 
C 56.16 35.999996 56.16 35.999996 56.16 35.999996 
L 36 36 
L 56.16 35.999996 
z
" style="fill:#f88b10;"/>
   </g>
   <g id="patch_10">
    <path d="M 56.16 35.999996 
C 56.16 35.999996 56.16 35.999996 56.16 35.999996 
L 36 36 
L 56.16 35.999996 
z
" style="fill:#103129;"/>
   </g>
   <g id="patch_11">
    <path d="M 53.28 36 
C 53.28 36 53.28 36 53.28 36 
L 36 36 
L 53.28 36 
z
" style="fill:#278c18;"/>
   </g>
   <g id="patch_12">
    <path d="M 53.28 36 
C 53.28 34.072893 52.957627 32.159292 52.326248 30.33855 
C 51.69487 28.517808 50.763336 26.815446 49.570276 25.302056 
C 48.377216 23.788667 46.939352 22.485463 45.31631 21.446486 
C 43.693267 20.407509 41.907796 19.647322 40.033935 19.197448 
C 38.160075 18.747574 36.22409 18.614318 34.306263 18.803208 
C 32.388436 18.992098 30.515648 19.500484 28.765559 20.307286 
C 27.01547 21.114088 25.412611 22.207997 24.02345 23.543651 
C 22.634288 24.879304 21.478295 26.437981 20.603407 28.155045 
C 19.728519 29.87211 19.146999 31.723495 18.882962 33.632428 
C 18.618924 35.541361 18.676071 37.481085 19.052031 39.371162 
C 19.427991 41.26124 20.117495 43.07518 21.091951 44.737761 
C 22.066407 46.400342 23.312156 47.888261 24.777539 49.139816 
C 26.242923 50.391372 27.907401 51.389022 29.701952 52.091395 
C 31.496502 52.793768 33.395972 53.19102 35.321593 53.266678 
C 37.247214 53.342335 39.171996 53.095338 41.016122 52.535928 
C 42.860248 51.976519 44.597869 51.112537 46.156931 49.979812 
L 36 36 
L 53.28 36 
z
" style="fill:#67c8f3;"/>
   </g>
   <g id="patch_13">
    <path d="M 46.156931 49.979812 
C 48.214703 48.484753 49.917218 46.553628 51.142581 44.324701 
C 52.367943 42.095775 53.086192 39.623544 53.245902 37.085018 
L 36 36 
L 46.156931 49.979812 
z
" style="fill:#5d77fe;"/>
   </g>
   <g id="patch_14">
    <path d="M 53.245902 37.085018 
C 53.257265 36.904415 53.265789 36.723645 53.271473 36.542775 
C 53.277157 36.361905 53.28 36.180957 53.28 35.999997 
L 36 36 
L 53.245902 37.085018 
z
" style="fill:#98161a;"/>
   </g>
   <g id="patch_15">
    <path d="M 53.28 35.999997 
C 53.28 35.999997 53.28 35.999997 53.28 35.999997 
L 36 36 
L 53.28 35.999997 
z
" style="fill:#f88b10;"/>
   </g>
   <g id="patch_16">
    <path d="M 53.28 35.999997 
C 53.28 35.999997 53.28 35.999997 53.28 35.999997 
L 36 36 
L 53.28 35.999997 
z
" style="fill:#103129;"/>
   </g>
  </g>
 </g>
</svg>
