<?xml version="1.0" encoding="utf-8" standalone="no"?>
<!DOCTYPE svg PUBLIC "-//W3C//DTD SVG 1.1//EN"
  "http://www.w3.org/Graphics/SVG/1.1/DTD/svg11.dtd">
<!-- Created with matplotlib (http://matplotlib.org/) -->
<svg height="72pt" version="1.1" viewBox="0 0 72 72" width="72pt" xmlns="http://www.w3.org/2000/svg" xmlns:xlink="http://www.w3.org/1999/xlink">
 <defs>
  <style type="text/css">
*{stroke-linecap:butt;stroke-linejoin:round;}
  </style>
 </defs>
 <g id="figure_1">
  <g id="patch_1">
   <path d="M 0 72 
L 72 72 
L 72 0 
L 0 0 
z
" style="fill:#ffffff;"/>
  </g>
  <g id="axes_1">
   <g id="patch_2">
    <path d="M 61.92 36 
C 61.92 32.596217 61.249529 29.225531 59.946957 26.080845 
C 58.644386 22.93616 56.735046 20.07863 54.328208 17.671792 
C 51.92137 15.264954 49.06384 13.355614 45.919155 12.053043 
C 42.774469 10.750471 39.403783 10.08 36 10.08 
C 32.596217 10.08 29.225531 10.750471 26.080845 12.053043 
C 22.93616 13.355614 20.07863 15.264954 17.671792 17.671792 
C 15.264954 20.07863 13.355614 22.93616 12.053043 26.080845 
C 10.750471 29.225531 10.08 32.596217 10.08 36 
C 10.08 39.403783 10.750471 42.774469 12.053043 45.919155 
C 13.355614 49.06384 15.264954 51.92137 17.671792 54.328208 
C 20.07863 56.735046 22.93616 58.644386 26.080845 59.946957 
C 29.225531 61.249529 32.596217 61.92 36 61.92 
C 39.403783 61.92 42.774469 61.249529 45.919155 59.946957 
C 49.06384 58.644386 51.92137 56.735046 54.328208 54.328208 
C 56.735046 51.92137 58.644386 49.06384 59.946957 45.919155 
C 61.249529 42.774469 61.92 39.403783 61.92 36 
M 36 36 
M 61.92 36 
z
" style="fill:#278c18;"/>
   </g>
   <g id="patch_3">
    <path d="M 59.04 36 
C 59.04 36 59.04 36 59.04 36 
L 36 36 
L 59.04 36 
z
" style="fill:#278c18;"/>
   </g>
   <g id="patch_4">
    <path d="M 59.04 36 
C 59.04 33.00486 58.45596 30.03826 57.320645 27.266632 
C 56.18533 24.495004 54.520376 21.971168 52.419191 19.836716 
C 50.318007 17.702264 47.820634 15.997873 45.06718 14.819163 
C 42.313727 13.640454 39.356666 13.009888 36.361896 12.962842 
C 33.367126 12.915797 30.391718 13.453168 27.602599 14.544808 
C 24.813481 15.636448 22.263804 17.261554 20.096611 19.328953 
C 17.929419 21.396352 16.186011 23.866645 14.964197 26.601244 
C 13.742384 29.335844 13.065448 32.282635 12.971369 35.276297 
C 12.877289 38.269959 13.367859 41.25344 14.415554 44.059362 
C 15.46325 46.865283 17.048107 49.440171 19.08121 51.63957 
C 21.114313 53.838968 23.556918 55.620962 26.271988 56.885578 
C 28.987059 58.150195 31.922854 58.873333 34.914668 59.014423 
C 37.906483 59.155513 40.897302 58.711867 43.719334 57.708374 
C 46.541366 56.70488 49.14083 55.160664 51.371892 53.162358 
C 53.602953 51.164053 55.423095 48.74974 56.730201 46.054868 
C 58.037308 43.359996 58.80647 40.435922 58.994536 37.446692 
L 36 36 
L 59.04 36 
z
" style="fill:#67c8f3;"/>
   </g>
   <g id="patch_5">
    <path d="M 58.994536 37.446692 
C 59.009686 37.205889 59.021052 36.964863 59.028631 36.723703 
C 59.03621 36.482542 59.04 36.241278 59.04 35.999999 
L 36 36 
L 58.994536 37.446692 
z
" style="fill:#98161a;"/>
   </g>
   <g id="patch_6">
    <path d="M 56.16 36 
C 56.16 36 56.16 36 56.16 36 
L 36 36 
L 56.16 36 
z
" style="fill:#278c18;"/>
   </g>
   <g id="patch_7">
    <path d="M 56.16 36 
C 56.16 36 56.16 36 56.16 36 
L 36 36 
L 56.16 36 
z
" style="fill:#67c8f3;"/>
   </g>
   <g id="patch_8">
    <path d="M 56.16 36 
C 56.16 32.818697 55.406973 29.682113 53.962691 26.847551 
C 52.51841 24.01299 50.423478 21.56014 47.84975 19.690217 
C 45.276022 17.820294 42.295853 16.585868 39.153718 16.088203 
C 36.011582 15.590538 32.795815 15.843624 29.770216 16.826701 
L 36 36 
L 56.16 36 
z
" style="fill:#f88b10;"/>
   </g>
   <g id="patch_9">
    <path d="M 29.770216 16.826701 
C 26.285671 17.958899 23.174817 20.019881 20.773518 22.787134 
C 18.372219 25.554386 16.770121 28.924601 16.140196 32.533911 
C 15.510271 36.143221 15.876035 39.856882 17.197998 43.273948 
C 18.519961 46.691013 20.748772 49.683916 23.643795 51.929526 
C 26.538818 54.175136 29.991976 55.589619 33.630447 56.02026 
C 37.268918 56.450901 40.95687 55.881624 44.296131 54.37389 
C 47.635391 52.866155 50.501299 50.476252 52.584434 47.462206 
C 54.667568 44.44816 55.890163 40.922493 56.120219 37.265856 
L 36 36 
L 29.770216 16.826701 
z
" style="fill:#103129;"/>
   </g>
   <g id="patch_10">
    <path d="M 56.120219 37.265856 
C 56.133475 37.055153 56.143421 36.844255 56.150052 36.63324 
C 56.156684 36.422225 56.16 36.211118 56.16 35.999999 
L 36 36 
L 56.120219 37.265856 
z
" style="fill:#98161a;"/>
   </g>
   <g id="patch_11">
    <path d="M 53.28 36 
C 53.28 36 53.28 36 53.28 36 
L 36 36 
L 53.28 36 
z
" style="fill:#278c18;"/>
   </g>
   <g id="patch_12">
    <path d="M 53.28 36 
C 53.28 36 53.28 36 53.28 36 
L 36 36 
L 53.28 36 
z
" style="fill:#67c8f3;"/>
   </g>
   <g id="patch_13">
    <path d="M 53.28 36 
C 53.28 36 53.28 36 53.28 36 
L 36 36 
L 53.28 36 
z
" style="fill:#f88b10;"/>
   </g>
   <g id="patch_14">
    <path d="M 53.28 36 
C 53.28 33.273169 52.634548 30.584668 51.396593 28.155044 
C 50.158637 25.72542 48.362981 23.622977 46.156929 22.020186 
C 43.950876 20.417395 41.396446 19.359316 38.703187 18.932745 
C 36.009927 18.506175 33.253555 18.723106 30.660185 19.565744 
L 36 36 
L 53.28 36 
z
" style="fill:#5d77fe;"/>
   </g>
   <g id="patch_15">
    <path d="M 30.660185 19.565744 
C 26.481541 20.923468 22.974095 23.82508 20.85742 27.675297 
C 18.740746 31.525515 18.170218 36.041711 19.262883 40.297362 
C 20.355549 44.553013 23.031201 48.235732 26.740913 50.589987 
C 30.450626 52.944242 34.922087 53.797219 39.237949 52.973924 
L 36 36 
L 30.660185 19.565744 
z
" style="fill:#103129;"/>
   </g>
   <g id="patch_16">
    <path d="M 39.237949 52.973924 
C 43.004217 52.25547 46.426329 50.303531 48.961919 47.427469 
C 51.497509 44.551407 53.005151 40.911637 53.245902 37.085021 
L 36 36 
L 39.237949 52.973924 
z
" style="fill:#68ecac;"/>
   </g>
   <g id="patch_17">
    <path d="M 53.245902 37.085021 
C 53.257264 36.904418 53.265789 36.723649 53.271473 36.542779 
C 53.277157 36.361908 53.28 36.18096 53.28 36.000001 
L 36 36 
L 53.245902 37.085021 
z
" style="fill:#98161a;"/>
   </g>
  </g>
 </g>
</svg>
