<?xml version="1.0" encoding="utf-8" standalone="no"?>
<!DOCTYPE svg PUBLIC "-//W3C//DTD SVG 1.1//EN"
  "http://www.w3.org/Graphics/SVG/1.1/DTD/svg11.dtd">
<!-- Created with matplotlib (http://matplotlib.org/) -->
<svg height="72pt" version="1.1" viewBox="0 0 72 72" width="72pt" xmlns="http://www.w3.org/2000/svg" xmlns:xlink="http://www.w3.org/1999/xlink">
 <defs>
  <style type="text/css">
*{stroke-linecap:butt;stroke-linejoin:round;}
  </style>
 </defs>
 <g id="figure_1">
  <g id="patch_1">
   <path d="M 0 72 
L 72 72 
L 72 0 
L 0 0 
z
" style="fill:#ffffff;"/>
  </g>
  <g id="axes_1">
   <g id="patch_2">
    <path d="M 61.92 36 
C 61.92 32.596217 61.249529 29.225531 59.946957 26.080845 
C 58.644386 22.93616 56.735046 20.07863 54.328208 17.671792 
C 51.92137 15.264954 49.06384 13.355614 45.919155 12.053043 
C 42.774469 10.750471 39.403783 10.08 36 10.08 
C 32.596217 10.08 29.225531 10.750471 26.080845 12.053043 
C 22.93616 13.355614 20.07863 15.264954 17.671792 17.671792 
C 15.264954 20.07863 13.355614 22.93616 12.053043 26.080845 
C 10.750471 29.225531 10.08 32.596217 10.08 36 
C 10.08 39.403783 10.750471 42.774469 12.053043 45.919155 
C 13.355614 49.06384 15.264954 51.92137 17.671792 54.328208 
C 20.07863 56.735046 22.93616 58.644386 26.080845 59.946957 
C 29.225531 61.249529 32.596217 61.92 36 61.92 
C 39.403783 61.92 42.774469 61.249529 45.919155 59.946957 
C 49.06384 58.644386 51.92137 56.735046 54.328208 54.328208 
C 56.735046 51.92137 58.644386 49.06384 59.946957 45.919155 
C 61.249529 42.774469 61.92 39.403783 61.92 36 
M 36 36 
M 61.92 36 
z
" style="fill:#278c18;"/>
   </g>
   <g id="patch_3">
    <path d="M 59.04 36 
C 59.04 32.913507 58.419789 29.85825 57.21628 27.016066 
C 56.012771 24.173883 54.250323 21.6023 52.033831 19.45437 
C 49.817339 17.30644 47.191666 15.625637 44.313082 14.511997 
C 41.434498 13.398357 38.361267 12.87442 35.276297 12.971369 
C 32.191327 13.068318 29.157058 13.784191 26.35408 15.076381 
C 23.551103 16.368571 21.036149 18.210925 18.9589 20.493791 
C 16.881652 22.776657 15.284152 25.45383 14.26148 28.365974 
C 13.238808 31.278118 12.811662 34.366289 13.005464 37.446692 
L 36 36 
L 59.04 36 
z
" style="fill:#278c18;"/>
   </g>
   <g id="patch_4">
    <path d="M 13.005464 37.446692 
C 13.342038 42.796389 15.535202 47.864493 19.204562 51.771964 
C 22.873921 55.679436 27.794314 58.186502 33.112321 58.858323 
L 36 36 
L 13.005464 37.446692 
z
" style="fill:#67c8f3;"/>
   </g>
   <g id="patch_5">
    <path d="M 33.112321 58.858323 
C 36.355901 59.268082 39.649856 58.982795 42.774688 58.021471 
C 45.89952 57.060148 48.784241 55.444626 51.236625 53.28256 
C 53.689008 51.120493 55.653343 48.460997 56.998731 45.481291 
C 58.34412 42.501586 59.04 39.26936 59.04 36 
L 36 36 
L 33.112321 58.858323 
z
" style="fill:#f88b10;"/>
   </g>
   <g id="patch_6">
    <path d="M 56.16 36 
C 56.16 33.299318 55.617315 30.625968 54.564245 28.139058 
C 53.511174 25.652148 51.969033 23.402013 50.029602 21.522574 
C 48.090172 19.643135 45.792708 18.172433 43.273947 17.197997 
C 40.755186 16.223562 38.066109 15.765117 35.36676 15.849948 
C 32.667411 15.934778 30.012426 16.561167 27.55982 17.691833 
C 25.107215 18.8225 22.90663 20.434559 21.089038 22.432067 
C 19.271445 24.429575 17.873633 26.772101 16.978795 29.320227 
C 16.083957 31.868353 15.710204 34.570503 15.879781 37.265856 
L 36 36 
L 56.16 36 
z
" style="fill:#278c18;"/>
   </g>
   <g id="patch_7">
    <path d="M 15.879781 37.265856 
C 16.052706 40.014418 16.78702 42.698618 18.037308 45.152447 
C 19.287596 47.606276 21.02754 49.778082 23.149531 51.533546 
L 36 36 
L 15.879781 37.265856 
z
" style="fill:#67c8f3;"/>
   </g>
   <g id="patch_8">
    <path d="M 23.149531 51.533546 
C 24.615967 52.746688 26.246832 53.746083 27.993497 54.501933 
C 29.740162 55.257782 31.585094 55.762499 33.473281 56.001032 
L 36 36 
L 23.149531 51.533546 
z
" style="fill:#5d77fe;"/>
   </g>
   <g id="patch_9">
    <path d="M 33.473281 56.001032 
C 37.26832 56.480457 41.122563 55.870006 44.58371 54.241314 
C 48.044856 52.612622 50.972005 50.031994 53.021651 46.802269 
L 36 36 
L 33.473281 56.001032 
z
" style="fill:#f88b10;"/>
   </g>
   <g id="patch_10">
    <path d="M 53.021651 46.802269 
C 54.041433 45.195349 54.828546 43.452086 55.359521 41.624461 
C 55.890495 39.796836 56.16 37.903194 56.16 36 
L 36 36 
L 53.021651 46.802269 
z
" style="fill:#103129;"/>
   </g>
   <g id="patch_11">
    <path d="M 53.28 36 
C 53.28 33.68513 52.814842 31.393687 51.91221 29.26205 
C 51.009578 27.130412 49.687742 25.201725 48.025373 23.590778 
C 46.363004 21.97983 44.393749 20.719228 42.234811 19.883998 
C 40.075873 19.048768 37.77095 18.655815 35.457223 18.728527 
C 33.143495 18.801238 30.867794 19.338143 28.76556 20.307286 
C 26.663327 21.276428 24.777112 22.658194 23.219175 24.370343 
C 21.661239 26.082493 20.463114 28.090373 19.69611 30.27448 
C 18.929106 32.458588 18.608746 34.774717 18.754098 37.085019 
L 36 36 
L 53.28 36 
z
" style="fill:#278c18;"/>
   </g>
   <g id="patch_12">
    <path d="M 18.754098 37.085019 
C 18.902319 39.44093 19.531731 41.741673 20.603407 43.844955 
C 21.675082 45.948237 23.166463 47.809785 24.985312 49.314468 
L 36 36 
L 18.754098 37.085019 
z
" style="fill:#67c8f3;"/>
   </g>
   <g id="patch_13">
    <path d="M 24.985312 49.314468 
C 24.985312 49.314468 24.985312 49.314468 24.985312 49.314468 
L 36 36 
L 24.985312 49.314468 
z
" style="fill:#5d77fe;"/>
   </g>
   <g id="patch_14">
    <path d="M 24.985312 49.314468 
C 26.242258 50.354304 27.640142 51.210928 29.137283 51.858799 
C 30.634425 52.506671 32.215795 52.939285 33.834241 53.143742 
L 36 36 
L 24.985312 49.314468 
z
" style="fill:#98161a;"/>
   </g>
   <g id="patch_15">
    <path d="M 33.834241 53.143742 
C 37.087131 53.554678 40.390768 53.031433 43.357465 51.635412 
C 46.324163 50.23939 48.833147 48.027423 50.589986 45.259087 
L 36 36 
L 33.834241 53.143742 
z
" style="fill:#f88b10;"/>
   </g>
   <g id="patch_16">
    <path d="M 50.589986 45.259087 
C 51.464086 43.881727 52.138754 42.387503 52.593875 40.820966 
C 53.048996 39.25443 53.28 37.631309 53.28 36 
L 36 36 
L 50.589986 45.259087 
z
" style="fill:#103129;"/>
   </g>
  </g>
 </g>
</svg>
