<?xml version="1.0" encoding="utf-8" standalone="no"?>
<!DOCTYPE svg PUBLIC "-//W3C//DTD SVG 1.1//EN"
  "http://www.w3.org/Graphics/SVG/1.1/DTD/svg11.dtd">
<!-- Created with matplotlib (http://matplotlib.org/) -->
<svg height="72pt" version="1.1" viewBox="0 0 72 72" width="72pt" xmlns="http://www.w3.org/2000/svg" xmlns:xlink="http://www.w3.org/1999/xlink">
 <defs>
  <style type="text/css">
*{stroke-linecap:butt;stroke-linejoin:round;}
  </style>
 </defs>
 <g id="figure_1">
  <g id="patch_1">
   <path d="M 0 72 
L 72 72 
L 72 0 
L 0 0 
z
" style="fill:#ffffff;"/>
  </g>
  <g id="axes_1">
   <g id="patch_2">
    <path d="M 61.92 36 
C 61.92 32.596217 61.249529 29.225531 59.946957 26.080845 
C 58.644386 22.93616 56.735046 20.07863 54.328208 17.671792 
C 51.92137 15.264954 49.06384 13.355614 45.919155 12.053043 
C 42.774469 10.750471 39.403783 10.08 36 10.08 
C 32.596217 10.08 29.225531 10.750471 26.080845 12.053043 
C 22.93616 13.355614 20.07863 15.264954 17.671792 17.671792 
C 15.264954 20.07863 13.355614 22.93616 12.053043 26.080845 
C 10.750471 29.225531 10.08 32.596217 10.08 36 
C 10.08 39.403783 10.750471 42.774469 12.053043 45.919155 
C 13.355614 49.06384 15.264954 51.92137 17.671792 54.328208 
C 20.07863 56.735046 22.93616 58.644386 26.080845 59.946957 
C 29.225531 61.249529 32.596217 61.92 36 61.92 
C 39.403783 61.92 42.774469 61.249529 45.919155 59.946957 
C 49.06384 58.644386 51.92137 56.735046 54.328208 54.328208 
C 56.735046 51.92137 58.644386 49.06384 59.946957 45.919155 
C 61.249529 42.774469 61.92 39.403783 61.92 36 
M 36 36 
M 61.92 36 
z
" style="fill:#278c18;"/>
   </g>
   <g id="patch_3">
    <path d="M 59.04 36 
C 59.04 36 59.04 36 59.04 36 
L 36 36 
L 59.04 36 
z
" style="fill:#278c18;"/>
   </g>
   <g id="patch_4">
    <path d="M 59.04 36 
C 59.04 32.974415 58.444026 29.97825 57.286184 27.182974 
C 56.128343 24.387698 54.431152 21.847671 52.29174 19.70826 
C 50.152329 17.568848 47.612302 15.871657 44.817026 14.713816 
C 42.02175 13.555974 39.025585 12.96 36 12.96 
C 32.974415 12.96 29.97825 13.555974 27.182974 14.713816 
C 24.387698 15.871657 21.847671 17.568848 19.70826 19.70826 
C 17.568848 21.847671 15.871657 24.387698 14.713816 27.182974 
C 13.555974 29.97825 12.96 32.974415 12.96 36 
C 12.96 39.025585 13.555974 42.02175 14.713816 44.817026 
C 15.871657 47.612302 17.568848 50.152329 19.70826 52.29174 
C 21.847671 54.431152 24.387698 56.128343 27.182974 57.286184 
C 29.97825 58.444026 32.974415 59.04 36 59.04 
C 39.025585 59.04 42.02175 58.444026 44.817026 57.286184 
C 47.612302 56.128343 50.152329 54.431152 52.29174 52.29174 
C 54.431152 50.152329 56.128343 47.612302 57.286184 44.817026 
C 58.444026 42.02175 59.04 39.025585 59.04 36 
M 36 36 
M 59.04 36 
z
" style="fill:#67c8f3;"/>
   </g>
   <g id="patch_5">
    <path d="M 59.04 36 
C 59.04 36 59.04 36 59.04 36 
L 36 36 
L 59.04 36 
z
" style="fill:#f88b10;"/>
   </g>
   <g id="patch_6">
    <path d="M 56.16 36 
C 56.16 36 56.16 36 56.16 36 
L 36 36 
L 56.16 36 
z
" style="fill:#278c18;"/>
   </g>
   <g id="patch_7">
    <path d="M 56.16 36 
C 56.16 32.711639 55.355437 29.472676 53.816715 26.566535 
C 52.277993 23.660394 50.051341 21.174389 47.331601 19.326056 
C 44.611861 17.477722 41.480746 16.322593 38.212243 15.961747 
C 34.943741 15.600901 31.63605 16.04518 28.578609 17.255706 
L 36 36 
L 56.16 36 
z
" style="fill:#67c8f3;"/>
   </g>
   <g id="patch_8">
    <path d="M 28.578609 17.255706 
C 25.172031 18.604466 22.196725 20.856713 19.973922 23.769284 
C 17.751118 26.681855 16.363799 30.146016 15.961747 33.787757 
C 15.559695 37.429497 16.15792 41.112865 17.691834 44.44018 
C 19.225747 47.767496 21.638086 50.614546 24.668399 52.673944 
C 27.698713 54.733343 31.233873 55.92821 34.892204 56.12954 
C 38.550536 56.33087 42.195465 55.531148 45.433465 53.816715 
C 48.671465 52.102282 51.381654 49.537143 53.271425 46.398244 
C 55.161196 43.259344 56.16 39.663867 56.16 36 
L 36 36 
L 28.578609 17.255706 
z
" style="fill:#68ecac;"/>
   </g>
   <g id="patch_9">
    <path d="M 56.16 36 
C 56.16 36 56.16 36 56.16 36 
L 36 36 
L 56.16 36 
z
" style="fill:#f88b10;"/>
   </g>
   <g id="patch_10">
    <path d="M 56.16 36 
C 56.16 36 56.16 36 56.16 36 
L 36 36 
L 56.16 36 
z
" style="fill:#5d77fe;"/>
   </g>
   <g id="patch_11">
    <path d="M 56.16 36 
C 56.16 36 56.16 36 56.16 36 
L 36 36 
L 56.16 36 
z
" style="fill:#98161a;"/>
   </g>
   <g id="patch_12">
    <path d="M 53.28 36 
C 53.28 36 53.28 36 53.28 36 
L 36 36 
L 53.28 36 
z
" style="fill:#278c18;"/>
   </g>
   <g id="patch_13">
    <path d="M 53.28 36 
C 53.28 33.181404 52.590375 30.405151 51.27147 27.914173 
C 49.952565 25.423195 48.044006 23.292333 45.712801 21.708048 
C 43.381595 20.123762 40.697783 19.133651 37.896209 18.824355 
C 35.094635 18.515058 32.259471 18.895868 29.638807 19.933462 
L 36 36 
L 53.28 36 
z
" style="fill:#67c8f3;"/>
   </g>
   <g id="patch_14">
    <path d="M 29.638807 19.933462 
C 26.718884 21.089542 24.168622 23.02004 22.263361 25.516529 
C 20.358101 28.013018 19.168971 30.982299 18.824355 34.103791 
C 18.479739 37.225284 18.992503 40.382455 20.307286 43.23444 
C 21.622069 46.086426 23.689788 48.526753 26.287199 50.291952 
C 28.884611 52.057151 31.914748 53.081323 35.050461 53.253892 
C 38.186174 53.42646 41.310399 52.740984 44.085827 51.27147 
C 46.861256 49.801956 49.184275 47.603265 50.804079 44.91278 
C 52.423882 42.222295 53.28 39.140458 53.28 36 
L 36 36 
L 29.638807 19.933462 
z
" style="fill:#68ecac;"/>
   </g>
   <g id="patch_15">
    <path d="M 53.28 36 
C 53.28 36 53.28 36 53.28 36 
L 36 36 
L 53.28 36 
z
" style="fill:#f88b10;"/>
   </g>
   <g id="patch_16">
    <path d="M 53.28 36 
C 53.28 36 53.28 36 53.28 36 
L 36 36 
L 53.28 36 
z
" style="fill:#5d77fe;"/>
   </g>
   <g id="patch_17">
    <path d="M 53.28 36 
C 53.28 36 53.28 36 53.28 36 
L 36 36 
L 53.28 36 
z
" style="fill:#f98e87;"/>
   </g>
   <g id="patch_18">
    <path d="M 53.28 36 
C 53.28 36 53.28 36 53.28 36 
L 36 36 
L 53.28 36 
z
" style="fill:#535216;"/>
   </g>
   <g id="patch_19">
    <path d="M 53.28 36 
C 53.28 36 53.28 36 53.28 36 
L 36 36 
L 53.28 36 
z
" style="fill:#98161a;"/>
   </g>
   <g id="patch_20">
    <path d="M 53.28 36 
C 53.28 36 53.28 36 53.28 36 
L 36 36 
L 53.28 36 
z
" style="fill:#103129;"/>
   </g>
   <g id="patch_21">
    <path d="M 53.28 36 
C 53.28 36 53.28 36 53.28 36 
L 36 36 
L 53.28 36 
z
" style="fill:#371230;"/>
   </g>
  </g>
 </g>
</svg>
