<?xml version="1.0" encoding="utf-8" standalone="no"?>
<!DOCTYPE svg PUBLIC "-//W3C//DTD SVG 1.1//EN"
  "http://www.w3.org/Graphics/SVG/1.1/DTD/svg11.dtd">
<!-- Created with matplotlib (http://matplotlib.org/) -->
<svg height="72pt" version="1.1" viewBox="0 0 72 72" width="72pt" xmlns="http://www.w3.org/2000/svg" xmlns:xlink="http://www.w3.org/1999/xlink">
 <defs>
  <style type="text/css">
*{stroke-linecap:butt;stroke-linejoin:round;}
  </style>
 </defs>
 <g id="figure_1">
  <g id="patch_1">
   <path d="M 0 72 
L 72 72 
L 72 0 
L 0 0 
z
" style="fill:#ffffff;"/>
  </g>
  <g id="axes_1">
   <g id="patch_2">
    <path d="M 61.92 36 
C 61.92 32.596217 61.249529 29.225531 59.946957 26.080845 
C 58.644386 22.93616 56.735046 20.07863 54.328208 17.671792 
C 51.92137 15.264954 49.06384 13.355614 45.919155 12.053043 
C 42.774469 10.750471 39.403783 10.08 36 10.08 
C 32.596217 10.08 29.225531 10.750471 26.080845 12.053043 
C 22.93616 13.355614 20.07863 15.264954 17.671792 17.671792 
C 15.264954 20.07863 13.355614 22.93616 12.053043 26.080845 
C 10.750471 29.225531 10.08 32.596217 10.08 36 
C 10.08 39.403783 10.750471 42.774469 12.053043 45.919155 
C 13.355614 49.06384 15.264954 51.92137 17.671792 54.328208 
C 20.07863 56.735046 22.93616 58.644386 26.080845 59.946957 
C 29.225531 61.249529 32.596217 61.92 36 61.92 
C 39.403783 61.92 42.774469 61.249529 45.919155 59.946957 
C 49.06384 58.644386 51.92137 56.735046 54.328208 54.328208 
C 56.735046 51.92137 58.644386 49.06384 59.946957 45.919155 
C 61.249529 42.774469 61.92 39.403783 61.92 36 
M 36 36 
M 61.92 36 
z
" style="fill:#278c18;"/>
   </g>
   <g id="patch_3">
    <path d="M 59.04 36 
C 59.04 32.364225 58.179397 28.779557 56.52879 25.540059 
C 54.878183 22.30056 52.483975 19.497303 49.542572 17.360248 
L 36 36 
L 59.04 36 
z
" style="fill:#278c18;"/>
   </g>
   <g id="patch_4">
    <path d="M 49.542572 17.360248 
C 46.700065 15.295046 43.422458 13.907159 39.961246 13.303081 
C 36.500034 12.699003 32.946067 12.89459 29.572045 13.874834 
C 26.198023 14.855078 23.092509 16.594249 20.493792 18.9589 
C 17.895075 21.32355 15.871367 24.251611 14.57795 27.51841 
L 36 36 
L 49.542572 17.360248 
z
" style="fill:#67c8f3;"/>
   </g>
   <g id="patch_5">
    <path d="M 14.57795 27.51841 
C 13.329494 30.671649 12.792517 34.061991 13.005464 37.446693 
C 13.218412 40.831396 14.176077 44.127703 15.809894 47.099604 
C 17.443711 50.071506 19.713732 52.64634 22.457428 54.639751 
C 25.201123 56.633163 28.351411 57.996414 31.682734 58.631898 
C 35.014058 59.267382 38.444967 59.159562 41.729815 58.316156 
C 45.014662 57.472751 48.073134 55.914381 50.686249 53.752625 
C 53.299363 51.590869 55.40323 48.87858 56.847215 45.809955 
C 58.291201 42.74133 59.04 39.391394 59.04 36 
L 36 36 
L 14.57795 27.51841 
z
" style="fill:#f88b10;"/>
   </g>
   <g id="patch_6">
    <path d="M 56.16 36 
C 56.16 32.818697 55.406973 29.682113 53.962691 26.847551 
C 52.51841 24.01299 50.423478 21.56014 47.84975 19.690217 
L 36 36 
L 56.16 36 
z
" style="fill:#278c18;"/>
   </g>
   <g id="patch_7">
    <path d="M 47.84975 19.690217 
C 44.405997 17.188184 40.256712 15.84 35.999999 15.84 
C 31.743287 15.84 27.594001 17.188185 24.150248 19.690218 
L 36 36 
L 47.84975 19.690217 
z
" style="fill:#67c8f3;"/>
   </g>
   <g id="patch_8">
    <path d="M 24.150248 19.690218 
C 22.610532 20.808888 21.236955 22.139976 20.070474 23.643795 
C 18.903993 25.147613 17.956318 26.809065 17.255705 28.57861 
L 36 36 
L 24.150248 19.690218 
z
" style="fill:#68ecac;"/>
   </g>
   <g id="patch_9">
    <path d="M 17.255705 28.57861 
C 17.255705 28.57861 17.255705 28.57861 17.255705 28.57861 
L 36 36 
L 17.255705 28.57861 
z
" style="fill:#f88b10;"/>
   </g>
   <g id="patch_10">
    <path d="M 17.255705 28.57861 
C 16.163307 31.337695 15.693452 34.304244 15.879781 37.265858 
C 16.06611 40.227473 16.904068 43.111742 18.333658 45.712156 
C 19.763248 48.312569 21.749517 50.565549 24.150251 52.309784 
C 26.550985 54.054019 29.307486 55.246863 32.222394 55.802911 
C 35.137302 56.358959 38.139348 56.264616 41.01359 55.526636 
C 43.887831 54.788656 46.563994 53.425083 48.850469 51.533546 
C 51.136944 49.642009 52.977827 47.268756 54.241314 44.583709 
C 55.504801 41.898662 56.16 38.967468 56.16 35.999998 
L 36 36 
L 17.255705 28.57861 
z
" style="fill:#5d77fe;"/>
   </g>
   <g id="patch_11">
    <path d="M 56.16 35.999998 
C 56.16 35.999998 56.16 35.999998 56.16 35.999998 
L 36 36 
L 56.16 35.999998 
z
" style="fill:#98161a;"/>
   </g>
   <g id="patch_12">
    <path d="M 53.28 36 
C 53.28 33.273169 52.634548 30.584668 51.396593 28.155044 
C 50.158637 25.72542 48.362981 23.622977 46.156929 22.020186 
L 36 36 
L 53.28 36 
z
" style="fill:#278c18;"/>
   </g>
   <g id="patch_13">
    <path d="M 46.156929 22.020186 
C 43.20514 19.875586 39.64861 18.72 35.999999 18.72 
C 32.351388 18.72 28.794858 19.875587 25.84307 22.020187 
L 36 36 
L 46.156929 22.020186 
z
" style="fill:#67c8f3;"/>
   </g>
   <g id="patch_14">
    <path d="M 25.84307 22.020187 
C 24.523313 22.979047 23.345962 24.11998 22.346121 25.408967 
C 21.34628 26.697954 20.533987 28.122056 19.933462 29.638809 
L 36 36 
L 25.84307 22.020187 
z
" style="fill:#68ecac;"/>
   </g>
   <g id="patch_15">
    <path d="M 19.933462 29.638809 
C 19.933462 29.638809 19.933462 29.638809 19.933462 29.638809 
L 36 36 
L 19.933462 29.638809 
z
" style="fill:#f88b10;"/>
   </g>
   <g id="patch_16">
    <path d="M 19.933462 29.638809 
C 19.933462 29.638809 19.933462 29.638809 19.933462 29.638809 
L 36 36 
L 19.933462 29.638809 
z
" style="fill:#5d77fe;"/>
   </g>
   <g id="patch_17">
    <path d="M 19.933462 29.638809 
C 18.350478 33.63697 18.315539 38.085515 19.835528 42.108047 
C 21.355516 46.130578 24.3236 49.444375 28.155045 51.396593 
C 31.98649 53.348812 36.412004 53.802241 40.559728 52.667552 
C 44.707451 51.532863 48.285862 48.889807 50.589987 45.259086 
L 36 36 
L 19.933462 29.638809 
z
" style="fill:#f98e87;"/>
   </g>
   <g id="patch_18">
    <path d="M 50.589987 45.259086 
C 51.464086 43.881726 52.138755 42.387501 52.593875 40.820965 
C 53.048996 39.254429 53.28 37.631308 53.28 35.999998 
L 36 36 
L 50.589987 45.259086 
z
" style="fill:#535216;"/>
   </g>
   <g id="patch_19">
    <path d="M 53.28 35.999998 
C 53.28 35.999998 53.28 35.999998 53.28 35.999998 
L 36 36 
L 53.28 35.999998 
z
" style="fill:#98161a;"/>
   </g>
   <g id="patch_20">
    <path d="M 53.28 35.999998 
C 53.28 35.999998 53.28 35.999998 53.28 35.999998 
L 36 36 
L 53.28 35.999998 
z
" style="fill:#103129;"/>
   </g>
   <g id="patch_21">
    <path d="M 53.28 35.999998 
C 53.28 35.999998 53.28 35.999998 53.28 35.999998 
L 36 36 
L 53.28 35.999998 
z
" style="fill:#371230;"/>
   </g>
  </g>
 </g>
</svg>
