<?xml version="1.0" encoding="utf-8" standalone="no"?>
<!DOCTYPE svg PUBLIC "-//W3C//DTD SVG 1.1//EN"
  "http://www.w3.org/Graphics/SVG/1.1/DTD/svg11.dtd">
<!-- Created with matplotlib (http://matplotlib.org/) -->
<svg height="72pt" version="1.1" viewBox="0 0 72 72" width="72pt" xmlns="http://www.w3.org/2000/svg" xmlns:xlink="http://www.w3.org/1999/xlink">
 <defs>
  <style type="text/css">
*{stroke-linecap:butt;stroke-linejoin:round;}
  </style>
 </defs>
 <g id="figure_1">
  <g id="patch_1">
   <path d="M 0 72 
L 72 72 
L 72 0 
L 0 0 
z
" style="fill:#ffffff;"/>
  </g>
  <g id="axes_1">
   <g id="patch_2">
    <path d="M 61.92 36 
C 61.92 32.596217 61.249529 29.225531 59.946957 26.080845 
C 58.644386 22.93616 56.735046 20.07863 54.328208 17.671792 
C 51.92137 15.264954 49.06384 13.355614 45.919155 12.053043 
C 42.774469 10.750471 39.403783 10.08 36 10.08 
C 32.596217 10.08 29.225531 10.750471 26.080845 12.053043 
C 22.93616 13.355614 20.07863 15.264954 17.671792 17.671792 
C 15.264954 20.07863 13.355614 22.93616 12.053043 26.080845 
C 10.750471 29.225531 10.08 32.596217 10.08 36 
C 10.08 39.403783 10.750471 42.774469 12.053043 45.919155 
C 13.355614 49.06384 15.264954 51.92137 17.671792 54.328208 
C 20.07863 56.735046 22.93616 58.644386 26.080845 59.946957 
C 29.225531 61.249529 32.596217 61.92 36 61.92 
C 39.403783 61.92 42.774469 61.249529 45.919155 59.946957 
C 49.06384 58.644386 51.92137 56.735046 54.328208 54.328208 
C 56.735046 51.92137 58.644386 49.06384 59.946957 45.919155 
C 61.249529 42.774469 61.92 39.403783 61.92 36 
M 36 36 
M 61.92 36 
z
" style="fill:#278c18;"/>
   </g>
   <g id="patch_3">
    <path d="M 59.04 36 
C 59.04 36 59.04 36 59.04 36 
L 36 36 
L 59.04 36 
z
" style="fill:#278c18;"/>
   </g>
   <g id="patch_4">
    <path d="M 59.04 36 
C 59.04 33.096163 58.491024 30.21833 57.42205 27.51841 
C 56.353077 24.818491 54.783251 22.344841 52.795437 20.228035 
L 36 36 
L 59.04 36 
z
" style="fill:#67c8f3;"/>
   </g>
   <g id="patch_5">
    <path d="M 52.795437 20.228035 
C 50.974129 18.288539 48.830556 16.679098 46.459941 15.47121 
C 44.089327 14.263321 41.527302 13.475139 38.887678 13.141677 
C 36.248055 12.808215 33.570507 12.934485 30.97398 13.514878 
C 28.377453 14.09527 25.900973 15.121062 23.654551 16.546684 
C 21.40813 17.972307 19.425531 19.776332 17.794829 21.878621 
C 16.164126 23.98091 14.90983 26.349864 14.087658 28.880248 
C 13.265486 31.410632 12.887797 34.064413 12.971369 36.723703 
C 13.05494 39.382993 13.598516 42.007823 14.577949 44.481589 
C 15.557383 46.955355 16.957952 49.240877 18.71744 51.236625 
C 20.476929 53.232373 22.56889 54.90835 24.900395 56.190106 
C 27.231899 57.471861 29.767902 58.340129 32.395749 58.756339 
C 35.023596 59.172549 37.703788 59.130446 40.317265 58.631898 
C 42.930741 58.133351 45.43822 57.185854 47.728313 55.831497 
C 50.018406 54.47714 52.056692 52.736279 53.752624 50.686249 
C 55.448557 48.63622 56.776645 46.307833 57.677893 43.804523 
C 58.57914 41.301212 59.04 38.660604 59.04 36.000001 
L 36 36 
L 52.795437 20.228035 
z
" style="fill:#103129;"/>
   </g>
   <g id="patch_6">
    <path d="M 56.16 36 
C 56.16 36 56.16 36 56.16 36 
L 36 36 
L 56.16 36 
z
" style="fill:#278c18;"/>
   </g>
   <g id="patch_7">
    <path d="M 56.16 36 
C 56.16 36 56.16 36 56.16 36 
L 36 36 
L 56.16 36 
z
" style="fill:#67c8f3;"/>
   </g>
   <g id="patch_8">
    <path d="M 56.16 36 
C 56.16 35.366538 56.130143 34.733427 56.070529 34.102776 
C 56.010915 33.472126 55.92161 32.844635 55.802911 32.222393 
L 36 36 
L 56.16 36 
z
" style="fill:#f88b10;"/>
   </g>
   <g id="patch_9">
    <path d="M 55.802911 32.222393 
C 55.446288 30.352909 54.826724 28.54331 53.962691 26.847551 
C 53.098659 25.151793 51.998833 23.586899 50.696007 22.19953 
L 36 36 
L 55.802911 32.222393 
z
" style="fill:#5d77fe;"/>
   </g>
   <g id="patch_10">
    <path d="M 50.696007 22.19953 
C 47.261758 18.542426 42.58309 16.295762 37.581735 15.902147 
C 32.580381 15.508531 27.607859 16.995631 23.643794 20.070475 
C 19.679728 23.145319 17.002733 27.591794 16.140196 32.53391 
C 15.277659 37.476025 16.290203 42.566427 18.978349 46.802268 
L 36 36 
L 50.696007 22.19953 
z
" style="fill:#103129;"/>
   </g>
   <g id="patch_11">
    <path d="M 18.978349 46.802268 
C 21.317178 50.487673 24.79083 53.31567 28.873947 54.858552 
C 32.957065 56.401433 37.432877 56.577288 41.624461 55.359521 
C 45.816045 54.141753 49.50087 51.595014 52.121643 48.104472 
C 54.742416 44.61393 56.16 40.364898 56.16 36 
L 36 36 
L 18.978349 46.802268 
z
" style="fill:#98161a;"/>
   </g>
  </g>
 </g>
</svg>
