<?xml version="1.0" encoding="utf-8" standalone="no"?>
<!DOCTYPE svg PUBLIC "-//W3C//DTD SVG 1.1//EN"
  "http://www.w3.org/Graphics/SVG/1.1/DTD/svg11.dtd">
<!-- Created with matplotlib (http://matplotlib.org/) -->
<svg height="72pt" version="1.1" viewBox="0 0 72 72" width="72pt" xmlns="http://www.w3.org/2000/svg" xmlns:xlink="http://www.w3.org/1999/xlink">
 <defs>
  <style type="text/css">
*{stroke-linecap:butt;stroke-linejoin:round;}
  </style>
 </defs>
 <g id="figure_1">
  <g id="patch_1">
   <path d="M 0 72 
L 72 72 
L 72 0 
L 0 0 
z
" style="fill:#ffffff;"/>
  </g>
  <g id="axes_1">
   <g id="patch_2">
    <path d="M 61.92 36 
C 61.92 32.596217 61.249529 29.225531 59.946957 26.080845 
C 58.644386 22.93616 56.735046 20.07863 54.328208 17.671792 
C 51.92137 15.264954 49.06384 13.355614 45.919155 12.053043 
C 42.774469 10.750471 39.403783 10.08 36 10.08 
C 32.596217 10.08 29.225531 10.750471 26.080845 12.053043 
C 22.93616 13.355614 20.07863 15.264954 17.671792 17.671792 
C 15.264954 20.07863 13.355614 22.93616 12.053043 26.080845 
C 10.750471 29.225531 10.08 32.596217 10.08 36 
C 10.08 39.403783 10.750471 42.774469 12.053043 45.919155 
C 13.355614 49.06384 15.264954 51.92137 17.671792 54.328208 
C 20.07863 56.735046 22.93616 58.644386 26.080845 59.946957 
C 29.225531 61.249529 32.596217 61.92 36 61.92 
C 39.403783 61.92 42.774469 61.249529 45.919155 59.946957 
C 49.06384 58.644386 51.92137 56.735046 54.328208 54.328208 
C 56.735046 51.92137 58.644386 49.06384 59.946957 45.919155 
C 61.249529 42.774469 61.92 39.403783 61.92 36 
M 36 36 
M 61.92 36 
z
" style="fill:#278c18;"/>
   </g>
   <g id="patch_3">
    <path d="M 59.04 36 
C 59.04 31.996824 57.996678 28.061917 56.01327 24.584632 
C 54.029861 21.107347 51.174016 18.206286 47.728313 16.168503 
C 44.282611 14.130721 40.364578 13.025721 36.361895 12.962842 
C 32.359213 12.899963 28.408404 13.88135 24.900394 15.809895 
L 36 36 
L 59.04 36 
z
" style="fill:#278c18;"/>
   </g>
   <g id="patch_4">
    <path d="M 24.900394 15.809895 
C 22.195679 17.296825 19.817126 19.312201 17.906297 21.736077 
C 15.995468 24.159952 14.591039 26.943266 13.776597 29.920366 
C 12.962155 32.897466 12.754184 36.008094 13.165062 39.067117 
C 13.57594 42.12614 14.597351 45.071641 16.168504 47.728315 
C 17.739657 50.38499 19.828752 52.699065 22.311452 54.532815 
C 24.794152 56.366566 27.620207 57.682876 30.62142 58.403403 
C 33.622633 59.123931 36.738258 59.234092 39.782866 58.72733 
C 42.827473 58.220568 45.739437 57.107141 48.34545 55.453315 
L 36 36 
L 24.900394 15.809895 
z
" style="fill:#67c8f3;"/>
   </g>
   <g id="patch_5">
    <path d="M 48.34545 55.453315 
C 51.621943 53.373989 54.320616 50.500194 56.190106 47.099604 
C 58.059596 43.699015 59.04 39.880593 59.04 36 
L 36 36 
L 48.34545 55.453315 
z
" style="fill:#98161a;"/>
   </g>
   <g id="patch_6">
    <path d="M 56.16 36 
C 56.16 32.497221 55.247094 29.054177 53.511611 26.011553 
C 51.776129 22.968928 49.277264 20.4305 46.262274 18.64744 
C 43.247285 16.864381 39.819005 15.897506 36.316658 15.842487 
C 32.814311 15.787468 29.357353 16.646181 26.287844 18.333658 
L 36 36 
L 56.16 36 
z
" style="fill:#278c18;"/>
   </g>
   <g id="patch_7">
    <path d="M 48.850469 51.533546 
C 52.715995 48.335704 55.252002 43.807337 55.958877 38.840567 
C 56.665753 33.873797 55.493815 28.817711 52.673943 24.668398 
C 49.854072 20.519084 45.584461 17.568175 40.706257 16.397022 
C 35.828052 15.225869 30.684117 15.916786 26.287844 18.333658 
L 36 36 
L 48.850469 51.533546 
z
" style="fill:#67c8f3;"/>
   </g>
   <g id="patch_8">
    <path d="M 48.850469 51.533546 
C 52.88431 48.196462 55.463765 43.415891 56.038253 38.212242 
C 56.612741 33.008592 55.138255 27.780463 51.929524 23.643792 
C 48.720792 19.507121 44.023603 16.778777 38.840566 16.041123 
C 33.65753 15.303468 28.385665 16.613007 24.150247 19.690219 
L 36 36 
L 48.850469 51.533546 
z
" style="fill:#f88b10;"/>
   </g>
   <g id="patch_9">
    <path d="M 24.150247 19.690219 
C 19.914829 22.767432 17.040289 27.376604 16.140195 32.533913 
C 15.240102 37.691221 16.383401 43.001618 19.326058 47.331604 
C 22.268714 51.66159 26.785321 54.679488 31.911812 55.741133 
C 37.038303 56.802777 42.381992 55.826845 46.802272 53.021649 
L 36 36 
L 24.150247 19.690219 
z
" style="fill:#103129;"/>
   </g>
   <g id="patch_10">
    <path d="M 46.802272 53.021649 
C 49.669203 51.202238 52.030541 48.687667 53.666345 45.712151 
C 55.302148 42.736634 56.160001 39.395515 56.16 35.999996 
L 36 36 
L 46.802272 53.021649 
z
" style="fill:#98161a;"/>
   </g>
   <g id="patch_11">
    <path d="M 53.28 36 
C 53.28 32.997618 52.497509 30.046438 51.009952 27.438474 
C 49.522396 24.83051 47.380512 22.654714 44.796235 21.126377 
C 42.211958 19.598041 39.273433 18.769291 36.271421 18.722132 
C 33.26941 18.674973 30.306303 19.411012 27.675295 20.857421 
L 36 36 
L 53.28 36 
z
" style="fill:#278c18;"/>
   </g>
   <g id="patch_12">
    <path d="M 47.014688 49.314468 
C 50.327995 46.573461 52.501716 42.692003 53.107609 38.434772 
C 53.713502 34.17754 52.708984 29.843753 50.291951 26.287198 
C 47.874919 22.730643 44.215253 20.201293 40.033934 19.197447 
C 35.852616 18.193602 31.443529 18.785817 27.675295 20.857421 
L 36 36 
L 47.014688 49.314468 
z
" style="fill:#67c8f3;"/>
   </g>
   <g id="patch_13">
    <path d="M 47.014688 49.314468 
C 50.400081 46.513826 52.593068 42.524798 53.143742 38.165757 
C 53.694417 33.806716 52.562358 29.397637 49.979813 25.84307 
C 47.397269 22.288503 43.553811 19.849371 39.237948 19.026076 
C 34.922086 18.202782 30.450625 19.055758 26.740913 21.410014 
L 36 36 
L 47.014688 49.314468 
z
" style="fill:#f88b10;"/>
   </g>
   <g id="patch_14">
    <path d="M 26.740913 21.410014 
C 26.588124 21.506977 26.436867 21.606334 26.287199 21.708048 
C 26.137531 21.809762 25.98947 21.913821 25.843071 22.020187 
L 36 36 
L 26.740913 21.410014 
z
" style="fill:#5d77fe;"/>
   </g>
   <g id="patch_15">
    <path d="M 25.843071 22.020187 
C 22.212712 24.657797 19.74882 28.608515 18.977311 33.029066 
C 18.205801 37.449616 19.185772 42.001385 21.708048 45.712801 
C 24.230325 49.424218 28.101701 52.010989 32.495837 52.92097 
C 36.889972 53.830952 41.470276 52.994439 45.259088 50.589986 
L 36 36 
L 25.843071 22.020187 
z
" style="fill:#103129;"/>
   </g>
   <g id="patch_16">
    <path d="M 45.259088 50.589986 
C 47.716458 49.030491 49.740463 46.875145 51.14258 44.324702 
C 52.544697 41.77426 53.28 38.910444 53.28 35.999999 
L 36 36 
L 45.259088 50.589986 
z
" style="fill:#98161a;"/>
   </g>
  </g>
 </g>
</svg>
