<?xml version="1.0" encoding="utf-8" standalone="no"?>
<!DOCTYPE svg PUBLIC "-//W3C//DTD SVG 1.1//EN"
  "http://www.w3.org/Graphics/SVG/1.1/DTD/svg11.dtd">
<!-- Created with matplotlib (http://matplotlib.org/) -->
<svg height="72pt" version="1.1" viewBox="0 0 72 72" width="72pt" xmlns="http://www.w3.org/2000/svg" xmlns:xlink="http://www.w3.org/1999/xlink">
 <defs>
  <style type="text/css">
*{stroke-linecap:butt;stroke-linejoin:round;}
  </style>
 </defs>
 <g id="figure_1">
  <g id="patch_1">
   <path d="M 0 72 
L 72 72 
L 72 0 
L 0 0 
z
" style="fill:#ffffff;"/>
  </g>
  <g id="axes_1">
   <g id="patch_2">
    <path d="M 61.92 36 
C 61.92 32.596217 61.249529 29.225531 59.946957 26.080845 
C 58.644386 22.93616 56.735046 20.07863 54.328208 17.671792 
C 51.92137 15.264954 49.06384 13.355614 45.919155 12.053043 
C 42.774469 10.750471 39.403783 10.08 36 10.08 
C 32.596217 10.08 29.225531 10.750471 26.080845 12.053043 
C 22.93616 13.355614 20.07863 15.264954 17.671792 17.671792 
C 15.264954 20.07863 13.355614 22.93616 12.053043 26.080845 
C 10.750471 29.225531 10.08 32.596217 10.08 36 
C 10.08 39.403783 10.750471 42.774469 12.053043 45.919155 
C 13.355614 49.06384 15.264954 51.92137 17.671792 54.328208 
C 20.07863 56.735046 22.93616 58.644386 26.080845 59.946957 
C 29.225531 61.249529 32.596217 61.92 36 61.92 
C 39.403783 61.92 42.774469 61.249529 45.919155 59.946957 
C 49.06384 58.644386 51.92137 56.735046 54.328208 54.328208 
C 56.735046 51.92137 58.644386 49.06384 59.946957 45.919155 
C 61.249529 42.774469 61.92 39.403783 61.92 36 
M 36 36 
M 61.92 36 
z
" style="fill:#278c18;"/>
   </g>
   <g id="patch_3">
    <path d="M 59.04 36 
C 59.04 31.751294 57.864772 27.58425 55.644829 23.961633 
C 53.424887 20.339016 50.245566 17.400082 46.459941 15.47121 
C 42.674317 13.542338 38.427911 12.697675 34.192303 13.031025 
C 29.956695 13.364374 25.894704 14.862922 22.457428 17.360248 
C 19.020153 19.857574 16.339725 23.257681 14.713816 27.182973 
C 13.087907 31.108265 12.579017 35.407852 13.24366 39.604249 
C 13.908304 43.800646 15.720932 47.732541 18.480246 50.963282 
C 21.239559 54.194023 24.839488 56.599419 28.880247 57.912342 
L 36 36 
L 59.04 36 
z
" style="fill:#278c18;"/>
   </g>
   <g id="patch_4">
    <path d="M 28.880247 57.912342 
C 33.742278 59.492112 38.994509 59.409604 43.80452 57.677894 
C 48.61453 55.946184 52.714037 52.66186 55.453314 48.345452 
L 36 36 
L 28.880247 57.912342 
z
" style="fill:#67c8f3;"/>
   </g>
   <g id="patch_5">
    <path d="M 55.453314 48.345452 
C 56.61878 46.508972 57.518338 44.516672 58.125166 42.427957 
C 58.731994 40.339243 59.04 38.175081 59.04 36.000002 
L 36 36 
L 55.453314 48.345452 
z
" style="fill:#98161a;"/>
   </g>
   <g id="patch_6">
    <path d="M 56.16 36 
C 56.16 32.282382 55.131676 28.636219 53.189226 25.466429 
C 51.246776 22.296639 48.46487 19.725072 45.152449 18.037309 
C 41.840027 16.349546 38.124423 15.610466 34.418265 15.902147 
C 30.712108 16.193827 27.157866 17.505056 24.15025 19.690217 
C 21.142634 21.875378 18.79726 24.85047 17.374589 28.285101 
C 15.951918 31.719732 15.50664 35.48187 16.088203 39.153718 
C 16.669766 42.825565 18.255816 46.265973 20.670215 49.092872 
C 23.084614 51.91977 26.234552 54.024492 29.770216 55.173299 
L 36 36 
L 56.16 36 
z
" style="fill:#278c18;"/>
   </g>
   <g id="patch_7">
    <path d="M 54.744294 43.421391 
C 55.483969 41.553185 55.940205 39.584849 56.097853 37.581736 
C 56.255502 35.578623 56.112799 33.563149 55.674482 31.602233 
C 55.236165 29.641316 54.50714 27.756901 53.511612 26.011554 
C 52.516083 24.266206 51.265192 22.679458 49.80047 21.303993 
C 48.335748 19.928527 46.673587 18.779737 44.869174 17.895764 
C 43.064761 17.011791 41.138289 16.402528 39.15372 16.088203 
C 37.16915 15.773878 35.148694 15.758009 33.159432 16.041123 
C 31.17017 16.324237 29.234366 16.903165 27.41629 17.758686 
C 25.598215 18.614208 23.918215 19.736748 22.432068 21.089036 
C 20.945922 22.441325 19.670262 24.008229 18.647441 25.737724 
C 17.624621 27.467219 16.866086 29.339951 16.397023 31.29374 
C 15.927959 33.24753 15.753616 35.260513 15.879781 37.265856 
C 16.005946 39.271198 16.431208 41.246457 17.141448 43.126052 
C 17.851687 45.005646 18.838956 46.768541 20.070474 48.356205 
C 21.301993 49.943869 22.763979 51.338535 24.407893 52.493897 
C 26.051807 53.64926 27.859251 54.552389 29.770216 55.173299 
L 36 36 
L 54.744294 43.421391 
z
" style="fill:#67c8f3;"/>
   </g>
   <g id="patch_8">
    <path d="M 54.744294 43.421391 
C 55.513281 41.479151 55.975742 39.429138 56.115093 37.344859 
C 56.254444 35.26058 56.069 33.167249 55.56541 31.139927 
C 55.061821 29.112605 54.246178 27.175816 53.147728 25.399008 
C 52.049278 23.622201 50.681309 22.026868 49.092872 20.670215 
C 47.504436 19.313563 45.714747 18.212001 43.78798 17.405028 
C 41.861212 16.598056 39.820674 16.095435 37.739532 15.915189 
C 35.658391 15.734943 33.561823 15.879251 31.525004 16.34294 
C 29.488185 16.806629 27.535756 17.584088 25.737724 18.647441 
C 23.939693 19.710794 22.317809 21.047178 20.930231 22.608672 
C 19.542653 24.170166 18.406165 25.937882 17.561519 27.848434 
C 16.716873 29.758987 16.174286 31.789264 15.953214 33.866465 
C 15.732142 35.943666 15.835259 38.042664 16.258868 40.088194 
C 16.682478 42.133724 17.421454 44.101041 18.4493 45.919604 
C 19.477146 47.738166 20.781428 49.385975 22.315378 50.803943 
C 23.849329 52.221912 25.59439 53.392887 27.487991 54.274882 
C 29.381592 55.156876 31.400824 55.73922 33.473284 56.001033 
L 36 36 
L 54.744294 43.421391 
z
" style="fill:#f88b10;"/>
   </g>
   <g id="patch_9">
    <path d="M 33.473284 56.001033 
C 37.268324 56.480457 41.122567 55.870005 44.583713 54.241312 
C 48.044859 52.61262 50.972007 50.031991 53.021653 46.802265 
L 36 36 
L 33.473284 56.001033 
z
" style="fill:#103129;"/>
   </g>
   <g id="patch_10">
    <path d="M 53.021653 46.802265 
C 54.041435 45.195345 54.828548 43.452083 55.359522 41.624457 
C 55.890496 39.796832 56.16 37.90319 56.16 35.999996 
L 36 36 
L 53.021653 46.802265 
z
" style="fill:#98161a;"/>
   </g>
   <g id="patch_11">
    <path d="M 53.28 36 
C 53.28 32.813471 52.398579 29.688188 50.733622 26.971225 
C 49.068665 24.254262 46.684174 22.050061 43.844956 20.603407 
C 41.005738 19.156753 37.820934 18.523256 34.644227 18.773268 
C 31.467521 19.023281 28.421028 20.147191 25.843071 22.020186 
C 23.265115 23.893181 21.254794 26.44326 20.035362 29.38723 
C 18.81593 32.331199 18.434262 35.555889 18.932745 38.703187 
C 19.431228 41.850484 20.790699 44.799405 22.860184 47.222461 
C 24.929669 49.645517 27.629616 51.449564 30.660185 52.434256 
L 36 36 
L 53.28 36 
z
" style="fill:#278c18;"/>
   </g>
   <g id="patch_12">
    <path d="M 52.066538 42.361193 
C 52.700545 40.759873 53.091604 39.072728 53.226732 37.355773 
C 53.361859 35.638819 53.239542 33.911271 52.863842 32.230485 
C 52.488142 30.5497 51.863263 28.934487 51.009953 27.438475 
C 50.156643 25.942462 49.08445 24.582393 47.828974 23.403422 
C 46.573499 22.224452 45.148789 21.239775 43.602149 20.482084 
C 42.055509 19.724393 40.404248 19.202167 38.703188 18.932746 
C 37.002129 18.663324 35.270309 18.649722 33.565227 18.892391 
C 31.860146 19.13506 30.200885 19.631284 28.642535 20.364588 
C 27.084184 21.097892 25.644184 22.060069 24.370344 23.219174 
C 23.096505 24.378279 22.003082 25.721339 21.126378 27.203764 
C 20.249675 28.686188 19.599502 30.291386 19.197448 31.966063 
C 18.795394 33.64074 18.645956 35.366154 18.754098 37.085019 
C 18.86224 38.803884 19.22675 40.496963 19.835527 42.108044 
C 20.444303 43.719125 21.290533 45.230178 22.346121 46.591033 
C 23.401708 47.951888 24.654839 49.147316 26.063908 50.137626 
C 27.472977 51.127937 29.022215 51.902047 30.660185 52.434256 
L 36 36 
L 52.066538 42.361193 
z
" style="fill:#67c8f3;"/>
   </g>
   <g id="patch_13">
    <path d="M 52.066538 42.361193 
C 53.0366 39.911093 53.433483 37.271252 53.226732 34.644227 
C 53.01998 32.017202 52.215022 29.471948 50.873623 27.203765 
C 49.532223 24.935582 47.689591 23.004006 45.487115 21.557249 
C 43.284639 20.110493 40.780129 19.18653 38.165759 18.856258 
C 35.55139 18.525986 32.895784 18.798074 30.402708 19.651645 
C 27.909633 20.505215 25.644527 21.917863 23.781196 23.781194 
C 21.917864 25.644525 20.505216 27.90963 19.651646 30.402705 
C 18.798075 32.895781 18.525986 35.551387 18.856258 38.165756 
L 36 36 
L 52.066538 42.361193 
z
" style="fill:#f88b10;"/>
   </g>
   <g id="patch_14">
    <path d="M 18.856258 38.165756 
C 19.336808 41.969704 21.070018 45.507627 23.781193 48.218803 
C 26.492369 50.92998 30.030291 52.663191 33.834239 53.143742 
L 36 36 
L 18.856258 38.165756 
z
" style="fill:#5d77fe;"/>
   </g>
   <g id="patch_15">
    <path d="M 33.834239 53.143742 
C 37.08713 53.554678 40.390767 53.031434 43.357464 51.635412 
C 46.324161 50.239391 48.833146 48.027424 50.589985 45.259089 
L 36 36 
L 33.834239 53.143742 
z
" style="fill:#103129;"/>
   </g>
   <g id="patch_16">
    <path d="M 50.589985 45.259089 
C 51.464085 43.881729 52.138753 42.387504 52.593874 40.820968 
C 53.048995 39.254432 53.28 37.631311 53.28 36.000002 
L 36 36 
L 50.589985 45.259089 
z
" style="fill:#98161a;"/>
   </g>
  </g>
 </g>
</svg>
