<?xml version="1.0" encoding="utf-8" standalone="no"?>
<!DOCTYPE svg PUBLIC "-//W3C//DTD SVG 1.1//EN"
  "http://www.w3.org/Graphics/SVG/1.1/DTD/svg11.dtd">
<!-- Created with matplotlib (http://matplotlib.org/) -->
<svg height="72pt" version="1.1" viewBox="0 0 72 72" width="72pt" xmlns="http://www.w3.org/2000/svg" xmlns:xlink="http://www.w3.org/1999/xlink">
 <defs>
  <style type="text/css">
*{stroke-linecap:butt;stroke-linejoin:round;}
  </style>
 </defs>
 <g id="figure_1">
  <g id="patch_1">
   <path d="M 0 72 
L 72 72 
L 72 0 
L 0 0 
z
" style="fill:#ffffff;"/>
  </g>
  <g id="axes_1">
   <g id="patch_2">
    <path d="M 61.92 36 
C 61.92 32.596217 61.249529 29.225531 59.946957 26.080845 
C 58.644386 22.93616 56.735046 20.07863 54.328208 17.671792 
C 51.92137 15.264954 49.06384 13.355614 45.919155 12.053043 
C 42.774469 10.750471 39.403783 10.08 36 10.08 
C 32.596217 10.08 29.225531 10.750471 26.080845 12.053043 
C 22.93616 13.355614 20.07863 15.264954 17.671792 17.671792 
C 15.264954 20.07863 13.355614 22.93616 12.053043 26.080845 
C 10.750471 29.225531 10.08 32.596217 10.08 36 
C 10.08 39.403783 10.750471 42.774469 12.053043 45.919155 
C 13.355614 49.06384 15.264954 51.92137 17.671792 54.328208 
C 20.07863 56.735046 22.93616 58.644386 26.080845 59.946957 
C 29.225531 61.249529 32.596217 61.92 36 61.92 
C 39.403783 61.92 42.774469 61.249529 45.919155 59.946957 
C 49.06384 58.644386 51.92137 56.735046 54.328208 54.328208 
C 56.735046 51.92137 58.644386 49.06384 59.946957 45.919155 
C 61.249529 42.774469 61.92 39.403783 61.92 36 
M 36 36 
M 61.92 36 
z
" style="fill:#278c18;"/>
   </g>
   <g id="patch_3">
    <path d="M 59.04 36 
C 59.04 32.119407 58.059596 28.300985 56.190106 24.900396 
C 54.320616 21.499806 51.621943 18.626011 48.34545 16.546685 
C 45.068957 14.467359 41.31963 13.249129 37.446694 13.005464 
C 33.573759 12.7618 29.701312 13.500508 26.190046 15.152784 
C 22.67878 16.80506 19.641205 19.317961 17.360249 22.457427 
C 15.079294 25.596893 13.628045 29.262327 13.141677 33.112321 
C 12.65531 36.962314 13.149408 40.873503 14.577949 44.481588 
C 16.00649 48.089673 18.323701 51.27904 21.31375 53.752624 
L 36 36 
L 59.04 36 
z
" style="fill:#278c18;"/>
   </g>
   <g id="patch_4">
    <path d="M 21.31375 53.752624 
C 25.635507 57.327893 31.117536 59.204812 36.723702 59.028631 
C 42.329869 58.852451 47.683227 56.635018 51.771964 52.795438 
L 36 36 
L 21.31375 53.752624 
z
" style="fill:#67c8f3;"/>
   </g>
   <g id="patch_5">
    <path d="M 51.771964 52.795438 
C 54.066338 50.640878 55.895073 48.038853 57.145066 45.150289 
C 58.395059 42.261726 59.04 39.147427 59.04 36.000002 
L 36 36 
L 51.771964 52.795438 
z
" style="fill:#98161a;"/>
   </g>
   <g id="patch_6">
    <path d="M 56.16 36 
C 56.16 32.604481 55.302147 29.263362 53.666343 26.287846 
C 52.030539 23.31233 49.6692 20.797759 46.802269 18.978349 
C 43.935337 17.158939 40.654676 16.092988 37.265858 15.879781 
C 33.877039 15.666575 30.488648 16.312945 27.41629 17.758686 
C 24.343933 19.204428 21.686054 21.403216 19.690218 24.150248 
C 17.694382 26.897281 16.424539 30.104536 15.998968 33.473281 
C 15.573396 36.842025 16.005732 40.264316 17.255705 43.42139 
C 18.505679 46.578463 20.533239 49.36916 23.149531 51.533546 
L 36 36 
L 56.16 36 
z
" style="fill:#278c18;"/>
   </g>
   <g id="patch_7">
    <path d="M 30.986409 55.526636 
C 33.370103 56.138665 35.845844 56.309072 38.290914 56.029411 
C 40.735984 55.74975 43.109306 55.024719 45.293241 53.890256 
C 47.477176 52.755793 49.435033 51.230957 51.069766 49.391331 
C 52.704499 47.551705 53.988645 45.428194 54.858551 43.126055 
C 55.728457 40.823917 56.169509 38.381827 56.159845 35.920835 
C 56.150181 33.459842 55.689963 31.021291 54.802004 28.726056 
C 53.914044 26.43082 52.613261 24.31746 50.96413 22.490729 
C 49.315 20.663998 47.345228 19.154586 45.15245 18.03731 
C 42.959673 16.920033 40.58073 16.213664 38.133539 15.953214 
C 35.686348 15.692765 33.212022 15.882611 30.833208 16.513341 
C 28.454394 17.144072 26.211056 18.205092 24.214391 19.643808 
C 22.217725 21.082524 20.501276 22.874767 19.150125 24.931698 
C 17.798973 26.98863 16.835818 29.275693 16.3084 31.679526 
C 15.780983 34.083358 15.698164 36.563573 16.064048 38.997234 
C 16.429932 41.430895 17.238373 43.777116 18.449298 45.9196 
C 19.660223 48.062084 21.253289 49.964838 23.149531 51.533546 
L 36 36 
L 30.986409 55.526636 
z
" style="fill:#67c8f3;"/>
   </g>
   <g id="patch_8">
    <path d="M 30.986409 55.526636 
C 32.958294 56.03293 34.995543 56.237622 37.028736 56.133735 
C 39.061928 56.029849 41.067705 55.618579 42.977717 54.913938 
C 44.887729 54.209298 46.680033 53.219383 48.293553 51.977927 
C 49.907074 50.73647 51.323275 49.257734 52.493896 47.592109 
C 53.664518 45.926483 54.576112 44.093104 55.197615 42.154445 
C 55.819117 40.215786 56.143388 38.19412 56.159378 36.158338 
C 56.175368 34.122556 55.882892 32.096047 55.291918 30.147865 
C 54.700944 28.199682 53.818261 26.35221 52.673947 24.668402 
C 51.529632 22.984594 50.136834 21.483796 48.543013 20.217148 
C 46.949192 18.950499 45.172658 17.932554 43.27395 17.197999 
C 41.375242 16.463444 39.376173 16.020718 37.344863 15.884908 
C 35.313553 15.749097 33.27334 15.921763 31.293746 16.397021 
C 29.314151 16.872279 27.417919 17.64467 25.669665 18.687872 
C 23.921411 19.731074 22.34122 21.033103 20.982939 22.549592 
C 19.624658 24.06608 18.503892 25.779605 17.658832 27.631776 
C 16.813773 29.483947 16.254128 31.453485 15.998968 33.473277 
L 36 36 
L 30.986409 55.526636 
z
" style="fill:#f88b10;"/>
   </g>
   <g id="patch_9">
    <path d="M 15.998968 33.473277 
C 15.479003 37.589216 16.242005 41.767023 18.183282 45.43346 
C 20.12456 49.099898 23.15107 52.079239 26.847546 53.962689 
C 30.544022 55.846139 34.733298 56.543427 38.840562 55.958878 
C 42.947827 55.374329 46.776226 53.53596 49.800465 50.696012 
L 36 36 
L 15.998968 33.473277 
z
" style="fill:#103129;"/>
   </g>
   <g id="patch_10">
    <path d="M 49.800465 50.696012 
C 51.808042 48.810773 53.408186 46.534001 54.50193 44.006508 
C 55.595675 41.479015 56.159999 38.754004 56.16 36.000008 
L 36 36 
L 49.800465 50.696012 
z
" style="fill:#98161a;"/>
   </g>
   <g id="patch_11">
    <path d="M 53.28 36 
C 53.28 33.089555 52.544697 30.225739 51.14258 27.675297 
C 49.740462 25.124854 47.716457 22.969508 45.259087 21.410014 
C 42.801717 19.850519 39.989723 18.936847 37.085021 18.754098 
C 34.180319 18.57135 31.275984 19.125381 28.642535 20.364588 
C 26.009085 21.603795 23.730904 23.488471 22.020187 25.84307 
C 20.30947 28.197669 19.221034 30.946745 18.856258 33.834241 
C 18.491482 36.721736 18.862056 39.655128 19.933462 42.361191 
C 21.004868 45.067254 22.742776 47.45928 24.985312 49.314468 
L 36 36 
L 53.28 36 
z
" style="fill:#278c18;"/>
   </g>
   <g id="patch_12">
    <path d="M 31.702636 52.737116 
C 33.745803 53.261713 35.867866 53.407776 37.96364 53.168067 
C 40.059415 52.928357 42.093691 52.306902 43.965635 51.334505 
C 45.837579 50.362109 47.515743 49.055106 48.916942 47.478284 
C 50.318142 45.901461 51.418838 44.081309 52.164472 42.108047 
C 52.910106 40.134786 53.28815 38.041566 53.279867 35.932144 
C 53.271583 33.822722 52.877111 31.732536 52.116003 29.765191 
C 51.354895 27.797846 50.239938 25.986394 48.826398 24.420625 
C 47.412857 22.854856 45.724481 21.561073 43.844958 20.603408 
C 41.965434 19.645743 39.92634 19.040283 37.828748 18.817041 
C 35.731155 18.593798 33.610305 18.756523 31.571321 19.29715 
C 29.532338 19.837776 27.609477 20.747222 25.898049 21.980407 
C 24.186621 23.213592 22.71538 24.7498 21.55725 26.512884 
C 20.39912 28.275968 19.573558 30.236309 19.121486 32.296736 
C 18.669414 34.357164 18.598426 36.483063 18.912041 38.569058 
C 19.225656 40.655053 19.918606 42.6661 20.956541 44.502515 
C 21.994477 46.33893 23.359962 47.969861 24.985312 49.314468 
L 36 36 
L 31.702636 52.737116 
z
" style="fill:#67c8f3;"/>
   </g>
   <g id="patch_13">
    <path d="M 31.702636 52.737116 
C 34.521644 53.460915 37.478351 53.460915 40.297359 52.737118 
C 43.116367 52.01332 45.707349 50.588916 47.828972 48.59658 
C 49.950595 46.604243 51.534878 44.107814 52.434256 41.339816 
C 53.333633 38.571819 53.519287 35.620947 52.973924 32.762054 
C 52.428562 29.903161 51.169658 27.227853 49.314471 24.985316 
C 47.459284 22.742779 45.067259 21.00487 42.361196 19.933464 
C 39.655132 18.862057 36.721741 18.491483 33.834245 18.856257 
C 30.94675 19.221032 28.197674 20.309468 25.843074 22.020184 
L 36 36 
L 31.702636 52.737116 
z
" style="fill:#f88b10;"/>
   </g>
   <g id="patch_14">
    <path d="M 25.843074 22.020184 
C 23.933334 23.407691 22.328008 25.171921 21.12638 27.203761 
C 19.924752 29.235601 19.152117 31.492283 18.856259 33.834237 
L 36 36 
L 25.843074 22.020184 
z
" style="fill:#5d77fe;"/>
   </g>
   <g id="patch_15">
    <path d="M 18.856259 33.834237 
C 18.410574 37.362185 19.064576 40.943162 20.728528 44.085823 
C 22.39248 47.228484 24.986631 49.782205 28.15504 51.39659 
C 31.323448 53.010976 34.914255 53.608652 38.434768 53.10761 
C 41.95528 52.606568 45.236765 51.030823 47.82897 48.596582 
L 36 36 
L 18.856259 33.834237 
z
" style="fill:#103129;"/>
   </g>
   <g id="patch_16">
    <path d="M 47.82897 48.596582 
C 49.549751 46.980662 50.921302 45.029144 51.858797 42.862721 
C 52.796293 40.696299 53.279999 38.360575 53.28 36.000006 
L 36 36 
L 47.82897 48.596582 
z
" style="fill:#98161a;"/>
   </g>
  </g>
 </g>
</svg>
