<svg baseProfile="full" version="1.1" xmlns="http://www.w3.org/2000/svg" xmlns:ev="http://www.w3.org/2001/xml-events" xmlns:xlink="http://www.w3.org/1999/xlink"><g fill="none" font-family="sans-serif" font-size="10" text-anchor="middle" transform="translate(0 365)"><path class="domain" d="M50.5,6V0.5H450.5V6" stroke="currentColor"/><g class="tick" opacity="1" transform="translate(50.0)"><line stroke="currentColor" y2="6"/><text dy="0.71em" fill="currentColor" y="9">0.0</text></g><g class="tick" opacity="1" transform="translate(90.0)"><line stroke="currentColor" y2="6"/><text dy="0.71em" fill="currentColor" y="9">0.1</text></g><g class="tick" opacity="1" transform="translate(130.0)"><line stroke="currentColor" y2="6"/><text dy="0.71em" fill="currentColor" y="9">0.2</text></g><g class="tick" opacity="1" transform="translate(170.0)"><line stroke="currentColor" y2="6"/><text dy="0.71em" fill="currentColor" y="9">0.3</text></g><g class="tick" opacity="1" transform="translate(210.0)"><line stroke="currentColor" y2="6"/><text dy="0.71em" fill="currentColor" y="9">0.4</text></g><g class="tick" opacity="1" transform="translate(250.0)"><line stroke="currentColor" y2="6"/><text dy="0.71em" fill="currentColor" y="9">0.5</text></g><g class="tick" opacity="1" transform="translate(290.0)"><line stroke="currentColor" y2="6"/><text dy="0.71em" fill="currentColor" y="9">0.6</text></g><g class="tick" opacity="1" transform="translate(330.0)"><line stroke="currentColor" y2="6"/><text dy="0.71em" fill="currentColor" y="9">0.7</text></g><g class="tick" opacity="1" transform="translate(370.0)"><line stroke="currentColor" y2="6"/><text dy="0.71em" fill="currentColor" y="9">0.8</text></g><g class="tick" opacity="1" transform="translate(410.0)"><line stroke="currentColor" y2="6"/><text dy="0.71em" fill="currentColor" y="9">0.9</text></g><g class="tick" opacity="1" transform="translate(450.0)"><line stroke="currentColor" y2="6"/><text dy="0.71em" fill="currentColor" y="9">1.0</text></g></g><g fill="none" font-family="sans-serif" font-size="10" text-anchor="end" transform="translate(50 0)"><path class="domain" d="M-6,365.5H0.5V20.5H-6" stroke="currentColor"/><g class="tick" opacity="1" transform="translate(0, 365.0)"><line stroke="currentColor" x2="-6"/><text dy="0.32em" fill="currentColor" x="-9">0.0</text></g><g class="tick" opacity="1" transform="translate(0, 347.75)"><line stroke="currentColor" x2="-6"/><text dy="0.32em" fill="currentColor" x="-9">0.05</text></g><g class="tick" opacity="1" transform="translate(0, 330.5)"><line stroke="currentColor" x2="-6"/><text dy="0.32em" fill="currentColor" x="-9">0.1</text></g><g class="tick" opacity="1" transform="translate(0, 313.25)"><line stroke="currentColor" x2="-6"/><text dy="0.32em" fill="currentColor" x="-9">0.15</text></g><g class="tick" opacity="1" transform="translate(0, 296.0)"><line stroke="currentColor" x2="-6"/><text dy="0.32em" fill="currentColor" x="-9">0.2</text></g><g class="tick" opacity="1" transform="translate(0, 278.75)"><line stroke="currentColor" x2="-6"/><text dy="0.32em" fill="currentColor" x="-9">0.25</text></g><g class="tick" opacity="1" transform="translate(0, 261.5)"><line stroke="currentColor" x2="-6"/><text dy="0.32em" fill="currentColor" x="-9">0.3</text></g><g class="tick" opacity="1" transform="translate(0, 244.25)"><line stroke="currentColor" x2="-6"/><text dy="0.32em" fill="currentColor" x="-9">0.35</text></g><g class="tick" opacity="1" transform="translate(0, 227.0)"><line stroke="currentColor" x2="-6"/><text dy="0.32em" fill="currentColor" x="-9">0.4</text></g><g class="tick" opacity="1" transform="translate(0, 209.75)"><line stroke="currentColor" x2="-6"/><text dy="0.32em" fill="currentColor" x="-9">0.45</text></g><g class="tick" opacity="1" transform="translate(0, 192.5)"><line stroke="currentColor" x2="-6"/><text dy="0.32em" fill="currentColor" x="-9">0.5</text></g><g class="tick" opacity="1" transform="translate(0, 175.25)"><line stroke="currentColor" x2="-6"/><text dy="0.32em" fill="currentColor" x="-9">0.55</text></g><g class="tick" opacity="1" transform="translate(0, 158.0)"><line stroke="currentColor" x2="-6"/><text dy="0.32em" fill="currentColor" x="-9">0.6</text></g><g class="tick" opacity="1" transform="translate(0, 140.75)"><line stroke="currentColor" x2="-6"/><text dy="0.32em" fill="currentColor" x="-9">0.65</text></g><g class="tick" opacity="1" transform="translate(0, 123.5)"><line stroke="currentColor" x2="-6"/><text dy="0.32em" fill="currentColor" x="-9">0.7</text></g><g class="tick" opacity="1" transform="translate(0, 106.25)"><line stroke="currentColor" x2="-6"/><text dy="0.32em" fill="currentColor" x="-9">0.75</text></g><g class="tick" opacity="1" transform="translate(0, 89.0)"><line stroke="currentColor" x2="-6"/><text dy="0.32em" fill="currentColor" x="-9">0.8</text></g><g class="tick" opacity="1" transform="translate(0, 71.75)"><line stroke="currentColor" x2="-6"/><text dy="0.32em" fill="currentColor" x="-9">0.85</text></g><g class="tick" opacity="1" transform="translate(0, 54.5)"><line stroke="currentColor" x2="-6"/><text dy="0.32em" fill="currentColor" x="-9">0.9</text></g><g class="tick" opacity="1" transform="translate(0, 37.25)"><line stroke="currentColor" x2="-6"/><text dy="0.32em" fill="currentColor" x="-9">0.95</text></g><g class="tick" opacity="1" transform="translate(0, 20.0)"><line stroke="currentColor" x2="-6"/><text dy="0.32em" fill="currentColor" x="-9">1.0</text></g></g><text font-family="sans-serif" font-size="10px" text-anchor="middle" x="250" y="395">CCF</text><text font-family="sans-serif" font-size="10px" text-anchor="middle" transform="rotate(-90 10 192.5)" x="10" y="192.5">Probability density</text><polygon fill="rgb(39,140,24)" opacity="0.5" points=" 50.0,365.0 54.0,365.0 58.0,365.0 62.0,365.0 66.0,365.0 70.0,365.0 74.0,365.0 78.0,365.0 82.0,365.0 86.0,365.0 90.0,365.0 94.0,365.0 98.0,365.0 102.0,365.0 106.0,365.0 110.0,365.0 114.0,365.0 118.0,365.0 122.0,365.0 126.0,365.0 130.0,365.0 134.0,365.0 138.0,365.0 142.0,365.0 146.0,365.0 150.0,365.0 154.0,365.0 158.0,365.0 162.0,365.0 166.0,365.0 170.0,365.0 174.0,365.0 178.0,365.0 182.0,365.0 186.0,365.0 190.0,365.0 194.0,365.0 198.0,365.0 202.0,365.0 206.0,365.0 210.0,365.0 214.0,365.0 218.0,365.0 222.0,365.0 226.0,365.0 230.0,365.0 234.0,365.0 238.0,365.0 242.0,365.0 246.0,365.0 250.0,365.0 254.0,365.0 258.0,365.0 262.0,365.0 266.0,365.0 270.0,365.0 274.0,365.0 278.0,365.0 282.0,365.0 286.0,365.0 290.0,365.0 294.0,365.0 298.0,365.0 302.0,365.0 306.0,365.0 310.0,365.0 314.0,365.0 318.0,365.0 322.0,365.0 326.0,365.0 330.0,365.0 334.0,365.0 338.0,365.0 342.0,365.0 346.0,365.0 350.0,365.0 354.0,365.0 358.0,365.0 362.0,365.0 366.0,365.0 370.0,365.0 374.0,365.0 378.0,365.0 382.0,365.0 386.0,365.0 390.0,365.0 394.0,365.0 398.0,365.0 402.0,365.0 406.0,364.999999999 410.0,364.999999991 414.0,364.999999922 418.0,364.999999242 422.0,364.999992205 426.0,364.999915011 430.0,364.999023712 434.0,364.988274901 438.0,364.854061177 442.0,363.1346195 446.0,340.73220113 450.0,46.2917945 450.0,365 446.0,365 442.0,365 438.0,365 434.0,365 430.0,365 426.0,365 422.0,365 418.0,365 413.99999999999994,365 409.99999999999994,365 405.99999999999994,365 401.99999999999994,365 397.99999999999994,365 393.99999999999994,365 389.99999999999994,365 385.99999999999994,365 381.99999999999994,365 377.99999999999994,365 373.99999999999994,365 369.99999999999994,365 365.99999999999994,365 361.99999999999994,365 357.99999999999994,365 353.9999999999999,365 349.9999999999999,365 345.9999999999999,365 341.9999999999999,365 337.9999999999999,365 333.9999999999999,365 329.9999999999999,365 325.9999999999999,365 321.9999999999999,365 317.9999999999999,365 313.9999999999999,365 309.9999999999999,365 305.9999999999999,365 301.9999999999999,365 297.9999999999999,365 293.9999999999999,365 289.9999999999999,365 285.9999999999999,365 281.9999999999999,365 277.9999999999999,365 273.99999999999983,365 269.99999999999983,365 265.99999999999983,365 261.99999999999983,365 257.99999999999983,365 253.99999999999983,365 249.99999999999983,365 245.99999999999983,365 241.99999999999983,365 237.9999999999998,365 233.9999999999998,365 229.9999999999998,365 225.9999999999998,365 221.9999999999998,365 217.9999999999998,365 213.9999999999998,365 209.99999999999977,365 205.99999999999977,365 201.99999999999977,365 197.99999999999977,365 193.99999999999977,365 189.99999999999977,365 185.99999999999977,365 181.99999999999977,365 177.99999999999977,365 173.99999999999977,365 169.99999999999974,365 165.99999999999974,365 161.99999999999974,365 157.99999999999974,365 153.99999999999974,365 149.99999999999972,365 145.99999999999972,365 141.99999999999972,365 137.99999999999972,365 133.99999999999972,365 129.99999999999972,365 125.99999999999972,365 121.99999999999972,365 117.9999999999997,365 113.9999999999997,365 109.9999999999997,365 105.99999999999969,365 101.99999999999969,365 97.99999999999969,365 93.99999999999969,365 89.99999999999969,365 85.99999999999967,365 81.99999999999967,365 77.99999999999967,365 73.99999999999966,365 69.99999999999966,365 65.99999999999966,365 61.99999999999966,365 57.99999999999965,365 53.999999999999645,365 49.999999999999645,365" stroke="none"/><polygon fill="rgb(103,200,243)" opacity="0.5" points=" 50.0,365.0 54.0,365.0 58.0,365.0 62.0,365.0 66.0,365.0 70.0,365.0 74.0,365.0 78.0,365.0 82.0,365.0 86.0,365.0 90.0,365.0 94.0,365.0 98.0,365.0 102.0,365.0 106.0,365.0 110.0,365.0 114.0,365.0 118.0,365.0 122.0,365.0 126.0,365.0 130.0,365.0 134.0,365.0 138.0,365.0 142.0,365.0 146.0,365.0 150.0,365.0 154.0,365.0 158.0,365.0 162.0,365.0 166.0,365.0 170.0,365.0 174.0,365.0 178.0,365.0 182.0,365.0 186.0,365.0 190.0,365.0 194.0,365.0 198.0,365.0 202.0,365.0 206.0,365.0 210.0,365.0 214.0,365.0 218.0,365.0 222.0,365.0 226.0,365.0 230.0,365.0 234.0,365.0 238.0,365.0 242.0,365.0 246.0,365.0 250.0,365.0 254.0,365.0 258.0,365.0 262.0,365.0 266.0,365.0 270.0,365.0 274.0,365.0 278.0,365.0 282.0,365.0 286.0,365.0 290.0,365.0 294.0,365.0 298.0,365.0 302.0,365.0 306.0,365.0 310.0,365.0 314.0,365.0 318.0,365.0 322.0,365.0 326.0,365.0 330.0,365.0 334.0,365.0 338.0,365.0 342.0,365.0 346.0,365.0 350.0,365.0 354.0,365.0 358.0,365.0 362.0,365.0 366.0,365.0 370.0,365.0 374.0,365.0 378.0,365.0 382.0,365.0 386.0,365.0 390.0,365.0 394.0,365.0 398.0,365.0 402.0,365.0 406.0,365.0 410.0,365.0 414.0,365.0 418.0,365.0 422.0,365.0 426.0,365.0 430.0,365.0 434.0,364.999999933 438.0,364.999985427 442.0,364.996353379 446.0,363.95204249 450.0,21.051905 450.0,365 446.0,365 442.0,365 438.0,365 434.0,365 430.0,365 426.0,365 422.0,365 418.0,365 413.99999999999994,365 409.99999999999994,365 405.99999999999994,365 401.99999999999994,365 397.99999999999994,365 393.99999999999994,365 389.99999999999994,365 385.99999999999994,365 381.99999999999994,365 377.99999999999994,365 373.99999999999994,365 369.99999999999994,365 365.99999999999994,365 361.99999999999994,365 357.99999999999994,365 353.9999999999999,365 349.9999999999999,365 345.9999999999999,365 341.9999999999999,365 337.9999999999999,365 333.9999999999999,365 329.9999999999999,365 325.9999999999999,365 321.9999999999999,365 317.9999999999999,365 313.9999999999999,365 309.9999999999999,365 305.9999999999999,365 301.9999999999999,365 297.9999999999999,365 293.9999999999999,365 289.9999999999999,365 285.9999999999999,365 281.9999999999999,365 277.9999999999999,365 273.99999999999983,365 269.99999999999983,365 265.99999999999983,365 261.99999999999983,365 257.99999999999983,365 253.99999999999983,365 249.99999999999983,365 245.99999999999983,365 241.99999999999983,365 237.9999999999998,365 233.9999999999998,365 229.9999999999998,365 225.9999999999998,365 221.9999999999998,365 217.9999999999998,365 213.9999999999998,365 209.99999999999977,365 205.99999999999977,365 201.99999999999977,365 197.99999999999977,365 193.99999999999977,365 189.99999999999977,365 185.99999999999977,365 181.99999999999977,365 177.99999999999977,365 173.99999999999977,365 169.99999999999974,365 165.99999999999974,365 161.99999999999974,365 157.99999999999974,365 153.99999999999974,365 149.99999999999972,365 145.99999999999972,365 141.99999999999972,365 137.99999999999972,365 133.99999999999972,365 129.99999999999972,365 125.99999999999972,365 121.99999999999972,365 117.9999999999997,365 113.9999999999997,365 109.9999999999997,365 105.99999999999969,365 101.99999999999969,365 97.99999999999969,365 93.99999999999969,365 89.99999999999969,365 85.99999999999967,365 81.99999999999967,365 77.99999999999967,365 73.99999999999966,365 69.99999999999966,365 65.99999999999966,365 61.99999999999966,365 57.99999999999965,365 53.999999999999645,365 49.999999999999645,365" stroke="none"/><polygon fill="rgb(248,139,16)" opacity="0.5" points=" 50.0,365.0 54.0,365.0 58.0,365.0 62.0,365.0 66.0,365.0 70.0,365.0 74.0,365.0 78.0,365.0 82.0,365.0 86.0,365.0 90.0,365.0 94.0,365.0 98.0,365.0 102.0,365.0 106.0,365.0 110.0,365.0 114.0,365.0 118.0,365.0 122.0,365.0 126.0,365.0 130.0,365.0 134.0,365.0 138.0,364.999999999 142.0,364.999999997 146.0,364.999999991 150.0,364.999999972 154.0,364.999999918 158.0,364.999999772 162.0,364.999999394 166.0,364.999998455 170.0,364.999997827 174.0,364.999994855 178.0,364.99998823 182.0,364.999973922 186.0,364.999943937 190.0,364.99988286 194.0,364.999761745 198.0,364.999527606 202.0,364.99908576 206.0,364.999744943 210.0,364.999528029 214.0,364.999144647 218.0,364.998480352 222.0,364.997350927 226.0,364.995465193 230.0,364.992370958 234.0,364.987377592 238.0,364.979447425 242.0,364.967045383 246.0,364.947934922 250.0,364.918903931 254.0,364.875404961 258.0,364.811087004 262.0,364.717197704 266.0,364.58182964 270.0,364.388986818 274.0,364.117443425 278.0,363.739368103 282.0,363.218694171 286.0,362.509220647 290.0,361.55349416 294.0,360.27499454 298.0,358.586103275 302.0,356.37441626 306.0,353.504929475 310.0,349.81567784 314.0,345.11434214 318.0,339.17505605 322.0,331.7352449 326.0,322.493031275 330.0,364.982787313 334.0,364.978190392 338.0,364.97252336 342.0,364.965561148 346.0,364.957027031 350.0,364.946575756 354.0,364.933768384 358.0,364.918036684 362.0,364.898631362 366.0,364.874547684 370.0,364.844419938 374.0,364.806369371 378.0,364.757791046 382.0,364.695053603 386.0,364.613077049 390.0,364.504745048 394.0,364.360090999 398.0,364.16517283 402.0,363.900523364 406.0,363.539029777 410.0,363.043045322 414.0,362.360449401 418.0,361.41932366 422.0,360.120773675 426.0,358.329241115 430.0,355.85956103 434.0,352.45960052 438.0,347.787221015 442.0,341.37959915 446.0,332.61260405 450.0,320.64718295 450.0,365 446.0,365 442.0,365 438.0,365 434.0,365 430.0,365 426.0,365 422.0,365 418.0,365 413.99999999999994,365 409.99999999999994,365 405.99999999999994,365 401.99999999999994,365 397.99999999999994,365 393.99999999999994,365 389.99999999999994,365 385.99999999999994,365 381.99999999999994,365 377.99999999999994,365 373.99999999999994,365 369.99999999999994,365 365.99999999999994,365 361.99999999999994,365 357.99999999999994,365 353.9999999999999,365 349.9999999999999,365 345.9999999999999,365 341.9999999999999,365 337.9999999999999,365 333.9999999999999,365 329.9999999999999,365 325.9999999999999,365 321.9999999999999,365 317.9999999999999,365 313.9999999999999,365 309.9999999999999,365 305.9999999999999,365 301.9999999999999,365 297.9999999999999,365 293.9999999999999,365 289.9999999999999,365 285.9999999999999,365 281.9999999999999,365 277.9999999999999,365 273.99999999999983,365 269.99999999999983,365 265.99999999999983,365 261.99999999999983,365 257.99999999999983,365 253.99999999999983,365 249.99999999999983,365 245.99999999999983,365 241.99999999999983,365 237.9999999999998,365 233.9999999999998,365 229.9999999999998,365 225.9999999999998,365 221.9999999999998,365 217.9999999999998,365 213.9999999999998,365 209.99999999999977,365 205.99999999999977,365 201.99999999999977,365 197.99999999999977,365 193.99999999999977,365 189.99999999999977,365 185.99999999999977,365 181.99999999999977,365 177.99999999999977,365 173.99999999999977,365 169.99999999999974,365 165.99999999999974,365 161.99999999999974,365 157.99999999999974,365 153.99999999999974,365 149.99999999999972,365 145.99999999999972,365 141.99999999999972,365 137.99999999999972,365 133.99999999999972,365 129.99999999999972,365 125.99999999999972,365 121.99999999999972,365 117.9999999999997,365 113.9999999999997,365 109.9999999999997,365 105.99999999999969,365 101.99999999999969,365 97.99999999999969,365 93.99999999999969,365 89.99999999999969,365 85.99999999999967,365 81.99999999999967,365 77.99999999999967,365 73.99999999999966,365 69.99999999999966,365 65.99999999999966,365 61.99999999999966,365 57.99999999999965,365 53.999999999999645,365 49.999999999999645,365" stroke="none"/><polygon fill="rgb(16,49,41)" opacity="0.5" points=" 50.0,365.0 54.0,365.0 58.0,365.0 62.0,365.0 66.0,365.0 70.0,365.0 74.0,365.0 78.0,365.0 82.0,365.0 86.0,365.0 90.0,365.0 94.0,365.0 98.0,365.0 102.0,365.0 106.0,365.0 110.0,365.0 114.0,365.0 118.0,365.0 122.0,365.0 126.0,365.0 130.0,365.0 134.0,365.0 138.0,365.0 142.0,365.0 146.0,365.0 150.0,365.0 154.0,365.0 158.0,365.0 162.0,365.0 166.0,365.0 170.0,365.0 174.0,365.0 178.0,365.0 182.0,365.0 186.0,365.0 190.0,365.0 194.0,365.0 198.0,365.0 202.0,365.0 206.0,365.0 210.0,365.0 214.0,365.0 218.0,365.0 222.0,365.0 226.0,365.0 230.0,365.0 234.0,365.0 238.0,365.0 242.0,365.0 246.0,365.0 250.0,365.0 254.0,365.0 258.0,365.0 262.0,365.0 266.0,365.0 270.0,365.0 274.0,365.0 278.0,365.0 282.0,364.999999997 286.0,364.999999943 290.0,364.999999121 294.0,364.999987456 298.0,364.999845531 302.0,364.998310617 306.0,364.983537245 310.0,364.856625424 314.0,363.880829936 318.0,357.14832785 322.0,315.36207965 326.0,81.510464 330.0,365.0 334.0,364.99999998 338.0,364.999999914 342.0,364.999999661 346.0,364.999998783 350.0,364.99999599 354.0,364.999987847 358.0,364.999966029 362.0,364.999912194 366.0,364.999789546 370.0,364.999530859 374.0,364.999024291 378.0,364.999447786 382.0,364.998990126 386.0,364.998259044 390.0,364.997160306 394.0,364.995600857 398.0,364.993501612 402.0,364.990806637 406.0,364.987481814 410.0,364.983493729 414.0,364.978758017 418.0,364.973044884 422.0,364.965808354 426.0,364.955865161 430.0,364.940687065 434.0,364.914637254 438.0,364.863979921 442.0,364.7509159 446.0,364.454828412 450.0,363.518194295 450.0,365 446.0,365 442.0,365 438.0,365 434.0,365 430.0,365 426.0,365 422.0,365 418.0,365 413.99999999999994,365 409.99999999999994,365 405.99999999999994,365 401.99999999999994,365 397.99999999999994,365 393.99999999999994,365 389.99999999999994,365 385.99999999999994,365 381.99999999999994,365 377.99999999999994,365 373.99999999999994,365 369.99999999999994,365 365.99999999999994,365 361.99999999999994,365 357.99999999999994,365 353.9999999999999,365 349.9999999999999,365 345.9999999999999,365 341.9999999999999,365 337.9999999999999,365 333.9999999999999,365 329.9999999999999,365 325.9999999999999,365 321.9999999999999,365 317.9999999999999,365 313.9999999999999,365 309.9999999999999,365 305.9999999999999,365 301.9999999999999,365 297.9999999999999,365 293.9999999999999,365 289.9999999999999,365 285.9999999999999,365 281.9999999999999,365 277.9999999999999,365 273.99999999999983,365 269.99999999999983,365 265.99999999999983,365 261.99999999999983,365 257.99999999999983,365 253.99999999999983,365 249.99999999999983,365 245.99999999999983,365 241.99999999999983,365 237.9999999999998,365 233.9999999999998,365 229.9999999999998,365 225.9999999999998,365 221.9999999999998,365 217.9999999999998,365 213.9999999999998,365 209.99999999999977,365 205.99999999999977,365 201.99999999999977,365 197.99999999999977,365 193.99999999999977,365 189.99999999999977,365 185.99999999999977,365 181.99999999999977,365 177.99999999999977,365 173.99999999999977,365 169.99999999999974,365 165.99999999999974,365 161.99999999999974,365 157.99999999999974,365 153.99999999999974,365 149.99999999999972,365 145.99999999999972,365 141.99999999999972,365 137.99999999999972,365 133.99999999999972,365 129.99999999999972,365 125.99999999999972,365 121.99999999999972,365 117.9999999999997,365 113.9999999999997,365 109.9999999999997,365 105.99999999999969,365 101.99999999999969,365 97.99999999999969,365 93.99999999999969,365 89.99999999999969,365 85.99999999999967,365 81.99999999999967,365 77.99999999999967,365 73.99999999999966,365 69.99999999999966,365 65.99999999999966,365 61.99999999999966,365 57.99999999999965,365 53.999999999999645,365 49.999999999999645,365" stroke="none"/><polygon fill="rgb(93,119,254)" opacity="0.5" points=" 50.0,365.0 54.0,365.0 58.0,365.0 62.0,365.0 66.0,365.0 70.0,365.0 74.0,365.0 78.0,365.0 82.0,365.0 86.0,365.0 90.0,365.0 94.0,365.0 98.0,365.0 102.0,365.0 106.0,365.0 110.0,365.0 114.0,365.0 118.0,365.0 122.0,365.0 126.0,365.0 130.0,365.0 134.0,365.0 138.0,365.0 142.0,365.0 146.0,365.0 150.0,365.0 154.0,365.0 158.0,365.0 162.0,365.0 166.0,365.0 170.0,365.0 174.0,365.0 178.0,365.0 182.0,365.0 186.0,365.0 190.0,365.0 194.0,364.999999998 198.0,364.999999983 202.0,364.999999882 206.0,364.999999876 210.0,364.999999304 214.0,364.99999649 218.0,364.999983956 222.0,364.999933251 226.0,364.999746276 230.0,364.999115543 234.0,364.997162905 238.0,364.991598765 242.0,364.976965432 246.0,364.941358625 250.0,364.861019627 254.0,364.692598121 258.0,364.363985117 262.0,363.766369666 266.0,362.752220879 270.0,361.14507971 274.0,358.76600456 278.0,355.4773238 282.0,351.2372738 286.0,346.15159085 290.0,350.67190505 294.0,334.744329725 298.0,329.441310575 302.0,325.183067 306.0,334.34637395 310.0,333.7323671 314.0,334.5094727 318.0,336.546401 322.0,339.56480048 326.0,343.19988125 330.0,364.997129758 334.0,364.98335354 338.0,364.987359642 342.0,364.990766711 346.0,364.993507261 350.0,364.995601729 354.0,364.997127863 358.0,364.998190852 362.0,364.99943449 366.0,364.99935418 370.0,364.99963358 374.0,364.999798999 378.0,364.999893342 382.0,364.999945224 386.0,364.99997276 390.0,364.999986876 394.0,364.999993871 398.0,364.999997224 402.0,364.99999878 406.0,364.999999479 410.0,364.999999784 414.0,364.999999913 418.0,364.999999966 422.0,364.999999987 426.0,364.999999995 430.0,365.0 434.0,364.999999999 438.0,365.0 442.0,365.0 446.0,365.0 450.0,365.0 450.0,365 446.0,365 442.0,365 438.0,365 434.0,365 430.0,365 426.0,365 422.0,365 418.0,365 413.99999999999994,365 409.99999999999994,365 405.99999999999994,365 401.99999999999994,365 397.99999999999994,365 393.99999999999994,365 389.99999999999994,365 385.99999999999994,365 381.99999999999994,365 377.99999999999994,365 373.99999999999994,365 369.99999999999994,365 365.99999999999994,365 361.99999999999994,365 357.99999999999994,365 353.9999999999999,365 349.9999999999999,365 345.9999999999999,365 341.9999999999999,365 337.9999999999999,365 333.9999999999999,365 329.9999999999999,365 325.9999999999999,365 321.9999999999999,365 317.9999999999999,365 313.9999999999999,365 309.9999999999999,365 305.9999999999999,365 301.9999999999999,365 297.9999999999999,365 293.9999999999999,365 289.9999999999999,365 285.9999999999999,365 281.9999999999999,365 277.9999999999999,365 273.99999999999983,365 269.99999999999983,365 265.99999999999983,365 261.99999999999983,365 257.99999999999983,365 253.99999999999983,365 249.99999999999983,365 245.99999999999983,365 241.99999999999983,365 237.9999999999998,365 233.9999999999998,365 229.9999999999998,365 225.9999999999998,365 221.9999999999998,365 217.9999999999998,365 213.9999999999998,365 209.99999999999977,365 205.99999999999977,365 201.99999999999977,365 197.99999999999977,365 193.99999999999977,365 189.99999999999977,365 185.99999999999977,365 181.99999999999977,365 177.99999999999977,365 173.99999999999977,365 169.99999999999974,365 165.99999999999974,365 161.99999999999974,365 157.99999999999974,365 153.99999999999974,365 149.99999999999972,365 145.99999999999972,365 141.99999999999972,365 137.99999999999972,365 133.99999999999972,365 129.99999999999972,365 125.99999999999972,365 121.99999999999972,365 117.9999999999997,365 113.9999999999997,365 109.9999999999997,365 105.99999999999969,365 101.99999999999969,365 97.99999999999969,365 93.99999999999969,365 89.99999999999969,365 85.99999999999967,365 81.99999999999967,365 77.99999999999967,365 73.99999999999966,365 69.99999999999966,365 65.99999999999966,365 61.99999999999966,365 57.99999999999965,365 53.999999999999645,365 49.999999999999645,365" stroke="none"/><polygon fill="rgb(152,22,26)" opacity="0.5" points=" 50.0,365.0 54.0,20.051336 58.0,364.948747004 62.0,364.999992584 66.0,364.999999999 70.0,365.0 74.0,365.0 78.0,365.0 82.0,365.0 86.0,365.0 90.0,365.0 94.0,365.0 98.0,365.0 102.0,365.0 106.0,365.0 110.0,365.0 114.0,365.0 118.0,365.0 122.0,365.0 126.0,365.0 130.0,365.0 134.0,365.0 138.0,365.0 142.0,365.0 146.0,365.0 150.0,365.0 154.0,365.0 158.0,365.0 162.0,365.0 166.0,365.0 170.0,365.0 174.0,365.0 178.0,365.0 182.0,365.0 186.0,365.0 190.0,365.0 194.0,365.0 198.0,365.0 202.0,365.0 206.0,365.0 210.0,365.0 214.0,365.0 218.0,365.0 222.0,365.0 226.0,365.0 230.0,365.0 234.0,365.0 238.0,365.0 242.0,365.0 246.0,365.0 250.0,365.0 254.0,365.0 258.0,365.0 262.0,365.0 266.0,365.0 270.0,365.0 274.0,365.0 278.0,365.0 282.0,365.0 286.0,365.0 290.0,365.0 294.0,365.0 298.0,365.0 302.0,365.0 306.0,365.0 310.0,365.0 314.0,365.0 318.0,365.0 322.0,365.0 326.0,365.0 330.0,365.0 334.0,365.0 338.0,365.0 342.0,365.0 346.0,365.0 350.0,365.0 354.0,365.0 358.0,365.0 362.0,365.0 366.0,365.0 370.0,365.0 374.0,365.0 378.0,365.0 382.0,365.0 386.0,365.0 390.0,365.0 394.0,365.0 398.0,365.0 402.0,365.0 406.0,365.0 410.0,365.0 414.0,365.0 418.0,365.0 422.0,365.0 426.0,365.0 430.0,365.0 434.0,365.0 438.0,365.0 442.0,365.0 446.0,365.0 450.0,365.0 450.0,365 446.0,365 442.0,365 438.0,365 434.0,365 430.0,365 426.0,365 422.0,365 418.0,365 413.99999999999994,365 409.99999999999994,365 405.99999999999994,365 401.99999999999994,365 397.99999999999994,365 393.99999999999994,365 389.99999999999994,365 385.99999999999994,365 381.99999999999994,365 377.99999999999994,365 373.99999999999994,365 369.99999999999994,365 365.99999999999994,365 361.99999999999994,365 357.99999999999994,365 353.9999999999999,365 349.9999999999999,365 345.9999999999999,365 341.9999999999999,365 337.9999999999999,365 333.9999999999999,365 329.9999999999999,365 325.9999999999999,365 321.9999999999999,365 317.9999999999999,365 313.9999999999999,365 309.9999999999999,365 305.9999999999999,365 301.9999999999999,365 297.9999999999999,365 293.9999999999999,365 289.9999999999999,365 285.9999999999999,365 281.9999999999999,365 277.9999999999999,365 273.99999999999983,365 269.99999999999983,365 265.99999999999983,365 261.99999999999983,365 257.99999999999983,365 253.99999999999983,365 249.99999999999983,365 245.99999999999983,365 241.99999999999983,365 237.9999999999998,365 233.9999999999998,365 229.9999999999998,365 225.9999999999998,365 221.9999999999998,365 217.9999999999998,365 213.9999999999998,365 209.99999999999977,365 205.99999999999977,365 201.99999999999977,365 197.99999999999977,365 193.99999999999977,365 189.99999999999977,365 185.99999999999977,365 181.99999999999977,365 177.99999999999977,365 173.99999999999977,365 169.99999999999974,365 165.99999999999974,365 161.99999999999974,365 157.99999999999974,365 153.99999999999974,365 149.99999999999972,365 145.99999999999972,365 141.99999999999972,365 137.99999999999972,365 133.99999999999972,365 129.99999999999972,365 125.99999999999972,365 121.99999999999972,365 117.9999999999997,365 113.9999999999997,365 109.9999999999997,365 105.99999999999969,365 101.99999999999969,365 97.99999999999969,365 93.99999999999969,365 89.99999999999969,365 85.99999999999967,365 81.99999999999967,365 77.99999999999967,365 73.99999999999966,365 69.99999999999966,365 65.99999999999966,365 61.99999999999966,365 57.99999999999965,365 53.999999999999645,365 49.999999999999645,365" stroke="none"/><polygon fill="rgb(104,236,172)" opacity="0.5" points=" 50.0,365.0 54.0,365.0 58.0,365.0 62.0,365.0 66.0,365.0 70.0,365.0 74.0,365.0 78.0,365.0 82.0,364.999999985 86.0,364.999998337 90.0,364.99992113 94.0,364.998130437 98.0,364.975047283 102.0,364.794740525 106.0,363.883644101 110.0,360.75583277 114.0,353.203392575 118.0,340.1323862 122.0,324.0161873 126.0,310.83249875 130.0,306.33794915 134.0,311.9810141 138.0,324.37280345 142.0,338.24256935 146.0,349.67202605 150.0,357.28257839 154.0,361.553318555 158.0,363.623381517 162.0,364.504710755 166.0,364.838435179 170.0,365.0 174.0,365.0 178.0,365.0 182.0,365.0 186.0,365.0 190.0,365.0 194.0,365.0 198.0,365.0 202.0,365.0 206.0,365.0 210.0,365.0 214.0,365.0 218.0,365.0 222.0,365.0 226.0,365.0 230.0,365.0 234.0,365.0 238.0,365.0 242.0,365.0 246.0,365.0 250.0,365.0 254.0,365.0 258.0,365.0 262.0,365.0 266.0,365.0 270.0,365.0 274.0,365.0 278.0,365.0 282.0,365.0 286.0,365.0 290.0,365.0 294.0,365.0 298.0,365.0 302.0,365.0 306.0,365.0 310.0,365.0 314.0,365.0 318.0,365.0 322.0,365.0 326.0,365.0 330.0,365.0 334.0,365.0 338.0,365.0 342.0,365.0 346.0,365.0 350.0,365.0 354.0,365.0 358.0,365.0 362.0,365.0 366.0,365.0 370.0,365.0 374.0,365.0 378.0,365.0 382.0,365.0 386.0,365.0 390.0,365.0 394.0,365.0 398.0,365.0 402.0,365.0 406.0,365.0 410.0,365.0 414.0,365.0 418.0,365.0 422.0,365.0 426.0,365.0 430.0,365.0 434.0,365.0 438.0,365.0 442.0,365.0 446.0,365.0 450.0,365.0 450.0,365 446.0,365 442.0,365 438.0,365 434.0,365 430.0,365 426.0,365 422.0,365 418.0,365 413.99999999999994,365 409.99999999999994,365 405.99999999999994,365 401.99999999999994,365 397.99999999999994,365 393.99999999999994,365 389.99999999999994,365 385.99999999999994,365 381.99999999999994,365 377.99999999999994,365 373.99999999999994,365 369.99999999999994,365 365.99999999999994,365 361.99999999999994,365 357.99999999999994,365 353.9999999999999,365 349.9999999999999,365 345.9999999999999,365 341.9999999999999,365 337.9999999999999,365 333.9999999999999,365 329.9999999999999,365 325.9999999999999,365 321.9999999999999,365 317.9999999999999,365 313.9999999999999,365 309.9999999999999,365 305.9999999999999,365 301.9999999999999,365 297.9999999999999,365 293.9999999999999,365 289.9999999999999,365 285.9999999999999,365 281.9999999999999,365 277.9999999999999,365 273.99999999999983,365 269.99999999999983,365 265.99999999999983,365 261.99999999999983,365 257.99999999999983,365 253.99999999999983,365 249.99999999999983,365 245.99999999999983,365 241.99999999999983,365 237.9999999999998,365 233.9999999999998,365 229.9999999999998,365 225.9999999999998,365 221.9999999999998,365 217.9999999999998,365 213.9999999999998,365 209.99999999999977,365 205.99999999999977,365 201.99999999999977,365 197.99999999999977,365 193.99999999999977,365 189.99999999999977,365 185.99999999999977,365 181.99999999999977,365 177.99999999999977,365 173.99999999999977,365 169.99999999999974,365 165.99999999999974,365 161.99999999999974,365 157.99999999999974,365 153.99999999999974,365 149.99999999999972,365 145.99999999999972,365 141.99999999999972,365 137.99999999999972,365 133.99999999999972,365 129.99999999999972,365 125.99999999999972,365 121.99999999999972,365 117.9999999999997,365 113.9999999999997,365 109.9999999999997,365 105.99999999999969,365 101.99999999999969,365 97.99999999999969,365 93.99999999999969,365 89.99999999999969,365 85.99999999999967,365 81.99999999999967,365 77.99999999999967,365 73.99999999999966,365 69.99999999999966,365 65.99999999999966,365 61.99999999999966,365 57.99999999999965,365 53.999999999999645,365 49.999999999999645,365" stroke="none"/></svg>