<svg baseProfile="full" version="1.1" xmlns="http://www.w3.org/2000/svg" xmlns:ev="http://www.w3.org/2001/xml-events" xmlns:xlink="http://www.w3.org/1999/xlink"><g fill="none" font-family="sans-serif" font-size="10" text-anchor="middle" transform="translate(0 365)"><path class="domain" d="M50.5,6V0.5H450.5V6" stroke="currentColor"/><g class="tick" opacity="1" transform="translate(50.0)"><line stroke="currentColor" y2="6"/><text dy="0.71em" fill="currentColor" y="9">0.0</text></g><g class="tick" opacity="1" transform="translate(90.0)"><line stroke="currentColor" y2="6"/><text dy="0.71em" fill="currentColor" y="9">0.1</text></g><g class="tick" opacity="1" transform="translate(130.0)"><line stroke="currentColor" y2="6"/><text dy="0.71em" fill="currentColor" y="9">0.2</text></g><g class="tick" opacity="1" transform="translate(170.0)"><line stroke="currentColor" y2="6"/><text dy="0.71em" fill="currentColor" y="9">0.3</text></g><g class="tick" opacity="1" transform="translate(210.0)"><line stroke="currentColor" y2="6"/><text dy="0.71em" fill="currentColor" y="9">0.4</text></g><g class="tick" opacity="1" transform="translate(250.0)"><line stroke="currentColor" y2="6"/><text dy="0.71em" fill="currentColor" y="9">0.5</text></g><g class="tick" opacity="1" transform="translate(290.0)"><line stroke="currentColor" y2="6"/><text dy="0.71em" fill="currentColor" y="9">0.6</text></g><g class="tick" opacity="1" transform="translate(330.0)"><line stroke="currentColor" y2="6"/><text dy="0.71em" fill="currentColor" y="9">0.7</text></g><g class="tick" opacity="1" transform="translate(370.0)"><line stroke="currentColor" y2="6"/><text dy="0.71em" fill="currentColor" y="9">0.8</text></g><g class="tick" opacity="1" transform="translate(410.0)"><line stroke="currentColor" y2="6"/><text dy="0.71em" fill="currentColor" y="9">0.9</text></g><g class="tick" opacity="1" transform="translate(450.0)"><line stroke="currentColor" y2="6"/><text dy="0.71em" fill="currentColor" y="9">1.0</text></g></g><g fill="none" font-family="sans-serif" font-size="10" text-anchor="end" transform="translate(50 0)"><path class="domain" d="M-6,365.5H0.5V20.5H-6" stroke="currentColor"/><g class="tick" opacity="1" transform="translate(0, 365.0)"><line stroke="currentColor" x2="-6"/><text dy="0.32em" fill="currentColor" x="-9">0.0</text></g><g class="tick" opacity="1" transform="translate(0, 347.75)"><line stroke="currentColor" x2="-6"/><text dy="0.32em" fill="currentColor" x="-9">0.05</text></g><g class="tick" opacity="1" transform="translate(0, 330.5)"><line stroke="currentColor" x2="-6"/><text dy="0.32em" fill="currentColor" x="-9">0.1</text></g><g class="tick" opacity="1" transform="translate(0, 313.25)"><line stroke="currentColor" x2="-6"/><text dy="0.32em" fill="currentColor" x="-9">0.15</text></g><g class="tick" opacity="1" transform="translate(0, 296.0)"><line stroke="currentColor" x2="-6"/><text dy="0.32em" fill="currentColor" x="-9">0.2</text></g><g class="tick" opacity="1" transform="translate(0, 278.75)"><line stroke="currentColor" x2="-6"/><text dy="0.32em" fill="currentColor" x="-9">0.25</text></g><g class="tick" opacity="1" transform="translate(0, 261.5)"><line stroke="currentColor" x2="-6"/><text dy="0.32em" fill="currentColor" x="-9">0.3</text></g><g class="tick" opacity="1" transform="translate(0, 244.25)"><line stroke="currentColor" x2="-6"/><text dy="0.32em" fill="currentColor" x="-9">0.35</text></g><g class="tick" opacity="1" transform="translate(0, 227.0)"><line stroke="currentColor" x2="-6"/><text dy="0.32em" fill="currentColor" x="-9">0.4</text></g><g class="tick" opacity="1" transform="translate(0, 209.75)"><line stroke="currentColor" x2="-6"/><text dy="0.32em" fill="currentColor" x="-9">0.45</text></g><g class="tick" opacity="1" transform="translate(0, 192.5)"><line stroke="currentColor" x2="-6"/><text dy="0.32em" fill="currentColor" x="-9">0.5</text></g><g class="tick" opacity="1" transform="translate(0, 175.25)"><line stroke="currentColor" x2="-6"/><text dy="0.32em" fill="currentColor" x="-9">0.55</text></g><g class="tick" opacity="1" transform="translate(0, 158.0)"><line stroke="currentColor" x2="-6"/><text dy="0.32em" fill="currentColor" x="-9">0.6</text></g><g class="tick" opacity="1" transform="translate(0, 140.75)"><line stroke="currentColor" x2="-6"/><text dy="0.32em" fill="currentColor" x="-9">0.65</text></g><g class="tick" opacity="1" transform="translate(0, 123.5)"><line stroke="currentColor" x2="-6"/><text dy="0.32em" fill="currentColor" x="-9">0.7</text></g><g class="tick" opacity="1" transform="translate(0, 106.25)"><line stroke="currentColor" x2="-6"/><text dy="0.32em" fill="currentColor" x="-9">0.75</text></g><g class="tick" opacity="1" transform="translate(0, 89.0)"><line stroke="currentColor" x2="-6"/><text dy="0.32em" fill="currentColor" x="-9">0.8</text></g><g class="tick" opacity="1" transform="translate(0, 71.75)"><line stroke="currentColor" x2="-6"/><text dy="0.32em" fill="currentColor" x="-9">0.85</text></g><g class="tick" opacity="1" transform="translate(0, 54.5)"><line stroke="currentColor" x2="-6"/><text dy="0.32em" fill="currentColor" x="-9">0.9</text></g><g class="tick" opacity="1" transform="translate(0, 37.25)"><line stroke="currentColor" x2="-6"/><text dy="0.32em" fill="currentColor" x="-9">0.95</text></g><g class="tick" opacity="1" transform="translate(0, 20.0)"><line stroke="currentColor" x2="-6"/><text dy="0.32em" fill="currentColor" x="-9">1.0</text></g></g><text font-family="sans-serif" font-size="10px" text-anchor="middle" x="250" y="395">CCF</text><text font-family="sans-serif" font-size="10px" text-anchor="middle" transform="rotate(-90 10 192.5)" x="10" y="192.5">Probability density</text><polygon fill="rgb(39,140,24)" opacity="0.5" points=" 50.0,365.0 54.0,365.0 58.0,365.0 62.0,365.0 66.0,365.0 70.0,365.0 74.0,365.0 78.0,365.0 82.0,365.0 86.0,365.0 90.0,365.0 94.0,365.0 98.0,365.0 102.0,365.0 106.0,365.0 110.0,365.0 114.0,365.0 118.0,365.0 122.0,365.0 126.0,365.0 130.0,365.0 134.0,365.0 138.0,365.0 142.0,365.0 146.0,365.0 150.0,365.0 154.0,365.0 158.0,365.0 162.0,365.0 166.0,365.0 170.0,365.0 174.0,365.0 178.0,365.0 182.0,365.0 186.0,365.0 190.0,365.0 194.0,365.0 198.0,365.0 202.0,365.0 206.0,365.0 210.0,365.0 214.0,365.0 218.0,365.0 222.0,365.0 226.0,365.0 230.0,365.0 234.0,365.0 238.0,365.0 242.0,365.0 246.0,365.0 250.0,365.0 254.0,365.0 258.0,365.0 262.0,365.0 266.0,365.0 270.0,365.0 274.0,365.0 278.0,365.0 282.0,365.0 286.0,365.0 290.0,365.0 294.0,365.0 298.0,365.0 302.0,365.0 306.0,365.0 310.0,365.0 314.0,365.0 318.0,365.0 322.0,365.0 326.0,365.0 330.0,365.0 334.0,365.0 338.0,365.0 342.0,365.0 346.0,365.0 350.0,364.999999999 354.0,364.999999998 358.0,364.999999993 362.0,364.999999978 366.0,364.999999933 370.0,364.999999805 374.0,364.999999438 378.0,364.9999984 382.0,364.9999955 386.0,364.999987472 390.0,364.999965385 394.0,364.999904902 398.0,364.999739673 402.0,364.999288423 406.0,364.998053744 410.0,364.994661846 414.0,364.985285687 418.0,364.959149081 422.0,364.885524042 426.0,364.675523201 430.0,364.067918502 434.0,362.281877652 438.0,356.941698725 442.0,340.6872152 446.0,290.29994795 450.0,131.224481 450.0,365 446.0,365 442.0,365 438.0,365 434.0,365 430.0,365 426.0,365 422.0,365 418.0,365 413.99999999999994,365 409.99999999999994,365 405.99999999999994,365 401.99999999999994,365 397.99999999999994,365 393.99999999999994,365 389.99999999999994,365 385.99999999999994,365 381.99999999999994,365 377.99999999999994,365 373.99999999999994,365 369.99999999999994,365 365.99999999999994,365 361.99999999999994,365 357.99999999999994,365 353.9999999999999,365 349.9999999999999,365 345.9999999999999,365 341.9999999999999,365 337.9999999999999,365 333.9999999999999,365 329.9999999999999,365 325.9999999999999,365 321.9999999999999,365 317.9999999999999,365 313.9999999999999,365 309.9999999999999,365 305.9999999999999,365 301.9999999999999,365 297.9999999999999,365 293.9999999999999,365 289.9999999999999,365 285.9999999999999,365 281.9999999999999,365 277.9999999999999,365 273.99999999999983,365 269.99999999999983,365 265.99999999999983,365 261.99999999999983,365 257.99999999999983,365 253.99999999999983,365 249.99999999999983,365 245.99999999999983,365 241.99999999999983,365 237.9999999999998,365 233.9999999999998,365 229.9999999999998,365 225.9999999999998,365 221.9999999999998,365 217.9999999999998,365 213.9999999999998,365 209.99999999999977,365 205.99999999999977,365 201.99999999999977,365 197.99999999999977,365 193.99999999999977,365 189.99999999999977,365 185.99999999999977,365 181.99999999999977,365 177.99999999999977,365 173.99999999999977,365 169.99999999999974,365 165.99999999999974,365 161.99999999999974,365 157.99999999999974,365 153.99999999999974,365 149.99999999999972,365 145.99999999999972,365 141.99999999999972,365 137.99999999999972,365 133.99999999999972,365 129.99999999999972,365 125.99999999999972,365 121.99999999999972,365 117.9999999999997,365 113.9999999999997,365 109.9999999999997,365 105.99999999999969,365 101.99999999999969,365 97.99999999999969,365 93.99999999999969,365 89.99999999999969,365 85.99999999999967,365 81.99999999999967,365 77.99999999999967,365 73.99999999999966,365 69.99999999999966,365 65.99999999999966,365 61.99999999999966,365 57.99999999999965,365 53.999999999999645,365 49.999999999999645,365" stroke="none"/><polygon fill="rgb(103,200,243)" opacity="0.5" points=" 50.0,365.0 54.0,365.0 58.0,365.0 62.0,365.0 66.0,365.0 70.0,365.0 74.0,365.0 78.0,365.0 82.0,365.0 86.0,365.0 90.0,365.0 94.0,365.0 98.0,365.0 102.0,365.0 106.0,365.0 110.0,365.0 114.0,365.0 118.0,365.0 122.0,365.0 126.0,365.0 130.0,365.0 134.0,365.0 138.0,365.0 142.0,365.0 146.0,365.0 150.0,365.0 154.0,365.0 158.0,365.0 162.0,365.0 166.0,365.0 170.0,365.0 174.0,365.0 178.0,365.0 182.0,365.0 186.0,365.0 190.0,365.0 194.0,365.0 198.0,365.0 202.0,365.0 206.0,365.0 210.0,365.0 214.0,365.0 218.0,365.0 222.0,365.0 226.0,365.0 230.0,365.0 234.0,365.0 238.0,365.0 242.0,365.0 246.0,365.0 250.0,365.0 254.0,365.0 258.0,365.0 262.0,365.0 266.0,365.0 270.0,365.0 274.0,365.0 278.0,365.0 282.0,365.0 286.0,365.0 290.0,365.0 294.0,365.0 298.0,365.0 302.0,365.0 306.0,365.0 310.0,365.0 314.0,365.0 318.0,365.0 322.0,365.0 326.0,365.0 330.0,365.0 334.0,365.0 338.0,365.0 342.0,365.0 346.0,365.0 350.0,365.0 354.0,365.0 358.0,365.0 362.0,365.0 366.0,365.0 370.0,365.0 374.0,365.0 378.0,365.0 382.0,365.0 386.0,365.0 390.0,365.0 394.0,365.0 398.0,365.0 402.0,365.0 406.0,365.0 410.0,364.999999999 414.0,364.999999993 418.0,364.999999909 422.0,364.999998758 426.0,364.999982466 430.0,364.99974382 434.0,364.996111411 438.0,364.938429151 442.0,363.979260575 446.0,347.223241235 450.0,38.863565 450.0,365 446.0,365 442.0,365 438.0,365 434.0,365 430.0,365 426.0,365 422.0,365 418.0,365 413.99999999999994,365 409.99999999999994,365 405.99999999999994,365 401.99999999999994,365 397.99999999999994,365 393.99999999999994,365 389.99999999999994,365 385.99999999999994,365 381.99999999999994,365 377.99999999999994,365 373.99999999999994,365 369.99999999999994,365 365.99999999999994,365 361.99999999999994,365 357.99999999999994,365 353.9999999999999,365 349.9999999999999,365 345.9999999999999,365 341.9999999999999,365 337.9999999999999,365 333.9999999999999,365 329.9999999999999,365 325.9999999999999,365 321.9999999999999,365 317.9999999999999,365 313.9999999999999,365 309.9999999999999,365 305.9999999999999,365 301.9999999999999,365 297.9999999999999,365 293.9999999999999,365 289.9999999999999,365 285.9999999999999,365 281.9999999999999,365 277.9999999999999,365 273.99999999999983,365 269.99999999999983,365 265.99999999999983,365 261.99999999999983,365 257.99999999999983,365 253.99999999999983,365 249.99999999999983,365 245.99999999999983,365 241.99999999999983,365 237.9999999999998,365 233.9999999999998,365 229.9999999999998,365 225.9999999999998,365 221.9999999999998,365 217.9999999999998,365 213.9999999999998,365 209.99999999999977,365 205.99999999999977,365 201.99999999999977,365 197.99999999999977,365 193.99999999999977,365 189.99999999999977,365 185.99999999999977,365 181.99999999999977,365 177.99999999999977,365 173.99999999999977,365 169.99999999999974,365 165.99999999999974,365 161.99999999999974,365 157.99999999999974,365 153.99999999999974,365 149.99999999999972,365 145.99999999999972,365 141.99999999999972,365 137.99999999999972,365 133.99999999999972,365 129.99999999999972,365 125.99999999999972,365 121.99999999999972,365 117.9999999999997,365 113.9999999999997,365 109.9999999999997,365 105.99999999999969,365 101.99999999999969,365 97.99999999999969,365 93.99999999999969,365 89.99999999999969,365 85.99999999999967,365 81.99999999999967,365 77.99999999999967,365 73.99999999999966,365 69.99999999999966,365 65.99999999999966,365 61.99999999999966,365 57.99999999999965,365 53.999999999999645,365 49.999999999999645,365" stroke="none"/><polygon fill="rgb(248,139,16)" opacity="0.5" points=" 50.0,365.0 54.0,365.0 58.0,365.0 62.0,364.999999999 66.0,364.999999967 70.0,364.999999596 74.0,364.999996942 78.0,364.999983479 82.0,364.999930337 86.0,364.999756923 90.0,364.99991411 94.0,364.999771293 98.0,364.999448909 102.0,364.998779024 106.0,364.99748165 110.0,364.995116594 114.0,364.99102633 118.0,364.984272002 122.0,364.97356579 126.0,364.957204196 130.0,364.933006575 134.0,364.898265282 138.0,364.849711555 142.0,364.783502278 146.0,364.695231519 150.0,364.579970677 154.0,364.432334137 158.0,364.24657865 162.0,364.016721538 166.0,363.736690385 170.0,363.400484608 174.0,363.002355263 178.0,362.536987385 182.0,361.99968404 186.0,361.38654245 190.0,360.6946277 194.0,359.92209473 198.0,359.06833565 202.0,358.13404184 206.0,357.12129089 210.0,356.033549015 214.0,354.875671055 218.0,353.653847 222.0,352.37553161 226.0,359.09999147 230.0,358.52292584 234.0,357.93412124 238.0,357.33830762 242.0,356.74042745 246.0,356.14554671 250.0,355.558775885 254.0,354.985212005 258.0,354.42979892 262.0,353.89728935 266.0,353.392189685 270.0,361.63444013 274.0,361.511996525 278.0,361.400231705 282.0,361.29992744 286.0,361.211731295 290.0,361.13613731 294.0,361.073497385 298.0,361.02399851 302.0,360.987697955 306.0,360.96449636 310.0,360.95416154 314.0,360.95632193 318.0,360.97048832 322.0,360.99605006 326.0,361.032294035 330.0,361.078410875 334.0,361.133501855 338.0,361.196596145 342.0,361.2666515 346.0,361.34257427 350.0,361.423214225 354.0,361.50738284 358.0,361.593842255 362.0,361.68134012 366.0,361.768578545 370.0,361.854244115 374.0,361.93698719 378.0,362.015437085 382.0,362.088186545 386.0,362.15379071 390.0,362.21077574 394.0,362.257604315 398.0,362.292690125 402.0,362.314383725 406.0,362.880363815 410.0,362.310544427 414.0,362.281246475 418.0,362.230987565 422.0,362.157561215 426.0,362.058596585 430.0,361.931543262 434.0,361.773635038 438.0,361.58188007 442.0,361.353023285 446.0,361.083523775 450.0,360.769529615 450.0,365 446.0,365 442.0,365 438.0,365 434.0,365 430.0,365 426.0,365 422.0,365 418.0,365 413.99999999999994,365 409.99999999999994,365 405.99999999999994,365 401.99999999999994,365 397.99999999999994,365 393.99999999999994,365 389.99999999999994,365 385.99999999999994,365 381.99999999999994,365 377.99999999999994,365 373.99999999999994,365 369.99999999999994,365 365.99999999999994,365 361.99999999999994,365 357.99999999999994,365 353.9999999999999,365 349.9999999999999,365 345.9999999999999,365 341.9999999999999,365 337.9999999999999,365 333.9999999999999,365 329.9999999999999,365 325.9999999999999,365 321.9999999999999,365 317.9999999999999,365 313.9999999999999,365 309.9999999999999,365 305.9999999999999,365 301.9999999999999,365 297.9999999999999,365 293.9999999999999,365 289.9999999999999,365 285.9999999999999,365 281.9999999999999,365 277.9999999999999,365 273.99999999999983,365 269.99999999999983,365 265.99999999999983,365 261.99999999999983,365 257.99999999999983,365 253.99999999999983,365 249.99999999999983,365 245.99999999999983,365 241.99999999999983,365 237.9999999999998,365 233.9999999999998,365 229.9999999999998,365 225.9999999999998,365 221.9999999999998,365 217.9999999999998,365 213.9999999999998,365 209.99999999999977,365 205.99999999999977,365 201.99999999999977,365 197.99999999999977,365 193.99999999999977,365 189.99999999999977,365 185.99999999999977,365 181.99999999999977,365 177.99999999999977,365 173.99999999999977,365 169.99999999999974,365 165.99999999999974,365 161.99999999999974,365 157.99999999999974,365 153.99999999999974,365 149.99999999999972,365 145.99999999999972,365 141.99999999999972,365 137.99999999999972,365 133.99999999999972,365 129.99999999999972,365 125.99999999999972,365 121.99999999999972,365 117.9999999999997,365 113.9999999999997,365 109.9999999999997,365 105.99999999999969,365 101.99999999999969,365 97.99999999999969,365 93.99999999999969,365 89.99999999999969,365 85.99999999999967,365 81.99999999999967,365 77.99999999999967,365 73.99999999999966,365 69.99999999999966,365 65.99999999999966,365 61.99999999999966,365 57.99999999999965,365 53.999999999999645,365 49.999999999999645,365" stroke="none"/><polygon fill="rgb(16,49,41)" opacity="0.5" points=" 50.0,365.0 54.0,365.0 58.0,365.0 62.0,365.0 66.0,365.0 70.0,365.0 74.0,365.0 78.0,365.0 82.0,365.0 86.0,365.0 90.0,365.0 94.0,365.0 98.0,365.0 102.0,365.0 106.0,365.0 110.0,365.0 114.0,365.0 118.0,365.0 122.0,365.0 126.0,365.0 130.0,365.0 134.0,365.0 138.0,365.0 142.0,365.0 146.0,365.0 150.0,365.0 154.0,365.0 158.0,365.0 162.0,364.999999999 166.0,364.999999991 170.0,364.999999881 174.0,364.99999861 178.0,364.99998629 182.0,364.999884512 186.0,364.999161375 190.0,364.994706701 194.0,364.970737821 198.0,364.857328141 202.0,364.382557709 206.0,362.61411938 210.0,356.72325749 214.0,339.09280115 218.0,291.48611315 222.0,175.071566 226.0,364.948971547 230.0,364.712940439 234.0,364.427080615 238.0,363.943563425 242.0,363.194626868 246.0,362.132478335 250.0,360.75516899 254.0,359.12891765 258.0,357.39433838 262.0,355.750938815 266.0,354.41905217 270.0,364.999999588 274.0,364.99999958 278.0,364.999999596 282.0,364.999999631 286.0,364.99999968 290.0,364.999999736 294.0,364.999999793 298.0,364.999999845 302.0,364.999999889 306.0,364.999999924 310.0,364.99999995 314.0,364.999999969 318.0,364.999999981 322.0,364.999999989 326.0,364.999999994 330.0,364.999999997 334.0,364.999999998 338.0,364.999999999 342.0,365.0 346.0,365.0 350.0,365.0 354.0,365.0 358.0,365.0 362.0,365.0 366.0,365.0 370.0,365.0 374.0,365.0 378.0,365.0 382.0,365.0 386.0,365.0 390.0,365.0 394.0,365.0 398.0,365.0 402.0,365.0 406.0,365.0 410.0,365.0 414.0,365.0 418.0,365.0 422.0,365.0 426.0,365.0 430.0,365.0 434.0,365.0 438.0,365.0 442.0,365.0 446.0,365.0 450.0,365.0 450.0,365 446.0,365 442.0,365 438.0,365 434.0,365 430.0,365 426.0,365 422.0,365 418.0,365 413.99999999999994,365 409.99999999999994,365 405.99999999999994,365 401.99999999999994,365 397.99999999999994,365 393.99999999999994,365 389.99999999999994,365 385.99999999999994,365 381.99999999999994,365 377.99999999999994,365 373.99999999999994,365 369.99999999999994,365 365.99999999999994,365 361.99999999999994,365 357.99999999999994,365 353.9999999999999,365 349.9999999999999,365 345.9999999999999,365 341.9999999999999,365 337.9999999999999,365 333.9999999999999,365 329.9999999999999,365 325.9999999999999,365 321.9999999999999,365 317.9999999999999,365 313.9999999999999,365 309.9999999999999,365 305.9999999999999,365 301.9999999999999,365 297.9999999999999,365 293.9999999999999,365 289.9999999999999,365 285.9999999999999,365 281.9999999999999,365 277.9999999999999,365 273.99999999999983,365 269.99999999999983,365 265.99999999999983,365 261.99999999999983,365 257.99999999999983,365 253.99999999999983,365 249.99999999999983,365 245.99999999999983,365 241.99999999999983,365 237.9999999999998,365 233.9999999999998,365 229.9999999999998,365 225.9999999999998,365 221.9999999999998,365 217.9999999999998,365 213.9999999999998,365 209.99999999999977,365 205.99999999999977,365 201.99999999999977,365 197.99999999999977,365 193.99999999999977,365 189.99999999999977,365 185.99999999999977,365 181.99999999999977,365 177.99999999999977,365 173.99999999999977,365 169.99999999999974,365 165.99999999999974,365 161.99999999999974,365 157.99999999999974,365 153.99999999999974,365 149.99999999999972,365 145.99999999999972,365 141.99999999999972,365 137.99999999999972,365 133.99999999999972,365 129.99999999999972,365 125.99999999999972,365 121.99999999999972,365 117.9999999999997,365 113.9999999999997,365 109.9999999999997,365 105.99999999999969,365 101.99999999999969,365 97.99999999999969,365 93.99999999999969,365 89.99999999999969,365 85.99999999999967,365 81.99999999999967,365 77.99999999999967,365 73.99999999999966,365 69.99999999999966,365 65.99999999999966,365 61.99999999999966,365 57.99999999999965,365 53.999999999999645,365 49.999999999999645,365" stroke="none"/><polygon fill="rgb(93,119,254)" opacity="0.5" points=" 50.0,365.0 54.0,365.0 58.0,365.0 62.0,365.0 66.0,365.0 70.0,365.0 74.0,365.0 78.0,365.0 82.0,365.0 86.0,365.0 90.0,365.0 94.0,364.999999997 98.0,364.999999951 102.0,364.999999346 106.0,364.999993574 110.0,364.999951244 114.0,364.999704719 118.0,364.998533461 122.0,364.993891707 126.0,364.978260374 130.0,364.932829494 134.0,364.817369848 138.0,364.557932767 142.0,364.037709026 146.0,363.099594272 150.0,361.56868037 154.0,359.29700165 158.0,356.222044595 162.0,352.4203064 166.0,348.13385666 170.0,343.75243325 174.0,339.75137648 178.0,336.59926673 182.0,334.662792425 186.0,334.13729015 190.0,335.01823385 194.0,337.1194598 198.0,340.12683722 202.0,343.6677668 206.0,347.378695475 210.0,350.9560022 214.0,354.18324605 218.0,356.936840435 222.0,361.913853905 226.0,364.948663941 230.0,364.923188731 234.0,364.949105586 238.0,364.96716378 242.0,364.979351198 246.0,364.987332297 250.0,364.992411811 254.0,364.995558101 258.0,364.99745714 262.0,364.998575341 266.0,364.99921832 270.0,364.999963587 274.0,364.999990529 278.0,364.999990069 282.0,364.999994957 286.0,364.999997485 290.0,364.999998767 294.0,364.999999406 298.0,364.999999719 302.0,364.999999869 306.0,364.99999994 310.0,364.999999973 314.0,364.999999988 318.0,364.999999995 322.0,364.999999998 326.0,364.999999999 330.0,365.0 334.0,365.0 338.0,365.0 342.0,365.0 346.0,365.0 350.0,365.0 354.0,365.0 358.0,365.0 362.0,365.0 366.0,365.0 370.0,365.0 374.0,365.0 378.0,365.0 382.0,365.0 386.0,365.0 390.0,365.0 394.0,365.0 398.0,365.0 402.0,365.0 406.0,365.0 410.0,365.0 414.0,365.0 418.0,365.0 422.0,365.0 426.0,365.0 430.0,365.0 434.0,365.0 438.0,365.0 442.0,365.0 446.0,365.0 450.0,365.0 450.0,365 446.0,365 442.0,365 438.0,365 434.0,365 430.0,365 426.0,365 422.0,365 418.0,365 413.99999999999994,365 409.99999999999994,365 405.99999999999994,365 401.99999999999994,365 397.99999999999994,365 393.99999999999994,365 389.99999999999994,365 385.99999999999994,365 381.99999999999994,365 377.99999999999994,365 373.99999999999994,365 369.99999999999994,365 365.99999999999994,365 361.99999999999994,365 357.99999999999994,365 353.9999999999999,365 349.9999999999999,365 345.9999999999999,365 341.9999999999999,365 337.9999999999999,365 333.9999999999999,365 329.9999999999999,365 325.9999999999999,365 321.9999999999999,365 317.9999999999999,365 313.9999999999999,365 309.9999999999999,365 305.9999999999999,365 301.9999999999999,365 297.9999999999999,365 293.9999999999999,365 289.9999999999999,365 285.9999999999999,365 281.9999999999999,365 277.9999999999999,365 273.99999999999983,365 269.99999999999983,365 265.99999999999983,365 261.99999999999983,365 257.99999999999983,365 253.99999999999983,365 249.99999999999983,365 245.99999999999983,365 241.99999999999983,365 237.9999999999998,365 233.9999999999998,365 229.9999999999998,365 225.9999999999998,365 221.9999999999998,365 217.9999999999998,365 213.9999999999998,365 209.99999999999977,365 205.99999999999977,365 201.99999999999977,365 197.99999999999977,365 193.99999999999977,365 189.99999999999977,365 185.99999999999977,365 181.99999999999977,365 177.99999999999977,365 173.99999999999977,365 169.99999999999974,365 165.99999999999974,365 161.99999999999974,365 157.99999999999974,365 153.99999999999974,365 149.99999999999972,365 145.99999999999972,365 141.99999999999972,365 137.99999999999972,365 133.99999999999972,365 129.99999999999972,365 125.99999999999972,365 121.99999999999972,365 117.9999999999997,365 113.9999999999997,365 109.9999999999997,365 105.99999999999969,365 101.99999999999969,365 97.99999999999969,365 93.99999999999969,365 89.99999999999969,365 85.99999999999967,365 81.99999999999967,365 77.99999999999967,365 73.99999999999966,365 69.99999999999966,365 65.99999999999966,365 61.99999999999966,365 57.99999999999965,365 53.999999999999645,365 49.999999999999645,365" stroke="none"/><polygon fill="rgb(152,22,26)" opacity="0.5" points=" 50.0,365.0 54.0,21.37780235 58.0,363.627408771 62.0,364.994572361 66.0,364.999978754 70.0,364.999999918 74.0,365.0 78.0,365.0 82.0,365.0 86.0,365.0 90.0,365.0 94.0,365.0 98.0,365.0 102.0,365.0 106.0,365.0 110.0,365.0 114.0,365.0 118.0,365.0 122.0,365.0 126.0,365.0 130.0,365.0 134.0,365.0 138.0,365.0 142.0,365.0 146.0,365.0 150.0,365.0 154.0,365.0 158.0,365.0 162.0,365.0 166.0,365.0 170.0,365.0 174.0,365.0 178.0,365.0 182.0,365.0 186.0,365.0 190.0,365.0 194.0,365.0 198.0,365.0 202.0,365.0 206.0,365.0 210.0,365.0 214.0,365.0 218.0,365.0 222.0,365.0 226.0,365.0 230.0,365.0 234.0,365.0 238.0,365.0 242.0,365.0 246.0,365.0 250.0,365.0 254.0,365.0 258.0,365.0 262.0,365.0 266.0,365.0 270.0,365.0 274.0,365.0 278.0,365.0 282.0,365.0 286.0,365.0 290.0,365.0 294.0,365.0 298.0,365.0 302.0,365.0 306.0,365.0 310.0,365.0 314.0,365.0 318.0,365.0 322.0,365.0 326.0,365.0 330.0,365.0 334.0,365.0 338.0,365.0 342.0,365.0 346.0,365.0 350.0,365.0 354.0,365.0 358.0,365.0 362.0,365.0 366.0,365.0 370.0,365.0 374.0,365.0 378.0,365.0 382.0,365.0 386.0,365.0 390.0,365.0 394.0,365.0 398.0,365.0 402.0,365.0 406.0,365.0 410.0,365.0 414.0,365.0 418.0,365.0 422.0,365.0 426.0,365.0 430.0,365.0 434.0,365.0 438.0,365.0 442.0,365.0 446.0,365.0 450.0,365.0 450.0,365 446.0,365 442.0,365 438.0,365 434.0,365 430.0,365 426.0,365 422.0,365 418.0,365 413.99999999999994,365 409.99999999999994,365 405.99999999999994,365 401.99999999999994,365 397.99999999999994,365 393.99999999999994,365 389.99999999999994,365 385.99999999999994,365 381.99999999999994,365 377.99999999999994,365 373.99999999999994,365 369.99999999999994,365 365.99999999999994,365 361.99999999999994,365 357.99999999999994,365 353.9999999999999,365 349.9999999999999,365 345.9999999999999,365 341.9999999999999,365 337.9999999999999,365 333.9999999999999,365 329.9999999999999,365 325.9999999999999,365 321.9999999999999,365 317.9999999999999,365 313.9999999999999,365 309.9999999999999,365 305.9999999999999,365 301.9999999999999,365 297.9999999999999,365 293.9999999999999,365 289.9999999999999,365 285.9999999999999,365 281.9999999999999,365 277.9999999999999,365 273.99999999999983,365 269.99999999999983,365 265.99999999999983,365 261.99999999999983,365 257.99999999999983,365 253.99999999999983,365 249.99999999999983,365 245.99999999999983,365 241.99999999999983,365 237.9999999999998,365 233.9999999999998,365 229.9999999999998,365 225.9999999999998,365 221.9999999999998,365 217.9999999999998,365 213.9999999999998,365 209.99999999999977,365 205.99999999999977,365 201.99999999999977,365 197.99999999999977,365 193.99999999999977,365 189.99999999999977,365 185.99999999999977,365 181.99999999999977,365 177.99999999999977,365 173.99999999999977,365 169.99999999999974,365 165.99999999999974,365 161.99999999999974,365 157.99999999999974,365 153.99999999999974,365 149.99999999999972,365 145.99999999999972,365 141.99999999999972,365 137.99999999999972,365 133.99999999999972,365 129.99999999999972,365 125.99999999999972,365 121.99999999999972,365 117.9999999999997,365 113.9999999999997,365 109.9999999999997,365 105.99999999999969,365 101.99999999999969,365 97.99999999999969,365 93.99999999999969,365 89.99999999999969,365 85.99999999999967,365 81.99999999999967,365 77.99999999999967,365 73.99999999999966,365 69.99999999999966,365 65.99999999999966,365 61.99999999999966,365 57.99999999999965,365 53.999999999999645,365 49.999999999999645,365" stroke="none"/><polygon fill="rgb(104,236,172)" opacity="0.5" points=" 50.0,365.0 54.0,365.0 58.0,365.0 62.0,365.0 66.0,365.0 70.0,365.0 74.0,364.999999997 78.0,364.999999618 82.0,364.999977993 86.0,364.999388554 90.0,364.999104943 94.0,364.991223012 98.0,364.941470812 102.0,364.717843303 106.0,363.968771644 110.0,362.03289788 114.0,358.07187491 118.0,351.54151412 122.0,342.79716275 126.0,333.3522668 130.0,325.4517599 134.0,321.1299725 138.0,321.33732785 142.0,325.6464986 146.0,332.61856565 150.0,340.50204335 154.0,347.85246431 158.0,353.833368785 162.0,358.20115814 166.0,361.11263591 170.0,362.904395825 174.0,363.931077875 178.0,364.482424272 182.0,364.761404779 186.0,364.895005239 190.0,364.955786639 194.0,364.982144021 198.0,364.993069824 202.0,364.997410284 206.0,364.999066632 210.0,364.999675023 214.0,364.999890534 218.0,364.999964278 222.0,364.999992276 226.0,364.999999861 230.0,364.999999904 234.0,364.999999972 238.0,364.999999992 242.0,364.999999998 246.0,364.999999999 250.0,365.0 254.0,365.0 258.0,365.0 262.0,365.0 266.0,365.0 270.0,365.0 274.0,365.0 278.0,365.0 282.0,365.0 286.0,365.0 290.0,365.0 294.0,365.0 298.0,365.0 302.0,365.0 306.0,365.0 310.0,365.0 314.0,365.0 318.0,365.0 322.0,365.0 326.0,365.0 330.0,365.0 334.0,365.0 338.0,365.0 342.0,365.0 346.0,365.0 350.0,365.0 354.0,365.0 358.0,365.0 362.0,365.0 366.0,365.0 370.0,365.0 374.0,365.0 378.0,365.0 382.0,365.0 386.0,365.0 390.0,365.0 394.0,365.0 398.0,365.0 402.0,365.0 406.0,365.0 410.0,365.0 414.0,365.0 418.0,365.0 422.0,365.0 426.0,365.0 430.0,365.0 434.0,365.0 438.0,365.0 442.0,365.0 446.0,365.0 450.0,365.0 450.0,365 446.0,365 442.0,365 438.0,365 434.0,365 430.0,365 426.0,365 422.0,365 418.0,365 413.99999999999994,365 409.99999999999994,365 405.99999999999994,365 401.99999999999994,365 397.99999999999994,365 393.99999999999994,365 389.99999999999994,365 385.99999999999994,365 381.99999999999994,365 377.99999999999994,365 373.99999999999994,365 369.99999999999994,365 365.99999999999994,365 361.99999999999994,365 357.99999999999994,365 353.9999999999999,365 349.9999999999999,365 345.9999999999999,365 341.9999999999999,365 337.9999999999999,365 333.9999999999999,365 329.9999999999999,365 325.9999999999999,365 321.9999999999999,365 317.9999999999999,365 313.9999999999999,365 309.9999999999999,365 305.9999999999999,365 301.9999999999999,365 297.9999999999999,365 293.9999999999999,365 289.9999999999999,365 285.9999999999999,365 281.9999999999999,365 277.9999999999999,365 273.99999999999983,365 269.99999999999983,365 265.99999999999983,365 261.99999999999983,365 257.99999999999983,365 253.99999999999983,365 249.99999999999983,365 245.99999999999983,365 241.99999999999983,365 237.9999999999998,365 233.9999999999998,365 229.9999999999998,365 225.9999999999998,365 221.9999999999998,365 217.9999999999998,365 213.9999999999998,365 209.99999999999977,365 205.99999999999977,365 201.99999999999977,365 197.99999999999977,365 193.99999999999977,365 189.99999999999977,365 185.99999999999977,365 181.99999999999977,365 177.99999999999977,365 173.99999999999977,365 169.99999999999974,365 165.99999999999974,365 161.99999999999974,365 157.99999999999974,365 153.99999999999974,365 149.99999999999972,365 145.99999999999972,365 141.99999999999972,365 137.99999999999972,365 133.99999999999972,365 129.99999999999972,365 125.99999999999972,365 121.99999999999972,365 117.9999999999997,365 113.9999999999997,365 109.9999999999997,365 105.99999999999969,365 101.99999999999969,365 97.99999999999969,365 93.99999999999969,365 89.99999999999969,365 85.99999999999967,365 81.99999999999967,365 77.99999999999967,365 73.99999999999966,365 69.99999999999966,365 65.99999999999966,365 61.99999999999966,365 57.99999999999965,365 53.999999999999645,365 49.999999999999645,365" stroke="none"/></svg>