<svg baseProfile="full" version="1.1" xmlns="http://www.w3.org/2000/svg" xmlns:ev="http://www.w3.org/2001/xml-events" xmlns:xlink="http://www.w3.org/1999/xlink"><g fill="none" font-family="sans-serif" font-size="10" text-anchor="middle" transform="translate(0 365)"><path class="domain" d="M50.5,6V0.5H450.5V6" stroke="currentColor"/><g class="tick" opacity="1" transform="translate(50.0)"><line stroke="currentColor" y2="6"/><text dy="0.71em" fill="currentColor" y="9">0.0</text></g><g class="tick" opacity="1" transform="translate(90.0)"><line stroke="currentColor" y2="6"/><text dy="0.71em" fill="currentColor" y="9">0.1</text></g><g class="tick" opacity="1" transform="translate(130.0)"><line stroke="currentColor" y2="6"/><text dy="0.71em" fill="currentColor" y="9">0.2</text></g><g class="tick" opacity="1" transform="translate(170.0)"><line stroke="currentColor" y2="6"/><text dy="0.71em" fill="currentColor" y="9">0.3</text></g><g class="tick" opacity="1" transform="translate(210.0)"><line stroke="currentColor" y2="6"/><text dy="0.71em" fill="currentColor" y="9">0.4</text></g><g class="tick" opacity="1" transform="translate(250.0)"><line stroke="currentColor" y2="6"/><text dy="0.71em" fill="currentColor" y="9">0.5</text></g><g class="tick" opacity="1" transform="translate(290.0)"><line stroke="currentColor" y2="6"/><text dy="0.71em" fill="currentColor" y="9">0.6</text></g><g class="tick" opacity="1" transform="translate(330.0)"><line stroke="currentColor" y2="6"/><text dy="0.71em" fill="currentColor" y="9">0.7</text></g><g class="tick" opacity="1" transform="translate(370.0)"><line stroke="currentColor" y2="6"/><text dy="0.71em" fill="currentColor" y="9">0.8</text></g><g class="tick" opacity="1" transform="translate(410.0)"><line stroke="currentColor" y2="6"/><text dy="0.71em" fill="currentColor" y="9">0.9</text></g><g class="tick" opacity="1" transform="translate(450.0)"><line stroke="currentColor" y2="6"/><text dy="0.71em" fill="currentColor" y="9">1.0</text></g></g><g fill="none" font-family="sans-serif" font-size="10" text-anchor="end" transform="translate(50 0)"><path class="domain" d="M-6,365.5H0.5V20.5H-6" stroke="currentColor"/><g class="tick" opacity="1" transform="translate(0, 365.0)"><line stroke="currentColor" x2="-6"/><text dy="0.32em" fill="currentColor" x="-9">0.0</text></g><g class="tick" opacity="1" transform="translate(0, 347.75)"><line stroke="currentColor" x2="-6"/><text dy="0.32em" fill="currentColor" x="-9">0.05</text></g><g class="tick" opacity="1" transform="translate(0, 330.5)"><line stroke="currentColor" x2="-6"/><text dy="0.32em" fill="currentColor" x="-9">0.1</text></g><g class="tick" opacity="1" transform="translate(0, 313.25)"><line stroke="currentColor" x2="-6"/><text dy="0.32em" fill="currentColor" x="-9">0.15</text></g><g class="tick" opacity="1" transform="translate(0, 296.0)"><line stroke="currentColor" x2="-6"/><text dy="0.32em" fill="currentColor" x="-9">0.2</text></g><g class="tick" opacity="1" transform="translate(0, 278.75)"><line stroke="currentColor" x2="-6"/><text dy="0.32em" fill="currentColor" x="-9">0.25</text></g><g class="tick" opacity="1" transform="translate(0, 261.5)"><line stroke="currentColor" x2="-6"/><text dy="0.32em" fill="currentColor" x="-9">0.3</text></g><g class="tick" opacity="1" transform="translate(0, 244.25)"><line stroke="currentColor" x2="-6"/><text dy="0.32em" fill="currentColor" x="-9">0.35</text></g><g class="tick" opacity="1" transform="translate(0, 227.0)"><line stroke="currentColor" x2="-6"/><text dy="0.32em" fill="currentColor" x="-9">0.4</text></g><g class="tick" opacity="1" transform="translate(0, 209.75)"><line stroke="currentColor" x2="-6"/><text dy="0.32em" fill="currentColor" x="-9">0.45</text></g><g class="tick" opacity="1" transform="translate(0, 192.5)"><line stroke="currentColor" x2="-6"/><text dy="0.32em" fill="currentColor" x="-9">0.5</text></g><g class="tick" opacity="1" transform="translate(0, 175.25)"><line stroke="currentColor" x2="-6"/><text dy="0.32em" fill="currentColor" x="-9">0.55</text></g><g class="tick" opacity="1" transform="translate(0, 158.0)"><line stroke="currentColor" x2="-6"/><text dy="0.32em" fill="currentColor" x="-9">0.6</text></g><g class="tick" opacity="1" transform="translate(0, 140.75)"><line stroke="currentColor" x2="-6"/><text dy="0.32em" fill="currentColor" x="-9">0.65</text></g><g class="tick" opacity="1" transform="translate(0, 123.5)"><line stroke="currentColor" x2="-6"/><text dy="0.32em" fill="currentColor" x="-9">0.7</text></g><g class="tick" opacity="1" transform="translate(0, 106.25)"><line stroke="currentColor" x2="-6"/><text dy="0.32em" fill="currentColor" x="-9">0.75</text></g><g class="tick" opacity="1" transform="translate(0, 89.0)"><line stroke="currentColor" x2="-6"/><text dy="0.32em" fill="currentColor" x="-9">0.8</text></g><g class="tick" opacity="1" transform="translate(0, 71.75)"><line stroke="currentColor" x2="-6"/><text dy="0.32em" fill="currentColor" x="-9">0.85</text></g><g class="tick" opacity="1" transform="translate(0, 54.5)"><line stroke="currentColor" x2="-6"/><text dy="0.32em" fill="currentColor" x="-9">0.9</text></g><g class="tick" opacity="1" transform="translate(0, 37.25)"><line stroke="currentColor" x2="-6"/><text dy="0.32em" fill="currentColor" x="-9">0.95</text></g><g class="tick" opacity="1" transform="translate(0, 20.0)"><line stroke="currentColor" x2="-6"/><text dy="0.32em" fill="currentColor" x="-9">1.0</text></g></g><text font-family="sans-serif" font-size="10px" text-anchor="middle" x="250" y="395">CCF</text><text font-family="sans-serif" font-size="10px" text-anchor="middle" transform="rotate(-90 10 192.5)" x="10" y="192.5">Probability density</text><polygon fill="rgb(39,140,24)" opacity="0.5" points=" 50.0,365.0 54.0,365.0 58.0,365.0 62.0,365.0 66.0,365.0 70.0,365.0 74.0,365.0 78.0,365.0 82.0,365.0 86.0,365.0 90.0,365.0 94.0,365.0 98.0,365.0 102.0,365.0 106.0,365.0 110.0,365.0 114.0,365.0 118.0,365.0 122.0,365.0 126.0,365.0 130.0,365.0 134.0,365.0 138.0,365.0 142.0,365.0 146.0,365.0 150.0,365.0 154.0,365.0 158.0,365.0 162.0,365.0 166.0,365.0 170.0,365.0 174.0,365.0 178.0,365.0 182.0,365.0 186.0,365.0 190.0,365.0 194.0,365.0 198.0,365.0 202.0,365.0 206.0,365.0 210.0,365.0 214.0,365.0 218.0,365.0 222.0,365.0 226.0,365.0 230.0,365.0 234.0,365.0 238.0,365.0 242.0,365.0 246.0,365.0 250.0,365.0 254.0,365.0 258.0,365.0 262.0,365.0 266.0,365.0 270.0,365.0 274.0,365.0 278.0,365.0 282.0,365.0 286.0,365.0 290.0,365.0 294.0,365.0 298.0,365.0 302.0,365.0 306.0,365.0 310.0,365.0 314.0,365.0 318.0,365.0 322.0,365.0 326.0,365.0 330.0,365.0 334.0,365.0 338.0,365.0 342.0,365.0 346.0,365.0 350.0,365.0 354.0,365.0 358.0,365.0 362.0,365.0 366.0,365.0 370.0,365.0 374.0,365.0 378.0,365.0 382.0,365.0 386.0,364.999999999 390.0,364.999999996 394.0,364.999999978 398.0,364.999999883 402.0,364.99999937 406.0,364.999996663 410.0,364.999982489 414.0,364.999908685 418.0,364.999525187 422.0,364.997530388 426.0,364.987118003 430.0,364.932500967 434.0,364.644552469 438.0,363.12017918 442.0,355.032182375 446.0,312.12713885 450.0,85.1592875 450.0,365 446.0,365 442.0,365 438.0,365 434.0,365 430.0,365 426.0,365 422.0,365 418.0,365 413.99999999999994,365 409.99999999999994,365 405.99999999999994,365 401.99999999999994,365 397.99999999999994,365 393.99999999999994,365 389.99999999999994,365 385.99999999999994,365 381.99999999999994,365 377.99999999999994,365 373.99999999999994,365 369.99999999999994,365 365.99999999999994,365 361.99999999999994,365 357.99999999999994,365 353.9999999999999,365 349.9999999999999,365 345.9999999999999,365 341.9999999999999,365 337.9999999999999,365 333.9999999999999,365 329.9999999999999,365 325.9999999999999,365 321.9999999999999,365 317.9999999999999,365 313.9999999999999,365 309.9999999999999,365 305.9999999999999,365 301.9999999999999,365 297.9999999999999,365 293.9999999999999,365 289.9999999999999,365 285.9999999999999,365 281.9999999999999,365 277.9999999999999,365 273.99999999999983,365 269.99999999999983,365 265.99999999999983,365 261.99999999999983,365 257.99999999999983,365 253.99999999999983,365 249.99999999999983,365 245.99999999999983,365 241.99999999999983,365 237.9999999999998,365 233.9999999999998,365 229.9999999999998,365 225.9999999999998,365 221.9999999999998,365 217.9999999999998,365 213.9999999999998,365 209.99999999999977,365 205.99999999999977,365 201.99999999999977,365 197.99999999999977,365 193.99999999999977,365 189.99999999999977,365 185.99999999999977,365 181.99999999999977,365 177.99999999999977,365 173.99999999999977,365 169.99999999999974,365 165.99999999999974,365 161.99999999999974,365 157.99999999999974,365 153.99999999999974,365 149.99999999999972,365 145.99999999999972,365 141.99999999999972,365 137.99999999999972,365 133.99999999999972,365 129.99999999999972,365 125.99999999999972,365 121.99999999999972,365 117.9999999999997,365 113.9999999999997,365 109.9999999999997,365 105.99999999999969,365 101.99999999999969,365 97.99999999999969,365 93.99999999999969,365 89.99999999999969,365 85.99999999999967,365 81.99999999999967,365 77.99999999999967,365 73.99999999999966,365 69.99999999999966,365 65.99999999999966,365 61.99999999999966,365 57.99999999999965,365 53.999999999999645,365 49.999999999999645,365" stroke="none"/><polygon fill="rgb(103,200,243)" opacity="0.5" points=" 50.0,365.0 54.0,365.0 58.0,365.0 62.0,365.0 66.0,365.0 70.0,365.0 74.0,365.0 78.0,365.0 82.0,365.0 86.0,365.0 90.0,365.0 94.0,365.0 98.0,365.0 102.0,365.0 106.0,365.0 110.0,365.0 114.0,365.0 118.0,365.0 122.0,365.0 126.0,365.0 130.0,365.0 134.0,365.0 138.0,365.0 142.0,365.0 146.0,365.0 150.0,365.0 154.0,365.0 158.0,365.0 162.0,365.0 166.0,365.0 170.0,365.0 174.0,365.0 178.0,365.0 182.0,365.0 186.0,365.0 190.0,365.0 194.0,365.0 198.0,365.0 202.0,365.0 206.0,365.0 210.0,365.0 214.0,365.0 218.0,365.0 222.0,365.0 226.0,365.0 230.0,365.0 234.0,365.0 238.0,365.0 242.0,365.0 246.0,365.0 250.0,365.0 254.0,365.0 258.0,365.0 262.0,365.0 266.0,365.0 270.0,365.0 274.0,365.0 278.0,365.0 282.0,365.0 286.0,365.0 290.0,365.0 294.0,365.0 298.0,365.0 302.0,365.0 306.0,365.0 310.0,365.0 314.0,365.0 318.0,365.0 322.0,365.0 326.0,365.0 330.0,365.0 334.0,365.0 338.0,365.0 342.0,365.0 346.0,365.0 350.0,365.0 354.0,365.0 358.0,365.0 362.0,365.0 366.0,365.0 370.0,365.0 374.0,365.0 378.0,365.0 382.0,365.0 386.0,365.0 390.0,365.0 394.0,365.0 398.0,365.0 402.0,365.0 406.0,364.999999999 410.0,364.999999994 414.0,364.999999939 418.0,364.999999374 422.0,364.99999359 426.0,364.999932986 430.0,364.999273001 434.0,364.991681203 438.0,364.898077468 442.0,363.64438805 446.0,345.164960885 450.0,41.3015903 450.0,365 446.0,365 442.0,365 438.0,365 434.0,365 430.0,365 426.0,365 422.0,365 418.0,365 413.99999999999994,365 409.99999999999994,365 405.99999999999994,365 401.99999999999994,365 397.99999999999994,365 393.99999999999994,365 389.99999999999994,365 385.99999999999994,365 381.99999999999994,365 377.99999999999994,365 373.99999999999994,365 369.99999999999994,365 365.99999999999994,365 361.99999999999994,365 357.99999999999994,365 353.9999999999999,365 349.9999999999999,365 345.9999999999999,365 341.9999999999999,365 337.9999999999999,365 333.9999999999999,365 329.9999999999999,365 325.9999999999999,365 321.9999999999999,365 317.9999999999999,365 313.9999999999999,365 309.9999999999999,365 305.9999999999999,365 301.9999999999999,365 297.9999999999999,365 293.9999999999999,365 289.9999999999999,365 285.9999999999999,365 281.9999999999999,365 277.9999999999999,365 273.99999999999983,365 269.99999999999983,365 265.99999999999983,365 261.99999999999983,365 257.99999999999983,365 253.99999999999983,365 249.99999999999983,365 245.99999999999983,365 241.99999999999983,365 237.9999999999998,365 233.9999999999998,365 229.9999999999998,365 225.9999999999998,365 221.9999999999998,365 217.9999999999998,365 213.9999999999998,365 209.99999999999977,365 205.99999999999977,365 201.99999999999977,365 197.99999999999977,365 193.99999999999977,365 189.99999999999977,365 185.99999999999977,365 181.99999999999977,365 177.99999999999977,365 173.99999999999977,365 169.99999999999974,365 165.99999999999974,365 161.99999999999974,365 157.99999999999974,365 153.99999999999974,365 149.99999999999972,365 145.99999999999972,365 141.99999999999972,365 137.99999999999972,365 133.99999999999972,365 129.99999999999972,365 125.99999999999972,365 121.99999999999972,365 117.9999999999997,365 113.9999999999997,365 109.9999999999997,365 105.99999999999969,365 101.99999999999969,365 97.99999999999969,365 93.99999999999969,365 89.99999999999969,365 85.99999999999967,365 81.99999999999967,365 77.99999999999967,365 73.99999999999966,365 69.99999999999966,365 65.99999999999966,365 61.99999999999966,365 57.99999999999965,365 53.999999999999645,365 49.999999999999645,365" stroke="none"/><polygon fill="rgb(248,139,16)" opacity="0.5" points=" 50.0,365.0 54.0,365.0 58.0,365.0 62.0,365.0 66.0,365.0 70.0,365.0 74.0,365.0 78.0,365.0 82.0,365.0 86.0,365.0 90.0,365.0 94.0,365.0 98.0,365.0 102.0,365.0 106.0,365.0 110.0,365.0 114.0,365.0 118.0,365.0 122.0,365.0 126.0,365.0 130.0,365.0 134.0,365.0 138.0,365.0 142.0,365.0 146.0,365.0 150.0,365.0 154.0,365.0 158.0,365.0 162.0,365.0 166.0,365.0 170.0,365.0 174.0,365.0 178.0,365.0 182.0,365.0 186.0,365.0 190.0,365.0 194.0,365.0 198.0,365.0 202.0,365.0 206.0,365.0 210.0,365.0 214.0,365.0 218.0,365.0 222.0,364.999999998 226.0,364.999999988 230.0,364.999999947 234.0,364.999999771 238.0,364.999999077 242.0,364.999996488 246.0,364.999987369 250.0,364.99995697 254.0,364.999860889 258.0,364.999572448 262.0,364.998748623 266.0,364.996506607 270.0,364.990684339 274.0,364.976237023 278.0,364.941938639 282.0,364.863943978 286.0,364.693864609 290.0,364.374230651 294.0,363.62175398 298.0,362.236557935 302.0,359.657442815 306.0,355.031726285 310.0,347.03450588 314.0,333.69856262 318.0,312.2360933 322.0,278.88479495 326.0,228.8237045 330.0,364.999837113 334.0,364.999757711 338.0,364.999650137 342.0,364.999509276 346.0,364.999331057 350.0,364.999113275 354.0,364.998856447 358.0,364.9985645 362.0,364.998245183 366.0,364.997910037 370.0,364.997573894 374.0,364.997253812 378.0,364.996967654 382.0,364.996732352 386.0,364.996562177 390.0,364.996467201 394.0,364.996452251 398.0,364.996516342 402.0,364.996652884 406.0,364.996850399 410.0,364.997093832 414.0,364.997365994 418.0,364.997649241 422.0,364.997926907 426.0,364.998184489 430.0,364.998410374 434.0,364.998596073 438.0,364.998735911 442.0,364.998826089 446.0,364.99886302 450.0,364.998840571 450.0,365 446.0,365 442.0,365 438.0,365 434.0,365 430.0,365 426.0,365 422.0,365 418.0,365 413.99999999999994,365 409.99999999999994,365 405.99999999999994,365 401.99999999999994,365 397.99999999999994,365 393.99999999999994,365 389.99999999999994,365 385.99999999999994,365 381.99999999999994,365 377.99999999999994,365 373.99999999999994,365 369.99999999999994,365 365.99999999999994,365 361.99999999999994,365 357.99999999999994,365 353.9999999999999,365 349.9999999999999,365 345.9999999999999,365 341.9999999999999,365 337.9999999999999,365 333.9999999999999,365 329.9999999999999,365 325.9999999999999,365 321.9999999999999,365 317.9999999999999,365 313.9999999999999,365 309.9999999999999,365 305.9999999999999,365 301.9999999999999,365 297.9999999999999,365 293.9999999999999,365 289.9999999999999,365 285.9999999999999,365 281.9999999999999,365 277.9999999999999,365 273.99999999999983,365 269.99999999999983,365 265.99999999999983,365 261.99999999999983,365 257.99999999999983,365 253.99999999999983,365 249.99999999999983,365 245.99999999999983,365 241.99999999999983,365 237.9999999999998,365 233.9999999999998,365 229.9999999999998,365 225.9999999999998,365 221.9999999999998,365 217.9999999999998,365 213.9999999999998,365 209.99999999999977,365 205.99999999999977,365 201.99999999999977,365 197.99999999999977,365 193.99999999999977,365 189.99999999999977,365 185.99999999999977,365 181.99999999999977,365 177.99999999999977,365 173.99999999999977,365 169.99999999999974,365 165.99999999999974,365 161.99999999999974,365 157.99999999999974,365 153.99999999999974,365 149.99999999999972,365 145.99999999999972,365 141.99999999999972,365 137.99999999999972,365 133.99999999999972,365 129.99999999999972,365 125.99999999999972,365 121.99999999999972,365 117.9999999999997,365 113.9999999999997,365 109.9999999999997,365 105.99999999999969,365 101.99999999999969,365 97.99999999999969,365 93.99999999999969,365 89.99999999999969,365 85.99999999999967,365 81.99999999999967,365 77.99999999999967,365 73.99999999999966,365 69.99999999999966,365 65.99999999999966,365 61.99999999999966,365 57.99999999999965,365 53.999999999999645,365 49.999999999999645,365" stroke="none"/><polygon fill="rgb(16,49,41)" opacity="0.5" points=" 50.0,365.0 54.0,365.0 58.0,365.0 62.0,365.0 66.0,365.0 70.0,365.0 74.0,365.0 78.0,365.0 82.0,365.0 86.0,365.0 90.0,365.0 94.0,365.0 98.0,365.0 102.0,365.0 106.0,365.0 110.0,365.0 114.0,365.0 118.0,365.0 122.0,365.0 126.0,365.0 130.0,365.0 134.0,365.0 138.0,365.0 142.0,365.0 146.0,365.0 150.0,365.0 154.0,365.0 158.0,365.0 162.0,365.0 166.0,365.0 170.0,365.0 174.0,365.0 178.0,365.0 182.0,365.0 186.0,365.0 190.0,365.0 194.0,365.0 198.0,365.0 202.0,365.0 206.0,365.0 210.0,365.0 214.0,365.0 218.0,365.0 222.0,365.0 226.0,365.0 230.0,365.0 234.0,365.0 238.0,365.0 242.0,365.0 246.0,365.0 250.0,365.0 254.0,365.0 258.0,365.0 262.0,365.0 266.0,365.0 270.0,365.0 274.0,365.0 278.0,365.0 282.0,365.0 286.0,365.0 290.0,365.0 294.0,365.0 298.0,365.0 302.0,365.0 306.0,365.0 310.0,365.0 314.0,365.0 318.0,365.0 322.0,365.0 326.0,365.0 330.0,365.0 334.0,365.0 338.0,365.0 342.0,365.0 346.0,365.0 350.0,365.0 354.0,365.0 358.0,365.0 362.0,365.0 366.0,365.0 370.0,365.0 374.0,365.0 378.0,365.0 382.0,365.0 386.0,365.0 390.0,365.0 394.0,365.0 398.0,365.0 402.0,364.999999998 406.0,364.999999984 410.0,364.999999852 414.0,364.999998643 418.0,364.99998772 422.0,364.999890627 426.0,364.999041491 430.0,364.991739782 434.0,364.930032789 438.0,364.417693165 442.0,360.239554415 446.0,326.7786989 450.0,63.643397 450.0,365 446.0,365 442.0,365 438.0,365 434.0,365 430.0,365 426.0,365 422.0,365 418.0,365 413.99999999999994,365 409.99999999999994,365 405.99999999999994,365 401.99999999999994,365 397.99999999999994,365 393.99999999999994,365 389.99999999999994,365 385.99999999999994,365 381.99999999999994,365 377.99999999999994,365 373.99999999999994,365 369.99999999999994,365 365.99999999999994,365 361.99999999999994,365 357.99999999999994,365 353.9999999999999,365 349.9999999999999,365 345.9999999999999,365 341.9999999999999,365 337.9999999999999,365 333.9999999999999,365 329.9999999999999,365 325.9999999999999,365 321.9999999999999,365 317.9999999999999,365 313.9999999999999,365 309.9999999999999,365 305.9999999999999,365 301.9999999999999,365 297.9999999999999,365 293.9999999999999,365 289.9999999999999,365 285.9999999999999,365 281.9999999999999,365 277.9999999999999,365 273.99999999999983,365 269.99999999999983,365 265.99999999999983,365 261.99999999999983,365 257.99999999999983,365 253.99999999999983,365 249.99999999999983,365 245.99999999999983,365 241.99999999999983,365 237.9999999999998,365 233.9999999999998,365 229.9999999999998,365 225.9999999999998,365 221.9999999999998,365 217.9999999999998,365 213.9999999999998,365 209.99999999999977,365 205.99999999999977,365 201.99999999999977,365 197.99999999999977,365 193.99999999999977,365 189.99999999999977,365 185.99999999999977,365 181.99999999999977,365 177.99999999999977,365 173.99999999999977,365 169.99999999999974,365 165.99999999999974,365 161.99999999999974,365 157.99999999999974,365 153.99999999999974,365 149.99999999999972,365 145.99999999999972,365 141.99999999999972,365 137.99999999999972,365 133.99999999999972,365 129.99999999999972,365 125.99999999999972,365 121.99999999999972,365 117.9999999999997,365 113.9999999999997,365 109.9999999999997,365 105.99999999999969,365 101.99999999999969,365 97.99999999999969,365 93.99999999999969,365 89.99999999999969,365 85.99999999999967,365 81.99999999999967,365 77.99999999999967,365 73.99999999999966,365 69.99999999999966,365 65.99999999999966,365 61.99999999999966,365 57.99999999999965,365 53.999999999999645,365 49.999999999999645,365" stroke="none"/><polygon fill="rgb(93,119,254)" opacity="0.5" points=" 50.0,365.0 54.0,365.0 58.0,364.999999999 62.0,364.999999744 66.0,364.999999997 70.0,364.999999919 74.0,364.999998938 78.0,364.999991115 82.0,364.999946599 86.0,364.999750806 90.0,364.999047843 94.0,364.996905831 98.0,364.991205534 102.0,364.97766706 106.0,364.948484931 110.0,364.890638064 114.0,364.784061509 118.0,364.599984609 122.0,364.299812564 126.0,363.834949731 130.0,363.147878091 134.0,362.17469012 138.0,360.84902762 142.0,359.107217495 146.0,356.89417739 150.0,354.16945985 154.0,350.91284891 158.0,347.128867175 162.0,342.84960275 166.0,338.1356021 170.0,360.6408353 174.0,359.917651992 178.0,359.180129105 182.0,358.447732055 186.0,357.74060246 190.0,357.07851986 194.0,356.479930025 198.0,355.96105175 202.0,355.53519272 206.0,355.212212 210.0,354.9982499 214.0,354.895705205 218.0,354.90326657 222.0,355.01633756 226.0,355.227415115 230.0,355.52664086 234.0,355.902408995 238.0,356.341952795 242.0,356.83197389 246.0,357.35911802 250.0,357.91049702 254.0,358.474049 258.0,359.03885264 262.0,359.59530935 266.0,360.135279545 270.0,360.652136638 274.0,361.140726155 278.0,361.59730295 282.0,362.019424595 286.0,362.405799203 290.0,362.756126555 294.0,363.070950957 298.0,363.351469008 302.0,363.599406778 306.0,363.816848858 310.0,364.00612952 314.0,364.169716824 318.0,364.310120129 322.0,364.429820398 326.0,364.531207997 330.0,364.630583867 334.0,364.687927973 338.0,364.747286499 342.0,364.796357195 346.0,364.836692525 350.0,364.869662898 354.0,364.896466293 358.0,364.918139952 362.0,364.935573672 366.0,364.949524665 370.0,364.960632295 374.0,364.969432075 378.0,364.976369249 382.0,364.981811698 386.0,364.986061167 390.0,364.989363546 394.0,364.991917976 398.0,364.993884829 402.0,364.995392383 406.0,364.99654271 410.0,364.997416549 414.0,364.998077445 418.0,364.998575105 422.0,364.998948227 426.0,364.999226777 430.0,364.999433871 434.0,364.999587133 438.0,364.999700104 442.0,364.999783026 446.0,364.999843642 450.0,364.999887767 450.0,365 446.0,365 442.0,365 438.0,365 434.0,365 430.0,365 426.0,365 422.0,365 418.0,365 413.99999999999994,365 409.99999999999994,365 405.99999999999994,365 401.99999999999994,365 397.99999999999994,365 393.99999999999994,365 389.99999999999994,365 385.99999999999994,365 381.99999999999994,365 377.99999999999994,365 373.99999999999994,365 369.99999999999994,365 365.99999999999994,365 361.99999999999994,365 357.99999999999994,365 353.9999999999999,365 349.9999999999999,365 345.9999999999999,365 341.9999999999999,365 337.9999999999999,365 333.9999999999999,365 329.9999999999999,365 325.9999999999999,365 321.9999999999999,365 317.9999999999999,365 313.9999999999999,365 309.9999999999999,365 305.9999999999999,365 301.9999999999999,365 297.9999999999999,365 293.9999999999999,365 289.9999999999999,365 285.9999999999999,365 281.9999999999999,365 277.9999999999999,365 273.99999999999983,365 269.99999999999983,365 265.99999999999983,365 261.99999999999983,365 257.99999999999983,365 253.99999999999983,365 249.99999999999983,365 245.99999999999983,365 241.99999999999983,365 237.9999999999998,365 233.9999999999998,365 229.9999999999998,365 225.9999999999998,365 221.9999999999998,365 217.9999999999998,365 213.9999999999998,365 209.99999999999977,365 205.99999999999977,365 201.99999999999977,365 197.99999999999977,365 193.99999999999977,365 189.99999999999977,365 185.99999999999977,365 181.99999999999977,365 177.99999999999977,365 173.99999999999977,365 169.99999999999974,365 165.99999999999974,365 161.99999999999974,365 157.99999999999974,365 153.99999999999974,365 149.99999999999972,365 145.99999999999972,365 141.99999999999972,365 137.99999999999972,365 133.99999999999972,365 129.99999999999972,365 125.99999999999972,365 121.99999999999972,365 117.9999999999997,365 113.9999999999997,365 109.9999999999997,365 105.99999999999969,365 101.99999999999969,365 97.99999999999969,365 93.99999999999969,365 89.99999999999969,365 85.99999999999967,365 81.99999999999967,365 77.99999999999967,365 73.99999999999966,365 69.99999999999966,365 65.99999999999966,365 61.99999999999966,365 57.99999999999965,365 53.999999999999645,365 49.999999999999645,365" stroke="none"/><polygon fill="rgb(152,22,26)" opacity="0.5" points=" 50.0,365.0 54.0,364.999824124 58.0,364.982106416 62.0,364.757175383 66.0,364.991692841 70.0,364.968585839 74.0,364.910799595 78.0,364.792204809 82.0,364.581316832 86.0,364.245041675 90.0,363.75302786 94.0,363.08179103 98.0,362.217964677 102.0,361.16028593 106.0,359.920215515 110.0,358.52125121 114.0,356.99718818 118.0,355.38960824 122.0,353.745031535 126.0,352.111857425 130.0,350.5375793 134.0,349.06627712 138.0,347.7366623 142.0,346.5806363 146.0,345.6224057 150.0,344.878170665 154.0,344.35621637 158.0,344.057403935 162.0,343.975997735 166.0,344.10057965 170.0,358.206424565 174.0,358.36652423 178.0,358.5757205 182.0,358.82637197 186.0,359.110700615 190.0,359.42103881 194.0,359.750051165 198.0,360.090907025 202.0,360.43737776 206.0,360.783936815 210.0,361.125795245 214.0,361.4589131 218.0,361.779985625 222.0,362.08641152 226.0,362.376240845 230.0,362.648122235 234.0,362.901214787 238.0,363.135150455 242.0,363.34994021 246.0,363.545917322 250.0,363.723672224 254.0,363.88399814 258.0,364.027831365 262.0,364.156212179 266.0,364.27024289 270.0,364.371055237 274.0,364.459781094 278.0,364.537530846 282.0,364.605378685 286.0,364.664346153 290.0,364.715394699 294.0,364.759420494 298.0,364.797248986 302.0,364.829636068 306.0,364.8572671 310.0,364.880760175 314.0,364.9006682 318.0,364.917483128 322.0,364.931640279 326.0,364.943522251 330.0,364.95377425 334.0,364.961757538 338.0,364.968655327 342.0,364.974375567 346.0,364.979105683 350.0,364.983005943 354.0,364.986212992 358.0,364.988842732 362.0,364.99099327 366.0,364.99274715 370.0,364.994173771 374.0,364.99533112 378.0,364.996267585 382.0,364.997023362 386.0,364.99763176 390.0,364.998120272 394.0,364.998511534 398.0,364.998824127 402.0,364.999073245 406.0,364.999271289 410.0,364.999428343 414.0,364.999552588 418.0,364.999650639 422.0,364.99972783 426.0,364.999788454 430.0,364.999835955 434.0,364.999873079 438.0,364.999902025 442.0,364.999924543 446.0,364.999942017 450.0,364.999955545 450.0,365 446.0,365 442.0,365 438.0,365 434.0,365 430.0,365 426.0,365 422.0,365 418.0,365 413.99999999999994,365 409.99999999999994,365 405.99999999999994,365 401.99999999999994,365 397.99999999999994,365 393.99999999999994,365 389.99999999999994,365 385.99999999999994,365 381.99999999999994,365 377.99999999999994,365 373.99999999999994,365 369.99999999999994,365 365.99999999999994,365 361.99999999999994,365 357.99999999999994,365 353.9999999999999,365 349.9999999999999,365 345.9999999999999,365 341.9999999999999,365 337.9999999999999,365 333.9999999999999,365 329.9999999999999,365 325.9999999999999,365 321.9999999999999,365 317.9999999999999,365 313.9999999999999,365 309.9999999999999,365 305.9999999999999,365 301.9999999999999,365 297.9999999999999,365 293.9999999999999,365 289.9999999999999,365 285.9999999999999,365 281.9999999999999,365 277.9999999999999,365 273.99999999999983,365 269.99999999999983,365 265.99999999999983,365 261.99999999999983,365 257.99999999999983,365 253.99999999999983,365 249.99999999999983,365 245.99999999999983,365 241.99999999999983,365 237.9999999999998,365 233.9999999999998,365 229.9999999999998,365 225.9999999999998,365 221.9999999999998,365 217.9999999999998,365 213.9999999999998,365 209.99999999999977,365 205.99999999999977,365 201.99999999999977,365 197.99999999999977,365 193.99999999999977,365 189.99999999999977,365 185.99999999999977,365 181.99999999999977,365 177.99999999999977,365 173.99999999999977,365 169.99999999999974,365 165.99999999999974,365 161.99999999999974,365 157.99999999999974,365 153.99999999999974,365 149.99999999999972,365 145.99999999999972,365 141.99999999999972,365 137.99999999999972,365 133.99999999999972,365 129.99999999999972,365 125.99999999999972,365 121.99999999999972,365 117.9999999999997,365 113.9999999999997,365 109.9999999999997,365 105.99999999999969,365 101.99999999999969,365 97.99999999999969,365 93.99999999999969,365 89.99999999999969,365 85.99999999999967,365 81.99999999999967,365 77.99999999999967,365 73.99999999999966,365 69.99999999999966,365 65.99999999999966,365 61.99999999999966,365 57.99999999999965,365 53.999999999999645,365 49.999999999999645,365" stroke="none"/><polygon fill="rgb(104,236,172)" opacity="0.5" points=" 50.0,365.0 54.0,365.0 58.0,365.0 62.0,365.0 66.0,365.0 70.0,365.0 74.0,365.0 78.0,365.0 82.0,365.0 86.0,365.0 90.0,365.0 94.0,365.0 98.0,365.0 102.0,365.0 106.0,365.0 110.0,365.0 114.0,365.0 118.0,365.0 122.0,365.0 126.0,365.0 130.0,365.0 134.0,365.0 138.0,365.0 142.0,365.0 146.0,365.0 150.0,365.0 154.0,365.0 158.0,365.0 162.0,365.0 166.0,365.0 170.0,365.0 174.0,365.0 178.0,365.0 182.0,365.0 186.0,365.0 190.0,365.0 194.0,365.0 198.0,365.0 202.0,365.0 206.0,365.0 210.0,365.0 214.0,365.0 218.0,365.0 222.0,365.0 226.0,365.0 230.0,365.0 234.0,365.0 238.0,365.0 242.0,365.0 246.0,365.0 250.0,365.0 254.0,365.0 258.0,365.0 262.0,365.0 266.0,365.0 270.0,365.0 274.0,365.0 278.0,365.0 282.0,364.999999999 286.0,364.999999985 290.0,365.0 294.0,364.999996138 298.0,364.999930631 302.0,364.999110494 306.0,364.989981717 310.0,364.90055958 314.0,364.12737149 318.0,358.20901241 322.0,317.9967722 326.0,74.850791 330.0,365.0 334.0,365.0 338.0,364.999999999 342.0,364.999999996 346.0,364.999999985 350.0,364.999999949 354.0,364.999999843 358.0,364.999999553 362.0,364.999998832 366.0,364.999997179 370.0,364.999993684 374.0,364.999986839 378.0,364.999974383 382.0,364.999953248 386.0,364.999919698 390.0,364.99986969 394.0,364.999799392 398.0,364.999705702 402.0,364.999586427 406.0,364.999439881 410.0,364.999263625 414.0,364.999052143 418.0,364.998793338 422.0,364.998463049 426.0,364.998015524 430.0,364.997365012 434.0,364.996346061 438.0,364.994620143 442.0,364.991438815 446.0,364.984981988 450.0,364.970298997 450.0,365 446.0,365 442.0,365 438.0,365 434.0,365 430.0,365 426.0,365 422.0,365 418.0,365 413.99999999999994,365 409.99999999999994,365 405.99999999999994,365 401.99999999999994,365 397.99999999999994,365 393.99999999999994,365 389.99999999999994,365 385.99999999999994,365 381.99999999999994,365 377.99999999999994,365 373.99999999999994,365 369.99999999999994,365 365.99999999999994,365 361.99999999999994,365 357.99999999999994,365 353.9999999999999,365 349.9999999999999,365 345.9999999999999,365 341.9999999999999,365 337.9999999999999,365 333.9999999999999,365 329.9999999999999,365 325.9999999999999,365 321.9999999999999,365 317.9999999999999,365 313.9999999999999,365 309.9999999999999,365 305.9999999999999,365 301.9999999999999,365 297.9999999999999,365 293.9999999999999,365 289.9999999999999,365 285.9999999999999,365 281.9999999999999,365 277.9999999999999,365 273.99999999999983,365 269.99999999999983,365 265.99999999999983,365 261.99999999999983,365 257.99999999999983,365 253.99999999999983,365 249.99999999999983,365 245.99999999999983,365 241.99999999999983,365 237.9999999999998,365 233.9999999999998,365 229.9999999999998,365 225.9999999999998,365 221.9999999999998,365 217.9999999999998,365 213.9999999999998,365 209.99999999999977,365 205.99999999999977,365 201.99999999999977,365 197.99999999999977,365 193.99999999999977,365 189.99999999999977,365 185.99999999999977,365 181.99999999999977,365 177.99999999999977,365 173.99999999999977,365 169.99999999999974,365 165.99999999999974,365 161.99999999999974,365 157.99999999999974,365 153.99999999999974,365 149.99999999999972,365 145.99999999999972,365 141.99999999999972,365 137.99999999999972,365 133.99999999999972,365 129.99999999999972,365 125.99999999999972,365 121.99999999999972,365 117.9999999999997,365 113.9999999999997,365 109.9999999999997,365 105.99999999999969,365 101.99999999999969,365 97.99999999999969,365 93.99999999999969,365 89.99999999999969,365 85.99999999999967,365 81.99999999999967,365 77.99999999999967,365 73.99999999999966,365 69.99999999999966,365 65.99999999999966,365 61.99999999999966,365 57.99999999999965,365 53.999999999999645,365 49.999999999999645,365" stroke="none"/><polygon fill="rgb(249,142,135)" opacity="0.5" points=" 50.0,365.0 54.0,20.1197495 58.0,364.880299249 62.0,364.999959445 66.0,365.0 70.0,365.0 74.0,365.0 78.0,365.0 82.0,365.0 86.0,365.0 90.0,365.0 94.0,365.0 98.0,365.0 102.0,365.0 106.0,365.0 110.0,365.0 114.0,365.0 118.0,365.0 122.0,365.0 126.0,365.0 130.0,365.0 134.0,365.0 138.0,365.0 142.0,365.0 146.0,365.0 150.0,365.0 154.0,365.0 158.0,365.0 162.0,365.0 166.0,365.0 170.0,365.0 174.0,365.0 178.0,365.0 182.0,365.0 186.0,365.0 190.0,365.0 194.0,365.0 198.0,365.0 202.0,365.0 206.0,365.0 210.0,365.0 214.0,365.0 218.0,365.0 222.0,365.0 226.0,365.0 230.0,365.0 234.0,365.0 238.0,365.0 242.0,365.0 246.0,365.0 250.0,365.0 254.0,365.0 258.0,365.0 262.0,365.0 266.0,365.0 270.0,365.0 274.0,365.0 278.0,365.0 282.0,365.0 286.0,365.0 290.0,365.0 294.0,365.0 298.0,365.0 302.0,365.0 306.0,365.0 310.0,365.0 314.0,365.0 318.0,365.0 322.0,365.0 326.0,365.0 330.0,365.0 334.0,365.0 338.0,365.0 342.0,365.0 346.0,365.0 350.0,365.0 354.0,365.0 358.0,365.0 362.0,365.0 366.0,365.0 370.0,365.0 374.0,365.0 378.0,365.0 382.0,365.0 386.0,365.0 390.0,365.0 394.0,365.0 398.0,365.0 402.0,365.0 406.0,365.0 410.0,365.0 414.0,365.0 418.0,365.0 422.0,365.0 426.0,365.0 430.0,365.0 434.0,365.0 438.0,365.0 442.0,365.0 446.0,365.0 450.0,365.0 450.0,365 446.0,365 442.0,365 438.0,365 434.0,365 430.0,365 426.0,365 422.0,365 418.0,365 413.99999999999994,365 409.99999999999994,365 405.99999999999994,365 401.99999999999994,365 397.99999999999994,365 393.99999999999994,365 389.99999999999994,365 385.99999999999994,365 381.99999999999994,365 377.99999999999994,365 373.99999999999994,365 369.99999999999994,365 365.99999999999994,365 361.99999999999994,365 357.99999999999994,365 353.9999999999999,365 349.9999999999999,365 345.9999999999999,365 341.9999999999999,365 337.9999999999999,365 333.9999999999999,365 329.9999999999999,365 325.9999999999999,365 321.9999999999999,365 317.9999999999999,365 313.9999999999999,365 309.9999999999999,365 305.9999999999999,365 301.9999999999999,365 297.9999999999999,365 293.9999999999999,365 289.9999999999999,365 285.9999999999999,365 281.9999999999999,365 277.9999999999999,365 273.99999999999983,365 269.99999999999983,365 265.99999999999983,365 261.99999999999983,365 257.99999999999983,365 253.99999999999983,365 249.99999999999983,365 245.99999999999983,365 241.99999999999983,365 237.9999999999998,365 233.9999999999998,365 229.9999999999998,365 225.9999999999998,365 221.9999999999998,365 217.9999999999998,365 213.9999999999998,365 209.99999999999977,365 205.99999999999977,365 201.99999999999977,365 197.99999999999977,365 193.99999999999977,365 189.99999999999977,365 185.99999999999977,365 181.99999999999977,365 177.99999999999977,365 173.99999999999977,365 169.99999999999974,365 165.99999999999974,365 161.99999999999974,365 157.99999999999974,365 153.99999999999974,365 149.99999999999972,365 145.99999999999972,365 141.99999999999972,365 137.99999999999972,365 133.99999999999972,365 129.99999999999972,365 125.99999999999972,365 121.99999999999972,365 117.9999999999997,365 113.9999999999997,365 109.9999999999997,365 105.99999999999969,365 101.99999999999969,365 97.99999999999969,365 93.99999999999969,365 89.99999999999969,365 85.99999999999967,365 81.99999999999967,365 77.99999999999967,365 73.99999999999966,365 69.99999999999966,365 65.99999999999966,365 61.99999999999966,365 57.99999999999965,365 53.999999999999645,365 49.999999999999645,365" stroke="none"/><polygon fill="rgb(55,18,48)" opacity="0.5" points=" 50.0,365.0 54.0,365.0 58.0,365.0 62.0,365.0 66.0,365.0 70.0,364.999999997 74.0,364.999999801 78.0,364.999993545 82.0,364.999887917 86.0,364.998791438 90.0,364.991059183 94.0,364.951274028 98.0,364.793829842 102.0,364.295159963 106.0,362.991768213 110.0,360.112803485 114.0,354.63844043 118.0,345.54919808 122.0,332.23455305 126.0,314.9119478 130.0,294.8526956 134.0,274.26816365 138.0,357.49500938 142.0,356.55295928 146.0,356.05768625 150.0,356.05492211 154.0,356.51073887 158.0,357.328748015 162.0,358.378397405 166.0,359.52482447 170.0,364.573540256 174.0,364.673999026 178.0,364.759610038 182.0,364.828686959 186.0,364.881808831 190.0,364.920936188 194.0,364.948644452 198.0,364.967567559 202.0,364.980062276 206.0,364.988055952 210.0,364.993020117 214.0,364.996017366 218.0,364.997779284 222.0,364.998788944 226.0,364.999353596 230.0,364.999662081 234.0,364.999826872 238.0,364.999913019 242.0,364.999957123 246.0,364.999979251 250.0,364.999990139 254.0,364.999995395 258.0,364.999997886 262.0,364.999999046 266.0,364.999999576 270.0,364.999999815 274.0,364.99999992 278.0,364.999999966 282.0,364.999999986 286.0,364.999999994 290.0,364.999999998 294.0,364.999999999 298.0,365.0 302.0,365.0 306.0,365.0 310.0,365.0 314.0,365.0 318.0,365.0 322.0,365.0 326.0,365.0 330.0,365.0 334.0,365.0 338.0,365.0 342.0,365.0 346.0,365.0 350.0,365.0 354.0,365.0 358.0,365.0 362.0,365.0 366.0,365.0 370.0,365.0 374.0,365.0 378.0,365.0 382.0,365.0 386.0,365.0 390.0,365.0 394.0,365.0 398.0,365.0 402.0,365.0 406.0,365.0 410.0,365.0 414.0,365.0 418.0,365.0 422.0,365.0 426.0,365.0 430.0,365.0 434.0,365.0 438.0,365.0 442.0,365.0 446.0,365.0 450.0,365.0 450.0,365 446.0,365 442.0,365 438.0,365 434.0,365 430.0,365 426.0,365 422.0,365 418.0,365 413.99999999999994,365 409.99999999999994,365 405.99999999999994,365 401.99999999999994,365 397.99999999999994,365 393.99999999999994,365 389.99999999999994,365 385.99999999999994,365 381.99999999999994,365 377.99999999999994,365 373.99999999999994,365 369.99999999999994,365 365.99999999999994,365 361.99999999999994,365 357.99999999999994,365 353.9999999999999,365 349.9999999999999,365 345.9999999999999,365 341.9999999999999,365 337.9999999999999,365 333.9999999999999,365 329.9999999999999,365 325.9999999999999,365 321.9999999999999,365 317.9999999999999,365 313.9999999999999,365 309.9999999999999,365 305.9999999999999,365 301.9999999999999,365 297.9999999999999,365 293.9999999999999,365 289.9999999999999,365 285.9999999999999,365 281.9999999999999,365 277.9999999999999,365 273.99999999999983,365 269.99999999999983,365 265.99999999999983,365 261.99999999999983,365 257.99999999999983,365 253.99999999999983,365 249.99999999999983,365 245.99999999999983,365 241.99999999999983,365 237.9999999999998,365 233.9999999999998,365 229.9999999999998,365 225.9999999999998,365 221.9999999999998,365 217.9999999999998,365 213.9999999999998,365 209.99999999999977,365 205.99999999999977,365 201.99999999999977,365 197.99999999999977,365 193.99999999999977,365 189.99999999999977,365 185.99999999999977,365 181.99999999999977,365 177.99999999999977,365 173.99999999999977,365 169.99999999999974,365 165.99999999999974,365 161.99999999999974,365 157.99999999999974,365 153.99999999999974,365 149.99999999999972,365 145.99999999999972,365 141.99999999999972,365 137.99999999999972,365 133.99999999999972,365 129.99999999999972,365 125.99999999999972,365 121.99999999999972,365 117.9999999999997,365 113.9999999999997,365 109.9999999999997,365 105.99999999999969,365 101.99999999999969,365 97.99999999999969,365 93.99999999999969,365 89.99999999999969,365 85.99999999999967,365 81.99999999999967,365 77.99999999999967,365 73.99999999999966,365 69.99999999999966,365 65.99999999999966,365 61.99999999999966,365 57.99999999999965,365 53.999999999999645,365 49.999999999999645,365" stroke="none"/><polygon fill="rgb(83,82,22)" opacity="0.5" points=" 50.0,365.0 54.0,365.0 58.0,365.0 62.0,365.0 66.0,365.0 70.0,365.0 74.0,365.0 78.0,365.0 82.0,365.0 86.0,365.0 90.0,365.0 94.0,365.0 98.0,365.0 102.0,365.0 106.0,365.0 110.0,365.0 114.0,365.0 118.0,365.0 122.0,364.999999993 126.0,364.999999345 130.0,364.999965316 134.0,364.998867307 138.0,364.998139203 142.0,364.973846188 146.0,364.746137788 150.0,363.248850208 154.0,356.196105425 158.0,332.01237995 162.0,271.0248704 166.0,157.8010178 170.0,364.999999993 174.0,364.999999991 178.0,364.99999999 182.0,364.999999991 186.0,364.999999993 190.0,364.999999996 194.0,364.999999998 198.0,364.999999999 202.0,365.0 206.0,365.0 210.0,365.0 214.0,365.0 218.0,365.0 222.0,365.0 226.0,365.0 230.0,365.0 234.0,365.0 238.0,365.0 242.0,365.0 246.0,365.0 250.0,365.0 254.0,365.0 258.0,365.0 262.0,365.0 266.0,365.0 270.0,365.0 274.0,365.0 278.0,365.0 282.0,365.0 286.0,365.0 290.0,365.0 294.0,365.0 298.0,365.0 302.0,365.0 306.0,365.0 310.0,365.0 314.0,365.0 318.0,365.0 322.0,365.0 326.0,365.0 330.0,365.0 334.0,365.0 338.0,365.0 342.0,365.0 346.0,365.0 350.0,365.0 354.0,365.0 358.0,365.0 362.0,365.0 366.0,365.0 370.0,365.0 374.0,365.0 378.0,365.0 382.0,365.0 386.0,365.0 390.0,365.0 394.0,365.0 398.0,365.0 402.0,365.0 406.0,365.0 410.0,365.0 414.0,365.0 418.0,365.0 422.0,365.0 426.0,365.0 430.0,365.0 434.0,365.0 438.0,365.0 442.0,365.0 446.0,365.0 450.0,365.0 450.0,365 446.0,365 442.0,365 438.0,365 434.0,365 430.0,365 426.0,365 422.0,365 418.0,365 413.99999999999994,365 409.99999999999994,365 405.99999999999994,365 401.99999999999994,365 397.99999999999994,365 393.99999999999994,365 389.99999999999994,365 385.99999999999994,365 381.99999999999994,365 377.99999999999994,365 373.99999999999994,365 369.99999999999994,365 365.99999999999994,365 361.99999999999994,365 357.99999999999994,365 353.9999999999999,365 349.9999999999999,365 345.9999999999999,365 341.9999999999999,365 337.9999999999999,365 333.9999999999999,365 329.9999999999999,365 325.9999999999999,365 321.9999999999999,365 317.9999999999999,365 313.9999999999999,365 309.9999999999999,365 305.9999999999999,365 301.9999999999999,365 297.9999999999999,365 293.9999999999999,365 289.9999999999999,365 285.9999999999999,365 281.9999999999999,365 277.9999999999999,365 273.99999999999983,365 269.99999999999983,365 265.99999999999983,365 261.99999999999983,365 257.99999999999983,365 253.99999999999983,365 249.99999999999983,365 245.99999999999983,365 241.99999999999983,365 237.9999999999998,365 233.9999999999998,365 229.9999999999998,365 225.9999999999998,365 221.9999999999998,365 217.9999999999998,365 213.9999999999998,365 209.99999999999977,365 205.99999999999977,365 201.99999999999977,365 197.99999999999977,365 193.99999999999977,365 189.99999999999977,365 185.99999999999977,365 181.99999999999977,365 177.99999999999977,365 173.99999999999977,365 169.99999999999974,365 165.99999999999974,365 161.99999999999974,365 157.99999999999974,365 153.99999999999974,365 149.99999999999972,365 145.99999999999972,365 141.99999999999972,365 137.99999999999972,365 133.99999999999972,365 129.99999999999972,365 125.99999999999972,365 121.99999999999972,365 117.9999999999997,365 113.9999999999997,365 109.9999999999997,365 105.99999999999969,365 101.99999999999969,365 97.99999999999969,365 93.99999999999969,365 89.99999999999969,365 85.99999999999967,365 81.99999999999967,365 77.99999999999967,365 73.99999999999966,365 69.99999999999966,365 65.99999999999966,365 61.99999999999966,365 57.99999999999965,365 53.999999999999645,365 49.999999999999645,365" stroke="none"/></svg>