<svg baseProfile="full" version="1.1" xmlns="http://www.w3.org/2000/svg" xmlns:ev="http://www.w3.org/2001/xml-events" xmlns:xlink="http://www.w3.org/1999/xlink"><g fill="none" font-family="sans-serif" font-size="10" text-anchor="middle" transform="translate(0 365)"><path class="domain" d="M50.5,6V0.5H450.5V6" stroke="currentColor"/><g class="tick" opacity="1" transform="translate(50.0)"><line stroke="currentColor" y2="6"/><text dy="0.71em" fill="currentColor" y="9">0.0</text></g><g class="tick" opacity="1" transform="translate(90.0)"><line stroke="currentColor" y2="6"/><text dy="0.71em" fill="currentColor" y="9">0.1</text></g><g class="tick" opacity="1" transform="translate(130.0)"><line stroke="currentColor" y2="6"/><text dy="0.71em" fill="currentColor" y="9">0.2</text></g><g class="tick" opacity="1" transform="translate(170.0)"><line stroke="currentColor" y2="6"/><text dy="0.71em" fill="currentColor" y="9">0.3</text></g><g class="tick" opacity="1" transform="translate(210.0)"><line stroke="currentColor" y2="6"/><text dy="0.71em" fill="currentColor" y="9">0.4</text></g><g class="tick" opacity="1" transform="translate(250.0)"><line stroke="currentColor" y2="6"/><text dy="0.71em" fill="currentColor" y="9">0.5</text></g><g class="tick" opacity="1" transform="translate(290.0)"><line stroke="currentColor" y2="6"/><text dy="0.71em" fill="currentColor" y="9">0.6</text></g><g class="tick" opacity="1" transform="translate(330.0)"><line stroke="currentColor" y2="6"/><text dy="0.71em" fill="currentColor" y="9">0.7</text></g><g class="tick" opacity="1" transform="translate(370.0)"><line stroke="currentColor" y2="6"/><text dy="0.71em" fill="currentColor" y="9">0.8</text></g><g class="tick" opacity="1" transform="translate(410.0)"><line stroke="currentColor" y2="6"/><text dy="0.71em" fill="currentColor" y="9">0.9</text></g><g class="tick" opacity="1" transform="translate(450.0)"><line stroke="currentColor" y2="6"/><text dy="0.71em" fill="currentColor" y="9">1.0</text></g></g><g fill="none" font-family="sans-serif" font-size="10" text-anchor="end" transform="translate(50 0)"><path class="domain" d="M-6,365.5H0.5V20.5H-6" stroke="currentColor"/><g class="tick" opacity="1" transform="translate(0, 365.0)"><line stroke="currentColor" x2="-6"/><text dy="0.32em" fill="currentColor" x="-9">0.0</text></g><g class="tick" opacity="1" transform="translate(0, 347.75)"><line stroke="currentColor" x2="-6"/><text dy="0.32em" fill="currentColor" x="-9">0.05</text></g><g class="tick" opacity="1" transform="translate(0, 330.5)"><line stroke="currentColor" x2="-6"/><text dy="0.32em" fill="currentColor" x="-9">0.1</text></g><g class="tick" opacity="1" transform="translate(0, 313.25)"><line stroke="currentColor" x2="-6"/><text dy="0.32em" fill="currentColor" x="-9">0.15</text></g><g class="tick" opacity="1" transform="translate(0, 296.0)"><line stroke="currentColor" x2="-6"/><text dy="0.32em" fill="currentColor" x="-9">0.2</text></g><g class="tick" opacity="1" transform="translate(0, 278.75)"><line stroke="currentColor" x2="-6"/><text dy="0.32em" fill="currentColor" x="-9">0.25</text></g><g class="tick" opacity="1" transform="translate(0, 261.5)"><line stroke="currentColor" x2="-6"/><text dy="0.32em" fill="currentColor" x="-9">0.3</text></g><g class="tick" opacity="1" transform="translate(0, 244.25)"><line stroke="currentColor" x2="-6"/><text dy="0.32em" fill="currentColor" x="-9">0.35</text></g><g class="tick" opacity="1" transform="translate(0, 227.0)"><line stroke="currentColor" x2="-6"/><text dy="0.32em" fill="currentColor" x="-9">0.4</text></g><g class="tick" opacity="1" transform="translate(0, 209.75)"><line stroke="currentColor" x2="-6"/><text dy="0.32em" fill="currentColor" x="-9">0.45</text></g><g class="tick" opacity="1" transform="translate(0, 192.5)"><line stroke="currentColor" x2="-6"/><text dy="0.32em" fill="currentColor" x="-9">0.5</text></g><g class="tick" opacity="1" transform="translate(0, 175.25)"><line stroke="currentColor" x2="-6"/><text dy="0.32em" fill="currentColor" x="-9">0.55</text></g><g class="tick" opacity="1" transform="translate(0, 158.0)"><line stroke="currentColor" x2="-6"/><text dy="0.32em" fill="currentColor" x="-9">0.6</text></g><g class="tick" opacity="1" transform="translate(0, 140.75)"><line stroke="currentColor" x2="-6"/><text dy="0.32em" fill="currentColor" x="-9">0.65</text></g><g class="tick" opacity="1" transform="translate(0, 123.5)"><line stroke="currentColor" x2="-6"/><text dy="0.32em" fill="currentColor" x="-9">0.7</text></g><g class="tick" opacity="1" transform="translate(0, 106.25)"><line stroke="currentColor" x2="-6"/><text dy="0.32em" fill="currentColor" x="-9">0.75</text></g><g class="tick" opacity="1" transform="translate(0, 89.0)"><line stroke="currentColor" x2="-6"/><text dy="0.32em" fill="currentColor" x="-9">0.8</text></g><g class="tick" opacity="1" transform="translate(0, 71.75)"><line stroke="currentColor" x2="-6"/><text dy="0.32em" fill="currentColor" x="-9">0.85</text></g><g class="tick" opacity="1" transform="translate(0, 54.5)"><line stroke="currentColor" x2="-6"/><text dy="0.32em" fill="currentColor" x="-9">0.9</text></g><g class="tick" opacity="1" transform="translate(0, 37.25)"><line stroke="currentColor" x2="-6"/><text dy="0.32em" fill="currentColor" x="-9">0.95</text></g><g class="tick" opacity="1" transform="translate(0, 20.0)"><line stroke="currentColor" x2="-6"/><text dy="0.32em" fill="currentColor" x="-9">1.0</text></g></g><text font-family="sans-serif" font-size="10px" text-anchor="middle" x="250" y="395">CCF</text><text font-family="sans-serif" font-size="10px" text-anchor="middle" transform="rotate(-90 10 192.5)" x="10" y="192.5">Probability density</text><polygon fill="rgb(39,140,24)" opacity="0.5" points=" 50.0,365.0 54.0,365.0 58.0,365.0 62.0,365.0 66.0,365.0 70.0,365.0 74.0,365.0 78.0,365.0 82.0,365.0 86.0,365.0 90.0,365.0 94.0,365.0 98.0,365.0 102.0,365.0 106.0,365.0 110.0,365.0 114.0,365.0 118.0,365.0 122.0,365.0 126.0,365.0 130.0,365.0 134.0,365.0 138.0,365.0 142.0,365.0 146.0,365.0 150.0,365.0 154.0,365.0 158.0,365.0 162.0,365.0 166.0,365.0 170.0,365.0 174.0,365.0 178.0,365.0 182.0,365.0 186.0,365.0 190.0,365.0 194.0,365.0 198.0,365.0 202.0,365.0 206.0,365.0 210.0,365.0 214.0,365.0 218.0,365.0 222.0,365.0 226.0,365.0 230.0,365.0 234.0,365.0 238.0,365.0 242.0,365.0 246.0,365.0 250.0,365.0 254.0,365.0 258.0,365.0 262.0,365.0 266.0,365.0 270.0,365.0 274.0,365.0 278.0,365.0 282.0,365.0 286.0,365.0 290.0,365.0 294.0,365.0 298.0,365.0 302.0,365.0 306.0,365.0 310.0,365.0 314.0,365.0 318.0,365.0 322.0,365.0 326.0,365.0 330.0,365.0 334.0,365.0 338.0,365.0 342.0,365.0 346.0,365.0 350.0,365.0 354.0,365.0 358.0,365.0 362.0,365.0 366.0,365.0 370.0,365.0 374.0,365.0 378.0,365.0 382.0,365.0 386.0,365.0 390.0,365.0 394.0,365.0 398.0,365.0 402.0,365.0 406.0,365.0 410.0,365.0 414.0,365.0 418.0,365.0 422.0,365.0 426.0,365.0 430.0,365.0 434.0,365.0 438.0,365.0 442.0,364.999999998 446.0,364.99919707 450.0,20.0 450.0,365 446.0,365 442.0,365 438.0,365 434.0,365 430.0,365 426.0,365 422.0,365 418.0,365 413.99999999999994,365 409.99999999999994,365 405.99999999999994,365 401.99999999999994,365 397.99999999999994,365 393.99999999999994,365 389.99999999999994,365 385.99999999999994,365 381.99999999999994,365 377.99999999999994,365 373.99999999999994,365 369.99999999999994,365 365.99999999999994,365 361.99999999999994,365 357.99999999999994,365 353.9999999999999,365 349.9999999999999,365 345.9999999999999,365 341.9999999999999,365 337.9999999999999,365 333.9999999999999,365 329.9999999999999,365 325.9999999999999,365 321.9999999999999,365 317.9999999999999,365 313.9999999999999,365 309.9999999999999,365 305.9999999999999,365 301.9999999999999,365 297.9999999999999,365 293.9999999999999,365 289.9999999999999,365 285.9999999999999,365 281.9999999999999,365 277.9999999999999,365 273.99999999999983,365 269.99999999999983,365 265.99999999999983,365 261.99999999999983,365 257.99999999999983,365 253.99999999999983,365 249.99999999999983,365 245.99999999999983,365 241.99999999999983,365 237.9999999999998,365 233.9999999999998,365 229.9999999999998,365 225.9999999999998,365 221.9999999999998,365 217.9999999999998,365 213.9999999999998,365 209.99999999999977,365 205.99999999999977,365 201.99999999999977,365 197.99999999999977,365 193.99999999999977,365 189.99999999999977,365 185.99999999999977,365 181.99999999999977,365 177.99999999999977,365 173.99999999999977,365 169.99999999999974,365 165.99999999999974,365 161.99999999999974,365 157.99999999999974,365 153.99999999999974,365 149.99999999999972,365 145.99999999999972,365 141.99999999999972,365 137.99999999999972,365 133.99999999999972,365 129.99999999999972,365 125.99999999999972,365 121.99999999999972,365 117.9999999999997,365 113.9999999999997,365 109.9999999999997,365 105.99999999999969,365 101.99999999999969,365 97.99999999999969,365 93.99999999999969,365 89.99999999999969,365 85.99999999999967,365 81.99999999999967,365 77.99999999999967,365 73.99999999999966,365 69.99999999999966,365 65.99999999999966,365 61.99999999999966,365 57.99999999999965,365 53.999999999999645,365 49.999999999999645,365" stroke="none"/><polygon fill="rgb(103,200,243)" opacity="0.5" points=" 50.0,365.0 54.0,365.0 58.0,365.0 62.0,365.0 66.0,365.0 70.0,365.0 74.0,365.0 78.0,365.0 82.0,365.0 86.0,364.999999998 90.0,364.999999991 94.0,364.999999955 98.0,364.999999808 102.0,364.99999929 106.0,364.999997659 110.0,364.999992993 114.0,364.99998074 118.0,364.999950874 122.0,364.999882734 126.0,364.999736165 130.0,364.999437128 134.0,364.998855436 138.0,364.997771855 142.0,364.995831438 146.0,364.992479961 150.0,364.986880404 154.0,364.977807314 158.0,364.963517416 162.0,364.941596823 166.0,364.908787151 170.0,364.86079419 174.0,364.792085874 178.0,364.695688965 182.0,364.562994882 186.0,364.383588224 190.0,364.145112252 194.0,363.833180641 198.0,363.431365178 202.0,362.921242313 206.0,362.28255575 210.0,361.49343242 214.0,362.720462353 218.0,362.128700585 222.0,361.423821425 226.0,360.593608767 230.0,359.62633658 234.0,358.51114754 238.0,357.238444265 242.0,355.800215855 246.0,354.190478975 250.0,359.308832735 254.0,358.24735709 258.0,357.25656539 262.0,356.18706263 266.0,355.042582055 270.0,353.8282721 274.0,352.55080541 278.0,351.2182091 282.0,362.312264873 286.0,362.06164397 290.0,361.806819725 294.0,361.54998206 298.0,361.29343592 302.0,361.03956008 306.0,360.79075436 310.0,360.549416165 314.0,360.317885975 318.0,360.09839663 322.0,359.893077125 326.0,359.70387257 330.0,359.53253384 334.0,359.38059515 338.0,359.249342315 342.0,359.139811715 346.0,359.052770285 350.0,358.98869999 354.0,358.94783543 358.0,358.9301252 362.0,358.93526363 366.0,358.962720455 370.0,359.01170735 374.0,359.081270045 378.0,359.170246925 382.0,359.277320435 386.0,359.40106124 390.0,359.5399127 394.0,359.692242792 398.0,359.85636947 402.0,360.03057653 406.0,360.213129485 410.0,360.402311615 414.0,360.596436215 418.0,360.793848148 422.0,360.992959723 426.0,361.192237415 430.0,361.390234985 434.0,361.58556191 438.0,361.776931685 442.0,361.963109555 446.0,362.14294805 450.0,362.31535421 450.0,365 446.0,365 442.0,365 438.0,365 434.0,365 430.0,365 426.0,365 422.0,365 418.0,365 413.99999999999994,365 409.99999999999994,365 405.99999999999994,365 401.99999999999994,365 397.99999999999994,365 393.99999999999994,365 389.99999999999994,365 385.99999999999994,365 381.99999999999994,365 377.99999999999994,365 373.99999999999994,365 369.99999999999994,365 365.99999999999994,365 361.99999999999994,365 357.99999999999994,365 353.9999999999999,365 349.9999999999999,365 345.9999999999999,365 341.9999999999999,365 337.9999999999999,365 333.9999999999999,365 329.9999999999999,365 325.9999999999999,365 321.9999999999999,365 317.9999999999999,365 313.9999999999999,365 309.9999999999999,365 305.9999999999999,365 301.9999999999999,365 297.9999999999999,365 293.9999999999999,365 289.9999999999999,365 285.9999999999999,365 281.9999999999999,365 277.9999999999999,365 273.99999999999983,365 269.99999999999983,365 265.99999999999983,365 261.99999999999983,365 257.99999999999983,365 253.99999999999983,365 249.99999999999983,365 245.99999999999983,365 241.99999999999983,365 237.9999999999998,365 233.9999999999998,365 229.9999999999998,365 225.9999999999998,365 221.9999999999998,365 217.9999999999998,365 213.9999999999998,365 209.99999999999977,365 205.99999999999977,365 201.99999999999977,365 197.99999999999977,365 193.99999999999977,365 189.99999999999977,365 185.99999999999977,365 181.99999999999977,365 177.99999999999977,365 173.99999999999977,365 169.99999999999974,365 165.99999999999974,365 161.99999999999974,365 157.99999999999974,365 153.99999999999974,365 149.99999999999972,365 145.99999999999972,365 141.99999999999972,365 137.99999999999972,365 133.99999999999972,365 129.99999999999972,365 125.99999999999972,365 121.99999999999972,365 117.9999999999997,365 113.9999999999997,365 109.9999999999997,365 105.99999999999969,365 101.99999999999969,365 97.99999999999969,365 93.99999999999969,365 89.99999999999969,365 85.99999999999967,365 81.99999999999967,365 77.99999999999967,365 73.99999999999966,365 69.99999999999966,365 65.99999999999966,365 61.99999999999966,365 57.99999999999965,365 53.999999999999645,365 49.999999999999645,365" stroke="none"/><polygon fill="rgb(248,139,16)" opacity="0.5" points=" 50.0,365.0 54.0,365.0 58.0,365.0 62.0,365.0 66.0,365.0 70.0,365.0 74.0,365.0 78.0,365.0 82.0,365.0 86.0,365.0 90.0,365.0 94.0,365.0 98.0,365.0 102.0,365.0 106.0,365.0 110.0,365.0 114.0,365.0 118.0,365.0 122.0,365.0 126.0,365.0 130.0,365.0 134.0,365.0 138.0,365.0 142.0,365.0 146.0,365.0 150.0,365.0 154.0,365.0 158.0,365.0 162.0,365.0 166.0,365.0 170.0,365.0 174.0,365.0 178.0,365.0 182.0,365.0 186.0,365.0 190.0,365.0 194.0,365.0 198.0,364.999999995 202.0,364.999999896 206.0,364.999998227 210.0,364.999975021 214.0,364.999795674 218.0,364.997971445 222.0,364.983066739 226.0,364.879476796 230.0,364.263635381 234.0,361.113985205 238.0,347.18169116 242.0,293.6262965 246.0,113.954264 250.0,365.0 254.0,365.0 258.0,365.0 262.0,365.0 266.0,365.0 270.0,365.0 274.0,365.0 278.0,365.0 282.0,365.0 286.0,365.0 290.0,365.0 294.0,365.0 298.0,365.0 302.0,365.0 306.0,365.0 310.0,365.0 314.0,365.0 318.0,365.0 322.0,365.0 326.0,365.0 330.0,365.0 334.0,365.0 338.0,365.0 342.0,365.0 346.0,365.0 350.0,365.0 354.0,365.0 358.0,365.0 362.0,365.0 366.0,365.0 370.0,365.0 374.0,365.0 378.0,365.0 382.0,365.0 386.0,365.0 390.0,365.0 394.0,365.0 398.0,365.0 402.0,365.0 406.0,365.0 410.0,365.0 414.0,365.0 418.0,365.0 422.0,365.0 426.0,365.0 430.0,365.0 434.0,365.0 438.0,365.0 442.0,365.0 446.0,365.0 450.0,365.0 450.0,365 446.0,365 442.0,365 438.0,365 434.0,365 430.0,365 426.0,365 422.0,365 418.0,365 413.99999999999994,365 409.99999999999994,365 405.99999999999994,365 401.99999999999994,365 397.99999999999994,365 393.99999999999994,365 389.99999999999994,365 385.99999999999994,365 381.99999999999994,365 377.99999999999994,365 373.99999999999994,365 369.99999999999994,365 365.99999999999994,365 361.99999999999994,365 357.99999999999994,365 353.9999999999999,365 349.9999999999999,365 345.9999999999999,365 341.9999999999999,365 337.9999999999999,365 333.9999999999999,365 329.9999999999999,365 325.9999999999999,365 321.9999999999999,365 317.9999999999999,365 313.9999999999999,365 309.9999999999999,365 305.9999999999999,365 301.9999999999999,365 297.9999999999999,365 293.9999999999999,365 289.9999999999999,365 285.9999999999999,365 281.9999999999999,365 277.9999999999999,365 273.99999999999983,365 269.99999999999983,365 265.99999999999983,365 261.99999999999983,365 257.99999999999983,365 253.99999999999983,365 249.99999999999983,365 245.99999999999983,365 241.99999999999983,365 237.9999999999998,365 233.9999999999998,365 229.9999999999998,365 225.9999999999998,365 221.9999999999998,365 217.9999999999998,365 213.9999999999998,365 209.99999999999977,365 205.99999999999977,365 201.99999999999977,365 197.99999999999977,365 193.99999999999977,365 189.99999999999977,365 185.99999999999977,365 181.99999999999977,365 177.99999999999977,365 173.99999999999977,365 169.99999999999974,365 165.99999999999974,365 161.99999999999974,365 157.99999999999974,365 153.99999999999974,365 149.99999999999972,365 145.99999999999972,365 141.99999999999972,365 137.99999999999972,365 133.99999999999972,365 129.99999999999972,365 125.99999999999972,365 121.99999999999972,365 117.9999999999997,365 113.9999999999997,365 109.9999999999997,365 105.99999999999969,365 101.99999999999969,365 97.99999999999969,365 93.99999999999969,365 89.99999999999969,365 85.99999999999967,365 81.99999999999967,365 77.99999999999967,365 73.99999999999966,365 69.99999999999966,365 65.99999999999966,365 61.99999999999966,365 57.99999999999965,365 53.999999999999645,365 49.999999999999645,365" stroke="none"/><polygon fill="rgb(16,49,41)" opacity="0.5" points=" 50.0,365.0 54.0,365.0 58.0,365.0 62.0,365.0 66.0,365.0 70.0,365.0 74.0,365.0 78.0,365.0 82.0,365.0 86.0,365.0 90.0,365.0 94.0,365.0 98.0,365.0 102.0,365.0 106.0,365.0 110.0,365.0 114.0,365.0 118.0,365.0 122.0,365.0 126.0,365.0 130.0,365.0 134.0,365.0 138.0,365.0 142.0,365.0 146.0,365.0 150.0,365.0 154.0,365.0 158.0,365.0 162.0,365.0 166.0,365.0 170.0,365.0 174.0,365.0 178.0,365.0 182.0,365.0 186.0,365.0 190.0,365.0 194.0,365.0 198.0,365.0 202.0,365.0 206.0,365.0 210.0,365.0 214.0,365.0 218.0,365.0 222.0,364.999999978 226.0,364.999997048 230.0,364.999742711 234.0,364.984916824 238.0,364.395875226 242.0,348.222123185 246.0,37.3972115 250.0,365.0 254.0,365.0 258.0,365.0 262.0,365.0 266.0,365.0 270.0,365.0 274.0,365.0 278.0,365.0 282.0,365.0 286.0,365.0 290.0,365.0 294.0,365.0 298.0,365.0 302.0,365.0 306.0,365.0 310.0,365.0 314.0,365.0 318.0,365.0 322.0,365.0 326.0,365.0 330.0,365.0 334.0,365.0 338.0,365.0 342.0,365.0 346.0,365.0 350.0,365.0 354.0,365.0 358.0,365.0 362.0,365.0 366.0,365.0 370.0,365.0 374.0,365.0 378.0,365.0 382.0,365.0 386.0,365.0 390.0,365.0 394.0,365.0 398.0,365.0 402.0,365.0 406.0,365.0 410.0,365.0 414.0,365.0 418.0,365.0 422.0,365.0 426.0,365.0 430.0,365.0 434.0,365.0 438.0,365.0 442.0,365.0 446.0,365.0 450.0,365.0 450.0,365 446.0,365 442.0,365 438.0,365 434.0,365 430.0,365 426.0,365 422.0,365 418.0,365 413.99999999999994,365 409.99999999999994,365 405.99999999999994,365 401.99999999999994,365 397.99999999999994,365 393.99999999999994,365 389.99999999999994,365 385.99999999999994,365 381.99999999999994,365 377.99999999999994,365 373.99999999999994,365 369.99999999999994,365 365.99999999999994,365 361.99999999999994,365 357.99999999999994,365 353.9999999999999,365 349.9999999999999,365 345.9999999999999,365 341.9999999999999,365 337.9999999999999,365 333.9999999999999,365 329.9999999999999,365 325.9999999999999,365 321.9999999999999,365 317.9999999999999,365 313.9999999999999,365 309.9999999999999,365 305.9999999999999,365 301.9999999999999,365 297.9999999999999,365 293.9999999999999,365 289.9999999999999,365 285.9999999999999,365 281.9999999999999,365 277.9999999999999,365 273.99999999999983,365 269.99999999999983,365 265.99999999999983,365 261.99999999999983,365 257.99999999999983,365 253.99999999999983,365 249.99999999999983,365 245.99999999999983,365 241.99999999999983,365 237.9999999999998,365 233.9999999999998,365 229.9999999999998,365 225.9999999999998,365 221.9999999999998,365 217.9999999999998,365 213.9999999999998,365 209.99999999999977,365 205.99999999999977,365 201.99999999999977,365 197.99999999999977,365 193.99999999999977,365 189.99999999999977,365 185.99999999999977,365 181.99999999999977,365 177.99999999999977,365 173.99999999999977,365 169.99999999999974,365 165.99999999999974,365 161.99999999999974,365 157.99999999999974,365 153.99999999999974,365 149.99999999999972,365 145.99999999999972,365 141.99999999999972,365 137.99999999999972,365 133.99999999999972,365 129.99999999999972,365 125.99999999999972,365 121.99999999999972,365 117.9999999999997,365 113.9999999999997,365 109.9999999999997,365 105.99999999999969,365 101.99999999999969,365 97.99999999999969,365 93.99999999999969,365 89.99999999999969,365 85.99999999999967,365 81.99999999999967,365 77.99999999999967,365 73.99999999999966,365 69.99999999999966,365 65.99999999999966,365 61.99999999999966,365 57.99999999999965,365 53.999999999999645,365 49.999999999999645,365" stroke="none"/><polygon fill="rgb(93,119,254)" opacity="0.5" points=" 50.0,365.0 54.0,20.377499 58.0,364.622523356 62.0,364.999592095 66.0,364.999999565 70.0,365.0 74.0,365.0 78.0,365.0 82.0,365.0 86.0,365.0 90.0,365.0 94.0,365.0 98.0,365.0 102.0,365.0 106.0,365.0 110.0,365.0 114.0,365.0 118.0,365.0 122.0,365.0 126.0,365.0 130.0,365.0 134.0,365.0 138.0,365.0 142.0,365.0 146.0,365.0 150.0,365.0 154.0,365.0 158.0,365.0 162.0,365.0 166.0,365.0 170.0,365.0 174.0,365.0 178.0,365.0 182.0,365.0 186.0,365.0 190.0,365.0 194.0,365.0 198.0,365.0 202.0,365.0 206.0,365.0 210.0,365.0 214.0,365.0 218.0,365.0 222.0,365.0 226.0,365.0 230.0,365.0 234.0,365.0 238.0,365.0 242.0,365.0 246.0,365.0 250.0,365.0 254.0,365.0 258.0,365.0 262.0,365.0 266.0,365.0 270.0,365.0 274.0,365.0 278.0,365.0 282.0,365.0 286.0,365.0 290.0,365.0 294.0,365.0 298.0,365.0 302.0,365.0 306.0,365.0 310.0,365.0 314.0,365.0 318.0,365.0 322.0,365.0 326.0,365.0 330.0,365.0 334.0,365.0 338.0,365.0 342.0,365.0 346.0,365.0 350.0,365.0 354.0,365.0 358.0,365.0 362.0,365.0 366.0,365.0 370.0,365.0 374.0,365.0 378.0,365.0 382.0,365.0 386.0,365.0 390.0,365.0 394.0,365.0 398.0,365.0 402.0,365.0 406.0,365.0 410.0,365.0 414.0,365.0 418.0,365.0 422.0,365.0 426.0,365.0 430.0,365.0 434.0,365.0 438.0,365.0 442.0,365.0 446.0,365.0 450.0,365.0 450.0,365 446.0,365 442.0,365 438.0,365 434.0,365 430.0,365 426.0,365 422.0,365 418.0,365 413.99999999999994,365 409.99999999999994,365 405.99999999999994,365 401.99999999999994,365 397.99999999999994,365 393.99999999999994,365 389.99999999999994,365 385.99999999999994,365 381.99999999999994,365 377.99999999999994,365 373.99999999999994,365 369.99999999999994,365 365.99999999999994,365 361.99999999999994,365 357.99999999999994,365 353.9999999999999,365 349.9999999999999,365 345.9999999999999,365 341.9999999999999,365 337.9999999999999,365 333.9999999999999,365 329.9999999999999,365 325.9999999999999,365 321.9999999999999,365 317.9999999999999,365 313.9999999999999,365 309.9999999999999,365 305.9999999999999,365 301.9999999999999,365 297.9999999999999,365 293.9999999999999,365 289.9999999999999,365 285.9999999999999,365 281.9999999999999,365 277.9999999999999,365 273.99999999999983,365 269.99999999999983,365 265.99999999999983,365 261.99999999999983,365 257.99999999999983,365 253.99999999999983,365 249.99999999999983,365 245.99999999999983,365 241.99999999999983,365 237.9999999999998,365 233.9999999999998,365 229.9999999999998,365 225.9999999999998,365 221.9999999999998,365 217.9999999999998,365 213.9999999999998,365 209.99999999999977,365 205.99999999999977,365 201.99999999999977,365 197.99999999999977,365 193.99999999999977,365 189.99999999999977,365 185.99999999999977,365 181.99999999999977,365 177.99999999999977,365 173.99999999999977,365 169.99999999999974,365 165.99999999999974,365 161.99999999999974,365 157.99999999999974,365 153.99999999999974,365 149.99999999999972,365 145.99999999999972,365 141.99999999999972,365 137.99999999999972,365 133.99999999999972,365 129.99999999999972,365 125.99999999999972,365 121.99999999999972,365 117.9999999999997,365 113.9999999999997,365 109.9999999999997,365 105.99999999999969,365 101.99999999999969,365 97.99999999999969,365 93.99999999999969,365 89.99999999999969,365 85.99999999999967,365 81.99999999999967,365 77.99999999999967,365 73.99999999999966,365 69.99999999999966,365 65.99999999999966,365 61.99999999999966,365 57.99999999999965,365 53.999999999999645,365 49.999999999999645,365" stroke="none"/><polygon fill="rgb(152,22,26)" opacity="0.5" points=" 50.0,365.0 54.0,365.0 58.0,365.0 62.0,365.0 66.0,365.0 70.0,365.0 74.0,365.0 78.0,365.0 82.0,364.999999998 86.0,364.999997658 90.0,364.999481906 94.0,364.967195016 98.0,364.26268532 102.0,358.07295821 106.0,334.10660585 110.0,292.66475735 114.0,268.55967635 118.0,286.75651505 122.0,324.18577895 126.0,350.66684735 130.0,361.4766668 134.0,364.373221871 138.0,364.916974615 142.0,364.99160514 146.0,364.999337923 150.0,364.999958494 154.0,364.999997897 158.0,364.999999913 162.0,364.999999997 166.0,365.0 170.0,365.0 174.0,365.0 178.0,365.0 182.0,365.0 186.0,365.0 190.0,365.0 194.0,365.0 198.0,365.0 202.0,365.0 206.0,365.0 210.0,365.0 214.0,365.0 218.0,365.0 222.0,365.0 226.0,365.0 230.0,365.0 234.0,365.0 238.0,365.0 242.0,365.0 246.0,365.0 250.0,365.0 254.0,365.0 258.0,365.0 262.0,365.0 266.0,365.0 270.0,365.0 274.0,365.0 278.0,365.0 282.0,365.0 286.0,365.0 290.0,365.0 294.0,365.0 298.0,365.0 302.0,365.0 306.0,365.0 310.0,365.0 314.0,365.0 318.0,365.0 322.0,365.0 326.0,365.0 330.0,365.0 334.0,365.0 338.0,365.0 342.0,365.0 346.0,365.0 350.0,365.0 354.0,365.0 358.0,365.0 362.0,365.0 366.0,365.0 370.0,365.0 374.0,365.0 378.0,365.0 382.0,365.0 386.0,365.0 390.0,365.0 394.0,365.0 398.0,365.0 402.0,365.0 406.0,365.0 410.0,365.0 414.0,365.0 418.0,365.0 422.0,365.0 426.0,365.0 430.0,365.0 434.0,365.0 438.0,365.0 442.0,365.0 446.0,365.0 450.0,365.0 450.0,365 446.0,365 442.0,365 438.0,365 434.0,365 430.0,365 426.0,365 422.0,365 418.0,365 413.99999999999994,365 409.99999999999994,365 405.99999999999994,365 401.99999999999994,365 397.99999999999994,365 393.99999999999994,365 389.99999999999994,365 385.99999999999994,365 381.99999999999994,365 377.99999999999994,365 373.99999999999994,365 369.99999999999994,365 365.99999999999994,365 361.99999999999994,365 357.99999999999994,365 353.9999999999999,365 349.9999999999999,365 345.9999999999999,365 341.9999999999999,365 337.9999999999999,365 333.9999999999999,365 329.9999999999999,365 325.9999999999999,365 321.9999999999999,365 317.9999999999999,365 313.9999999999999,365 309.9999999999999,365 305.9999999999999,365 301.9999999999999,365 297.9999999999999,365 293.9999999999999,365 289.9999999999999,365 285.9999999999999,365 281.9999999999999,365 277.9999999999999,365 273.99999999999983,365 269.99999999999983,365 265.99999999999983,365 261.99999999999983,365 257.99999999999983,365 253.99999999999983,365 249.99999999999983,365 245.99999999999983,365 241.99999999999983,365 237.9999999999998,365 233.9999999999998,365 229.9999999999998,365 225.9999999999998,365 221.9999999999998,365 217.9999999999998,365 213.9999999999998,365 209.99999999999977,365 205.99999999999977,365 201.99999999999977,365 197.99999999999977,365 193.99999999999977,365 189.99999999999977,365 185.99999999999977,365 181.99999999999977,365 177.99999999999977,365 173.99999999999977,365 169.99999999999974,365 165.99999999999974,365 161.99999999999974,365 157.99999999999974,365 153.99999999999974,365 149.99999999999972,365 145.99999999999972,365 141.99999999999972,365 137.99999999999972,365 133.99999999999972,365 129.99999999999972,365 125.99999999999972,365 121.99999999999972,365 117.9999999999997,365 113.9999999999997,365 109.9999999999997,365 105.99999999999969,365 101.99999999999969,365 97.99999999999969,365 93.99999999999969,365 89.99999999999969,365 85.99999999999967,365 81.99999999999967,365 77.99999999999967,365 73.99999999999966,365 69.99999999999966,365 65.99999999999966,365 61.99999999999966,365 57.99999999999965,365 53.999999999999645,365 49.999999999999645,365" stroke="none"/></svg>